<?xml version="1.0" encoding="utf-8" standalone="no"?>
<!DOCTYPE svg PUBLIC "-//W3C//DTD SVG 1.1//EN"
  "http://www.w3.org/Graphics/SVG/1.1/DTD/svg11.dtd">
<svg xmlns:xlink="http://www.w3.org/1999/xlink" width="959.615308pt" height="384.489687pt" viewBox="0 0 959.615308 384.489687" xmlns="http://www.w3.org/2000/svg" version="1.1">
 <metadata>
  <rdf:RDF xmlns:dc="http://purl.org/dc/elements/1.1/" xmlns:cc="http://creativecommons.org/ns#" xmlns:rdf="http://www.w3.org/1999/02/22-rdf-syntax-ns#">
   <cc:Work>
    <dc:type rdf:resource="http://purl.org/dc/dcmitype/StillImage"/>
    <dc:date>2025-04-21T12:01:07.246190</dc:date>
    <dc:format>image/svg+xml</dc:format>
    <dc:creator>
     <cc:Agent>
      <dc:title>Matplotlib v3.6.3, https://matplotlib.org/</dc:title>
     </cc:Agent>
    </dc:creator>
   </cc:Work>
  </rdf:RDF>
 </metadata>
 <defs>
  <style type="text/css">*{stroke-linejoin: round; stroke-linecap: butt}</style>
 </defs>
 <g id="figure_1">
  <g id="patch_1">
   <path d="M 0 384.489687 
L 959.615308 384.489687 
L 959.615308 0 
L 0 0 
z
" style="fill: #ffffff"/>
  </g>
  <g id="axes_1">
   <g id="patch_2">
    <path d="M 48.90125 344.997812 
L 459.138172 344.997812 
L 459.138172 23.837812 
L 48.90125 23.837812 
z
" style="fill: #ffffff"/>
   </g>
   <g id="PolyCollection_1"/>
   <g id="matplotlib.axis_1">
    <g id="xtick_1">
     <g id="line2d_1">
      <path d="M 66.455901 344.997812 
L 66.455901 23.837812 
" clip-path="url(#p36c439bf07)" style="fill: none; stroke-dasharray: 2.96,1.28; stroke-dashoffset: 0; stroke: #b0b0b0; stroke-opacity: 0.3; stroke-width: 0.8"/>
     </g>
     <g id="line2d_2">
      <defs>
       <path id="m927cb15849" d="M 0 0 
L 0 3.5 
" style="stroke: #000000; stroke-width: 0.8"/>
      </defs>
      <g>
       <use xlink:href="#m927cb15849" x="66.455901" y="344.997812" style="stroke: #000000; stroke-width: 0.8"/>
      </g>
     </g>
     <g id="text_1">
      <!-- 0 -->
      <g transform="translate(63.274651 359.59625) scale(0.1 -0.1)">
       <defs>
        <path id="DejaVuSans-30" d="M 2034 4250 
Q 1547 4250 1301 3770 
Q 1056 3291 1056 2328 
Q 1056 1369 1301 889 
Q 1547 409 2034 409 
Q 2525 409 2770 889 
Q 3016 1369 3016 2328 
Q 3016 3291 2770 3770 
Q 2525 4250 2034 4250 
z
M 2034 4750 
Q 2819 4750 3233 4129 
Q 3647 3509 3647 2328 
Q 3647 1150 3233 529 
Q 2819 -91 2034 -91 
Q 1250 -91 836 529 
Q 422 1150 422 2328 
Q 422 3509 836 4129 
Q 1250 4750 2034 4750 
z
" transform="scale(0.015625)"/>
       </defs>
       <use xlink:href="#DejaVuSans-30"/>
      </g>
     </g>
    </g>
    <g id="xtick_2">
     <g id="line2d_3">
      <path d="M 129.972261 344.997812 
L 129.972261 23.837812 
" clip-path="url(#p36c439bf07)" style="fill: none; stroke-dasharray: 2.96,1.28; stroke-dashoffset: 0; stroke: #b0b0b0; stroke-opacity: 0.3; stroke-width: 0.8"/>
     </g>
     <g id="line2d_4">
      <g>
       <use xlink:href="#m927cb15849" x="129.972261" y="344.997812" style="stroke: #000000; stroke-width: 0.8"/>
      </g>
     </g>
     <g id="text_2">
      <!-- 10000 -->
      <g transform="translate(114.066011 359.59625) scale(0.1 -0.1)">
       <defs>
        <path id="DejaVuSans-31" d="M 794 531 
L 1825 531 
L 1825 4091 
L 703 3866 
L 703 4441 
L 1819 4666 
L 2450 4666 
L 2450 531 
L 3481 531 
L 3481 0 
L 794 0 
L 794 531 
z
" transform="scale(0.015625)"/>
       </defs>
       <use xlink:href="#DejaVuSans-31"/>
       <use xlink:href="#DejaVuSans-30" x="63.623047"/>
       <use xlink:href="#DejaVuSans-30" x="127.246094"/>
       <use xlink:href="#DejaVuSans-30" x="190.869141"/>
       <use xlink:href="#DejaVuSans-30" x="254.492188"/>
      </g>
     </g>
    </g>
    <g id="xtick_3">
     <g id="line2d_5">
      <path d="M 193.48862 344.997812 
L 193.48862 23.837812 
" clip-path="url(#p36c439bf07)" style="fill: none; stroke-dasharray: 2.96,1.28; stroke-dashoffset: 0; stroke: #b0b0b0; stroke-opacity: 0.3; stroke-width: 0.8"/>
     </g>
     <g id="line2d_6">
      <g>
       <use xlink:href="#m927cb15849" x="193.48862" y="344.997812" style="stroke: #000000; stroke-width: 0.8"/>
      </g>
     </g>
     <g id="text_3">
      <!-- 20000 -->
      <g transform="translate(177.58237 359.59625) scale(0.1 -0.1)">
       <defs>
        <path id="DejaVuSans-32" d="M 1228 531 
L 3431 531 
L 3431 0 
L 469 0 
L 469 531 
Q 828 903 1448 1529 
Q 2069 2156 2228 2338 
Q 2531 2678 2651 2914 
Q 2772 3150 2772 3378 
Q 2772 3750 2511 3984 
Q 2250 4219 1831 4219 
Q 1534 4219 1204 4116 
Q 875 4013 500 3803 
L 500 4441 
Q 881 4594 1212 4672 
Q 1544 4750 1819 4750 
Q 2544 4750 2975 4387 
Q 3406 4025 3406 3419 
Q 3406 3131 3298 2873 
Q 3191 2616 2906 2266 
Q 2828 2175 2409 1742 
Q 1991 1309 1228 531 
z
" transform="scale(0.015625)"/>
       </defs>
       <use xlink:href="#DejaVuSans-32"/>
       <use xlink:href="#DejaVuSans-30" x="63.623047"/>
       <use xlink:href="#DejaVuSans-30" x="127.246094"/>
       <use xlink:href="#DejaVuSans-30" x="190.869141"/>
       <use xlink:href="#DejaVuSans-30" x="254.492188"/>
      </g>
     </g>
    </g>
    <g id="xtick_4">
     <g id="line2d_7">
      <path d="M 257.00498 344.997812 
L 257.00498 23.837812 
" clip-path="url(#p36c439bf07)" style="fill: none; stroke-dasharray: 2.96,1.28; stroke-dashoffset: 0; stroke: #b0b0b0; stroke-opacity: 0.3; stroke-width: 0.8"/>
     </g>
     <g id="line2d_8">
      <g>
       <use xlink:href="#m927cb15849" x="257.00498" y="344.997812" style="stroke: #000000; stroke-width: 0.8"/>
      </g>
     </g>
     <g id="text_4">
      <!-- 30000 -->
      <g transform="translate(241.09873 359.59625) scale(0.1 -0.1)">
       <defs>
        <path id="DejaVuSans-33" d="M 2597 2516 
Q 3050 2419 3304 2112 
Q 3559 1806 3559 1356 
Q 3559 666 3084 287 
Q 2609 -91 1734 -91 
Q 1441 -91 1130 -33 
Q 819 25 488 141 
L 488 750 
Q 750 597 1062 519 
Q 1375 441 1716 441 
Q 2309 441 2620 675 
Q 2931 909 2931 1356 
Q 2931 1769 2642 2001 
Q 2353 2234 1838 2234 
L 1294 2234 
L 1294 2753 
L 1863 2753 
Q 2328 2753 2575 2939 
Q 2822 3125 2822 3475 
Q 2822 3834 2567 4026 
Q 2313 4219 1838 4219 
Q 1578 4219 1281 4162 
Q 984 4106 628 3988 
L 628 4550 
Q 988 4650 1302 4700 
Q 1616 4750 1894 4750 
Q 2613 4750 3031 4423 
Q 3450 4097 3450 3541 
Q 3450 3153 3228 2886 
Q 3006 2619 2597 2516 
z
" transform="scale(0.015625)"/>
       </defs>
       <use xlink:href="#DejaVuSans-33"/>
       <use xlink:href="#DejaVuSans-30" x="63.623047"/>
       <use xlink:href="#DejaVuSans-30" x="127.246094"/>
       <use xlink:href="#DejaVuSans-30" x="190.869141"/>
       <use xlink:href="#DejaVuSans-30" x="254.492188"/>
      </g>
     </g>
    </g>
    <g id="xtick_5">
     <g id="line2d_9">
      <path d="M 320.521339 344.997812 
L 320.521339 23.837812 
" clip-path="url(#p36c439bf07)" style="fill: none; stroke-dasharray: 2.96,1.28; stroke-dashoffset: 0; stroke: #b0b0b0; stroke-opacity: 0.3; stroke-width: 0.8"/>
     </g>
     <g id="line2d_10">
      <g>
       <use xlink:href="#m927cb15849" x="320.521339" y="344.997812" style="stroke: #000000; stroke-width: 0.8"/>
      </g>
     </g>
     <g id="text_5">
      <!-- 40000 -->
      <g transform="translate(304.615089 359.59625) scale(0.1 -0.1)">
       <defs>
        <path id="DejaVuSans-34" d="M 2419 4116 
L 825 1625 
L 2419 1625 
L 2419 4116 
z
M 2253 4666 
L 3047 4666 
L 3047 1625 
L 3713 1625 
L 3713 1100 
L 3047 1100 
L 3047 0 
L 2419 0 
L 2419 1100 
L 313 1100 
L 313 1709 
L 2253 4666 
z
" transform="scale(0.015625)"/>
       </defs>
       <use xlink:href="#DejaVuSans-34"/>
       <use xlink:href="#DejaVuSans-30" x="63.623047"/>
       <use xlink:href="#DejaVuSans-30" x="127.246094"/>
       <use xlink:href="#DejaVuSans-30" x="190.869141"/>
       <use xlink:href="#DejaVuSans-30" x="254.492188"/>
      </g>
     </g>
    </g>
    <g id="xtick_6">
     <g id="line2d_11">
      <path d="M 384.037699 344.997812 
L 384.037699 23.837812 
" clip-path="url(#p36c439bf07)" style="fill: none; stroke-dasharray: 2.96,1.28; stroke-dashoffset: 0; stroke: #b0b0b0; stroke-opacity: 0.3; stroke-width: 0.8"/>
     </g>
     <g id="line2d_12">
      <g>
       <use xlink:href="#m927cb15849" x="384.037699" y="344.997812" style="stroke: #000000; stroke-width: 0.8"/>
      </g>
     </g>
     <g id="text_6">
      <!-- 50000 -->
      <g transform="translate(368.131449 359.59625) scale(0.1 -0.1)">
       <defs>
        <path id="DejaVuSans-35" d="M 691 4666 
L 3169 4666 
L 3169 4134 
L 1269 4134 
L 1269 2991 
Q 1406 3038 1543 3061 
Q 1681 3084 1819 3084 
Q 2600 3084 3056 2656 
Q 3513 2228 3513 1497 
Q 3513 744 3044 326 
Q 2575 -91 1722 -91 
Q 1428 -91 1123 -41 
Q 819 9 494 109 
L 494 744 
Q 775 591 1075 516 
Q 1375 441 1709 441 
Q 2250 441 2565 725 
Q 2881 1009 2881 1497 
Q 2881 1984 2565 2268 
Q 2250 2553 1709 2553 
Q 1456 2553 1204 2497 
Q 953 2441 691 2322 
L 691 4666 
z
" transform="scale(0.015625)"/>
       </defs>
       <use xlink:href="#DejaVuSans-35"/>
       <use xlink:href="#DejaVuSans-30" x="63.623047"/>
       <use xlink:href="#DejaVuSans-30" x="127.246094"/>
       <use xlink:href="#DejaVuSans-30" x="190.869141"/>
       <use xlink:href="#DejaVuSans-30" x="254.492188"/>
      </g>
     </g>
    </g>
    <g id="xtick_7">
     <g id="line2d_13">
      <path d="M 447.554058 344.997812 
L 447.554058 23.837812 
" clip-path="url(#p36c439bf07)" style="fill: none; stroke-dasharray: 2.96,1.28; stroke-dashoffset: 0; stroke: #b0b0b0; stroke-opacity: 0.3; stroke-width: 0.8"/>
     </g>
     <g id="line2d_14">
      <g>
       <use xlink:href="#m927cb15849" x="447.554058" y="344.997812" style="stroke: #000000; stroke-width: 0.8"/>
      </g>
     </g>
     <g id="text_7">
      <!-- 60000 -->
      <g transform="translate(431.647808 359.59625) scale(0.1 -0.1)">
       <defs>
        <path id="DejaVuSans-36" d="M 2113 2584 
Q 1688 2584 1439 2293 
Q 1191 2003 1191 1497 
Q 1191 994 1439 701 
Q 1688 409 2113 409 
Q 2538 409 2786 701 
Q 3034 994 3034 1497 
Q 3034 2003 2786 2293 
Q 2538 2584 2113 2584 
z
M 3366 4563 
L 3366 3988 
Q 3128 4100 2886 4159 
Q 2644 4219 2406 4219 
Q 1781 4219 1451 3797 
Q 1122 3375 1075 2522 
Q 1259 2794 1537 2939 
Q 1816 3084 2150 3084 
Q 2853 3084 3261 2657 
Q 3669 2231 3669 1497 
Q 3669 778 3244 343 
Q 2819 -91 2113 -91 
Q 1303 -91 875 529 
Q 447 1150 447 2328 
Q 447 3434 972 4092 
Q 1497 4750 2381 4750 
Q 2619 4750 2861 4703 
Q 3103 4656 3366 4563 
z
" transform="scale(0.015625)"/>
       </defs>
       <use xlink:href="#DejaVuSans-36"/>
       <use xlink:href="#DejaVuSans-30" x="63.623047"/>
       <use xlink:href="#DejaVuSans-30" x="127.246094"/>
       <use xlink:href="#DejaVuSans-30" x="190.869141"/>
       <use xlink:href="#DejaVuSans-30" x="254.492188"/>
      </g>
     </g>
    </g>
    <g id="text_8">
     <!-- Iteration -->
     <g transform="translate(228.569398 374.794062) scale(0.12 -0.12)">
      <defs>
       <path id="DejaVuSans-49" d="M 628 4666 
L 1259 4666 
L 1259 0 
L 628 0 
L 628 4666 
z
" transform="scale(0.015625)"/>
       <path id="DejaVuSans-74" d="M 1172 4494 
L 1172 3500 
L 2356 3500 
L 2356 3053 
L 1172 3053 
L 1172 1153 
Q 1172 725 1289 603 
Q 1406 481 1766 481 
L 2356 481 
L 2356 0 
L 1766 0 
Q 1100 0 847 248 
Q 594 497 594 1153 
L 594 3053 
L 172 3053 
L 172 3500 
L 594 3500 
L 594 4494 
L 1172 4494 
z
" transform="scale(0.015625)"/>
       <path id="DejaVuSans-65" d="M 3597 1894 
L 3597 1613 
L 953 1613 
Q 991 1019 1311 708 
Q 1631 397 2203 397 
Q 2534 397 2845 478 
Q 3156 559 3463 722 
L 3463 178 
Q 3153 47 2828 -22 
Q 2503 -91 2169 -91 
Q 1331 -91 842 396 
Q 353 884 353 1716 
Q 353 2575 817 3079 
Q 1281 3584 2069 3584 
Q 2775 3584 3186 3129 
Q 3597 2675 3597 1894 
z
M 3022 2063 
Q 3016 2534 2758 2815 
Q 2500 3097 2075 3097 
Q 1594 3097 1305 2825 
Q 1016 2553 972 2059 
L 3022 2063 
z
" transform="scale(0.015625)"/>
       <path id="DejaVuSans-72" d="M 2631 2963 
Q 2534 3019 2420 3045 
Q 2306 3072 2169 3072 
Q 1681 3072 1420 2755 
Q 1159 2438 1159 1844 
L 1159 0 
L 581 0 
L 581 3500 
L 1159 3500 
L 1159 2956 
Q 1341 3275 1631 3429 
Q 1922 3584 2338 3584 
Q 2397 3584 2469 3576 
Q 2541 3569 2628 3553 
L 2631 2963 
z
" transform="scale(0.015625)"/>
       <path id="DejaVuSans-61" d="M 2194 1759 
Q 1497 1759 1228 1600 
Q 959 1441 959 1056 
Q 959 750 1161 570 
Q 1363 391 1709 391 
Q 2188 391 2477 730 
Q 2766 1069 2766 1631 
L 2766 1759 
L 2194 1759 
z
M 3341 1997 
L 3341 0 
L 2766 0 
L 2766 531 
Q 2569 213 2275 61 
Q 1981 -91 1556 -91 
Q 1019 -91 701 211 
Q 384 513 384 1019 
Q 384 1609 779 1909 
Q 1175 2209 1959 2209 
L 2766 2209 
L 2766 2266 
Q 2766 2663 2505 2880 
Q 2244 3097 1772 3097 
Q 1472 3097 1187 3025 
Q 903 2953 641 2809 
L 641 3341 
Q 956 3463 1253 3523 
Q 1550 3584 1831 3584 
Q 2591 3584 2966 3190 
Q 3341 2797 3341 1997 
z
" transform="scale(0.015625)"/>
       <path id="DejaVuSans-69" d="M 603 3500 
L 1178 3500 
L 1178 0 
L 603 0 
L 603 3500 
z
M 603 4863 
L 1178 4863 
L 1178 4134 
L 603 4134 
L 603 4863 
z
" transform="scale(0.015625)"/>
       <path id="DejaVuSans-6f" d="M 1959 3097 
Q 1497 3097 1228 2736 
Q 959 2375 959 1747 
Q 959 1119 1226 758 
Q 1494 397 1959 397 
Q 2419 397 2687 759 
Q 2956 1122 2956 1747 
Q 2956 2369 2687 2733 
Q 2419 3097 1959 3097 
z
M 1959 3584 
Q 2709 3584 3137 3096 
Q 3566 2609 3566 1747 
Q 3566 888 3137 398 
Q 2709 -91 1959 -91 
Q 1206 -91 779 398 
Q 353 888 353 1747 
Q 353 2609 779 3096 
Q 1206 3584 1959 3584 
z
" transform="scale(0.015625)"/>
       <path id="DejaVuSans-6e" d="M 3513 2113 
L 3513 0 
L 2938 0 
L 2938 2094 
Q 2938 2591 2744 2837 
Q 2550 3084 2163 3084 
Q 1697 3084 1428 2787 
Q 1159 2491 1159 1978 
L 1159 0 
L 581 0 
L 581 3500 
L 1159 3500 
L 1159 2956 
Q 1366 3272 1645 3428 
Q 1925 3584 2291 3584 
Q 2894 3584 3203 3211 
Q 3513 2838 3513 2113 
z
" transform="scale(0.015625)"/>
      </defs>
      <use xlink:href="#DejaVuSans-49"/>
      <use xlink:href="#DejaVuSans-74" x="29.492188"/>
      <use xlink:href="#DejaVuSans-65" x="68.701172"/>
      <use xlink:href="#DejaVuSans-72" x="130.224609"/>
      <use xlink:href="#DejaVuSans-61" x="171.337891"/>
      <use xlink:href="#DejaVuSans-74" x="232.617188"/>
      <use xlink:href="#DejaVuSans-69" x="271.826172"/>
      <use xlink:href="#DejaVuSans-6f" x="299.609375"/>
      <use xlink:href="#DejaVuSans-6e" x="360.791016"/>
     </g>
    </g>
   </g>
   <g id="matplotlib.axis_2">
    <g id="ytick_1">
     <g id="line2d_15">
      <path d="M 48.90125 331.565722 
L 459.138172 331.565722 
" clip-path="url(#p36c439bf07)" style="fill: none; stroke-dasharray: 2.96,1.28; stroke-dashoffset: 0; stroke: #b0b0b0; stroke-opacity: 0.3; stroke-width: 0.8"/>
     </g>
     <g id="line2d_16">
      <defs>
       <path id="m187bd24c6a" d="M 0 0 
L -3.5 0 
" style="stroke: #000000; stroke-width: 0.8"/>
      </defs>
      <g>
       <use xlink:href="#m187bd24c6a" x="48.90125" y="331.565722" style="stroke: #000000; stroke-width: 0.8"/>
      </g>
     </g>
     <g id="text_9">
      <!-- 40 -->
      <g transform="translate(29.17625 335.364941) scale(0.1 -0.1)">
       <use xlink:href="#DejaVuSans-34"/>
       <use xlink:href="#DejaVuSans-30" x="63.623047"/>
      </g>
     </g>
    </g>
    <g id="ytick_2">
     <g id="line2d_17">
      <path d="M 48.90125 287.562159 
L 459.138172 287.562159 
" clip-path="url(#p36c439bf07)" style="fill: none; stroke-dasharray: 2.96,1.28; stroke-dashoffset: 0; stroke: #b0b0b0; stroke-opacity: 0.3; stroke-width: 0.8"/>
     </g>
     <g id="line2d_18">
      <g>
       <use xlink:href="#m187bd24c6a" x="48.90125" y="287.562159" style="stroke: #000000; stroke-width: 0.8"/>
      </g>
     </g>
     <g id="text_10">
      <!-- 60 -->
      <g transform="translate(29.17625 291.361378) scale(0.1 -0.1)">
       <use xlink:href="#DejaVuSans-36"/>
       <use xlink:href="#DejaVuSans-30" x="63.623047"/>
      </g>
     </g>
    </g>
    <g id="ytick_3">
     <g id="line2d_19">
      <path d="M 48.90125 243.558596 
L 459.138172 243.558596 
" clip-path="url(#p36c439bf07)" style="fill: none; stroke-dasharray: 2.96,1.28; stroke-dashoffset: 0; stroke: #b0b0b0; stroke-opacity: 0.3; stroke-width: 0.8"/>
     </g>
     <g id="line2d_20">
      <g>
       <use xlink:href="#m187bd24c6a" x="48.90125" y="243.558596" style="stroke: #000000; stroke-width: 0.8"/>
      </g>
     </g>
     <g id="text_11">
      <!-- 80 -->
      <g transform="translate(29.17625 247.357814) scale(0.1 -0.1)">
       <defs>
        <path id="DejaVuSans-38" d="M 2034 2216 
Q 1584 2216 1326 1975 
Q 1069 1734 1069 1313 
Q 1069 891 1326 650 
Q 1584 409 2034 409 
Q 2484 409 2743 651 
Q 3003 894 3003 1313 
Q 3003 1734 2745 1975 
Q 2488 2216 2034 2216 
z
M 1403 2484 
Q 997 2584 770 2862 
Q 544 3141 544 3541 
Q 544 4100 942 4425 
Q 1341 4750 2034 4750 
Q 2731 4750 3128 4425 
Q 3525 4100 3525 3541 
Q 3525 3141 3298 2862 
Q 3072 2584 2669 2484 
Q 3125 2378 3379 2068 
Q 3634 1759 3634 1313 
Q 3634 634 3220 271 
Q 2806 -91 2034 -91 
Q 1263 -91 848 271 
Q 434 634 434 1313 
Q 434 1759 690 2068 
Q 947 2378 1403 2484 
z
M 1172 3481 
Q 1172 3119 1398 2916 
Q 1625 2713 2034 2713 
Q 2441 2713 2670 2916 
Q 2900 3119 2900 3481 
Q 2900 3844 2670 4047 
Q 2441 4250 2034 4250 
Q 1625 4250 1398 4047 
Q 1172 3844 1172 3481 
z
" transform="scale(0.015625)"/>
       </defs>
       <use xlink:href="#DejaVuSans-38"/>
       <use xlink:href="#DejaVuSans-30" x="63.623047"/>
      </g>
     </g>
    </g>
    <g id="ytick_4">
     <g id="line2d_21">
      <path d="M 48.90125 199.555032 
L 459.138172 199.555032 
" clip-path="url(#p36c439bf07)" style="fill: none; stroke-dasharray: 2.96,1.28; stroke-dashoffset: 0; stroke: #b0b0b0; stroke-opacity: 0.3; stroke-width: 0.8"/>
     </g>
     <g id="line2d_22">
      <g>
       <use xlink:href="#m187bd24c6a" x="48.90125" y="199.555032" style="stroke: #000000; stroke-width: 0.8"/>
      </g>
     </g>
     <g id="text_12">
      <!-- 100 -->
      <g transform="translate(22.81375 203.354251) scale(0.1 -0.1)">
       <use xlink:href="#DejaVuSans-31"/>
       <use xlink:href="#DejaVuSans-30" x="63.623047"/>
       <use xlink:href="#DejaVuSans-30" x="127.246094"/>
      </g>
     </g>
    </g>
    <g id="ytick_5">
     <g id="line2d_23">
      <path d="M 48.90125 155.551469 
L 459.138172 155.551469 
" clip-path="url(#p36c439bf07)" style="fill: none; stroke-dasharray: 2.96,1.28; stroke-dashoffset: 0; stroke: #b0b0b0; stroke-opacity: 0.3; stroke-width: 0.8"/>
     </g>
     <g id="line2d_24">
      <g>
       <use xlink:href="#m187bd24c6a" x="48.90125" y="155.551469" style="stroke: #000000; stroke-width: 0.8"/>
      </g>
     </g>
     <g id="text_13">
      <!-- 120 -->
      <g transform="translate(22.81375 159.350688) scale(0.1 -0.1)">
       <use xlink:href="#DejaVuSans-31"/>
       <use xlink:href="#DejaVuSans-32" x="63.623047"/>
       <use xlink:href="#DejaVuSans-30" x="127.246094"/>
      </g>
     </g>
    </g>
    <g id="ytick_6">
     <g id="line2d_25">
      <path d="M 48.90125 111.547905 
L 459.138172 111.547905 
" clip-path="url(#p36c439bf07)" style="fill: none; stroke-dasharray: 2.96,1.28; stroke-dashoffset: 0; stroke: #b0b0b0; stroke-opacity: 0.3; stroke-width: 0.8"/>
     </g>
     <g id="line2d_26">
      <g>
       <use xlink:href="#m187bd24c6a" x="48.90125" y="111.547905" style="stroke: #000000; stroke-width: 0.8"/>
      </g>
     </g>
     <g id="text_14">
      <!-- 140 -->
      <g transform="translate(22.81375 115.347124) scale(0.1 -0.1)">
       <use xlink:href="#DejaVuSans-31"/>
       <use xlink:href="#DejaVuSans-34" x="63.623047"/>
       <use xlink:href="#DejaVuSans-30" x="127.246094"/>
      </g>
     </g>
    </g>
    <g id="ytick_7">
     <g id="line2d_27">
      <path d="M 48.90125 67.544342 
L 459.138172 67.544342 
" clip-path="url(#p36c439bf07)" style="fill: none; stroke-dasharray: 2.96,1.28; stroke-dashoffset: 0; stroke: #b0b0b0; stroke-opacity: 0.3; stroke-width: 0.8"/>
     </g>
     <g id="line2d_28">
      <g>
       <use xlink:href="#m187bd24c6a" x="48.90125" y="67.544342" style="stroke: #000000; stroke-width: 0.8"/>
      </g>
     </g>
     <g id="text_15">
      <!-- 160 -->
      <g transform="translate(22.81375 71.343561) scale(0.1 -0.1)">
       <use xlink:href="#DejaVuSans-31"/>
       <use xlink:href="#DejaVuSans-36" x="63.623047"/>
       <use xlink:href="#DejaVuSans-30" x="127.246094"/>
      </g>
     </g>
    </g>
    <g id="text_16">
     <!-- Length -->
     <g transform="translate(16.318125 205.114062) rotate(-90) scale(0.12 -0.12)">
      <defs>
       <path id="DejaVuSans-4c" d="M 628 4666 
L 1259 4666 
L 1259 531 
L 3531 531 
L 3531 0 
L 628 0 
L 628 4666 
z
" transform="scale(0.015625)"/>
       <path id="DejaVuSans-67" d="M 2906 1791 
Q 2906 2416 2648 2759 
Q 2391 3103 1925 3103 
Q 1463 3103 1205 2759 
Q 947 2416 947 1791 
Q 947 1169 1205 825 
Q 1463 481 1925 481 
Q 2391 481 2648 825 
Q 2906 1169 2906 1791 
z
M 3481 434 
Q 3481 -459 3084 -895 
Q 2688 -1331 1869 -1331 
Q 1566 -1331 1297 -1286 
Q 1028 -1241 775 -1147 
L 775 -588 
Q 1028 -725 1275 -790 
Q 1522 -856 1778 -856 
Q 2344 -856 2625 -561 
Q 2906 -266 2906 331 
L 2906 616 
Q 2728 306 2450 153 
Q 2172 0 1784 0 
Q 1141 0 747 490 
Q 353 981 353 1791 
Q 353 2603 747 3093 
Q 1141 3584 1784 3584 
Q 2172 3584 2450 3431 
Q 2728 3278 2906 2969 
L 2906 3500 
L 3481 3500 
L 3481 434 
z
" transform="scale(0.015625)"/>
       <path id="DejaVuSans-68" d="M 3513 2113 
L 3513 0 
L 2938 0 
L 2938 2094 
Q 2938 2591 2744 2837 
Q 2550 3084 2163 3084 
Q 1697 3084 1428 2787 
Q 1159 2491 1159 1978 
L 1159 0 
L 581 0 
L 581 4863 
L 1159 4863 
L 1159 2956 
Q 1366 3272 1645 3428 
Q 1925 3584 2291 3584 
Q 2894 3584 3203 3211 
Q 3513 2838 3513 2113 
z
" transform="scale(0.015625)"/>
      </defs>
      <use xlink:href="#DejaVuSans-4c"/>
      <use xlink:href="#DejaVuSans-65" x="53.962891"/>
      <use xlink:href="#DejaVuSans-6e" x="115.486328"/>
      <use xlink:href="#DejaVuSans-67" x="178.865234"/>
      <use xlink:href="#DejaVuSans-74" x="242.341797"/>
      <use xlink:href="#DejaVuSans-68" x="281.550781"/>
     </g>
    </g>
   </g>
   <g id="line2d_29">
    <path d="M 67.548383 330.399631 
L 68.005701 322.875017 
L 68.100975 326.351303 
L 69.009259 309.563941 
L 69.409412 315.746444 
L 69.695236 307.099744 
L 69.987411 323.711087 
L 70.241476 309.387922 
L 70.635278 312.204156 
L 71.308551 299.311111 
L 71.562617 309.541943 
L 71.956418 305.185582 
L 72.902812 293.282619 
L 73.042548 310.686028 
L 73.601492 308.397849 
L 73.849206 300.58721 
L 73.976238 310.708034 
L 74.528831 291.522478 
L 75.45617 306.96773 
L 75.716587 293.898675 
L 75.945246 300.807233 
L 76.046872 296.428874 
L 76.065927 303.689469 
L 76.288234 294.822745 
L 76.396212 300.477203 
L 77.063133 307.143748 
L 78.778075 290.554403 
L 78.905108 299.245108 
L 81.928487 299.003087 
L 81.960245 298.761066 
L 82.093629 293.568644 
L 82.354046 297.440963 
L 82.824067 299.179097 
L 83.560857 284.789938 
L 83.656132 297.088935 
L 83.713296 282.171721 
L 84.03723 296.626891 
L 84.145208 289.65233 
L 85.339315 291.808504 
L 86.037995 297.022923 
L 86.171379 282.853779 
L 86.177731 286.286052 
L 86.431796 274.867138 
L 86.889114 274.823125 
L 87.041554 272.380926 
L 87.193993 294.69074 
L 87.771992 276.319247 
L 88.686627 280.323571 
L 88.85177 272.35892 
L 89.105835 275.857212 
L 89.321791 291.192456 
L 89.423417 280.037554 
L 89.664779 282.655763 
L 89.753702 270.400763 
L 89.772757 281.115636 
L 90.033174 268.728639 
L 90.477789 257.089695 
L 91.322556 288.398229 
L 92.008533 241.468433 
L 92.554774 275.7032 
L 92.630993 263.668223 
L 93.081959 282.083712 
L 93.304267 280.345577 
L 93.882265 282.303735 
L 93.945782 267.430525 
L 95.285977 245.274732 
L 95.444768 268.904641 
L 95.984657 247.958952 
L 96.245074 275.02115 
L 97.147006 240.698357 
L 97.172413 280.939626 
L 97.464588 260.125935 
L 98.785728 248.354985 
L 99.052497 257.947763 
L 99.077904 264.922324 
L 99.401837 263.822235 
L 99.484408 284.657925 
L 99.87821 215.814348 
L 100.087814 279.245488 
L 100.513373 262.414122 
L 100.77379 261.116025 
L 101.097724 279.333489 
L 102.450622 267.452532 
L 103.498642 270.840808 
L 103.714598 261.490051 
L 103.797169 263.338193 
L 104.286245 270.356766 
L 104.445036 251.391225 
L 104.546662 263.404195 
L 104.902354 249.367065 
L 105.270749 252.1613 
L 105.442243 276.143229 
L 105.467649 265.912414 
L 105.994835 263.668223 
L 106.67446 262.304106 
L 106.687163 244.10864 
L 106.839603 268.068579 
L 106.845954 260.851997 
L 106.909471 255.989606 
L 108.065468 255.813587 
L 108.179798 244.482666 
L 108.281424 250.357138 
L 108.313182 259.839917 
L 108.370347 230.379533 
L 109.202411 259.113855 
L 109.329444 271.896884 
L 109.659729 282.611758 
L 109.964608 260.918 
L 110.402871 243.536589 
L 110.860188 236.320007 
L 110.891946 249.389071 
L 111.260341 271.148832 
L 112.232142 269.850718 
L 112.524317 247.166887 
L 113.686666 268.948654 
L 113.889919 227.475299 
L 114.366291 283.513831 
L 114.753741 221.446798 
L 115.007807 270.66479 
L 115.534992 239.532266 
L 115.554047 231.721643 
L 115.71919 266.418445 
L 115.960552 269.916738 
L 116.132046 246.748847 
L 116.348002 236.276011 
L 117.180066 246.066797 
L 118.043889 251.325222 
L 119.117315 239.40026 
L 120.787795 263.294197 
L 121.1943 247.914956 
L 121.454717 262.238104 
L 121.677024 258.541804 
L 121.867573 270.00473 
L 122.197858 222.238864 
L 122.210562 262.062102 
L 122.496385 257.815758 
L 122.794912 262.326113 
L 122.839374 239.796293 
L 123.98902 238.916218 
L 124.389173 242.656515 
L 124.586074 227.98133 
L 125.221237 245.538759 
L 125.468951 271.104819 
L 125.69761 244.196649 
L 125.900862 248.905029 
L 127.037805 252.359308 
L 127.09497 257.287703 
L 127.882573 248.508997 
L 128.403407 260.56598 
L 128.409758 229.279444 
L 128.936944 249.939116 
L 129.127493 267.496528 
L 129.298987 243.272579 
L 129.641976 283.117798 
L 129.648327 280.565592 
L 129.800767 252.117287 
L 129.838876 289.344306 
L 129.927799 252.293306 
L 130.372414 264.372279 
L 130.543908 274.493095 
L 130.740809 261.512058 
L 130.848787 261.688059 
L 131.185423 270.972814 
L 131.337863 221.182788 
L 132.14452 248.046961 
L 132.163575 272.490942 
L 132.481157 236.05598 
L 132.798739 242.238492 
L 133.15443 235.087913 
L 133.262408 227.893321 
L 133.535529 256.627659 
L 134.056363 250.973202 
L 134.069066 237.662117 
L 134.462867 239.488269 
L 134.570845 263.60222 
L 136.469984 236.892058 
L 136.666885 260.56598 
L 137.07339 232.33769 
L 137.1115 246.638848 
L 137.670444 220.764748 
L 137.708553 236.914065 
L 138.426288 265.076335 
L 138.826441 239.884302 
L 138.921716 204.153397 
L 139.137672 246.088804 
L 141.316283 248.024955 
L 141.525887 221.094779 
L 141.703732 248.597006 
L 141.830765 242.964555 
L 142.847027 237.552102 
L 143.158257 242.612518 
L 143.787069 232.095669 
L 143.812476 262.876157 
L 144.168167 221.292787 
L 144.924012 262.612147 
L 145.203484 240.06032 
L 145.216187 228.597377 
L 145.451198 248.024955 
L 145.698911 225.407126 
L 146.194339 255.395548 
L 146.492866 254.009442 
L 147.172491 233.041747 
L 148.398357 244.680691 
L 148.423763 270.488772 
L 148.671477 250.445147 
L 148.849323 261.57806 
L 148.874729 246.770854 
L 150.958066 262.832161 
L 151.491603 246.726858 
L 151.682152 233.569785 
L 151.917163 272.424939 
L 152.342723 242.612518 
L 152.520568 254.405475 
L 152.984238 254.625489 
L 153.104919 257.419725 
L 153.136677 265.846394 
L 154.121181 250.093127 
L 154.419708 275.197152 
L 155.194607 240.984391 
L 155.251772 260.103928 
L 155.416914 272.116916 
L 155.67098 247.496917 
L 156.503044 257.353705 
L 156.687242 244.130647 
L 157.017527 272.468935 
L 157.061988 237.354094 
L 157.627284 228.619384 
L 157.671745 265.318356 
L 158.04014 242.480513 
L 158.77693 248.002948 
L 159.335874 270.906811 
L 159.47561 249.125044 
L 160.110773 230.709563 
L 160.580794 225.055089 
L 160.784047 232.139666 
L 160.866618 274.383097 
L 161.254068 244.856693 
L 161.851122 252.491314 
L 162.143297 243.888626 
L 162.175055 248.002948 
L 162.429121 208.069728 
L 162.518043 240.06032 
L 162.606966 238.38818 
L 162.702241 254.779501 
L 162.905493 246.946872 
L 162.994416 250.775177 
L 163.851887 253.745415 
L 164.086897 217.464481 
L 164.391776 245.142727 
L 164.626787 230.643544 
L 164.842742 229.125432 
L 165.604938 244.746694 
L 165.782784 257.309709 
L 166.557684 246.484837 
L 166.767288 221.622817 
L 166.938782 253.085371 
L 168.285329 247.056871 
L 168.564801 230.929578 
L 168.825218 225.099102 
L 169.257129 236.36402 
L 169.263481 249.565089 
L 169.612821 220.58873 
L 170.070139 229.631464 
L 170.571918 227.167275 
L 170.794225 229.301434 
L 172.725122 193.394527 
L 173.379341 174.076965 
L 173.582593 211.325982 
L 173.671516 167.784454 
L 173.690571 246.396828 
L 173.84301 229.345447 
L 174.097076 187.806089 
L 175.195909 173.042879 
L 175.24037 231.633634 
L 176.104193 196.694794 
L 176.936257 156.871572 
L 177.171268 163.802137 
L 178.009683 199.929059 
L 178.447946 167.542433 
L 178.803638 168.620533 
L 178.860803 109.963775 
L 179.076758 169.5886 
L 180.029504 158.543713 
L 180.817107 186.397959 
L 181.553896 165.408274 
L 181.604709 203.603352 
L 181.630116 132.185587 
L 181.655522 189.610234 
L 183.357761 184.483815 
L 183.757914 122.614799 
L 183.840485 181.33756 
L 183.89765 93.506451 
L 184.100902 143.208468 
L 185.60624 181.711586 
L 185.64435 145.672674 
L 185.739624 169.874633 
L 185.834899 153.373297 
L 186.527227 178.015286 
L 187.829313 139.908201 
L 187.854719 151.965185 
L 188.464476 156.607562 
L 188.902739 139.556181 
L 189.163156 178.015286 
L 189.531551 153.813326 
L 189.715749 170.996712 
L 189.804671 151.129106 
L 190.300099 183.097692 
L 190.319154 178.389312 
L 190.604978 181.843591 
L 191.055944 190.534305 
L 191.290954 160.347858 
L 192.605743 110.0518 
L 192.821698 186.155955 
L 192.993193 137.928054 
L 193.399697 134.143745 
L 193.482269 203.77937 
L 195.463979 86.641872 
L 195.787912 157.751647 
L 196.04833 128.005229 
L 196.169011 134.407755 
L 196.619977 197.090827 
L 197.159866 174.340992 
L 197.178921 123.274859 
L 197.413931 179.599417 
L 197.591777 159.203773 
L 197.706107 132.119585 
L 197.71881 138.918127 
L 198.315864 164.308185 
L 198.830346 118.698485 
L 199.529026 193.35053 
L 199.637004 121.404694 
L 199.840256 204.131407 
L 200.068915 192.272448 
L 200.170541 135.221811 
L 200.659617 174.715019 
L 201.320187 158.851736 
L 201.536143 167.520443 
L 201.815615 170.512687 
L 202.317394 181.249551 
L 203.536908 142.746433 
L 203.606776 160.611885 
L 203.638534 113.352068 
L 203.784622 175.837114 
L 204.133962 162.063994 
L 204.146665 163.604129 
L 204.997785 213.438151 
L 206.744484 155.683474 
L 207.119231 165.8923 
L 207.220857 117.268382 
L 207.646417 177.97129 
L 208.141844 73.990848 
L 208.840524 166.332345 
L 210.650741 118.478453 
L 211.15252 136.013876 
L 212.041749 173.966966 
L 212.994494 116.278275 
L 213.216801 198.586948 
L 214.639568 188.026103 
L 215.128644 161.953995 
L 215.719346 122.790817 
L 216.284642 186.287961 
L 216.297345 177.729269 
L 216.640333 206.001555 
L 216.659388 132.647606 
L 219.339779 173.460918 
L 221.296082 107.961604 
L 221.874081 183.977767 
L 221.899488 45.520571 
L 222.020169 117.268382 
L 222.744255 187.696073 
L 223.366716 105.629421 
L 223.455639 138.280074 
L 223.709704 124.814977 
L 224.154319 76.45507 
L 224.249593 152.603238 
L 224.452845 127.279166 
L 224.497307 145.914695 
L 224.992735 209.653842 
L 225.189635 128.489271 
L 225.583437 194.560635 
L 225.958183 114.1441 
L 226.828357 183.69175 
L 227.774751 121.778721 
L 228.066926 123.978899 
L 229.369012 151.129106 
L 229.712 199.291005 
L 229.775516 148.158869 
L 229.78822 179.159388 
L 230.054988 164.79221 
L 230.417032 195.506712 
L 231.07125 113.022021 
L 231.14747 177.751259 
L 232.214545 176.717189 
L 232.271709 193.76857 
L 232.570236 199.643041 
L 233.522982 133.109658 
L 233.993003 147.674827 
L 234.272475 215.968359 
L 235.091836 175.63909 
L 235.701593 211.17197 
L 236.00012 159.929819 
L 236.381218 137.047962 
L 236.775019 199.75304 
L 236.781371 130.953493 
L 237.759523 152.801246 
L 238.038995 170.732702 
L 238.134269 193.944571 
L 238.610642 122.372778 
L 238.731323 220.632743 
L 238.839301 167.476431 
L 239.906376 173.460918 
L 240.281122 195.154676 
L 240.757495 140.67826 
L 240.77655 151.877175 
L 240.833715 76.543063 
L 241.259274 96.828708 
L 241.3609 162.592032 
L 241.926196 165.914306 
L 242.084987 149.566982 
L 242.980568 196.606802 
L 243.190172 141.66835 
L 243.240985 148.994931 
L 243.628434 193.394527 
L 244.339818 162.086001 
L 244.587531 197.750887 
L 244.949575 154.165363 
L 246.607352 84.331712 
L 247.172647 135.375839 
L 247.22346 182.855688 
L 247.5728 131.59153 
L 248.207964 115.376228 
L 249.344907 150.821082 
L 249.726005 115.904249 
L 249.903851 169.170577 
L 250.475498 181.00753 
L 250.551718 169.940636 
L 251.45365 76.543063 
L 252.298417 210.357915 
L 252.622351 144.088543 
L 253.219405 177.97129 
L 253.390899 112.053937 
L 253.765645 219.686666 
L 254.242018 152.493223 
L 254.591358 181.66759 
L 254.692984 128.137234 
L 254.915291 144.594574 
L 254.953401 126.377118 
L 255.633026 157.729641 
L 255.677488 153.263282 
L 255.785466 130.403449 
L 255.931553 139.930207 
L 256.039531 170.556683 
L 256.204674 148.158869 
L 256.839837 183.405733 
L 256.998628 202.17325 
L 257.430539 117.004338 
L 257.513111 197.618882 
L 258.275307 158.873743 
L 258.630998 180.039446 
L 258.656405 154.45138 
L 258.91047 216.430395 
L 259.120074 129.435365 
L 259.221701 152.273208 
L 261.387608 118.918516 
L 261.47018 155.507473 
L 261.775058 120.238603 
L 262.670639 119.754561 
L 263.096199 200.017068 
L 263.147012 120.084608 
L 263.394725 147.806849 
L 264.906415 150.931098 
L 265.351029 178.65334 
L 265.744831 143.098452 
L 265.960786 157.245599 
L 266.335533 128.687279 
L 267.212059 129.699375 
L 267.351795 123.076851 
L 267.777354 171.216743 
L 267.853574 58.523598 
L 268.253727 150.513059 
L 269.085791 156.849566 
L 269.27634 196.452773 
L 269.409725 171.018719 
L 269.555812 165.078244 
L 269.670142 168.356505 
L 269.797174 122.15278 
L 270.807085 194.318614 
L 271.029392 193.43854 
L 271.321567 111.877919 
L 272.928531 222.480885 
L 273.017454 177.135211 
L 273.322332 168.400501 
L 273.620859 187.322047 
L 274.446572 135.61786 
L 274.859428 183.999773 
L 274.86578 172.382835 
L 274.942 129.347339 
L 274.948351 141.162302 
L 275.437427 149.258958 
L 275.843932 119.424547 
L 276.136107 182.327633 
L 277.23494 85.057775 
L 277.831994 165.584276 
L 278.765684 119.248529 
L 278.860959 162.108007 
L 280.512384 166.376341 
L 280.563197 128.995302 
L 281.160251 135.881871 
L 281.515943 150.051023 
L 281.560404 200.50111 
L 281.687437 151.965185 
L 282.544908 140.964294 
L 282.976819 156.629551 
L 283.091148 183.141705 
L 283.662796 152.515229 
L 284.164575 150.821082 
L 284.196333 84.507731 
L 285.428551 158.895732 
L 285.58099 200.941138 
L 286.368593 142.592421 
L 287.118086 134.187724 
L 287.981908 179.137382 
L 288.324897 118.456464 
L 288.369358 182.94368 
L 288.426523 144.418573 
L 288.439226 115.596225 
L 288.451929 130.403449 
L 288.553555 152.141186 
L 289.055335 115.200209 
L 289.487246 156.915585 
L 289.652388 120.722644 
L 289.861992 153.483296 
L 290.141464 156.45355 
L 291.157726 203.757381 
L 291.710318 171.568763 
L 291.79289 194.36261 
L 292.10412 191.106356 
L 292.440757 126.707132 
L 293.234711 171.502761 
L 293.615809 122.83483 
L 294.155698 112.339971 
L 294.314489 98.016823 
L 294.78451 200.08307 
L 295.165608 140.480252 
L 296.016728 163.626119 
L 296.2962 125.981069 
L 296.778924 152.977264 
L 298.296965 75.288979 
L 298.90037 100.459022 
L 299.001997 204.087394 
L 299.122678 174.671023 
L 299.472018 174.847024 
L 299.522831 194.824646 
L 299.75149 62.197925 
L 300.602609 169.984632 
L 300.755048 59.00764 
L 300.774103 171.040725 
L 300.850323 120.480623 
L 300.939245 111.943921 
L 301.441025 226.089176 
L 301.879288 119.952602 
L 301.968211 185.341883 
L 302.203221 145.650667 
L 302.622429 150.271038 
L 302.762165 101.515098 
L 303.797482 146.332717 
L 304.629546 74.144877 
L 304.813743 161.491943 
L 305.11227 147.784843 
L 305.347281 163.076074 
L 305.57594 149.038944 
L 305.747434 180.699506 
L 306.223807 188.290114 
L 306.566795 189.786236 
L 306.598553 161.16193 
L 307.417914 156.739567 
L 307.697386 165.408274 
L 308.935955 164.704218 
L 310.269799 139.424159 
L 310.27615 166.860383 
L 310.365073 124.682972 
L 310.409535 148.268885 
L 310.911314 106.531502 
L 311.108215 213.372148 
L 311.394038 191.480382 
L 312.931134 226.507215 
L 313.14709 135.397829 
L 313.591704 195.572715 
L 314.328494 87.279943 
L 315.465437 194.03258 
L 315.675041 168.708542 
L 315.681393 103.473256 
L 317.034291 115.046181 
L 317.199434 180.765509 
L 317.669455 149.170949 
L 317.904465 164.79221 
L 317.987036 181.997603 
L 318.58409 159.929819 
L 318.692068 178.081289 
L 318.755584 140.67826 
L 319.32088 153.197279 
L 320.197406 145.166625 
L 320.540394 117.554382 
L 320.711888 159.335778 
L 320.838921 155.46346 
L 321.626524 183.977767 
L 321.753556 143.406493 
L 322.020325 105.871442 
L 322.102896 151.195109 
L 322.331555 149.478972 
L 322.591972 77.445144 
L 322.630082 131.767548 
L 322.858741 131.833551 
L 323.16362 136.519941 
L 323.836893 161.249922 
L 323.951223 151.019107 
L 324.287859 159.885823 
L 324.440298 140.282227 
L 325.558186 139.842198 
L 325.608999 161.051914 
L 326.129834 60.459766 
L 326.50458 126.553137 
L 326.955546 188.708153 
L 327.146095 143.758513 
L 327.31759 131.921543 
L 327.336644 158.521706 
L 327.362051 102.945201 
L 327.711391 161.84398 
L 327.717743 119.842587 
L 328.543455 172.580843 
L 328.721301 111.591918 
L 329.248487 158.323698 
L 329.877299 122.108767 
L 330.201232 86.729898 
L 330.277452 203.603352 
L 330.30921 154.429373 
L 330.468001 149.610995 
L 330.512462 38.435994 
L 330.607737 174.935033 
L 330.62044 166.464351 
L 330.747473 155.067427 
L 331.026945 80.657419 
L 331.115868 216.232387 
L 331.776438 183.251704 
L 332.665667 108.599675 
L 332.970546 184.659833 
L 333.021359 169.434588 
L 333.548544 200.853129 
L 333.554896 156.893579 
L 333.974104 116.14627 
L 334.03762 132.471588 
L 334.056675 175.683102 
L 335.542958 183.493725 
L 335.955814 118.698485 
L 336.152715 134.715779 
L 336.622736 107.873612 
L 338.598095 173.812954 
L 338.65526 94.870551 
L 338.858512 204.263412 
L 338.941083 165.034231 
L 339.265017 91.702289 
L 339.404753 105.211382 
L 340.452773 167.740458 
L 341.043475 51.945087 
L 341.06253 127.367192 
L 341.456331 147.520815 
L 341.964462 100.304994 
L 342.777471 125.012985 
L 343.095053 199.665048 
L 343.323712 120.106597 
L 343.457096 116.872333 
L 344.511468 146.508735 
L 345.165687 102.065143 
L 345.368939 117.268382 
L 347.071177 169.544603 
L 347.54755 173.394915 
L 347.725396 124.88098 
L 348.144604 121.184697 
L 348.233527 165.628289 
L 348.551109 148.202882 
L 348.86869 153.703327 
L 348.925855 212.690099 
L 348.98302 136.013876 
L 349.002075 172.382835 
L 349.243437 135.375839 
L 349.891304 85.673822 
L 350.443896 171.458764 
L 350.526467 161.84398 
L 350.564577 97.97281 
L 350.570929 160.017828 
L 350.761478 143.626507 
L 351.104466 89.040092 
L 352.12708 117.400387 
L 352.368442 162.50404 
L 352.565342 154.869419 
L 352.692375 158.961752 
L 353.848373 152.185199 
L 354.724899 167.806461 
L 354.991667 161.051914 
L 355.645886 151.943178 
L 355.906303 143.406493 
L 355.976171 166.530353 
L 356.12861 121.712718 
L 356.20483 137.64202 
L 357.087707 177.64126 
L 357.379882 127.631203 
L 358.396144 146.39872 
L 358.472364 109.43572 
L 358.637506 89.2381 
L 360.371503 180.58949 
L 361.432226 121.888736 
L 361.832379 165.914306 
L 362.505653 137.818038 
L 363.217036 121.448707 
L 364.182485 156.409537 
L 364.284111 150.293044 
L 364.404792 83.605649 
L 364.411143 216.430395 
L 365.05901 184.945851 
L 365.186043 100.613017 
L 365.205098 146.464739 
L 365.274966 140.854278 
L 365.382944 64.178072 
L 365.40835 212.162061 
L 365.509976 185.055866 
L 365.694174 131.19548 
L 365.948239 187.190025 
L 365.992701 140.832272 
L 366.113382 185.737916 
L 366.913688 166.398348 
L 367.19316 114.78217 
L 367.898192 142.592421 
L 368.450784 158.433697 
L 368.86364 110.645824 
L 368.952563 165.21025 
L 369.473397 153.527309 
L 369.918012 150.42505 
L 371.328075 121.404694 
L 372.102975 175.28707 
L 372.534886 119.292542 
L 372.592051 182.877678 
L 372.903281 131.085498 
L 373.544796 163.53811 
L 373.741697 181.425569 
L 373.779806 108.027607 
L 374.02752 130.403449 
L 374.573761 169.038555 
L 375.367715 167.828467 
L 375.393122 129.56737 
L 375.742462 137.862051 
L 375.755165 112.405974 
L 375.88855 171.348749 
L 376.034637 181.535568 
L 376.688856 129.897383 
L 378.276765 127.191174 
L 378.352984 129.809391 
L 378.734083 103.165232 
L 378.962741 142.108379 
L 379.388301 113.264042 
L 379.680476 164.000145 
L 379.979003 139.204144 
L 380.753903 161.227933 
L 381.033375 143.956537 
L 382.075043 122.438781 
L 382.144911 165.078244 
L 382.462493 161.381944 
L 383.104008 138.918127 
L 383.173876 161.887976 
L 383.789985 94.386509 
L 383.878908 146.904768 
L 383.967831 108.401667 
L 384.101215 139.468172 
L 384.412445 114.298128 
L 385.123828 68.4244 
L 385.606553 164.000145 
L 385.695476 109.105706 
L 386.082925 183.581734 
L 386.718089 176.167144 
L 386.832418 120.414621 
L 387.245275 142.658423 
L 387.835977 98.478842 
L 387.96301 127.58719 
L 388.096394 135.749865 
L 388.464789 83.429631 
L 388.572767 134.165734 
L 388.814129 75.640982 
L 388.871293 83.165621 
L 388.883997 144.924604 
L 389.239688 162.702048 
L 389.747819 109.611738 
L 390.21784 136.233907 
L 390.382983 169.104574 
L 390.579884 117.070341 
L 390.986388 139.446165 
L 393.3619 223.756992 
L 394.193964 189.500219 
L 394.200316 102.373167 
L 395.451588 99.710936 
L 396.277301 88.952066 
L 396.296356 182.657663 
L 396.334466 138.258067 
L 396.423389 137.378009 
L 396.556773 141.250311 
L 396.823542 86.333849 
L 398.195495 181.073532 
L 398.627406 71.548682 
L 399.052966 118.346448 
L 399.192702 156.519553 
L 399.275273 126.707132 
L 400.164502 188.180115 
L 400.215315 84.903747 
L 400.812369 133.659703 
L 400.97116 79.073288 
L 401.803224 109.567759 
L 402.883002 168.796534 
L 403.429243 109.39174 
L 403.505463 41.032188 
L 403.575331 133.769718 
L 403.61344 124.066925 
L 404.705922 135.727876 
L 404.959987 134.429745 
L 406.979808 82.901576 
L 407.049676 146.200712 
L 407.430774 143.934531 
L 408.237431 45.54256 
L 408.415277 119.292542 
L 409.329913 181.9316 
L 409.704659 189.500219 
L 410.377933 117.004338 
L 411.127426 177.289223 
L 412.353292 76.851086 
L 413.179004 155.419464 
L 413.204411 184.527811 
L 413.286982 174.186981 
L 414.309595 101.801132 
L 415.700604 168.026475 
L 416.208735 165.496267 
L 416.297657 88.093998 
L 416.596184 144.484575 
L 416.793085 104.375337 
L 417.453655 132.559614 
L 417.567985 82.747581 
L 418.126929 80.041338 
L 418.965345 100.921041 
L 419.498882 166.332345 
L 419.517937 117.774414 
L 419.791057 64.530109 
L 419.981606 82.615576 
L 420.356353 138.940117 
L 420.877187 135.133818 
L 421.321802 67.984371 
L 422.217382 156.607562 
L 422.477799 151.195109 
L 422.98593 111.481903 
L 423.214589 125.189003 
L 423.481358 178.147291 
L 423.887862 106.553492 
L 423.989489 132.163564 
L 423.99584 115.244189 
L 424.173686 126.025082 
L 425.202651 167.982479 
L 425.240761 140.788275 
L 425.806056 150.799076 
L 426.981109 119.006508 
L 427.057329 129.699375 
L 427.171658 120.414621 
L 427.184361 154.099343 
L 428.067239 112.515989 
L 428.238733 127.213163 
L 428.918358 154.583385 
L 430.410993 163.912153 
L 431.116024 112.361961 
L 431.363738 147.762836 
L 431.573342 106.091473 
L 432.214857 78.721251 
L 432.278374 107.169539 
L 432.494329 130.865467 
L 433.459778 121.096671 
L 433.529646 136.101902 
L 434.202919 41.91228 
L 434.495094 167.586446 
L 434.63483 163.802137 
L 434.71105 110.75584 
L 435.930564 79.931356 
L 436.121113 138.346076 
L 437.181836 152.471216 
L 437.372386 122.922823 
L 437.423199 128.687279 
L 437.689967 160.127843 
L 438.185395 136.541931 
L 438.757042 101.141072 
L 439.011108 104.969361 
L 439.48748 152.295198 
L 439.716139 126.24508 
L 440.344951 186.067946 
L 440.491039 117.906419 
L 440.491039 117.906419 
" clip-path="url(#p36c439bf07)" style="fill: none; stroke: #4169e1; stroke-width: 2; stroke-linecap: square"/>
   </g>
   <g id="patch_3">
    <path d="M 48.90125 344.997812 
L 48.90125 23.837812 
" style="fill: none; stroke: #000000; stroke-width: 0.8; stroke-linejoin: miter; stroke-linecap: square"/>
   </g>
   <g id="patch_4">
    <path d="M 48.90125 344.997812 
L 459.138172 344.997812 
" style="fill: none; stroke: #000000; stroke-width: 0.8; stroke-linejoin: miter; stroke-linecap: square"/>
   </g>
   <g id="text_17">
    <!-- Mean Episode Length -->
    <g transform="translate(178.859398 17.837812) scale(0.14 -0.14)">
     <defs>
      <path id="DejaVuSans-4d" d="M 628 4666 
L 1569 4666 
L 2759 1491 
L 3956 4666 
L 4897 4666 
L 4897 0 
L 4281 0 
L 4281 4097 
L 3078 897 
L 2444 897 
L 1241 4097 
L 1241 0 
L 628 0 
L 628 4666 
z
" transform="scale(0.015625)"/>
      <path id="DejaVuSans-20" transform="scale(0.015625)"/>
      <path id="DejaVuSans-45" d="M 628 4666 
L 3578 4666 
L 3578 4134 
L 1259 4134 
L 1259 2753 
L 3481 2753 
L 3481 2222 
L 1259 2222 
L 1259 531 
L 3634 531 
L 3634 0 
L 628 0 
L 628 4666 
z
" transform="scale(0.015625)"/>
      <path id="DejaVuSans-70" d="M 1159 525 
L 1159 -1331 
L 581 -1331 
L 581 3500 
L 1159 3500 
L 1159 2969 
Q 1341 3281 1617 3432 
Q 1894 3584 2278 3584 
Q 2916 3584 3314 3078 
Q 3713 2572 3713 1747 
Q 3713 922 3314 415 
Q 2916 -91 2278 -91 
Q 1894 -91 1617 61 
Q 1341 213 1159 525 
z
M 3116 1747 
Q 3116 2381 2855 2742 
Q 2594 3103 2138 3103 
Q 1681 3103 1420 2742 
Q 1159 2381 1159 1747 
Q 1159 1113 1420 752 
Q 1681 391 2138 391 
Q 2594 391 2855 752 
Q 3116 1113 3116 1747 
z
" transform="scale(0.015625)"/>
      <path id="DejaVuSans-73" d="M 2834 3397 
L 2834 2853 
Q 2591 2978 2328 3040 
Q 2066 3103 1784 3103 
Q 1356 3103 1142 2972 
Q 928 2841 928 2578 
Q 928 2378 1081 2264 
Q 1234 2150 1697 2047 
L 1894 2003 
Q 2506 1872 2764 1633 
Q 3022 1394 3022 966 
Q 3022 478 2636 193 
Q 2250 -91 1575 -91 
Q 1294 -91 989 -36 
Q 684 19 347 128 
L 347 722 
Q 666 556 975 473 
Q 1284 391 1588 391 
Q 1994 391 2212 530 
Q 2431 669 2431 922 
Q 2431 1156 2273 1281 
Q 2116 1406 1581 1522 
L 1381 1569 
Q 847 1681 609 1914 
Q 372 2147 372 2553 
Q 372 3047 722 3315 
Q 1072 3584 1716 3584 
Q 2034 3584 2315 3537 
Q 2597 3491 2834 3397 
z
" transform="scale(0.015625)"/>
      <path id="DejaVuSans-64" d="M 2906 2969 
L 2906 4863 
L 3481 4863 
L 3481 0 
L 2906 0 
L 2906 525 
Q 2725 213 2448 61 
Q 2172 -91 1784 -91 
Q 1150 -91 751 415 
Q 353 922 353 1747 
Q 353 2572 751 3078 
Q 1150 3584 1784 3584 
Q 2172 3584 2448 3432 
Q 2725 3281 2906 2969 
z
M 947 1747 
Q 947 1113 1208 752 
Q 1469 391 1925 391 
Q 2381 391 2643 752 
Q 2906 1113 2906 1747 
Q 2906 2381 2643 2742 
Q 2381 3103 1925 3103 
Q 1469 3103 1208 2742 
Q 947 2381 947 1747 
z
" transform="scale(0.015625)"/>
     </defs>
     <use xlink:href="#DejaVuSans-4d"/>
     <use xlink:href="#DejaVuSans-65" x="86.279297"/>
     <use xlink:href="#DejaVuSans-61" x="147.802734"/>
     <use xlink:href="#DejaVuSans-6e" x="209.082031"/>
     <use xlink:href="#DejaVuSans-20" x="272.460938"/>
     <use xlink:href="#DejaVuSans-45" x="304.248047"/>
     <use xlink:href="#DejaVuSans-70" x="367.431641"/>
     <use xlink:href="#DejaVuSans-69" x="430.908203"/>
     <use xlink:href="#DejaVuSans-73" x="458.691406"/>
     <use xlink:href="#DejaVuSans-6f" x="510.791016"/>
     <use xlink:href="#DejaVuSans-64" x="571.972656"/>
     <use xlink:href="#DejaVuSans-65" x="635.449219"/>
     <use xlink:href="#DejaVuSans-20" x="696.972656"/>
     <use xlink:href="#DejaVuSans-4c" x="728.759766"/>
     <use xlink:href="#DejaVuSans-65" x="782.722656"/>
     <use xlink:href="#DejaVuSans-6e" x="844.246094"/>
     <use xlink:href="#DejaVuSans-67" x="907.625"/>
     <use xlink:href="#DejaVuSans-74" x="971.101562"/>
     <use xlink:href="#DejaVuSans-68" x="1010.310547"/>
    </g>
   </g>
  </g>
  <g id="axes_2">
   <g id="patch_5">
    <path d="M 537.85625 344.997812 
L 948.093172 344.997812 
L 948.093172 23.837812 
L 537.85625 23.837812 
z
" style="fill: #ffffff"/>
   </g>
   <g id="PolyCollection_2"/>
   <g id="matplotlib.axis_3">
    <g id="xtick_8">
     <g id="line2d_30">
      <path d="M 555.410901 344.997812 
L 555.410901 23.837812 
" clip-path="url(#pe0c4e93611)" style="fill: none; stroke-dasharray: 2.96,1.28; stroke-dashoffset: 0; stroke: #b0b0b0; stroke-opacity: 0.3; stroke-width: 0.8"/>
     </g>
     <g id="line2d_31">
      <g>
       <use xlink:href="#m927cb15849" x="555.410901" y="344.997812" style="stroke: #000000; stroke-width: 0.8"/>
      </g>
     </g>
     <g id="text_18">
      <!-- 0 -->
      <g transform="translate(552.229651 359.59625) scale(0.1 -0.1)">
       <use xlink:href="#DejaVuSans-30"/>
      </g>
     </g>
    </g>
    <g id="xtick_9">
     <g id="line2d_32">
      <path d="M 618.927261 344.997812 
L 618.927261 23.837812 
" clip-path="url(#pe0c4e93611)" style="fill: none; stroke-dasharray: 2.96,1.28; stroke-dashoffset: 0; stroke: #b0b0b0; stroke-opacity: 0.3; stroke-width: 0.8"/>
     </g>
     <g id="line2d_33">
      <g>
       <use xlink:href="#m927cb15849" x="618.927261" y="344.997812" style="stroke: #000000; stroke-width: 0.8"/>
      </g>
     </g>
     <g id="text_19">
      <!-- 10000 -->
      <g transform="translate(603.021011 359.59625) scale(0.1 -0.1)">
       <use xlink:href="#DejaVuSans-31"/>
       <use xlink:href="#DejaVuSans-30" x="63.623047"/>
       <use xlink:href="#DejaVuSans-30" x="127.246094"/>
       <use xlink:href="#DejaVuSans-30" x="190.869141"/>
       <use xlink:href="#DejaVuSans-30" x="254.492188"/>
      </g>
     </g>
    </g>
    <g id="xtick_10">
     <g id="line2d_34">
      <path d="M 682.44362 344.997812 
L 682.44362 23.837812 
" clip-path="url(#pe0c4e93611)" style="fill: none; stroke-dasharray: 2.96,1.28; stroke-dashoffset: 0; stroke: #b0b0b0; stroke-opacity: 0.3; stroke-width: 0.8"/>
     </g>
     <g id="line2d_35">
      <g>
       <use xlink:href="#m927cb15849" x="682.44362" y="344.997812" style="stroke: #000000; stroke-width: 0.8"/>
      </g>
     </g>
     <g id="text_20">
      <!-- 20000 -->
      <g transform="translate(666.53737 359.59625) scale(0.1 -0.1)">
       <use xlink:href="#DejaVuSans-32"/>
       <use xlink:href="#DejaVuSans-30" x="63.623047"/>
       <use xlink:href="#DejaVuSans-30" x="127.246094"/>
       <use xlink:href="#DejaVuSans-30" x="190.869141"/>
       <use xlink:href="#DejaVuSans-30" x="254.492188"/>
      </g>
     </g>
    </g>
    <g id="xtick_11">
     <g id="line2d_36">
      <path d="M 745.95998 344.997812 
L 745.95998 23.837812 
" clip-path="url(#pe0c4e93611)" style="fill: none; stroke-dasharray: 2.96,1.28; stroke-dashoffset: 0; stroke: #b0b0b0; stroke-opacity: 0.3; stroke-width: 0.8"/>
     </g>
     <g id="line2d_37">
      <g>
       <use xlink:href="#m927cb15849" x="745.95998" y="344.997812" style="stroke: #000000; stroke-width: 0.8"/>
      </g>
     </g>
     <g id="text_21">
      <!-- 30000 -->
      <g transform="translate(730.05373 359.59625) scale(0.1 -0.1)">
       <use xlink:href="#DejaVuSans-33"/>
       <use xlink:href="#DejaVuSans-30" x="63.623047"/>
       <use xlink:href="#DejaVuSans-30" x="127.246094"/>
       <use xlink:href="#DejaVuSans-30" x="190.869141"/>
       <use xlink:href="#DejaVuSans-30" x="254.492188"/>
      </g>
     </g>
    </g>
    <g id="xtick_12">
     <g id="line2d_38">
      <path d="M 809.476339 344.997812 
L 809.476339 23.837812 
" clip-path="url(#pe0c4e93611)" style="fill: none; stroke-dasharray: 2.96,1.28; stroke-dashoffset: 0; stroke: #b0b0b0; stroke-opacity: 0.3; stroke-width: 0.8"/>
     </g>
     <g id="line2d_39">
      <g>
       <use xlink:href="#m927cb15849" x="809.476339" y="344.997812" style="stroke: #000000; stroke-width: 0.8"/>
      </g>
     </g>
     <g id="text_22">
      <!-- 40000 -->
      <g transform="translate(793.570089 359.59625) scale(0.1 -0.1)">
       <use xlink:href="#DejaVuSans-34"/>
       <use xlink:href="#DejaVuSans-30" x="63.623047"/>
       <use xlink:href="#DejaVuSans-30" x="127.246094"/>
       <use xlink:href="#DejaVuSans-30" x="190.869141"/>
       <use xlink:href="#DejaVuSans-30" x="254.492188"/>
      </g>
     </g>
    </g>
    <g id="xtick_13">
     <g id="line2d_40">
      <path d="M 872.992699 344.997812 
L 872.992699 23.837812 
" clip-path="url(#pe0c4e93611)" style="fill: none; stroke-dasharray: 2.96,1.28; stroke-dashoffset: 0; stroke: #b0b0b0; stroke-opacity: 0.3; stroke-width: 0.8"/>
     </g>
     <g id="line2d_41">
      <g>
       <use xlink:href="#m927cb15849" x="872.992699" y="344.997812" style="stroke: #000000; stroke-width: 0.8"/>
      </g>
     </g>
     <g id="text_23">
      <!-- 50000 -->
      <g transform="translate(857.086449 359.59625) scale(0.1 -0.1)">
       <use xlink:href="#DejaVuSans-35"/>
       <use xlink:href="#DejaVuSans-30" x="63.623047"/>
       <use xlink:href="#DejaVuSans-30" x="127.246094"/>
       <use xlink:href="#DejaVuSans-30" x="190.869141"/>
       <use xlink:href="#DejaVuSans-30" x="254.492188"/>
      </g>
     </g>
    </g>
    <g id="xtick_14">
     <g id="line2d_42">
      <path d="M 936.509058 344.997812 
L 936.509058 23.837812 
" clip-path="url(#pe0c4e93611)" style="fill: none; stroke-dasharray: 2.96,1.28; stroke-dashoffset: 0; stroke: #b0b0b0; stroke-opacity: 0.3; stroke-width: 0.8"/>
     </g>
     <g id="line2d_43">
      <g>
       <use xlink:href="#m927cb15849" x="936.509058" y="344.997812" style="stroke: #000000; stroke-width: 0.8"/>
      </g>
     </g>
     <g id="text_24">
      <!-- 60000 -->
      <g transform="translate(920.602808 359.59625) scale(0.1 -0.1)">
       <use xlink:href="#DejaVuSans-36"/>
       <use xlink:href="#DejaVuSans-30" x="63.623047"/>
       <use xlink:href="#DejaVuSans-30" x="127.246094"/>
       <use xlink:href="#DejaVuSans-30" x="190.869141"/>
       <use xlink:href="#DejaVuSans-30" x="254.492188"/>
      </g>
     </g>
    </g>
    <g id="text_25">
     <!-- Iteration -->
     <g transform="translate(717.524398 374.794062) scale(0.12 -0.12)">
      <use xlink:href="#DejaVuSans-49"/>
      <use xlink:href="#DejaVuSans-74" x="29.492188"/>
      <use xlink:href="#DejaVuSans-65" x="68.701172"/>
      <use xlink:href="#DejaVuSans-72" x="130.224609"/>
      <use xlink:href="#DejaVuSans-61" x="171.337891"/>
      <use xlink:href="#DejaVuSans-74" x="232.617188"/>
      <use xlink:href="#DejaVuSans-69" x="271.826172"/>
      <use xlink:href="#DejaVuSans-6f" x="299.609375"/>
      <use xlink:href="#DejaVuSans-6e" x="360.791016"/>
     </g>
    </g>
   </g>
   <g id="matplotlib.axis_4">
    <g id="ytick_8">
     <g id="line2d_44">
      <path d="M 537.85625 337.98531 
L 948.093172 337.98531 
" clip-path="url(#pe0c4e93611)" style="fill: none; stroke-dasharray: 2.96,1.28; stroke-dashoffset: 0; stroke: #b0b0b0; stroke-opacity: 0.3; stroke-width: 0.8"/>
     </g>
     <g id="line2d_45">
      <g>
       <use xlink:href="#m187bd24c6a" x="537.85625" y="337.98531" style="stroke: #000000; stroke-width: 0.8"/>
      </g>
     </g>
     <g id="text_26">
      <!-- 25 -->
      <g transform="translate(518.13125 341.784529) scale(0.1 -0.1)">
       <use xlink:href="#DejaVuSans-32"/>
       <use xlink:href="#DejaVuSans-35" x="63.623047"/>
      </g>
     </g>
    </g>
    <g id="ytick_9">
     <g id="line2d_46">
      <path d="M 537.85625 297.757548 
L 948.093172 297.757548 
" clip-path="url(#pe0c4e93611)" style="fill: none; stroke-dasharray: 2.96,1.28; stroke-dashoffset: 0; stroke: #b0b0b0; stroke-opacity: 0.3; stroke-width: 0.8"/>
     </g>
     <g id="line2d_47">
      <g>
       <use xlink:href="#m187bd24c6a" x="537.85625" y="297.757548" style="stroke: #000000; stroke-width: 0.8"/>
      </g>
     </g>
     <g id="text_27">
      <!-- 50 -->
      <g transform="translate(518.13125 301.556766) scale(0.1 -0.1)">
       <use xlink:href="#DejaVuSans-35"/>
       <use xlink:href="#DejaVuSans-30" x="63.623047"/>
      </g>
     </g>
    </g>
    <g id="ytick_10">
     <g id="line2d_48">
      <path d="M 537.85625 257.529785 
L 948.093172 257.529785 
" clip-path="url(#pe0c4e93611)" style="fill: none; stroke-dasharray: 2.96,1.28; stroke-dashoffset: 0; stroke: #b0b0b0; stroke-opacity: 0.3; stroke-width: 0.8"/>
     </g>
     <g id="line2d_49">
      <g>
       <use xlink:href="#m187bd24c6a" x="537.85625" y="257.529785" style="stroke: #000000; stroke-width: 0.8"/>
      </g>
     </g>
     <g id="text_28">
      <!-- 75 -->
      <g transform="translate(518.13125 261.329004) scale(0.1 -0.1)">
       <defs>
        <path id="DejaVuSans-37" d="M 525 4666 
L 3525 4666 
L 3525 4397 
L 1831 0 
L 1172 0 
L 2766 4134 
L 525 4134 
L 525 4666 
z
" transform="scale(0.015625)"/>
       </defs>
       <use xlink:href="#DejaVuSans-37"/>
       <use xlink:href="#DejaVuSans-35" x="63.623047"/>
      </g>
     </g>
    </g>
    <g id="ytick_11">
     <g id="line2d_50">
      <path d="M 537.85625 217.302023 
L 948.093172 217.302023 
" clip-path="url(#pe0c4e93611)" style="fill: none; stroke-dasharray: 2.96,1.28; stroke-dashoffset: 0; stroke: #b0b0b0; stroke-opacity: 0.3; stroke-width: 0.8"/>
     </g>
     <g id="line2d_51">
      <g>
       <use xlink:href="#m187bd24c6a" x="537.85625" y="217.302023" style="stroke: #000000; stroke-width: 0.8"/>
      </g>
     </g>
     <g id="text_29">
      <!-- 100 -->
      <g transform="translate(511.76875 221.101241) scale(0.1 -0.1)">
       <use xlink:href="#DejaVuSans-31"/>
       <use xlink:href="#DejaVuSans-30" x="63.623047"/>
       <use xlink:href="#DejaVuSans-30" x="127.246094"/>
      </g>
     </g>
    </g>
    <g id="ytick_12">
     <g id="line2d_52">
      <path d="M 537.85625 177.07426 
L 948.093172 177.07426 
" clip-path="url(#pe0c4e93611)" style="fill: none; stroke-dasharray: 2.96,1.28; stroke-dashoffset: 0; stroke: #b0b0b0; stroke-opacity: 0.3; stroke-width: 0.8"/>
     </g>
     <g id="line2d_53">
      <g>
       <use xlink:href="#m187bd24c6a" x="537.85625" y="177.07426" style="stroke: #000000; stroke-width: 0.8"/>
      </g>
     </g>
     <g id="text_30">
      <!-- 125 -->
      <g transform="translate(511.76875 180.873479) scale(0.1 -0.1)">
       <use xlink:href="#DejaVuSans-31"/>
       <use xlink:href="#DejaVuSans-32" x="63.623047"/>
       <use xlink:href="#DejaVuSans-35" x="127.246094"/>
      </g>
     </g>
    </g>
    <g id="ytick_13">
     <g id="line2d_54">
      <path d="M 537.85625 136.846498 
L 948.093172 136.846498 
" clip-path="url(#pe0c4e93611)" style="fill: none; stroke-dasharray: 2.96,1.28; stroke-dashoffset: 0; stroke: #b0b0b0; stroke-opacity: 0.3; stroke-width: 0.8"/>
     </g>
     <g id="line2d_55">
      <g>
       <use xlink:href="#m187bd24c6a" x="537.85625" y="136.846498" style="stroke: #000000; stroke-width: 0.8"/>
      </g>
     </g>
     <g id="text_31">
      <!-- 150 -->
      <g transform="translate(511.76875 140.645716) scale(0.1 -0.1)">
       <use xlink:href="#DejaVuSans-31"/>
       <use xlink:href="#DejaVuSans-35" x="63.623047"/>
       <use xlink:href="#DejaVuSans-30" x="127.246094"/>
      </g>
     </g>
    </g>
    <g id="ytick_14">
     <g id="line2d_56">
      <path d="M 537.85625 96.618735 
L 948.093172 96.618735 
" clip-path="url(#pe0c4e93611)" style="fill: none; stroke-dasharray: 2.96,1.28; stroke-dashoffset: 0; stroke: #b0b0b0; stroke-opacity: 0.3; stroke-width: 0.8"/>
     </g>
     <g id="line2d_57">
      <g>
       <use xlink:href="#m187bd24c6a" x="537.85625" y="96.618735" style="stroke: #000000; stroke-width: 0.8"/>
      </g>
     </g>
     <g id="text_32">
      <!-- 175 -->
      <g transform="translate(511.76875 100.417954) scale(0.1 -0.1)">
       <use xlink:href="#DejaVuSans-31"/>
       <use xlink:href="#DejaVuSans-37" x="63.623047"/>
       <use xlink:href="#DejaVuSans-35" x="127.246094"/>
      </g>
     </g>
    </g>
    <g id="ytick_15">
     <g id="line2d_58">
      <path d="M 537.85625 56.390973 
L 948.093172 56.390973 
" clip-path="url(#pe0c4e93611)" style="fill: none; stroke-dasharray: 2.96,1.28; stroke-dashoffset: 0; stroke: #b0b0b0; stroke-opacity: 0.3; stroke-width: 0.8"/>
     </g>
     <g id="line2d_59">
      <g>
       <use xlink:href="#m187bd24c6a" x="537.85625" y="56.390973" style="stroke: #000000; stroke-width: 0.8"/>
      </g>
     </g>
     <g id="text_33">
      <!-- 200 -->
      <g transform="translate(511.76875 60.190191) scale(0.1 -0.1)">
       <use xlink:href="#DejaVuSans-32"/>
       <use xlink:href="#DejaVuSans-30" x="63.623047"/>
       <use xlink:href="#DejaVuSans-30" x="127.246094"/>
      </g>
     </g>
    </g>
    <g id="text_34">
     <!-- Reward -->
     <g transform="translate(505.273125 206.763125) rotate(-90) scale(0.12 -0.12)">
      <defs>
       <path id="DejaVuSans-52" d="M 2841 2188 
Q 3044 2119 3236 1894 
Q 3428 1669 3622 1275 
L 4263 0 
L 3584 0 
L 2988 1197 
Q 2756 1666 2539 1819 
Q 2322 1972 1947 1972 
L 1259 1972 
L 1259 0 
L 628 0 
L 628 4666 
L 2053 4666 
Q 2853 4666 3247 4331 
Q 3641 3997 3641 3322 
Q 3641 2881 3436 2590 
Q 3231 2300 2841 2188 
z
M 1259 4147 
L 1259 2491 
L 2053 2491 
Q 2509 2491 2742 2702 
Q 2975 2913 2975 3322 
Q 2975 3731 2742 3939 
Q 2509 4147 2053 4147 
L 1259 4147 
z
" transform="scale(0.015625)"/>
       <path id="DejaVuSans-77" d="M 269 3500 
L 844 3500 
L 1563 769 
L 2278 3500 
L 2956 3500 
L 3675 769 
L 4391 3500 
L 4966 3500 
L 4050 0 
L 3372 0 
L 2619 2869 
L 1863 0 
L 1184 0 
L 269 3500 
z
" transform="scale(0.015625)"/>
      </defs>
      <use xlink:href="#DejaVuSans-52"/>
      <use xlink:href="#DejaVuSans-65" x="64.982422"/>
      <use xlink:href="#DejaVuSans-77" x="126.505859"/>
      <use xlink:href="#DejaVuSans-61" x="208.292969"/>
      <use xlink:href="#DejaVuSans-72" x="269.572266"/>
      <use xlink:href="#DejaVuSans-64" x="308.935547"/>
     </g>
    </g>
   </g>
   <g id="line2d_60">
    <path d="M 556.503383 330.399631 
L 557.055975 318.062348 
L 557.964259 285.049924 
L 558.364412 285.225068 
L 558.650236 272.918991 
L 558.828082 277.80444 
L 558.942411 287.13998 
L 559.196476 276.788483 
L 559.590278 271.256564 
L 560.263551 267.318275 
L 560.517617 268.628476 
L 560.911418 259.246843 
L 561.857812 257.027687 
L 561.92768 272.780463 
L 561.997548 262.700406 
L 562.556492 259.547127 
L 562.600953 256.020409 
L 562.804206 252.383828 
L 562.931238 267.435761 
L 563.483831 244.047236 
L 564.41117 257.74719 
L 564.671587 244.156976 
L 564.900246 249.73174 
L 565.001872 243.008899 
L 565.020927 252.812992 
L 565.243234 250.918132 
L 565.351212 248.433459 
L 566.018133 263.674512 
L 567.733075 235.435293 
L 567.860108 251.643848 
L 570.883487 248.627723 
L 571.048629 244.736576 
L 571.309046 252.505906 
L 572.198275 247.099724 
L 572.515857 234.6067 
L 572.611132 249.52461 
L 572.668296 225.017201 
L 572.99223 246.689012 
L 573.100208 246.543817 
L 574.294315 245.91985 
L 574.992995 252.127421 
L 575.126379 230.722772 
L 575.132731 231.999753 
L 575.386796 222.650788 
L 575.844114 222.011929 
L 575.996554 219.286672 
L 576.148993 252.970696 
L 576.726992 229.304021 
L 577.03187 234.99955 
L 577.641627 231.020146 
L 577.80677 227.232159 
L 578.060835 232.882546 
L 578.276791 243.877046 
L 578.378417 230.977731 
L 578.619779 241.026937 
L 578.708702 230.64775 
L 578.727757 238.802428 
L 578.988174 218.667959 
L 579.432789 201.993154 
L 580.277556 251.017867 
L 580.963533 184.572942 
L 581.509774 235.380356 
L 581.585993 229.978175 
L 582.036959 241.290343 
L 582.259267 251.357694 
L 582.837265 243.629723 
L 582.900782 223.552217 
L 584.240977 206.910018 
L 584.399768 229.410324 
L 584.939657 203.495029 
L 585.200074 238.140392 
L 586.102006 205.43471 
L 586.127413 250.265622 
L 586.419588 214.840122 
L 587.740728 202.145371 
L 588.007497 213.011716 
L 588.032904 238.683984 
L 588.356837 219.775119 
L 588.439408 247.131778 
L 588.598199 227.314424 
L 588.83321 223.217276 
L 589.042814 250.989459 
L 589.468373 220.906328 
L 589.72879 210.873376 
L 590.052724 234.628663 
L 591.405622 216.150606 
L 592.453642 230.459845 
L 592.669598 216.627108 
L 592.752169 240.449682 
L 593.241245 232.812337 
L 593.400036 215.046245 
L 593.501662 224.498652 
L 593.857354 211.81743 
L 594.225749 214.423027 
L 594.422649 228.452741 
L 594.949835 229.34473 
L 595.292823 225.453448 
L 595.62946 217.617395 
L 595.642163 194.362229 
L 595.794603 212.32876 
L 595.800954 232.052419 
L 595.864471 219.700183 
L 597.020468 219.433377 
L 597.134798 223.618768 
L 597.236424 213.198663 
L 597.268182 237.27713 
L 597.325347 189.756195 
L 598.157411 216.814619 
L 598.284444 234.80159 
L 598.614729 234.546766 
L 599.357871 196.713923 
L 599.815188 202.98284 
L 599.846946 206.841798 
L 600.215341 228.373668 
L 601.187142 245.694944 
L 601.479317 207.522053 
L 602.641666 239.192393 
L 602.819512 203.710077 
L 602.844919 208.54761 
L 603.321291 245.347862 
L 603.708741 200.013206 
L 603.962807 224.040369 
L 604.489992 187.19235 
L 604.509047 206.890094 
L 604.915552 243.241072 
L 605.087046 205.857256 
L 605.303002 202.700516 
L 606.135066 212.72679 
L 606.998889 202.029726 
L 608.072315 194.755116 
L 609.704685 224.991826 
L 609.742795 214.507882 
L 610.1493 213.798802 
L 610.409717 216.752439 
L 610.632024 217.983849 
L 610.822573 246.849921 
L 611.000419 204.708221 
L 611.152858 233.52208 
L 611.165562 224.675889 
L 611.451385 214.514278 
L 611.514902 223.880124 
L 611.749912 225.516071 
L 611.794374 189.376322 
L 612.94402 218.028266 
L 613.344173 216.98093 
L 613.541074 206.763694 
L 614.176237 204.335935 
L 614.423951 232.491796 
L 614.65261 199.388048 
L 614.855862 198.971468 
L 616.04997 211.048477 
L 616.837573 204.71792 
L 617.09799 206.244937 
L 617.358407 213.62806 
L 617.364758 181.030375 
L 617.891944 202.633953 
L 618.082493 225.562267 
L 618.253987 205.560115 
L 618.596976 245.122096 
L 618.603327 244.496705 
L 618.755767 210.030457 
L 618.793876 251.671986 
L 618.882799 207.486439 
L 619.327414 233.593014 
L 619.498908 233.898811 
L 619.695809 217.72123 
L 619.803787 225.01477 
L 620.140423 224.871417 
L 620.248401 211.793196 
L 620.292863 175.088137 
L 621.09952 199.359689 
L 621.118575 235.078954 
L 621.436157 195.764161 
L 621.753739 204.602888 
L 621.83631 201.942624 
L 622.10943 202.878182 
L 622.217408 184.621925 
L 622.490529 218.901607 
L 623.011363 203.841424 
L 623.024066 192.044959 
L 623.417867 193.603601 
L 623.525845 219.282093 
L 625.424984 203.497079 
L 625.507556 217.70182 
L 625.621885 217.991792 
L 625.875951 216.912991 
L 626.02839 195.598317 
L 626.0665 202.355594 
L 626.625444 187.514045 
L 626.663553 193.304692 
L 627.381288 215.593939 
L 627.781441 195.374258 
L 627.876716 159.295106 
L 628.092672 209.948499 
L 630.271283 199.599401 
L 630.480887 186.467531 
L 630.658732 208.428479 
L 630.785765 201.258096 
L 631.802027 202.908186 
L 632.113257 216.821052 
L 632.742069 214.905237 
L 632.767476 219.524285 
L 633.123167 171.383053 
L 633.63765 216.750818 
L 633.879012 235.441272 
L 634.158484 200.484895 
L 634.171187 175.715812 
L 634.406198 204.672374 
L 634.653911 178.894097 
L 635.149339 222.432315 
L 635.447866 217.143729 
L 636.127491 212.24555 
L 637.353357 193.109716 
L 637.378763 230.839534 
L 637.626477 207.607326 
L 637.804323 223.317257 
L 637.829729 202.411772 
L 639.913066 234.194258 
L 640.446603 215.877502 
L 640.637152 206.701808 
L 640.872163 231.265567 
L 641.297723 202.595085 
L 641.475568 215.62571 
L 641.939238 214.53424 
L 642.059919 216.935949 
L 642.091677 213.822385 
L 643.076181 203.464792 
L 643.374708 241.465824 
L 644.149607 206.255863 
L 644.371914 243.122272 
L 644.62598 222.940084 
L 645.458044 216.400225 
L 645.527912 198.333248 
L 645.642242 202.496885 
L 645.972527 230.012083 
L 646.016988 211.753518 
L 646.582284 189.950962 
L 646.626745 237.22331 
L 646.906217 219.060563 
L 646.99514 193.315974 
L 647.73193 204.176819 
L 648.290874 239.524215 
L 648.43061 227.870699 
L 649.065773 186.877948 
L 649.535794 184.888437 
L 649.739047 201.868154 
L 649.821618 249.55551 
L 650.209068 212.109746 
L 650.806122 227.705861 
L 651.098297 209.407889 
L 651.130055 218.984891 
L 651.384121 154.944522 
L 651.473043 223.525896 
L 651.561966 207.318017 
L 651.657241 207.228705 
L 651.949416 215.524822 
L 652.806887 222.566423 
L 653.041897 180.355141 
L 653.346776 215.303991 
L 653.581787 187.234299 
L 653.797742 209.877405 
L 654.559938 208.858047 
L 654.737784 224.905681 
L 655.512684 218.037215 
L 655.722288 199.120248 
L 655.893782 217.246975 
L 657.240329 203.785909 
L 657.519801 214.918594 
L 657.780218 197.367514 
L 658.212129 190.993424 
L 658.218481 212.744431 
L 658.567821 177.50675 
L 659.025139 200.335539 
L 659.526918 188.556937 
L 659.749225 199.888747 
L 662.334341 151.141226 
L 662.537593 199.084511 
L 662.626516 170.803159 
L 662.645571 233.438563 
L 662.79801 219.566283 
L 663.052076 180.689259 
L 664.150909 178.33484 
L 664.19537 220.648079 
L 665.059193 179.493057 
L 665.891257 185.469006 
L 666.126268 170.655914 
L 666.964683 221.262434 
L 667.402946 145.627783 
L 667.758638 182.342356 
L 667.815803 160.86697 
L 668.031758 176.6037 
L 668.984504 154.489701 
L 669.772107 193.251657 
L 670.508896 158.256683 
L 670.559709 210.870565 
L 670.585116 106.659495 
L 670.610522 189.685654 
L 672.312761 186.599725 
L 672.712914 100.072518 
L 672.795485 206.655919 
L 672.85265 86.697892 
L 673.055902 187.286401 
L 674.56124 185.289904 
L 674.59935 193.045202 
L 674.694624 161.994398 
L 674.789899 176.900658 
L 675.482227 174.765682 
L 676.03482 150.656155 
L 676.784313 161.458748 
L 676.809719 155.146766 
L 677.419476 160.905518 
L 678.118156 183.767122 
L 678.486551 167.653441 
L 678.670749 191.645714 
L 678.759671 133.986408 
L 679.255099 210.994607 
L 679.274154 184.652911 
L 679.559978 187.861937 
L 680.010944 197.884933 
L 680.245954 174.108592 
L 681.43371 166.941573 
L 681.560743 151.275703 
L 681.776698 198.845179 
L 681.878325 177.045238 
L 681.948193 128.928695 
L 682.354697 175.034145 
L 682.437269 206.579767 
L 684.418979 147.783715 
L 684.946165 186.275256 
L 685.00333 130.624551 
L 685.23834 179.806134 
L 685.574977 234.451058 
L 686.114866 180.28703 
L 686.133921 128.574983 
L 686.546777 229.573344 
L 686.661107 146.028882 
L 686.67381 171.613435 
L 687.270864 214.57846 
L 687.785346 155.6654 
L 688.484026 217.360434 
L 688.592004 160.702636 
L 688.661872 171.855061 
L 688.795256 224.26697 
L 689.023915 216.473749 
L 689.125541 144.927284 
L 689.614617 194.678056 
L 690.275187 223.198825 
L 690.491143 190.532919 
L 690.770615 205.715499 
L 691.272394 196.853397 
L 692.491908 178.743477 
L 692.561776 181.120742 
L 692.739622 222.066621 
L 693.088962 217.897202 
L 693.101665 200.191118 
L 693.952785 243.687877 
L 695.547045 185.063672 
L 695.699484 202.399139 
L 696.074231 211.577669 
L 696.175857 201.749465 
L 696.601417 215.54277 
L 697.096844 124.005655 
L 697.547811 166.19597 
L 697.560514 152.962794 
L 697.795524 225.125382 
L 699.605741 180.397838 
L 699.948729 192.451853 
L 700.10752 170.14548 
L 700.996749 227.703959 
L 701.949494 213.431488 
L 702.171801 253.608057 
L 703.594568 204.501276 
L 704.077292 239.678372 
L 704.083644 235.668277 
L 704.674346 221.416419 
L 705.239642 222.960181 
L 705.252345 211.037808 
L 705.595333 227.210663 
L 705.614388 234.813364 
L 708.294779 207.975794 
L 710.251082 151.409321 
L 710.829081 202.16138 
L 710.854488 164.507749 
L 710.975169 198.386553 
L 711.699255 224.733319 
L 712.321716 224.06712 
L 712.410639 187.204553 
L 712.664704 185.472112 
L 713.109319 169.305396 
L 713.204593 208.657866 
L 713.407845 195.025825 
L 713.452307 246.845047 
L 713.807999 249.083907 
L 713.947735 246.899039 
L 714.144635 164.300276 
L 714.538437 211.99393 
L 714.913183 196.056429 
L 715.783357 256.922723 
L 717.021926 161.81435 
L 718.324012 184.022339 
L 718.667 236.788634 
L 718.730516 203.511602 
L 718.74322 208.23575 
L 719.009988 176.331763 
L 719.372032 238.54553 
L 720.02625 215.010791 
L 720.10247 218.055102 
L 721.169545 237.25033 
L 721.226709 252.353383 
L 721.525236 258.184677 
L 722.223916 218.455747 
L 722.39541 172.338769 
L 722.477982 202.76185 
L 722.948003 204.865606 
L 723.227475 238.77596 
L 724.046836 204.22234 
L 724.656593 229.395285 
L 724.95512 196.085941 
L 725.730019 226.26985 
L 725.736371 212.990109 
L 726.714523 198.544061 
L 726.993995 229.367344 
L 727.565642 146.52316 
L 727.686323 247.411462 
L 727.794301 228.478436 
L 728.861376 242.850003 
L 729.236122 229.850646 
L 729.712495 173.85448 
L 729.788715 228.901817 
L 730.214274 198.115192 
L 730.3159 251.299908 
L 730.881196 239.418907 
L 731.039987 182.212605 
L 731.935568 238.571286 
L 732.145172 202.736879 
L 732.195985 219.087473 
L 732.583434 258.229008 
L 733.294818 173.398357 
L 733.542531 228.916967 
L 733.904575 224.506141 
L 735.562352 142.797059 
L 736.127647 167.015724 
L 736.17846 249.379538 
L 736.5278 164.437405 
L 737.162964 195.657503 
L 738.299907 195.89444 
L 738.681005 154.265801 
L 738.858851 201.741657 
L 739.506718 230.534401 
L 740.40865 132.990265 
L 741.253417 240.473339 
L 741.577351 195.448544 
L 742.174405 215.695478 
L 742.345899 186.812232 
L 742.720645 243.930597 
L 743.197018 148.332869 
L 743.546358 231.075943 
L 743.647984 164.549539 
L 743.870291 221.534703 
L 743.908401 143.38702 
L 744.588026 176.149137 
L 744.632488 206.8444 
L 744.740466 192.358846 
L 744.886553 196.955071 
L 745.159674 228.60599 
L 745.794837 244.565244 
L 745.953628 239.442233 
L 746.385539 136.427671 
L 746.468111 238.498535 
L 747.230307 178.338228 
L 747.585998 231.255574 
L 747.611405 203.091106 
L 747.86547 250.405918 
L 748.176701 191.111267 
L 750.342608 178.373719 
L 750.42518 192.206076 
L 750.730058 174.117726 
L 751.625639 171.440876 
L 752.051199 234.487986 
L 752.102012 159.307334 
L 752.349725 184.835684 
L 753.861415 170.330856 
L 754.306029 228.327742 
L 754.699831 243.310975 
L 754.915786 200.858299 
L 755.290533 193.781205 
L 756.167059 215.753521 
L 756.306795 182.516438 
L 756.503695 210.088623 
L 756.757761 195.554674 
L 756.808574 104.407168 
L 757.208727 176.15298 
L 758.040791 188.457939 
L 758.23134 239.382078 
L 758.510812 182.662774 
L 758.625142 221.715561 
L 758.752174 206.127291 
L 759.762085 241.164987 
L 759.984392 209.206738 
L 760.276567 202.895811 
L 761.883531 251.567316 
L 761.972454 206.574844 
L 762.277332 224.514624 
L 762.575859 214.605444 
L 763.401572 225.446266 
L 763.814428 222.659836 
L 763.897 155.76926 
L 763.903351 168.84753 
L 764.392427 203.023991 
L 764.798932 196.011951 
L 765.091107 214.519189 
L 766.18994 156.374714 
L 766.786994 230.256988 
L 767.606355 154.759392 
L 767.815959 184.106212 
L 769.467384 228.516457 
L 769.518197 191.860185 
L 770.115251 191.932211 
L 770.470943 171.445909 
L 770.642437 232.343017 
L 771.499908 175.478065 
L 771.931819 188.296158 
L 772.046148 211.911149 
L 772.617796 180.418537 
L 773.119575 207.839205 
L 773.151333 117.696546 
L 773.678519 123.510665 
L 774.313683 219.609116 
L 774.383551 185.953819 
L 774.53599 216.533683 
L 775.323593 175.43905 
L 776.073086 127.509134 
L 776.936908 178.214996 
L 777.140161 154.788242 
L 777.324358 187.734838 
L 777.394226 142.331213 
L 777.406929 174.541414 
L 778.010335 194.743121 
L 778.442246 172.742397 
L 778.816992 215.835737 
L 779.096464 176.229462 
L 780.112726 206.838225 
L 780.665318 186.679989 
L 780.74789 243.594048 
L 781.395757 149.60381 
L 781.751448 190.538088 
L 782.189711 177.713475 
L 782.570809 142.24567 
L 783.110698 126.675238 
L 783.269489 178.99285 
L 783.517203 155.366467 
L 783.73951 219.031026 
L 784.120608 188.64151 
L 784.971728 172.147734 
L 785.2512 201.252118 
L 785.733924 188.507462 
L 787.251965 165.899418 
L 787.85537 146.704607 
L 787.956997 214.849342 
L 788.427018 188.611027 
L 788.477831 207.273785 
L 788.70649 153.369516 
L 789.557609 187.409092 
L 789.697345 124.968357 
L 789.710048 211.935272 
L 789.805323 143.116813 
L 789.894245 142.569599 
L 790.021278 160.221911 
L 790.396025 229.415861 
L 790.834288 192.284671 
L 790.923211 216.90856 
L 791.158221 159.308242 
L 791.577429 203.343131 
L 791.717165 124.684032 
L 792.752482 132.345427 
L 793.584546 117.822478 
L 793.75604 224.334834 
L 793.768743 198.94047 
L 794.06727 162.345237 
L 794.302281 203.843548 
L 794.53094 180.267155 
L 794.702434 226.463377 
L 795.178807 203.779612 
L 795.521795 207.363084 
L 795.553553 219.381767 
L 796.372914 185.994258 
L 796.652386 197.613769 
L 799.224799 177.785489 
L 799.23115 189.838791 
L 799.320073 115.335448 
L 799.364535 185.710363 
L 799.866314 179.781765 
L 800.063215 251.516073 
L 800.349038 222.426017 
L 801.886134 228.471598 
L 802.10209 166.898409 
L 802.362507 217.072746 
L 802.546704 200.330383 
L 803.283494 127.973875 
L 804.420437 223.157723 
L 804.630041 200.522106 
L 804.636393 132.537924 
L 805.989291 158.527234 
L 806.154434 194.453383 
L 806.624455 180.830071 
L 806.859465 211.119852 
L 806.942036 210.622149 
L 807.53909 184.611773 
L 807.647068 216.38596 
L 807.710584 205.108608 
L 808.27588 154.471654 
L 809.152406 170.26137 
L 809.495394 150.003903 
L 809.793921 188.946717 
L 810.175019 218.00521 
L 810.581524 214.047659 
L 810.587875 192.195899 
L 810.708556 194.186491 
L 810.975325 118.96594 
L 811.057896 159.512696 
L 811.286555 174.267524 
L 811.546972 121.051625 
L 811.585082 153.657131 
L 811.813741 158.034109 
L 812.11862 170.902132 
L 812.791893 174.635955 
L 812.906223 192.65983 
L 813.242859 221.739255 
L 813.395298 196.950836 
L 814.513186 158.638164 
L 814.563999 175.757749 
L 814.868878 105.36216 
L 815.326196 158.510685 
L 815.45958 149.543066 
L 815.910546 194.632473 
L 816.101095 151.519417 
L 816.291644 195.486515 
L 816.317051 111.143968 
L 816.666391 146.53281 
L 816.672743 177.339384 
L 817.498455 193.96992 
L 817.676301 213.422661 
L 818.203487 221.32254 
L 818.832299 131.931634 
L 819.156232 114.21708 
L 819.232452 231.006716 
L 819.26421 225.750663 
L 819.467462 123.851732 
L 819.562737 208.5372 
L 819.57544 183.657137 
L 819.702473 163.177513 
L 819.981945 92.158398 
L 820.070868 248.309933 
L 820.731438 229.102072 
L 821.620667 130.867651 
L 821.925546 234.918574 
L 821.976359 168.940317 
L 822.255831 234.603189 
L 822.503544 189.732354 
L 822.509896 160.59637 
L 822.929104 171.373846 
L 823.011675 189.948298 
L 824.497958 184.482439 
L 824.910814 186.50511 
L 825.107715 158.233014 
L 825.577736 160.286339 
L 826.619405 148.588663 
L 826.759141 159.720783 
L 827.057667 173.012751 
L 827.553095 175.723632 
L 827.61026 136.531285 
L 827.813512 209.586599 
L 827.896083 205.281302 
L 828.220017 101.654007 
L 828.359753 123.821483 
L 829.407773 162.258 
L 829.998475 92.335009 
L 830.01753 162.398149 
L 830.411331 163.815377 
L 830.919462 111.32458 
L 831.732471 124.505581 
L 832.050053 212.776006 
L 832.278712 134.782762 
L 832.412096 128.556028 
L 833.466468 139.048172 
L 834.120687 109.685392 
L 834.323939 112.005707 
L 836.026177 188.939817 
L 836.50255 194.778478 
L 836.680396 170.097994 
L 837.099604 158.355927 
L 837.188527 162.734747 
L 837.506109 160.071548 
L 837.82369 193.419133 
L 837.880855 233.379894 
L 837.957075 174.707847 
L 838.198437 189.953847 
L 838.846304 93.842347 
L 839.481467 192.379728 
L 839.519577 114.089011 
L 839.525929 226.716458 
L 839.716478 147.808858 
L 840.059466 173.955442 
L 841.08208 157.670036 
L 841.323442 203.753782 
L 841.520342 199.813516 
L 841.647375 185.494579 
L 842.803373 166.087814 
L 843.679899 162.177834 
L 843.946667 166.280506 
L 844.600886 181.024433 
L 844.861303 164.024447 
L 844.931171 190.80498 
L 845.08361 119.819847 
L 845.15983 129.472153 
L 846.042707 214.868236 
L 846.334882 132.265114 
L 847.351144 140.089075 
L 847.427364 165.491788 
L 847.592506 121.727253 
L 849.326503 189.449466 
L 850.387226 157.531189 
L 850.71116 174.211961 
L 851.460653 134.033231 
L 852.172036 149.48873 
L 853.239111 168.795552 
L 853.359792 145.548575 
L 853.366143 224.53601 
L 854.01401 215.833294 
L 854.141043 165.075932 
L 854.337944 150.487844 
L 854.36335 222.96341 
L 854.649174 130.167692 
L 854.903239 179.520336 
L 854.947701 175.307126 
L 855.068382 235.227071 
L 855.868688 221.663484 
L 855.995721 203.772147 
L 856.14816 165.644729 
L 856.853192 161.601942 
L 857.405784 196.781506 
L 857.81864 139.555758 
L 857.907563 175.058403 
L 858.428397 141.695166 
L 858.873012 188.458565 
L 860.283075 132.564146 
L 861.057975 210.05803 
L 861.489886 138.173591 
L 861.547051 185.396771 
L 861.858281 137.235959 
L 862.499796 163.516714 
L 862.696697 193.196167 
L 862.734806 138.793679 
L 862.98252 201.05093 
L 863.528761 160.563813 
L 864.322715 171.633126 
L 864.348122 127.735194 
L 864.697462 166.81208 
L 864.710165 150.795985 
L 864.84355 213.950356 
L 864.989637 197.791435 
L 865.643856 171.343032 
L 867.231765 176.306166 
L 867.307984 135.619998 
L 867.428665 167.885639 
L 867.689083 151.624062 
L 867.917741 197.700012 
L 868.343301 114.456521 
L 868.635476 190.800879 
L 868.934003 132.271449 
L 869.708903 182.972462 
L 869.988375 161.166542 
L 871.030043 147.591219 
L 871.099911 169.60077 
L 871.417493 199.089397 
L 872.059008 128.973651 
L 872.128876 157.671952 
L 872.744985 184.46384 
L 872.922831 120.212082 
L 873.056215 153.469299 
L 873.367445 90.609762 
L 874.078828 92.099496 
L 874.561553 171.333652 
L 874.650476 136.709663 
L 875.037925 171.525265 
L 875.673089 211.904065 
L 875.787418 120.176775 
L 876.200275 149.509944 
L 876.790977 162.280662 
L 876.822735 136.05935 
L 876.91801 141.317883 
L 877.051394 155.432932 
L 877.419789 98.890828 
L 877.527767 212.953071 
L 877.826293 89.776578 
L 877.838997 145.532591 
L 878.194688 184.901253 
L 878.702819 125.81232 
L 879.17284 120.009347 
L 879.337983 175.28218 
L 879.534884 135.213841 
L 879.941388 157.64072 
L 882.3169 223.496482 
L 883.148964 185.420563 
L 883.155316 111.369561 
L 884.406588 106.281255 
L 885.232301 126.405571 
L 885.251356 195.673155 
L 885.289466 152.01836 
L 885.378389 157.832062 
L 885.511773 186.951043 
L 885.778542 123.771198 
L 887.150495 192.901469 
L 887.366451 154.046002 
L 887.582406 93.274188 
L 887.931746 112.031856 
L 888.007966 92.290641 
L 888.147702 209.132035 
L 888.230273 147.948589 
L 889.119502 191.616017 
L 889.170315 106.622273 
L 889.767369 142.477402 
L 889.92616 120.639846 
L 890.758224 132.957118 
L 891.838002 166.137067 
L 892.384243 134.533131 
L 892.460463 38.435994 
L 892.530331 153.404037 
L 892.56844 125.254351 
L 893.660922 177.958367 
L 893.914987 140.165607 
L 895.934808 121.195433 
L 896.004676 182.209499 
L 896.385774 208.834746 
L 897.192431 69.569788 
L 897.370277 110.24832 
L 898.659659 204.458627 
L 899.332933 125.674528 
L 900.082426 201.75688 
L 901.308292 223.131881 
L 902.134004 149.171676 
L 902.159411 180.240858 
L 902.241982 172.967156 
L 903.264595 133.160393 
L 904.655604 183.900409 
L 905.163735 174.424173 
L 905.252657 120.535176 
L 905.513075 129.473675 
L 905.551184 203.444879 
L 905.748085 114.423154 
L 906.408655 125.089797 
L 906.522985 87.870351 
L 907.081929 158.503834 
L 907.920345 66.089217 
L 908.434827 155.9964 
L 908.453882 134.609246 
L 908.472937 151.375192 
L 908.606321 164.190303 
L 908.746057 110.324582 
L 908.936606 100.443736 
L 909.311353 159.239641 
L 909.832187 162.496484 
L 910.276802 109.944525 
L 910.988185 146.168221 
L 911.172382 134.25659 
L 911.432799 163.66494 
L 911.94093 138.178895 
L 912.169589 154.317535 
L 912.436358 184.884717 
L 912.842862 104.963909 
L 912.944489 156.447269 
L 912.95084 106.303819 
L 913.128686 169.476138 
L 914.132245 206.984868 
L 914.157651 144.19597 
L 914.195761 224.593182 
L 914.761056 141.25159 
L 915.936109 157.697217 
L 916.012329 139.057453 
L 916.126658 149.877994 
L 916.139361 169.986057 
L 917.022239 99.646522 
L 917.193733 132.405779 
L 917.873358 155.553929 
L 919.365993 174.504204 
L 920.071024 102.122455 
L 920.318738 164.056341 
L 920.528342 135.147498 
L 921.169857 129.942614 
L 921.233374 164.95901 
L 921.449329 159.704652 
L 922.414778 114.68705 
L 922.484646 134.834447 
L 923.157919 104.202444 
L 923.450094 160.1923 
L 923.58983 153.964363 
L 923.66605 119.949904 
L 924.885564 117.814499 
L 925.076113 113.719905 
L 926.327386 138.2102 
L 926.378199 150.931837 
L 926.644967 145.69005 
L 927.140395 163.800793 
L 927.712042 98.724382 
L 927.966108 89.372312 
L 928.671139 172.107835 
L 929.299951 201.801591 
L 929.446039 109.677682 
L 929.446039 109.677682 
" clip-path="url(#pe0c4e93611)" style="fill: none; stroke: #ff7f50; stroke-width: 2; stroke-linecap: square"/>
   </g>
   <g id="patch_6">
    <path d="M 537.85625 344.997812 
L 537.85625 23.837812 
" style="fill: none; stroke: #000000; stroke-width: 0.8; stroke-linejoin: miter; stroke-linecap: square"/>
   </g>
   <g id="patch_7">
    <path d="M 537.85625 344.997812 
L 948.093172 344.997812 
" style="fill: none; stroke: #000000; stroke-width: 0.8; stroke-linejoin: miter; stroke-linecap: square"/>
   </g>
   <g id="text_35">
    <!-- Mean Reward -->
    <g transform="translate(695.60768 17.837812) scale(0.14 -0.14)">
     <use xlink:href="#DejaVuSans-4d"/>
     <use xlink:href="#DejaVuSans-65" x="86.279297"/>
     <use xlink:href="#DejaVuSans-61" x="147.802734"/>
     <use xlink:href="#DejaVuSans-6e" x="209.082031"/>
     <use xlink:href="#DejaVuSans-20" x="272.460938"/>
     <use xlink:href="#DejaVuSans-52" x="304.248047"/>
     <use xlink:href="#DejaVuSans-65" x="369.230469"/>
     <use xlink:href="#DejaVuSans-77" x="430.753906"/>
     <use xlink:href="#DejaVuSans-61" x="512.541016"/>
     <use xlink:href="#DejaVuSans-72" x="573.820312"/>
     <use xlink:href="#DejaVuSans-64" x="613.183594"/>
    </g>
   </g>
  </g>
 </g>
 <defs>
  <clipPath id="p36c439bf07">
   <rect x="48.90125" y="23.837812" width="410.236922" height="321.16"/>
  </clipPath>
  <clipPath id="pe0c4e93611">
   <rect x="537.85625" y="23.837812" width="410.236922" height="321.16"/>
  </clipPath>
 </defs>
</svg>
