<?xml version="1.0" encoding="utf-8" standalone="no"?>
<!DOCTYPE svg PUBLIC "-//W3C//DTD SVG 1.1//EN"
  "http://www.w3.org/Graphics/SVG/1.1/DTD/svg11.dtd">
<svg xmlns:xlink="http://www.w3.org/1999/xlink" width="505.760937pt" height="281.634375pt" viewBox="0 0 505.760937 281.634375" xmlns="http://www.w3.org/2000/svg" version="1.1">
 <metadata>
  <rdf:RDF xmlns:dc="http://purl.org/dc/elements/1.1/" xmlns:cc="http://creativecommons.org/ns#" xmlns:rdf="http://www.w3.org/1999/02/22-rdf-syntax-ns#">
   <cc:Work>
    <dc:type rdf:resource="http://purl.org/dc/dcmitype/StillImage"/>
    <dc:date>2025-04-15T18:01:55.932751</dc:date>
    <dc:format>image/svg+xml</dc:format>
    <dc:creator>
     <cc:Agent>
      <dc:title>Matplotlib v3.6.3, https://matplotlib.org/</dc:title>
     </cc:Agent>
    </dc:creator>
   </cc:Work>
  </rdf:RDF>
 </metadata>
 <defs>
  <style type="text/css">*{stroke-linejoin: round; stroke-linecap: butt}</style>
 </defs>
 <g id="figure_1">
  <g id="patch_1">
   <path d="M 0 281.634375 
L 505.760937 281.634375 
L 505.760937 0 
L 0 0 
z
" style="fill: #ffffff"/>
  </g>
  <g id="axes_1">
   <g id="patch_2">
    <path d="M 52.160938 244.078125 
L 498.560937 244.078125 
L 498.560937 22.318125 
L 52.160938 22.318125 
z
" style="fill: #ffffff"/>
   </g>
   <g id="matplotlib.axis_1">
    <g id="xtick_1">
     <g id="line2d_1">
      <defs>
       <path id="m0b04843eab" d="M 0 0 
L 0 3.5 
" style="stroke: #000000; stroke-width: 0.8"/>
      </defs>
      <g>
       <use xlink:href="#m0b04843eab" x="72.451847" y="244.078125" style="stroke: #000000; stroke-width: 0.8"/>
      </g>
     </g>
     <g id="text_1">
      <!-- 0 -->
      <g transform="translate(69.270597 258.676562) scale(0.1 -0.1)">
       <defs>
        <path id="DejaVuSans-30" d="M 2034 4250 
Q 1547 4250 1301 3770 
Q 1056 3291 1056 2328 
Q 1056 1369 1301 889 
Q 1547 409 2034 409 
Q 2525 409 2770 889 
Q 3016 1369 3016 2328 
Q 3016 3291 2770 3770 
Q 2525 4250 2034 4250 
z
M 2034 4750 
Q 2819 4750 3233 4129 
Q 3647 3509 3647 2328 
Q 3647 1150 3233 529 
Q 2819 -91 2034 -91 
Q 1250 -91 836 529 
Q 422 1150 422 2328 
Q 422 3509 836 4129 
Q 1250 4750 2034 4750 
z
" transform="scale(0.015625)"/>
       </defs>
       <use xlink:href="#DejaVuSans-30"/>
      </g>
     </g>
    </g>
    <g id="xtick_2">
     <g id="line2d_2">
      <g>
       <use xlink:href="#m0b04843eab" x="123.17912" y="244.078125" style="stroke: #000000; stroke-width: 0.8"/>
      </g>
     </g>
     <g id="text_2">
      <!-- 1 -->
      <g transform="translate(119.99787 258.676562) scale(0.1 -0.1)">
       <defs>
        <path id="DejaVuSans-31" d="M 794 531 
L 1825 531 
L 1825 4091 
L 703 3866 
L 703 4441 
L 1819 4666 
L 2450 4666 
L 2450 531 
L 3481 531 
L 3481 0 
L 794 0 
L 794 531 
z
" transform="scale(0.015625)"/>
       </defs>
       <use xlink:href="#DejaVuSans-31"/>
      </g>
     </g>
    </g>
    <g id="xtick_3">
     <g id="line2d_3">
      <g>
       <use xlink:href="#m0b04843eab" x="173.906394" y="244.078125" style="stroke: #000000; stroke-width: 0.8"/>
      </g>
     </g>
     <g id="text_3">
      <!-- 2 -->
      <g transform="translate(170.725144 258.676562) scale(0.1 -0.1)">
       <defs>
        <path id="DejaVuSans-32" d="M 1228 531 
L 3431 531 
L 3431 0 
L 469 0 
L 469 531 
Q 828 903 1448 1529 
Q 2069 2156 2228 2338 
Q 2531 2678 2651 2914 
Q 2772 3150 2772 3378 
Q 2772 3750 2511 3984 
Q 2250 4219 1831 4219 
Q 1534 4219 1204 4116 
Q 875 4013 500 3803 
L 500 4441 
Q 881 4594 1212 4672 
Q 1544 4750 1819 4750 
Q 2544 4750 2975 4387 
Q 3406 4025 3406 3419 
Q 3406 3131 3298 2873 
Q 3191 2616 2906 2266 
Q 2828 2175 2409 1742 
Q 1991 1309 1228 531 
z
" transform="scale(0.015625)"/>
       </defs>
       <use xlink:href="#DejaVuSans-32"/>
      </g>
     </g>
    </g>
    <g id="xtick_4">
     <g id="line2d_4">
      <g>
       <use xlink:href="#m0b04843eab" x="224.633668" y="244.078125" style="stroke: #000000; stroke-width: 0.8"/>
      </g>
     </g>
     <g id="text_4">
      <!-- 3 -->
      <g transform="translate(221.452418 258.676562) scale(0.1 -0.1)">
       <defs>
        <path id="DejaVuSans-33" d="M 2597 2516 
Q 3050 2419 3304 2112 
Q 3559 1806 3559 1356 
Q 3559 666 3084 287 
Q 2609 -91 1734 -91 
Q 1441 -91 1130 -33 
Q 819 25 488 141 
L 488 750 
Q 750 597 1062 519 
Q 1375 441 1716 441 
Q 2309 441 2620 675 
Q 2931 909 2931 1356 
Q 2931 1769 2642 2001 
Q 2353 2234 1838 2234 
L 1294 2234 
L 1294 2753 
L 1863 2753 
Q 2328 2753 2575 2939 
Q 2822 3125 2822 3475 
Q 2822 3834 2567 4026 
Q 2313 4219 1838 4219 
Q 1578 4219 1281 4162 
Q 984 4106 628 3988 
L 628 4550 
Q 988 4650 1302 4700 
Q 1616 4750 1894 4750 
Q 2613 4750 3031 4423 
Q 3450 4097 3450 3541 
Q 3450 3153 3228 2886 
Q 3006 2619 2597 2516 
z
" transform="scale(0.015625)"/>
       </defs>
       <use xlink:href="#DejaVuSans-33"/>
      </g>
     </g>
    </g>
    <g id="xtick_5">
     <g id="line2d_5">
      <g>
       <use xlink:href="#m0b04843eab" x="275.360942" y="244.078125" style="stroke: #000000; stroke-width: 0.8"/>
      </g>
     </g>
     <g id="text_5">
      <!-- 4 -->
      <g transform="translate(272.179692 258.676562) scale(0.1 -0.1)">
       <defs>
        <path id="DejaVuSans-34" d="M 2419 4116 
L 825 1625 
L 2419 1625 
L 2419 4116 
z
M 2253 4666 
L 3047 4666 
L 3047 1625 
L 3713 1625 
L 3713 1100 
L 3047 1100 
L 3047 0 
L 2419 0 
L 2419 1100 
L 313 1100 
L 313 1709 
L 2253 4666 
z
" transform="scale(0.015625)"/>
       </defs>
       <use xlink:href="#DejaVuSans-34"/>
      </g>
     </g>
    </g>
    <g id="xtick_6">
     <g id="line2d_6">
      <g>
       <use xlink:href="#m0b04843eab" x="326.088216" y="244.078125" style="stroke: #000000; stroke-width: 0.8"/>
      </g>
     </g>
     <g id="text_6">
      <!-- 5 -->
      <g transform="translate(322.906966 258.676562) scale(0.1 -0.1)">
       <defs>
        <path id="DejaVuSans-35" d="M 691 4666 
L 3169 4666 
L 3169 4134 
L 1269 4134 
L 1269 2991 
Q 1406 3038 1543 3061 
Q 1681 3084 1819 3084 
Q 2600 3084 3056 2656 
Q 3513 2228 3513 1497 
Q 3513 744 3044 326 
Q 2575 -91 1722 -91 
Q 1428 -91 1123 -41 
Q 819 9 494 109 
L 494 744 
Q 775 591 1075 516 
Q 1375 441 1709 441 
Q 2250 441 2565 725 
Q 2881 1009 2881 1497 
Q 2881 1984 2565 2268 
Q 2250 2553 1709 2553 
Q 1456 2553 1204 2497 
Q 953 2441 691 2322 
L 691 4666 
z
" transform="scale(0.015625)"/>
       </defs>
       <use xlink:href="#DejaVuSans-35"/>
      </g>
     </g>
    </g>
    <g id="xtick_7">
     <g id="line2d_7">
      <g>
       <use xlink:href="#m0b04843eab" x="376.81549" y="244.078125" style="stroke: #000000; stroke-width: 0.8"/>
      </g>
     </g>
     <g id="text_7">
      <!-- 6 -->
      <g transform="translate(373.63424 258.676562) scale(0.1 -0.1)">
       <defs>
        <path id="DejaVuSans-36" d="M 2113 2584 
Q 1688 2584 1439 2293 
Q 1191 2003 1191 1497 
Q 1191 994 1439 701 
Q 1688 409 2113 409 
Q 2538 409 2786 701 
Q 3034 994 3034 1497 
Q 3034 2003 2786 2293 
Q 2538 2584 2113 2584 
z
M 3366 4563 
L 3366 3988 
Q 3128 4100 2886 4159 
Q 2644 4219 2406 4219 
Q 1781 4219 1451 3797 
Q 1122 3375 1075 2522 
Q 1259 2794 1537 2939 
Q 1816 3084 2150 3084 
Q 2853 3084 3261 2657 
Q 3669 2231 3669 1497 
Q 3669 778 3244 343 
Q 2819 -91 2113 -91 
Q 1303 -91 875 529 
Q 447 1150 447 2328 
Q 447 3434 972 4092 
Q 1497 4750 2381 4750 
Q 2619 4750 2861 4703 
Q 3103 4656 3366 4563 
z
" transform="scale(0.015625)"/>
       </defs>
       <use xlink:href="#DejaVuSans-36"/>
      </g>
     </g>
    </g>
    <g id="xtick_8">
     <g id="line2d_8">
      <g>
       <use xlink:href="#m0b04843eab" x="427.542764" y="244.078125" style="stroke: #000000; stroke-width: 0.8"/>
      </g>
     </g>
     <g id="text_8">
      <!-- 7 -->
      <g transform="translate(424.361514 258.676562) scale(0.1 -0.1)">
       <defs>
        <path id="DejaVuSans-37" d="M 525 4666 
L 3525 4666 
L 3525 4397 
L 1831 0 
L 1172 0 
L 2766 4134 
L 525 4134 
L 525 4666 
z
" transform="scale(0.015625)"/>
       </defs>
       <use xlink:href="#DejaVuSans-37"/>
      </g>
     </g>
    </g>
    <g id="xtick_9">
     <g id="line2d_9">
      <g>
       <use xlink:href="#m0b04843eab" x="478.270037" y="244.078125" style="stroke: #000000; stroke-width: 0.8"/>
      </g>
     </g>
     <g id="text_9">
      <!-- 8 -->
      <g transform="translate(475.088787 258.676562) scale(0.1 -0.1)">
       <defs>
        <path id="DejaVuSans-38" d="M 2034 2216 
Q 1584 2216 1326 1975 
Q 1069 1734 1069 1313 
Q 1069 891 1326 650 
Q 1584 409 2034 409 
Q 2484 409 2743 651 
Q 3003 894 3003 1313 
Q 3003 1734 2745 1975 
Q 2488 2216 2034 2216 
z
M 1403 2484 
Q 997 2584 770 2862 
Q 544 3141 544 3541 
Q 544 4100 942 4425 
Q 1341 4750 2034 4750 
Q 2731 4750 3128 4425 
Q 3525 4100 3525 3541 
Q 3525 3141 3298 2862 
Q 3072 2584 2669 2484 
Q 3125 2378 3379 2068 
Q 3634 1759 3634 1313 
Q 3634 634 3220 271 
Q 2806 -91 2034 -91 
Q 1263 -91 848 271 
Q 434 634 434 1313 
Q 434 1759 690 2068 
Q 947 2378 1403 2484 
z
M 1172 3481 
Q 1172 3119 1398 2916 
Q 1625 2713 2034 2713 
Q 2441 2713 2670 2916 
Q 2900 3119 2900 3481 
Q 2900 3844 2670 4047 
Q 2441 4250 2034 4250 
Q 1625 4250 1398 4047 
Q 1172 3844 1172 3481 
z
" transform="scale(0.015625)"/>
       </defs>
       <use xlink:href="#DejaVuSans-38"/>
      </g>
     </g>
    </g>
    <g id="text_10">
     <!-- time(s) -->
     <g transform="translate(257.558594 272.354687) scale(0.1 -0.1)">
      <defs>
       <path id="DejaVuSans-74" d="M 1172 4494 
L 1172 3500 
L 2356 3500 
L 2356 3053 
L 1172 3053 
L 1172 1153 
Q 1172 725 1289 603 
Q 1406 481 1766 481 
L 2356 481 
L 2356 0 
L 1766 0 
Q 1100 0 847 248 
Q 594 497 594 1153 
L 594 3053 
L 172 3053 
L 172 3500 
L 594 3500 
L 594 4494 
L 1172 4494 
z
" transform="scale(0.015625)"/>
       <path id="DejaVuSans-69" d="M 603 3500 
L 1178 3500 
L 1178 0 
L 603 0 
L 603 3500 
z
M 603 4863 
L 1178 4863 
L 1178 4134 
L 603 4134 
L 603 4863 
z
" transform="scale(0.015625)"/>
       <path id="DejaVuSans-6d" d="M 3328 2828 
Q 3544 3216 3844 3400 
Q 4144 3584 4550 3584 
Q 5097 3584 5394 3201 
Q 5691 2819 5691 2113 
L 5691 0 
L 5113 0 
L 5113 2094 
Q 5113 2597 4934 2840 
Q 4756 3084 4391 3084 
Q 3944 3084 3684 2787 
Q 3425 2491 3425 1978 
L 3425 0 
L 2847 0 
L 2847 2094 
Q 2847 2600 2669 2842 
Q 2491 3084 2119 3084 
Q 1678 3084 1418 2786 
Q 1159 2488 1159 1978 
L 1159 0 
L 581 0 
L 581 3500 
L 1159 3500 
L 1159 2956 
Q 1356 3278 1631 3431 
Q 1906 3584 2284 3584 
Q 2666 3584 2933 3390 
Q 3200 3197 3328 2828 
z
" transform="scale(0.015625)"/>
       <path id="DejaVuSans-65" d="M 3597 1894 
L 3597 1613 
L 953 1613 
Q 991 1019 1311 708 
Q 1631 397 2203 397 
Q 2534 397 2845 478 
Q 3156 559 3463 722 
L 3463 178 
Q 3153 47 2828 -22 
Q 2503 -91 2169 -91 
Q 1331 -91 842 396 
Q 353 884 353 1716 
Q 353 2575 817 3079 
Q 1281 3584 2069 3584 
Q 2775 3584 3186 3129 
Q 3597 2675 3597 1894 
z
M 3022 2063 
Q 3016 2534 2758 2815 
Q 2500 3097 2075 3097 
Q 1594 3097 1305 2825 
Q 1016 2553 972 2059 
L 3022 2063 
z
" transform="scale(0.015625)"/>
       <path id="DejaVuSans-28" d="M 1984 4856 
Q 1566 4138 1362 3434 
Q 1159 2731 1159 2009 
Q 1159 1288 1364 580 
Q 1569 -128 1984 -844 
L 1484 -844 
Q 1016 -109 783 600 
Q 550 1309 550 2009 
Q 550 2706 781 3412 
Q 1013 4119 1484 4856 
L 1984 4856 
z
" transform="scale(0.015625)"/>
       <path id="DejaVuSans-73" d="M 2834 3397 
L 2834 2853 
Q 2591 2978 2328 3040 
Q 2066 3103 1784 3103 
Q 1356 3103 1142 2972 
Q 928 2841 928 2578 
Q 928 2378 1081 2264 
Q 1234 2150 1697 2047 
L 1894 2003 
Q 2506 1872 2764 1633 
Q 3022 1394 3022 966 
Q 3022 478 2636 193 
Q 2250 -91 1575 -91 
Q 1294 -91 989 -36 
Q 684 19 347 128 
L 347 722 
Q 666 556 975 473 
Q 1284 391 1588 391 
Q 1994 391 2212 530 
Q 2431 669 2431 922 
Q 2431 1156 2273 1281 
Q 2116 1406 1581 1522 
L 1381 1569 
Q 847 1681 609 1914 
Q 372 2147 372 2553 
Q 372 3047 722 3315 
Q 1072 3584 1716 3584 
Q 2034 3584 2315 3537 
Q 2597 3491 2834 3397 
z
" transform="scale(0.015625)"/>
       <path id="DejaVuSans-29" d="M 513 4856 
L 1013 4856 
Q 1481 4119 1714 3412 
Q 1947 2706 1947 2009 
Q 1947 1309 1714 600 
Q 1481 -109 1013 -844 
L 513 -844 
Q 928 -128 1133 580 
Q 1338 1288 1338 2009 
Q 1338 2731 1133 3434 
Q 928 4138 513 4856 
z
" transform="scale(0.015625)"/>
      </defs>
      <use xlink:href="#DejaVuSans-74"/>
      <use xlink:href="#DejaVuSans-69" x="39.208984"/>
      <use xlink:href="#DejaVuSans-6d" x="66.992188"/>
      <use xlink:href="#DejaVuSans-65" x="164.404297"/>
      <use xlink:href="#DejaVuSans-28" x="225.927734"/>
      <use xlink:href="#DejaVuSans-73" x="264.941406"/>
      <use xlink:href="#DejaVuSans-29" x="317.041016"/>
     </g>
    </g>
   </g>
   <g id="matplotlib.axis_2">
    <g id="ytick_1">
     <g id="line2d_10">
      <defs>
       <path id="mc0dbcc3580" d="M 0 0 
L -3.5 0 
" style="stroke: #000000; stroke-width: 0.8"/>
      </defs>
      <g>
       <use xlink:href="#mc0dbcc3580" x="52.160938" y="242.73113" style="stroke: #000000; stroke-width: 0.8"/>
      </g>
     </g>
     <g id="text_11">
      <!-- −0.8 -->
      <g transform="translate(20.878125 246.530349) scale(0.1 -0.1)">
       <defs>
        <path id="DejaVuSans-2212" d="M 678 2272 
L 4684 2272 
L 4684 1741 
L 678 1741 
L 678 2272 
z
" transform="scale(0.015625)"/>
        <path id="DejaVuSans-2e" d="M 684 794 
L 1344 794 
L 1344 0 
L 684 0 
L 684 794 
z
" transform="scale(0.015625)"/>
       </defs>
       <use xlink:href="#DejaVuSans-2212"/>
       <use xlink:href="#DejaVuSans-30" x="83.789062"/>
       <use xlink:href="#DejaVuSans-2e" x="147.412109"/>
       <use xlink:href="#DejaVuSans-38" x="179.199219"/>
      </g>
     </g>
    </g>
    <g id="ytick_2">
     <g id="line2d_11">
      <g>
       <use xlink:href="#mc0dbcc3580" x="52.160938" y="209.491784" style="stroke: #000000; stroke-width: 0.8"/>
      </g>
     </g>
     <g id="text_12">
      <!-- −0.6 -->
      <g transform="translate(20.878125 213.291002) scale(0.1 -0.1)">
       <use xlink:href="#DejaVuSans-2212"/>
       <use xlink:href="#DejaVuSans-30" x="83.789062"/>
       <use xlink:href="#DejaVuSans-2e" x="147.412109"/>
       <use xlink:href="#DejaVuSans-36" x="179.199219"/>
      </g>
     </g>
    </g>
    <g id="ytick_3">
     <g id="line2d_12">
      <g>
       <use xlink:href="#mc0dbcc3580" x="52.160938" y="176.252437" style="stroke: #000000; stroke-width: 0.8"/>
      </g>
     </g>
     <g id="text_13">
      <!-- −0.4 -->
      <g transform="translate(20.878125 180.051656) scale(0.1 -0.1)">
       <use xlink:href="#DejaVuSans-2212"/>
       <use xlink:href="#DejaVuSans-30" x="83.789062"/>
       <use xlink:href="#DejaVuSans-2e" x="147.412109"/>
       <use xlink:href="#DejaVuSans-34" x="179.199219"/>
      </g>
     </g>
    </g>
    <g id="ytick_4">
     <g id="line2d_13">
      <g>
       <use xlink:href="#mc0dbcc3580" x="52.160938" y="143.013091" style="stroke: #000000; stroke-width: 0.8"/>
      </g>
     </g>
     <g id="text_14">
      <!-- −0.2 -->
      <g transform="translate(20.878125 146.812309) scale(0.1 -0.1)">
       <use xlink:href="#DejaVuSans-2212"/>
       <use xlink:href="#DejaVuSans-30" x="83.789062"/>
       <use xlink:href="#DejaVuSans-2e" x="147.412109"/>
       <use xlink:href="#DejaVuSans-32" x="179.199219"/>
      </g>
     </g>
    </g>
    <g id="ytick_5">
     <g id="line2d_14">
      <g>
       <use xlink:href="#mc0dbcc3580" x="52.160938" y="109.773744" style="stroke: #000000; stroke-width: 0.8"/>
      </g>
     </g>
     <g id="text_15">
      <!-- 0.0 -->
      <g transform="translate(29.257812 113.572963) scale(0.1 -0.1)">
       <use xlink:href="#DejaVuSans-30"/>
       <use xlink:href="#DejaVuSans-2e" x="63.623047"/>
       <use xlink:href="#DejaVuSans-30" x="95.410156"/>
      </g>
     </g>
    </g>
    <g id="ytick_6">
     <g id="line2d_15">
      <g>
       <use xlink:href="#mc0dbcc3580" x="52.160938" y="76.534397" style="stroke: #000000; stroke-width: 0.8"/>
      </g>
     </g>
     <g id="text_16">
      <!-- 0.2 -->
      <g transform="translate(29.257812 80.333616) scale(0.1 -0.1)">
       <use xlink:href="#DejaVuSans-30"/>
       <use xlink:href="#DejaVuSans-2e" x="63.623047"/>
       <use xlink:href="#DejaVuSans-32" x="95.410156"/>
      </g>
     </g>
    </g>
    <g id="ytick_7">
     <g id="line2d_16">
      <g>
       <use xlink:href="#mc0dbcc3580" x="52.160938" y="43.295051" style="stroke: #000000; stroke-width: 0.8"/>
      </g>
     </g>
     <g id="text_17">
      <!-- 0.4 -->
      <g transform="translate(29.257812 47.09427) scale(0.1 -0.1)">
       <use xlink:href="#DejaVuSans-30"/>
       <use xlink:href="#DejaVuSans-2e" x="63.623047"/>
       <use xlink:href="#DejaVuSans-34" x="95.410156"/>
      </g>
     </g>
    </g>
    <g id="text_18">
     <!-- position -->
     <g transform="translate(14.798437 153.002812) rotate(-90) scale(0.1 -0.1)">
      <defs>
       <path id="DejaVuSans-70" d="M 1159 525 
L 1159 -1331 
L 581 -1331 
L 581 3500 
L 1159 3500 
L 1159 2969 
Q 1341 3281 1617 3432 
Q 1894 3584 2278 3584 
Q 2916 3584 3314 3078 
Q 3713 2572 3713 1747 
Q 3713 922 3314 415 
Q 2916 -91 2278 -91 
Q 1894 -91 1617 61 
Q 1341 213 1159 525 
z
M 3116 1747 
Q 3116 2381 2855 2742 
Q 2594 3103 2138 3103 
Q 1681 3103 1420 2742 
Q 1159 2381 1159 1747 
Q 1159 1113 1420 752 
Q 1681 391 2138 391 
Q 2594 391 2855 752 
Q 3116 1113 3116 1747 
z
" transform="scale(0.015625)"/>
       <path id="DejaVuSans-6f" d="M 1959 3097 
Q 1497 3097 1228 2736 
Q 959 2375 959 1747 
Q 959 1119 1226 758 
Q 1494 397 1959 397 
Q 2419 397 2687 759 
Q 2956 1122 2956 1747 
Q 2956 2369 2687 2733 
Q 2419 3097 1959 3097 
z
M 1959 3584 
Q 2709 3584 3137 3096 
Q 3566 2609 3566 1747 
Q 3566 888 3137 398 
Q 2709 -91 1959 -91 
Q 1206 -91 779 398 
Q 353 888 353 1747 
Q 353 2609 779 3096 
Q 1206 3584 1959 3584 
z
" transform="scale(0.015625)"/>
       <path id="DejaVuSans-6e" d="M 3513 2113 
L 3513 0 
L 2938 0 
L 2938 2094 
Q 2938 2591 2744 2837 
Q 2550 3084 2163 3084 
Q 1697 3084 1428 2787 
Q 1159 2491 1159 1978 
L 1159 0 
L 581 0 
L 581 3500 
L 1159 3500 
L 1159 2956 
Q 1366 3272 1645 3428 
Q 1925 3584 2291 3584 
Q 2894 3584 3203 3211 
Q 3513 2838 3513 2113 
z
" transform="scale(0.015625)"/>
      </defs>
      <use xlink:href="#DejaVuSans-70"/>
      <use xlink:href="#DejaVuSans-6f" x="63.476562"/>
      <use xlink:href="#DejaVuSans-73" x="124.658203"/>
      <use xlink:href="#DejaVuSans-69" x="176.757812"/>
      <use xlink:href="#DejaVuSans-74" x="204.541016"/>
      <use xlink:href="#DejaVuSans-69" x="243.75"/>
      <use xlink:href="#DejaVuSans-6f" x="271.533203"/>
      <use xlink:href="#DejaVuSans-6e" x="332.714844"/>
     </g>
    </g>
   </g>
   <g id="line2d_17">
    <path d="M 72.451847 137.72956 
L 73.468935 137.37539 
L 74.486023 129.063231 
L 75.503111 134.719449 
L 76.520199 134.356116 
L 77.537287 126.567317 
L 78.554376 145.939766 
L 79.571464 173.511099 
L 80.588552 176.219892 
L 81.60564 162.417603 
L 82.622728 139.844009 
L 83.639817 136.930861 
L 84.656905 141.063009 
L 85.673993 157.355394 
L 86.691081 178.275333 
L 88.725257 197.702561 
L 89.742346 193.704857 
L 90.759434 170.124695 
L 91.776522 141.427801 
L 92.79361 147.109753 
L 93.810698 173.694922 
L 94.827786 193.8079 
L 96.861963 210.121924 
L 97.879051 191.128588 
L 98.896139 167.401088 
L 100.930315 143.933296 
L 101.947404 147.14059 
L 102.964492 160.976265 
L 103.98158 161.81394 
L 104.998668 173.393162 
L 106.015756 191.344749 
L 108.049933 200.955951 
L 109.067021 203.179514 
L 110.084109 201.300198 
L 111.101197 200.706595 
L 112.118285 204.831286 
L 113.135374 210.748951 
L 114.152462 209.308366 
L 115.16955 202.050684 
L 116.186638 188.822424 
L 118.220814 187.643227 
L 119.237903 185.100995 
L 120.254991 187.880567 
L 121.272079 196.017128 
L 122.289167 202.036835 
L 123.306255 191.379826 
L 125.340432 149.973402 
L 126.35752 125.553865 
L 127.374608 125.046526 
L 128.391696 127.630168 
L 129.408784 137.041857 
L 130.425873 142.613306 
L 131.442961 151.532773 
L 132.460049 159.301149 
L 133.477137 152.593622 
L 134.494225 136.768228 
L 135.511313 123.463636 
L 136.528402 113.458682 
L 137.54549 110.904865 
L 140.596754 92.099311 
L 141.613842 87.858245 
L 142.630931 82.458142 
L 143.648019 80.223697 
L 144.665107 81.141161 
L 145.682195 86.790056 
L 148.73346 100.441197 
L 149.750548 107.429663 
L 150.767636 112.104507 
L 151.784724 112.181253 
L 152.801812 109.391945 
L 153.818901 105.090705 
L 154.835989 97.829389 
L 155.853077 95.560053 
L 156.870165 102.924054 
L 157.887253 112.943251 
L 158.904341 127.004167 
L 159.92143 125.216659 
L 160.938518 118.8733 
L 161.955606 117.724786 
L 162.972694 126.93126 
L 163.989782 133.657817 
L 165.006871 116.540582 
L 166.023959 103.60399 
L 167.041047 99.859775 
L 168.058135 95.249962 
L 169.075223 98.735675 
L 170.092311 111.292299 
L 174.160664 140.792763 
L 175.177752 142.448362 
L 176.19484 140.659157 
L 177.211929 139.754414 
L 178.229017 142.295932 
L 180.263193 145.873675 
L 181.280281 146.104913 
L 182.297369 145.9 
L 183.314458 141.784373 
L 186.365722 119.048762 
L 187.38281 111.262084 
L 188.399899 110.307262 
L 189.416987 116.443802 
L 190.434075 115.905845 
L 191.451163 117.668094 
L 192.468251 121.415222 
L 193.485339 115.793556 
L 194.502428 116.425035 
L 195.519516 116.913458 
L 196.536604 107.346983 
L 198.57078 92.1555 
L 200.604957 106.074726 
L 201.622045 111.299224 
L 203.656221 123.824469 
L 204.673309 125.911168 
L 205.690398 131.989284 
L 207.724574 148.380319 
L 208.741662 152.189131 
L 209.75875 144.520195 
L 210.775838 132.217823 
L 211.792927 124.609498 
L 212.810015 130.603996 
L 213.827103 147.270046 
L 214.844191 145.98201 
L 215.861279 159.088971 
L 216.878367 170.10781 
L 217.895456 173.119021 
L 218.912544 179.916426 
L 219.929632 192.186346 
L 220.94672 196.256192 
L 222.980896 200.496239 
L 223.997985 200.617074 
L 225.015073 196.547055 
L 226.032161 190.778804 
L 227.049249 182.387349 
L 228.066337 176.220402 
L 231.117602 145.476861 
L 232.13469 136.066589 
L 233.151778 129.950773 
L 234.168866 122.212673 
L 235.185955 115.645436 
L 236.203043 118.269749 
L 237.220131 120.538536 
L 238.237219 119.63552 
L 239.254307 129.188418 
L 240.271395 132.613566 
L 241.288484 128.456096 
L 242.305572 125.096391 
L 243.32266 118.682123 
L 244.339748 118.388771 
L 245.356836 112.106383 
L 246.373925 99.418689 
L 247.391013 91.993471 
L 248.408101 93.797133 
L 249.425189 93.974981 
L 250.442277 91.766064 
L 252.476454 78.032461 
L 253.493542 69.919702 
L 254.51063 57.635215 
L 255.527718 52.553511 
L 256.544806 52.122383 
L 257.561894 52.106206 
L 258.578983 58.33521 
L 259.596071 66.066587 
L 260.613159 77.619679 
L 261.630247 95.620821 
L 262.647335 99.583455 
L 263.664423 98.247117 
L 264.681512 102.26538 
L 265.6986 104.146304 
L 266.715688 96.386892 
L 267.732776 93.029277 
L 268.749864 98.599123 
L 269.766953 97.295735 
L 270.784041 100.507916 
L 271.801129 106.451072 
L 272.818217 108.029677 
L 273.835305 108.371533 
L 274.852393 111.63986 
L 275.869482 103.922629 
L 276.88657 93.902086 
L 277.903658 91.571526 
L 278.920746 94.039733 
L 279.937834 98.838774 
L 280.954922 107.289631 
L 281.972011 112.792085 
L 282.989099 114.632862 
L 284.006187 112.236038 
L 285.023275 109.55228 
L 286.040363 112.178679 
L 287.057452 116.126082 
L 288.07454 122.290755 
L 289.091628 114.772334 
L 291.125804 91.73698 
L 292.142892 90.742839 
L 293.159981 91.129958 
L 294.177069 79.857169 
L 295.194157 64.717941 
L 296.211245 71.710502 
L 297.228333 75.623908 
L 298.245421 82.928399 
L 299.26251 84.887523 
L 301.296686 103.355348 
L 302.313774 99.830962 
L 303.330862 97.493958 
L 304.34795 96.500402 
L 305.365039 92.971252 
L 306.382127 88.341363 
L 307.399215 81.712056 
L 308.416303 77.432781 
L 309.433391 75.101037 
L 310.45048 70.577586 
L 311.467568 63.398771 
L 312.484656 60.283704 
L 313.501744 61.42773 
L 314.518832 66.733639 
L 315.53592 75.750822 
L 316.553009 81.796424 
L 317.570097 75.154703 
L 318.587185 74.691474 
L 319.604273 77.583359 
L 320.621361 87.270474 
L 322.655538 82.794359 
L 323.672626 81.283355 
L 324.689714 70.614011 
L 325.706802 61.558307 
L 326.72389 56.649742 
L 328.758067 59.128584 
L 329.775155 55.466275 
L 330.792243 53.631092 
L 331.809331 61.070164 
L 332.826419 62.240208 
L 333.843508 60.194599 
L 335.877684 71.084394 
L 336.894772 74.087019 
L 337.91186 74.979125 
L 338.928948 74.97305 
L 339.946037 67.391805 
L 340.963125 45.852809 
L 341.980213 47.158928 
L 342.997301 47.040208 
L 344.014389 34.505825 
L 345.031477 39.002069 
L 346.048566 57.073738 
L 347.065654 64.226554 
L 348.082742 61.789778 
L 349.09983 63.340726 
L 350.116918 69.280652 
L 351.134007 70.686327 
L 352.151095 76.915551 
L 354.185271 87.098432 
L 355.202359 93.629964 
L 357.236536 104.974196 
L 358.253624 113.890631 
L 360.2878 130.010098 
L 362.321976 147.7401 
L 363.339065 152.585826 
L 364.356153 156.23698 
L 365.373241 157.994639 
L 366.390329 157.676267 
L 367.407417 157.963073 
L 368.424506 158.676491 
L 369.441594 157.025119 
L 371.47577 147.82399 
L 372.492858 145.992986 
L 373.509946 146.169716 
L 374.527035 149.5952 
L 375.544123 156.217158 
L 376.561211 156.45385 
L 378.595387 130.596046 
L 379.612475 121.511422 
L 380.629564 104.907514 
L 381.646652 92.63375 
L 382.66374 86.726451 
L 383.680828 89.723318 
L 384.697916 99.913365 
L 385.715004 114.657912 
L 386.732093 118.711237 
L 387.749181 121.340045 
L 388.766269 133.332006 
L 390.800445 153.90829 
L 391.817534 165.919106 
L 392.834622 184.80356 
L 393.85171 197.844872 
L 394.868798 196.714032 
L 395.885886 198.955524 
L 396.902974 189.851672 
L 397.920063 186.312823 
L 398.937151 185.259696 
L 400.971327 144.482819 
L 403.005503 88.395641 
L 404.022592 67.230509 
L 405.03968 54.833994 
L 406.056768 58.157901 
L 407.073856 70.124833 
L 408.090944 77.476328 
L 409.108033 80.526292 
L 410.125121 87.579373 
L 411.142209 101.553023 
L 412.159297 111.117036 
L 413.176385 104.17665 
L 414.193473 86.181643 
L 415.210562 75.112827 
L 416.22765 75.039438 
L 417.244738 67.101591 
L 418.261826 53.99519 
L 419.278914 44.064823 
L 420.296002 41.094653 
L 421.313091 39.788009 
L 422.330179 33.889765 
L 423.347267 32.540817 
L 424.364355 32.398125 
L 425.381443 35.192105 
L 426.398531 45.850268 
L 427.41562 58.764159 
L 428.432708 69.276596 
L 429.449796 70.194973 
L 430.466884 78.933129 
L 431.483972 83.719138 
L 432.501061 73.554668 
L 433.518149 75.076834 
L 434.535237 74.022424 
L 435.552325 84.559549 
L 436.569413 101.319824 
L 439.620678 176.035143 
L 440.637766 190.030492 
L 441.654854 191.831425 
L 442.671942 185.490963 
L 444.706119 170.089984 
L 445.723207 171.700027 
L 446.740295 176.488139 
L 447.757383 183.316134 
L 448.774471 192.803263 
L 450.808648 215.427937 
L 451.825736 228.173597 
L 452.842824 233.460967 
L 453.859912 233.211749 
L 454.877 227.60369 
L 455.894089 218.513459 
L 456.911177 204.662625 
L 457.928265 188.886075 
L 458.945353 181.187943 
L 459.962441 184.746555 
L 460.979529 197.789715 
L 461.996618 215.497874 
L 463.013706 226.918643 
L 464.030794 230.907512 
L 465.047882 233.998125 
L 466.06497 230.68192 
L 468.099147 203.836001 
L 470.133323 187.241376 
L 472.167499 165.717665 
L 473.184588 161.034013 
L 474.201676 165.890284 
L 475.218764 169.021111 
L 476.235852 181.637774 
L 477.25294 201.512397 
L 478.270028 208.041297 
L 478.270028 208.041297 
" clip-path="url(#p9a74817986)" style="fill: none; stroke: #1f77b4; stroke-width: 1.5; stroke-linecap: square"/>
   </g>
   <g id="line2d_18">
    <path d="M 72.451847 158.546027 
L 73.468935 158.371536 
L 74.486023 158.373854 
L 76.520199 157.839153 
L 80.588552 156.319147 
L 82.622728 155.2301 
L 87.708169 152.213495 
L 89.742346 151.452232 
L 91.776522 150.889456 
L 93.810698 150.637869 
L 94.827786 150.568932 
L 96.861963 150.679851 
L 98.896139 150.483975 
L 99.913227 150.313417 
L 107.032845 147.940901 
L 109.067021 146.724898 
L 110.084109 146.032938 
L 111.101197 145.696219 
L 112.118285 145.711787 
L 113.135374 146.431935 
L 114.152462 148.085134 
L 115.16955 150.204868 
L 117.203726 160.16822 
L 119.237903 172.65336 
L 121.272079 185.815403 
L 122.289167 191.731344 
L 123.306255 196.827179 
L 124.323344 200.983054 
L 125.340432 204.668965 
L 126.35752 206.687728 
L 127.374608 208.030401 
L 128.391696 208.020861 
L 129.408784 207.429923 
L 130.425873 206.54828 
L 131.442961 204.88251 
L 132.460049 202.928018 
L 135.511313 195.088075 
L 136.528402 192.013906 
L 137.54549 188.199186 
L 139.579666 178.169451 
L 141.613842 169.660609 
L 142.630931 165.93027 
L 143.648019 162.85089 
L 144.665107 160.912723 
L 145.682195 159.545191 
L 148.73346 156.19008 
L 149.750548 155.414621 
L 150.767636 154.808115 
L 151.784724 153.215378 
L 152.801812 151.906129 
L 155.853077 149.677812 
L 157.887253 149.837127 
L 158.904341 150.141338 
L 159.92143 150.842803 
L 160.938518 151.742911 
L 162.972694 152.800362 
L 165.006871 154.073538 
L 166.023959 154.597086 
L 167.041047 154.426121 
L 168.058135 154.420866 
L 169.075223 154.747049 
L 170.092311 154.417864 
L 171.1094 153.760976 
L 172.126488 153.31703 
L 173.143576 152.680241 
L 174.160664 151.657748 
L 175.177752 151.1354 
L 176.19484 150.863146 
L 177.211929 150.132185 
L 178.229017 149.619547 
L 179.246105 149.543594 
L 180.263193 149.072014 
L 181.280281 148.402632 
L 183.314458 147.668994 
L 184.331546 147.07471 
L 185.348634 147.37904 
L 186.365722 148.132703 
L 188.399899 150.139535 
L 189.416987 151.418422 
L 190.434075 152.35646 
L 191.451163 153.124079 
L 192.468251 154.556272 
L 193.485339 155.77812 
L 194.502428 156.579187 
L 195.519516 157.813412 
L 196.536604 159.264219 
L 199.587868 162.142015 
L 200.604957 162.534267 
L 201.622045 162.654839 
L 202.639133 163.096458 
L 203.656221 163.402635 
L 204.673309 163.437896 
L 205.690398 163.7561 
L 206.707486 164.215792 
L 207.724574 164.995674 
L 208.741662 165.989152 
L 209.75875 167.409884 
L 211.792927 170.731389 
L 216.878367 182.226994 
L 218.912544 187.992555 
L 219.929632 190.362931 
L 221.963808 194.003377 
L 222.980896 194.108728 
L 223.997985 193.270256 
L 225.015073 190.544034 
L 226.032161 185.203226 
L 227.049249 178.554982 
L 229.083426 158.463485 
L 231.117602 136.352454 
L 232.13469 126.555558 
L 234.168866 111.622813 
L 235.185955 105.704943 
L 236.203043 101.149276 
L 237.220131 97.274709 
L 239.254307 91.149933 
L 240.271395 88.793091 
L 243.32266 83.072201 
L 244.339748 81.269534 
L 245.356836 79.91696 
L 246.373925 78.936603 
L 248.408101 77.376291 
L 249.425189 76.726285 
L 251.459365 75.94069 
L 253.493542 75.354613 
L 255.527718 75.021917 
L 258.578983 74.69714 
L 259.596071 74.703968 
L 260.613159 74.829837 
L 262.647335 75.408819 
L 263.664423 75.80352 
L 264.681512 76.39803 
L 265.6986 77.392158 
L 268.749864 81.165156 
L 269.766953 81.985789 
L 270.784041 82.478018 
L 272.818217 83.060695 
L 273.835305 82.66485 
L 274.852393 82.098568 
L 276.88657 80.222774 
L 279.937834 77.379699 
L 280.954922 76.685992 
L 282.989099 75.835564 
L 285.023275 75.871929 
L 286.040363 76.120959 
L 287.057452 76.681644 
L 288.07454 77.398186 
L 290.108716 79.093655 
L 291.125804 79.701086 
L 292.142892 80.011472 
L 293.159981 80.173335 
L 295.194157 79.403782 
L 303.330862 74.65501 
L 305.365039 73.827534 
L 306.382127 73.537161 
L 307.399215 73.487928 
L 308.416303 73.559272 
L 309.433391 74.32613 
L 310.45048 75.265334 
L 311.467568 76.549219 
L 313.501744 80.093041 
L 315.53592 82.470608 
L 316.553009 83.439702 
L 317.570097 84.132054 
L 318.587185 84.685996 
L 319.604273 84.031032 
L 320.621361 82.939231 
L 321.638449 80.973762 
L 322.655538 77.689151 
L 327.740979 58.292173 
L 328.758067 55.163173 
L 329.775155 53.355142 
L 330.792243 51.953608 
L 331.809331 51.36525 
L 332.826419 51.368658 
L 333.843508 51.66798 
L 335.877684 52.792139 
L 337.91186 54.636912 
L 338.928948 55.697632 
L 340.963125 59.499325 
L 341.980213 61.046261 
L 342.997301 61.948147 
L 345.031477 63.197514 
L 346.048566 64.018878 
L 347.065654 65.142823 
L 348.082742 67.152018 
L 349.09983 69.603972 
L 350.116918 73.561243 
L 351.134007 77.999526 
L 352.151095 83.399721 
L 354.185271 97.878507 
L 356.219447 118.975775 
L 359.270712 156.234553 
L 361.304888 178.672205 
L 362.321976 187.625807 
L 363.339065 194.455917 
L 364.356153 200.224287 
L 365.373241 203.221545 
L 366.390329 205.725291 
L 367.407417 207.241737 
L 368.424506 207.925564 
L 369.441594 208.193039 
L 371.47577 207.054006 
L 372.492858 206.295209 
L 373.509946 204.994182 
L 376.561211 200.284566 
L 379.612475 197.521745 
L 381.646652 196.34818 
L 382.66374 195.592404 
L 384.697916 194.486121 
L 385.715004 193.571313 
L 386.732093 192.998621 
L 387.749181 193.110293 
L 388.766269 193.910626 
L 389.783357 195.055365 
L 391.817534 198.282127 
L 392.834622 200.081451 
L 394.868798 202.756256 
L 395.885886 202.886957 
L 396.902974 202.379794 
L 397.920063 200.596786 
L 398.937151 196.920287 
L 399.954239 192.296844 
L 400.971327 182.35981 
L 401.988415 170.97552 
L 403.005503 156.696945 
L 406.056768 107.630743 
L 407.073856 93.882161 
L 408.090944 83.333462 
L 409.108033 75.0443 
L 410.125121 67.884866 
L 411.142209 64.358216 
L 412.159297 61.54004 
L 413.176385 60.13916 
L 414.193473 59.184301 
L 415.210562 58.452463 
L 418.261826 57.154715 
L 421.313091 55.973532 
L 422.330179 55.738906 
L 423.347267 55.693031 
L 424.364355 56.113881 
L 425.381443 56.76813 
L 426.398531 58.624849 
L 427.41562 60.714115 
L 428.432708 63.268426 
L 430.466884 69.699281 
L 431.483972 73.692454 
L 432.501061 79.163265 
L 433.518149 87.589455 
L 435.552325 109.45261 
L 439.620678 160.850433 
L 440.637766 171.404845 
L 442.671942 189.036504 
L 443.68903 195.348258 
L 444.706119 199.744733 
L 445.723207 203.183575 
L 446.740295 205.079592 
L 447.757383 206.49657 
L 448.774471 206.955381 
L 451.825736 209.046122 
L 452.842824 209.402712 
L 453.859912 209.492897 
L 454.877 209.133841 
L 455.894089 208.550144 
L 456.911177 207.555175 
L 457.928265 206.371952 
L 458.945353 204.812227 
L 459.962441 203.973775 
L 461.996618 203.096471 
L 463.013706 202.901628 
L 465.047882 203.218395 
L 468.099147 203.430098 
L 470.133323 203.167587 
L 471.150411 203.091746 
L 473.184588 203.850998 
L 474.201676 204.473577 
L 475.218764 204.605011 
L 476.235852 204.490863 
L 478.270028 202.928691 
L 478.270028 202.928691 
" clip-path="url(#p9a74817986)" style="fill: none; stroke: #ff7f0e; stroke-width: 1.5; stroke-linecap: square"/>
   </g>
   <g id="patch_3">
    <path d="M 52.160938 244.078125 
L 52.160938 22.318125 
" style="fill: none; stroke: #000000; stroke-width: 0.8; stroke-linejoin: miter; stroke-linecap: square"/>
   </g>
   <g id="patch_4">
    <path d="M 498.560937 244.078125 
L 498.560937 22.318125 
" style="fill: none; stroke: #000000; stroke-width: 0.8; stroke-linejoin: miter; stroke-linecap: square"/>
   </g>
   <g id="patch_5">
    <path d="M 52.160938 244.078125 
L 498.560938 244.078125 
" style="fill: none; stroke: #000000; stroke-width: 0.8; stroke-linejoin: miter; stroke-linecap: square"/>
   </g>
   <g id="patch_6">
    <path d="M 52.160938 22.318125 
L 498.560938 22.318125 
" style="fill: none; stroke: #000000; stroke-width: 0.8; stroke-linejoin: miter; stroke-linecap: square"/>
   </g>
   <g id="text_19">
    <!-- dof command -->
    <g transform="translate(233.914062 16.318125) scale(0.12 -0.12)">
     <defs>
      <path id="DejaVuSans-64" d="M 2906 2969 
L 2906 4863 
L 3481 4863 
L 3481 0 
L 2906 0 
L 2906 525 
Q 2725 213 2448 61 
Q 2172 -91 1784 -91 
Q 1150 -91 751 415 
Q 353 922 353 1747 
Q 353 2572 751 3078 
Q 1150 3584 1784 3584 
Q 2172 3584 2448 3432 
Q 2725 3281 2906 2969 
z
M 947 1747 
Q 947 1113 1208 752 
Q 1469 391 1925 391 
Q 2381 391 2643 752 
Q 2906 1113 2906 1747 
Q 2906 2381 2643 2742 
Q 2381 3103 1925 3103 
Q 1469 3103 1208 2742 
Q 947 2381 947 1747 
z
" transform="scale(0.015625)"/>
      <path id="DejaVuSans-66" d="M 2375 4863 
L 2375 4384 
L 1825 4384 
Q 1516 4384 1395 4259 
Q 1275 4134 1275 3809 
L 1275 3500 
L 2222 3500 
L 2222 3053 
L 1275 3053 
L 1275 0 
L 697 0 
L 697 3053 
L 147 3053 
L 147 3500 
L 697 3500 
L 697 3744 
Q 697 4328 969 4595 
Q 1241 4863 1831 4863 
L 2375 4863 
z
" transform="scale(0.015625)"/>
      <path id="DejaVuSans-20" transform="scale(0.015625)"/>
      <path id="DejaVuSans-63" d="M 3122 3366 
L 3122 2828 
Q 2878 2963 2633 3030 
Q 2388 3097 2138 3097 
Q 1578 3097 1268 2742 
Q 959 2388 959 1747 
Q 959 1106 1268 751 
Q 1578 397 2138 397 
Q 2388 397 2633 464 
Q 2878 531 3122 666 
L 3122 134 
Q 2881 22 2623 -34 
Q 2366 -91 2075 -91 
Q 1284 -91 818 406 
Q 353 903 353 1747 
Q 353 2603 823 3093 
Q 1294 3584 2113 3584 
Q 2378 3584 2631 3529 
Q 2884 3475 3122 3366 
z
" transform="scale(0.015625)"/>
      <path id="DejaVuSans-61" d="M 2194 1759 
Q 1497 1759 1228 1600 
Q 959 1441 959 1056 
Q 959 750 1161 570 
Q 1363 391 1709 391 
Q 2188 391 2477 730 
Q 2766 1069 2766 1631 
L 2766 1759 
L 2194 1759 
z
M 3341 1997 
L 3341 0 
L 2766 0 
L 2766 531 
Q 2569 213 2275 61 
Q 1981 -91 1556 -91 
Q 1019 -91 701 211 
Q 384 513 384 1019 
Q 384 1609 779 1909 
Q 1175 2209 1959 2209 
L 2766 2209 
L 2766 2266 
Q 2766 2663 2505 2880 
Q 2244 3097 1772 3097 
Q 1472 3097 1187 3025 
Q 903 2953 641 2809 
L 641 3341 
Q 956 3463 1253 3523 
Q 1550 3584 1831 3584 
Q 2591 3584 2966 3190 
Q 3341 2797 3341 1997 
z
" transform="scale(0.015625)"/>
     </defs>
     <use xlink:href="#DejaVuSans-64"/>
     <use xlink:href="#DejaVuSans-6f" x="63.476562"/>
     <use xlink:href="#DejaVuSans-66" x="124.658203"/>
     <use xlink:href="#DejaVuSans-20" x="159.863281"/>
     <use xlink:href="#DejaVuSans-63" x="191.650391"/>
     <use xlink:href="#DejaVuSans-6f" x="246.630859"/>
     <use xlink:href="#DejaVuSans-6d" x="307.8125"/>
     <use xlink:href="#DejaVuSans-6d" x="405.224609"/>
     <use xlink:href="#DejaVuSans-61" x="502.636719"/>
     <use xlink:href="#DejaVuSans-6e" x="563.916016"/>
     <use xlink:href="#DejaVuSans-64" x="627.294922"/>
    </g>
   </g>
   <g id="legend_1">
    <g id="patch_7">
     <path d="M 59.160938 59.674375 
L 141.117188 59.674375 
Q 143.117188 59.674375 143.117188 57.674375 
L 143.117188 29.318125 
Q 143.117188 27.318125 141.117188 27.318125 
L 59.160938 27.318125 
Q 57.160938 27.318125 57.160938 29.318125 
L 57.160938 57.674375 
Q 57.160938 59.674375 59.160938 59.674375 
z
" style="fill: #ffffff; opacity: 0.8; stroke: #cccccc; stroke-linejoin: miter"/>
    </g>
    <g id="line2d_19">
     <path d="M 61.160938 35.416562 
L 71.160938 35.416562 
L 81.160938 35.416562 
" style="fill: none; stroke: #1f77b4; stroke-width: 1.5; stroke-linecap: square"/>
    </g>
    <g id="text_20">
     <!-- measured -->
     <g transform="translate(89.160938 38.916562) scale(0.1 -0.1)">
      <defs>
       <path id="DejaVuSans-75" d="M 544 1381 
L 544 3500 
L 1119 3500 
L 1119 1403 
Q 1119 906 1312 657 
Q 1506 409 1894 409 
Q 2359 409 2629 706 
Q 2900 1003 2900 1516 
L 2900 3500 
L 3475 3500 
L 3475 0 
L 2900 0 
L 2900 538 
Q 2691 219 2414 64 
Q 2138 -91 1772 -91 
Q 1169 -91 856 284 
Q 544 659 544 1381 
z
M 1991 3584 
L 1991 3584 
z
" transform="scale(0.015625)"/>
       <path id="DejaVuSans-72" d="M 2631 2963 
Q 2534 3019 2420 3045 
Q 2306 3072 2169 3072 
Q 1681 3072 1420 2755 
Q 1159 2438 1159 1844 
L 1159 0 
L 581 0 
L 581 3500 
L 1159 3500 
L 1159 2956 
Q 1341 3275 1631 3429 
Q 1922 3584 2338 3584 
Q 2397 3584 2469 3576 
Q 2541 3569 2628 3553 
L 2631 2963 
z
" transform="scale(0.015625)"/>
      </defs>
      <use xlink:href="#DejaVuSans-6d"/>
      <use xlink:href="#DejaVuSans-65" x="97.412109"/>
      <use xlink:href="#DejaVuSans-61" x="158.935547"/>
      <use xlink:href="#DejaVuSans-73" x="220.214844"/>
      <use xlink:href="#DejaVuSans-75" x="272.314453"/>
      <use xlink:href="#DejaVuSans-72" x="335.693359"/>
      <use xlink:href="#DejaVuSans-65" x="374.556641"/>
      <use xlink:href="#DejaVuSans-64" x="436.080078"/>
     </g>
    </g>
    <g id="line2d_20">
     <path d="M 61.160938 50.094687 
L 71.160938 50.094687 
L 81.160938 50.094687 
" style="fill: none; stroke: #ff7f0e; stroke-width: 1.5; stroke-linecap: square"/>
    </g>
    <g id="text_21">
     <!-- target -->
     <g transform="translate(89.160938 53.594687) scale(0.1 -0.1)">
      <defs>
       <path id="DejaVuSans-67" d="M 2906 1791 
Q 2906 2416 2648 2759 
Q 2391 3103 1925 3103 
Q 1463 3103 1205 2759 
Q 947 2416 947 1791 
Q 947 1169 1205 825 
Q 1463 481 1925 481 
Q 2391 481 2648 825 
Q 2906 1169 2906 1791 
z
M 3481 434 
Q 3481 -459 3084 -895 
Q 2688 -1331 1869 -1331 
Q 1566 -1331 1297 -1286 
Q 1028 -1241 775 -1147 
L 775 -588 
Q 1028 -725 1275 -790 
Q 1522 -856 1778 -856 
Q 2344 -856 2625 -561 
Q 2906 -266 2906 331 
L 2906 616 
Q 2728 306 2450 153 
Q 2172 0 1784 0 
Q 1141 0 747 490 
Q 353 981 353 1791 
Q 353 2603 747 3093 
Q 1141 3584 1784 3584 
Q 2172 3584 2450 3431 
Q 2728 3278 2906 2969 
L 2906 3500 
L 3481 3500 
L 3481 434 
z
" transform="scale(0.015625)"/>
      </defs>
      <use xlink:href="#DejaVuSans-74"/>
      <use xlink:href="#DejaVuSans-61" x="39.208984"/>
      <use xlink:href="#DejaVuSans-72" x="100.488281"/>
      <use xlink:href="#DejaVuSans-67" x="139.851562"/>
      <use xlink:href="#DejaVuSans-65" x="203.328125"/>
      <use xlink:href="#DejaVuSans-74" x="264.851562"/>
     </g>
    </g>
   </g>
  </g>
 </g>
 <defs>
  <clipPath id="p9a74817986">
   <rect x="52.160938" y="22.318125" width="446.4" height="221.76"/>
  </clipPath>
 </defs>
</svg>
