<?xml version="1.0" encoding="utf-8" standalone="no"?>
<!DOCTYPE svg PUBLIC "-//W3C//DTD SVG 1.1//EN"
  "http://www.w3.org/Graphics/SVG/1.1/DTD/svg11.dtd">
<svg xmlns:xlink="http://www.w3.org/1999/xlink" width="505.760937pt" height="281.634375pt" viewBox="0 0 505.760937 281.634375" xmlns="http://www.w3.org/2000/svg" version="1.1">
 <metadata>
  <rdf:RDF xmlns:dc="http://purl.org/dc/elements/1.1/" xmlns:cc="http://creativecommons.org/ns#" xmlns:rdf="http://www.w3.org/1999/02/22-rdf-syntax-ns#">
   <cc:Work>
    <dc:type rdf:resource="http://purl.org/dc/dcmitype/StillImage"/>
    <dc:date>2025-04-21T13:34:11.366939</dc:date>
    <dc:format>image/svg+xml</dc:format>
    <dc:creator>
     <cc:Agent>
      <dc:title>Matplotlib v3.6.3, https://matplotlib.org/</dc:title>
     </cc:Agent>
    </dc:creator>
   </cc:Work>
  </rdf:RDF>
 </metadata>
 <defs>
  <style type="text/css">*{stroke-linejoin: round; stroke-linecap: butt}</style>
 </defs>
 <g id="figure_1">
  <g id="patch_1">
   <path d="M 0 281.634375 
L 505.760937 281.634375 
L 505.760937 0 
L 0 0 
z
" style="fill: #ffffff"/>
  </g>
  <g id="axes_1">
   <g id="patch_2">
    <path d="M 52.160938 244.078125 
L 498.560937 244.078125 
L 498.560937 22.318125 
L 52.160938 22.318125 
z
" style="fill: #ffffff"/>
   </g>
   <g id="matplotlib.axis_1">
    <g id="xtick_1">
     <g id="line2d_1">
      <defs>
       <path id="mf14a91550f" d="M 0 0 
L 0 3.5 
" style="stroke: #000000; stroke-width: 0.8"/>
      </defs>
      <g>
       <use xlink:href="#mf14a91550f" x="72.451847" y="244.078125" style="stroke: #000000; stroke-width: 0.8"/>
      </g>
     </g>
     <g id="text_1">
      <!-- 0 -->
      <g transform="translate(69.270597 258.676562) scale(0.1 -0.1)">
       <defs>
        <path id="DejaVuSans-30" d="M 2034 4250 
Q 1547 4250 1301 3770 
Q 1056 3291 1056 2328 
Q 1056 1369 1301 889 
Q 1547 409 2034 409 
Q 2525 409 2770 889 
Q 3016 1369 3016 2328 
Q 3016 3291 2770 3770 
Q 2525 4250 2034 4250 
z
M 2034 4750 
Q 2819 4750 3233 4129 
Q 3647 3509 3647 2328 
Q 3647 1150 3233 529 
Q 2819 -91 2034 -91 
Q 1250 -91 836 529 
Q 422 1150 422 2328 
Q 422 3509 836 4129 
Q 1250 4750 2034 4750 
z
" transform="scale(0.015625)"/>
       </defs>
       <use xlink:href="#DejaVuSans-30"/>
      </g>
     </g>
    </g>
    <g id="xtick_2">
     <g id="line2d_2">
      <g>
       <use xlink:href="#mf14a91550f" x="160.673192" y="244.078125" style="stroke: #000000; stroke-width: 0.8"/>
      </g>
     </g>
     <g id="text_2">
      <!-- 1 -->
      <g transform="translate(157.491942 258.676562) scale(0.1 -0.1)">
       <defs>
        <path id="DejaVuSans-31" d="M 794 531 
L 1825 531 
L 1825 4091 
L 703 3866 
L 703 4441 
L 1819 4666 
L 2450 4666 
L 2450 531 
L 3481 531 
L 3481 0 
L 794 0 
L 794 531 
z
" transform="scale(0.015625)"/>
       </defs>
       <use xlink:href="#DejaVuSans-31"/>
      </g>
     </g>
    </g>
    <g id="xtick_3">
     <g id="line2d_3">
      <g>
       <use xlink:href="#mf14a91550f" x="248.894538" y="244.078125" style="stroke: #000000; stroke-width: 0.8"/>
      </g>
     </g>
     <g id="text_3">
      <!-- 2 -->
      <g transform="translate(245.713288 258.676562) scale(0.1 -0.1)">
       <defs>
        <path id="DejaVuSans-32" d="M 1228 531 
L 3431 531 
L 3431 0 
L 469 0 
L 469 531 
Q 828 903 1448 1529 
Q 2069 2156 2228 2338 
Q 2531 2678 2651 2914 
Q 2772 3150 2772 3378 
Q 2772 3750 2511 3984 
Q 2250 4219 1831 4219 
Q 1534 4219 1204 4116 
Q 875 4013 500 3803 
L 500 4441 
Q 881 4594 1212 4672 
Q 1544 4750 1819 4750 
Q 2544 4750 2975 4387 
Q 3406 4025 3406 3419 
Q 3406 3131 3298 2873 
Q 3191 2616 2906 2266 
Q 2828 2175 2409 1742 
Q 1991 1309 1228 531 
z
" transform="scale(0.015625)"/>
       </defs>
       <use xlink:href="#DejaVuSans-32"/>
      </g>
     </g>
    </g>
    <g id="xtick_4">
     <g id="line2d_4">
      <g>
       <use xlink:href="#mf14a91550f" x="337.115884" y="244.078125" style="stroke: #000000; stroke-width: 0.8"/>
      </g>
     </g>
     <g id="text_4">
      <!-- 3 -->
      <g transform="translate(333.934634 258.676562) scale(0.1 -0.1)">
       <defs>
        <path id="DejaVuSans-33" d="M 2597 2516 
Q 3050 2419 3304 2112 
Q 3559 1806 3559 1356 
Q 3559 666 3084 287 
Q 2609 -91 1734 -91 
Q 1441 -91 1130 -33 
Q 819 25 488 141 
L 488 750 
Q 750 597 1062 519 
Q 1375 441 1716 441 
Q 2309 441 2620 675 
Q 2931 909 2931 1356 
Q 2931 1769 2642 2001 
Q 2353 2234 1838 2234 
L 1294 2234 
L 1294 2753 
L 1863 2753 
Q 2328 2753 2575 2939 
Q 2822 3125 2822 3475 
Q 2822 3834 2567 4026 
Q 2313 4219 1838 4219 
Q 1578 4219 1281 4162 
Q 984 4106 628 3988 
L 628 4550 
Q 988 4650 1302 4700 
Q 1616 4750 1894 4750 
Q 2613 4750 3031 4423 
Q 3450 4097 3450 3541 
Q 3450 3153 3228 2886 
Q 3006 2619 2597 2516 
z
" transform="scale(0.015625)"/>
       </defs>
       <use xlink:href="#DejaVuSans-33"/>
      </g>
     </g>
    </g>
    <g id="xtick_5">
     <g id="line2d_5">
      <g>
       <use xlink:href="#mf14a91550f" x="425.33723" y="244.078125" style="stroke: #000000; stroke-width: 0.8"/>
      </g>
     </g>
     <g id="text_5">
      <!-- 4 -->
      <g transform="translate(422.15598 258.676562) scale(0.1 -0.1)">
       <defs>
        <path id="DejaVuSans-34" d="M 2419 4116 
L 825 1625 
L 2419 1625 
L 2419 4116 
z
M 2253 4666 
L 3047 4666 
L 3047 1625 
L 3713 1625 
L 3713 1100 
L 3047 1100 
L 3047 0 
L 2419 0 
L 2419 1100 
L 313 1100 
L 313 1709 
L 2253 4666 
z
" transform="scale(0.015625)"/>
       </defs>
       <use xlink:href="#DejaVuSans-34"/>
      </g>
     </g>
    </g>
    <g id="text_6">
     <!-- time(s) -->
     <g transform="translate(257.558594 272.354687) scale(0.1 -0.1)">
      <defs>
       <path id="DejaVuSans-74" d="M 1172 4494 
L 1172 3500 
L 2356 3500 
L 2356 3053 
L 1172 3053 
L 1172 1153 
Q 1172 725 1289 603 
Q 1406 481 1766 481 
L 2356 481 
L 2356 0 
L 1766 0 
Q 1100 0 847 248 
Q 594 497 594 1153 
L 594 3053 
L 172 3053 
L 172 3500 
L 594 3500 
L 594 4494 
L 1172 4494 
z
" transform="scale(0.015625)"/>
       <path id="DejaVuSans-69" d="M 603 3500 
L 1178 3500 
L 1178 0 
L 603 0 
L 603 3500 
z
M 603 4863 
L 1178 4863 
L 1178 4134 
L 603 4134 
L 603 4863 
z
" transform="scale(0.015625)"/>
       <path id="DejaVuSans-6d" d="M 3328 2828 
Q 3544 3216 3844 3400 
Q 4144 3584 4550 3584 
Q 5097 3584 5394 3201 
Q 5691 2819 5691 2113 
L 5691 0 
L 5113 0 
L 5113 2094 
Q 5113 2597 4934 2840 
Q 4756 3084 4391 3084 
Q 3944 3084 3684 2787 
Q 3425 2491 3425 1978 
L 3425 0 
L 2847 0 
L 2847 2094 
Q 2847 2600 2669 2842 
Q 2491 3084 2119 3084 
Q 1678 3084 1418 2786 
Q 1159 2488 1159 1978 
L 1159 0 
L 581 0 
L 581 3500 
L 1159 3500 
L 1159 2956 
Q 1356 3278 1631 3431 
Q 1906 3584 2284 3584 
Q 2666 3584 2933 3390 
Q 3200 3197 3328 2828 
z
" transform="scale(0.015625)"/>
       <path id="DejaVuSans-65" d="M 3597 1894 
L 3597 1613 
L 953 1613 
Q 991 1019 1311 708 
Q 1631 397 2203 397 
Q 2534 397 2845 478 
Q 3156 559 3463 722 
L 3463 178 
Q 3153 47 2828 -22 
Q 2503 -91 2169 -91 
Q 1331 -91 842 396 
Q 353 884 353 1716 
Q 353 2575 817 3079 
Q 1281 3584 2069 3584 
Q 2775 3584 3186 3129 
Q 3597 2675 3597 1894 
z
M 3022 2063 
Q 3016 2534 2758 2815 
Q 2500 3097 2075 3097 
Q 1594 3097 1305 2825 
Q 1016 2553 972 2059 
L 3022 2063 
z
" transform="scale(0.015625)"/>
       <path id="DejaVuSans-28" d="M 1984 4856 
Q 1566 4138 1362 3434 
Q 1159 2731 1159 2009 
Q 1159 1288 1364 580 
Q 1569 -128 1984 -844 
L 1484 -844 
Q 1016 -109 783 600 
Q 550 1309 550 2009 
Q 550 2706 781 3412 
Q 1013 4119 1484 4856 
L 1984 4856 
z
" transform="scale(0.015625)"/>
       <path id="DejaVuSans-73" d="M 2834 3397 
L 2834 2853 
Q 2591 2978 2328 3040 
Q 2066 3103 1784 3103 
Q 1356 3103 1142 2972 
Q 928 2841 928 2578 
Q 928 2378 1081 2264 
Q 1234 2150 1697 2047 
L 1894 2003 
Q 2506 1872 2764 1633 
Q 3022 1394 3022 966 
Q 3022 478 2636 193 
Q 2250 -91 1575 -91 
Q 1294 -91 989 -36 
Q 684 19 347 128 
L 347 722 
Q 666 556 975 473 
Q 1284 391 1588 391 
Q 1994 391 2212 530 
Q 2431 669 2431 922 
Q 2431 1156 2273 1281 
Q 2116 1406 1581 1522 
L 1381 1569 
Q 847 1681 609 1914 
Q 372 2147 372 2553 
Q 372 3047 722 3315 
Q 1072 3584 1716 3584 
Q 2034 3584 2315 3537 
Q 2597 3491 2834 3397 
z
" transform="scale(0.015625)"/>
       <path id="DejaVuSans-29" d="M 513 4856 
L 1013 4856 
Q 1481 4119 1714 3412 
Q 1947 2706 1947 2009 
Q 1947 1309 1714 600 
Q 1481 -109 1013 -844 
L 513 -844 
Q 928 -128 1133 580 
Q 1338 1288 1338 2009 
Q 1338 2731 1133 3434 
Q 928 4138 513 4856 
z
" transform="scale(0.015625)"/>
      </defs>
      <use xlink:href="#DejaVuSans-74"/>
      <use xlink:href="#DejaVuSans-69" x="39.208984"/>
      <use xlink:href="#DejaVuSans-6d" x="66.992188"/>
      <use xlink:href="#DejaVuSans-65" x="164.404297"/>
      <use xlink:href="#DejaVuSans-28" x="225.927734"/>
      <use xlink:href="#DejaVuSans-73" x="264.941406"/>
      <use xlink:href="#DejaVuSans-29" x="317.041016"/>
     </g>
    </g>
   </g>
   <g id="matplotlib.axis_2">
    <g id="ytick_1">
     <g id="line2d_6">
      <defs>
       <path id="ma38c0823e0" d="M 0 0 
L -3.5 0 
" style="stroke: #000000; stroke-width: 0.8"/>
      </defs>
      <g>
       <use xlink:href="#ma38c0823e0" x="52.160938" y="226.908039" style="stroke: #000000; stroke-width: 0.8"/>
      </g>
     </g>
     <g id="text_7">
      <!-- −0.6 -->
      <g transform="translate(20.878125 230.707258) scale(0.1 -0.1)">
       <defs>
        <path id="DejaVuSans-2212" d="M 678 2272 
L 4684 2272 
L 4684 1741 
L 678 1741 
L 678 2272 
z
" transform="scale(0.015625)"/>
        <path id="DejaVuSans-2e" d="M 684 794 
L 1344 794 
L 1344 0 
L 684 0 
L 684 794 
z
" transform="scale(0.015625)"/>
        <path id="DejaVuSans-36" d="M 2113 2584 
Q 1688 2584 1439 2293 
Q 1191 2003 1191 1497 
Q 1191 994 1439 701 
Q 1688 409 2113 409 
Q 2538 409 2786 701 
Q 3034 994 3034 1497 
Q 3034 2003 2786 2293 
Q 2538 2584 2113 2584 
z
M 3366 4563 
L 3366 3988 
Q 3128 4100 2886 4159 
Q 2644 4219 2406 4219 
Q 1781 4219 1451 3797 
Q 1122 3375 1075 2522 
Q 1259 2794 1537 2939 
Q 1816 3084 2150 3084 
Q 2853 3084 3261 2657 
Q 3669 2231 3669 1497 
Q 3669 778 3244 343 
Q 2819 -91 2113 -91 
Q 1303 -91 875 529 
Q 447 1150 447 2328 
Q 447 3434 972 4092 
Q 1497 4750 2381 4750 
Q 2619 4750 2861 4703 
Q 3103 4656 3366 4563 
z
" transform="scale(0.015625)"/>
       </defs>
       <use xlink:href="#DejaVuSans-2212"/>
       <use xlink:href="#DejaVuSans-30" x="83.789062"/>
       <use xlink:href="#DejaVuSans-2e" x="147.412109"/>
       <use xlink:href="#DejaVuSans-36" x="179.199219"/>
      </g>
     </g>
    </g>
    <g id="ytick_2">
     <g id="line2d_7">
      <g>
       <use xlink:href="#ma38c0823e0" x="52.160938" y="193.130979" style="stroke: #000000; stroke-width: 0.8"/>
      </g>
     </g>
     <g id="text_8">
      <!-- −0.4 -->
      <g transform="translate(20.878125 196.930197) scale(0.1 -0.1)">
       <use xlink:href="#DejaVuSans-2212"/>
       <use xlink:href="#DejaVuSans-30" x="83.789062"/>
       <use xlink:href="#DejaVuSans-2e" x="147.412109"/>
       <use xlink:href="#DejaVuSans-34" x="179.199219"/>
      </g>
     </g>
    </g>
    <g id="ytick_3">
     <g id="line2d_8">
      <g>
       <use xlink:href="#ma38c0823e0" x="52.160938" y="159.353918" style="stroke: #000000; stroke-width: 0.8"/>
      </g>
     </g>
     <g id="text_9">
      <!-- −0.2 -->
      <g transform="translate(20.878125 163.153137) scale(0.1 -0.1)">
       <use xlink:href="#DejaVuSans-2212"/>
       <use xlink:href="#DejaVuSans-30" x="83.789062"/>
       <use xlink:href="#DejaVuSans-2e" x="147.412109"/>
       <use xlink:href="#DejaVuSans-32" x="179.199219"/>
      </g>
     </g>
    </g>
    <g id="ytick_4">
     <g id="line2d_9">
      <g>
       <use xlink:href="#ma38c0823e0" x="52.160938" y="125.576857" style="stroke: #000000; stroke-width: 0.8"/>
      </g>
     </g>
     <g id="text_10">
      <!-- 0.0 -->
      <g transform="translate(29.257812 129.376076) scale(0.1 -0.1)">
       <use xlink:href="#DejaVuSans-30"/>
       <use xlink:href="#DejaVuSans-2e" x="63.623047"/>
       <use xlink:href="#DejaVuSans-30" x="95.410156"/>
      </g>
     </g>
    </g>
    <g id="ytick_5">
     <g id="line2d_10">
      <g>
       <use xlink:href="#ma38c0823e0" x="52.160938" y="91.799797" style="stroke: #000000; stroke-width: 0.8"/>
      </g>
     </g>
     <g id="text_11">
      <!-- 0.2 -->
      <g transform="translate(29.257812 95.599015) scale(0.1 -0.1)">
       <use xlink:href="#DejaVuSans-30"/>
       <use xlink:href="#DejaVuSans-2e" x="63.623047"/>
       <use xlink:href="#DejaVuSans-32" x="95.410156"/>
      </g>
     </g>
    </g>
    <g id="ytick_6">
     <g id="line2d_11">
      <g>
       <use xlink:href="#ma38c0823e0" x="52.160938" y="58.022736" style="stroke: #000000; stroke-width: 0.8"/>
      </g>
     </g>
     <g id="text_12">
      <!-- 0.4 -->
      <g transform="translate(29.257812 61.821955) scale(0.1 -0.1)">
       <use xlink:href="#DejaVuSans-30"/>
       <use xlink:href="#DejaVuSans-2e" x="63.623047"/>
       <use xlink:href="#DejaVuSans-34" x="95.410156"/>
      </g>
     </g>
    </g>
    <g id="ytick_7">
     <g id="line2d_12">
      <g>
       <use xlink:href="#ma38c0823e0" x="52.160938" y="24.245675" style="stroke: #000000; stroke-width: 0.8"/>
      </g>
     </g>
     <g id="text_13">
      <!-- 0.6 -->
      <g transform="translate(29.257812 28.044894) scale(0.1 -0.1)">
       <use xlink:href="#DejaVuSans-30"/>
       <use xlink:href="#DejaVuSans-2e" x="63.623047"/>
       <use xlink:href="#DejaVuSans-36" x="95.410156"/>
      </g>
     </g>
    </g>
    <g id="text_14">
     <!-- position -->
     <g transform="translate(14.798437 153.002812) rotate(-90) scale(0.1 -0.1)">
      <defs>
       <path id="DejaVuSans-70" d="M 1159 525 
L 1159 -1331 
L 581 -1331 
L 581 3500 
L 1159 3500 
L 1159 2969 
Q 1341 3281 1617 3432 
Q 1894 3584 2278 3584 
Q 2916 3584 3314 3078 
Q 3713 2572 3713 1747 
Q 3713 922 3314 415 
Q 2916 -91 2278 -91 
Q 1894 -91 1617 61 
Q 1341 213 1159 525 
z
M 3116 1747 
Q 3116 2381 2855 2742 
Q 2594 3103 2138 3103 
Q 1681 3103 1420 2742 
Q 1159 2381 1159 1747 
Q 1159 1113 1420 752 
Q 1681 391 2138 391 
Q 2594 391 2855 752 
Q 3116 1113 3116 1747 
z
" transform="scale(0.015625)"/>
       <path id="DejaVuSans-6f" d="M 1959 3097 
Q 1497 3097 1228 2736 
Q 959 2375 959 1747 
Q 959 1119 1226 758 
Q 1494 397 1959 397 
Q 2419 397 2687 759 
Q 2956 1122 2956 1747 
Q 2956 2369 2687 2733 
Q 2419 3097 1959 3097 
z
M 1959 3584 
Q 2709 3584 3137 3096 
Q 3566 2609 3566 1747 
Q 3566 888 3137 398 
Q 2709 -91 1959 -91 
Q 1206 -91 779 398 
Q 353 888 353 1747 
Q 353 2609 779 3096 
Q 1206 3584 1959 3584 
z
" transform="scale(0.015625)"/>
       <path id="DejaVuSans-6e" d="M 3513 2113 
L 3513 0 
L 2938 0 
L 2938 2094 
Q 2938 2591 2744 2837 
Q 2550 3084 2163 3084 
Q 1697 3084 1428 2787 
Q 1159 2491 1159 1978 
L 1159 0 
L 581 0 
L 581 3500 
L 1159 3500 
L 1159 2956 
Q 1366 3272 1645 3428 
Q 1925 3584 2291 3584 
Q 2894 3584 3203 3211 
Q 3513 2838 3513 2113 
z
" transform="scale(0.015625)"/>
      </defs>
      <use xlink:href="#DejaVuSans-70"/>
      <use xlink:href="#DejaVuSans-6f" x="63.476562"/>
      <use xlink:href="#DejaVuSans-73" x="124.658203"/>
      <use xlink:href="#DejaVuSans-69" x="176.757812"/>
      <use xlink:href="#DejaVuSans-74" x="204.541016"/>
      <use xlink:href="#DejaVuSans-69" x="243.75"/>
      <use xlink:href="#DejaVuSans-6f" x="271.533203"/>
      <use xlink:href="#DejaVuSans-6e" x="332.714844"/>
     </g>
    </g>
   </g>
   <g id="line2d_13">
    <path d="M 72.451847 134.567028 
L 74.223978 101.193768 
L 75.99611 59.060782 
L 77.768242 55.285951 
L 79.540374 52.903201 
L 81.312506 42.848525 
L 83.084637 42.82117 
L 84.856769 52.905149 
L 86.628901 55.022711 
L 88.401033 58.001857 
L 90.173165 64.609625 
L 91.945296 60.539468 
L 93.717428 52.626518 
L 95.48956 49.446176 
L 97.261692 55.774074 
L 99.033824 58.746762 
L 100.805955 56.714049 
L 102.578087 59.259919 
L 104.350219 63.833046 
L 106.122351 65.289405 
L 107.894483 65.172349 
L 109.666614 65.334372 
L 111.438746 61.749755 
L 113.210878 61.577017 
L 114.98301 62.810482 
L 116.755142 69.351323 
L 118.527273 76.681643 
L 120.299405 80.972469 
L 122.071537 86.543645 
L 123.843669 93.897205 
L 125.615801 95.818325 
L 127.387932 91.643564 
L 129.160064 83.480822 
L 130.932196 79.056098 
L 132.704328 70.582946 
L 134.47646 68.947788 
L 136.248591 77.580004 
L 138.020723 90.258145 
L 139.792855 88.123133 
L 141.564987 79.478487 
L 143.337119 65.131434 
L 145.10925 46.712412 
L 146.881382 35.988268 
L 148.653514 35.90964 
L 150.425646 39.502481 
L 152.197778 38.995872 
L 153.969909 36.131734 
L 155.742041 35.357048 
L 157.514173 37.653796 
L 159.286305 37.695299 
L 161.058437 33.205205 
L 162.830568 32.398125 
L 164.6027 41.280787 
L 166.374832 48.127081 
L 168.146964 55.734664 
L 169.919095 54.122317 
L 171.691227 50.572993 
L 173.463359 43.718932 
L 175.235491 47.502495 
L 177.007623 61.601704 
L 178.779754 67.834958 
L 180.551886 71.421427 
L 182.324018 69.663491 
L 184.09615 60.657853 
L 185.868282 59.511246 
L 189.412545 88.288503 
L 191.184677 100.358971 
L 192.956809 104.425451 
L 194.728941 104.388402 
L 196.501072 107.18522 
L 198.273204 113.715612 
L 200.045336 124.309182 
L 201.817468 135.578667 
L 203.5896 148.030688 
L 205.361731 159.163904 
L 207.133863 167.697839 
L 208.905995 174.987459 
L 210.678127 187.970577 
L 212.450259 204.87262 
L 214.22239 224.709533 
L 215.994522 231.942667 
L 217.766654 230.626683 
L 219.538786 228.410114 
L 221.310918 223.888441 
L 223.083049 211.545638 
L 224.855181 211.260509 
L 226.627313 221.59428 
L 228.399445 229.786818 
L 230.171577 233.998125 
L 231.943708 231.68063 
L 233.71584 224.702637 
L 235.487972 220.267042 
L 237.260104 221.192693 
L 239.032236 217.404625 
L 240.804367 207.446621 
L 242.576499 199.557155 
L 244.348631 195.532916 
L 246.120763 194.499107 
L 247.892895 185.300543 
L 249.665026 191.05102 
L 251.437158 197.295886 
L 253.20929 187.139746 
L 254.981422 166.687274 
L 256.753554 162.660996 
L 258.525685 171.523427 
L 260.297817 191.005475 
L 262.069949 200.577475 
L 263.842081 198.913417 
L 265.614213 190.773345 
L 267.386344 177.271342 
L 269.158476 172.841263 
L 270.930608 182.784404 
L 272.70274 189.629033 
L 274.474872 183.350767 
L 276.247003 169.76404 
L 278.019135 155.008047 
L 279.791267 144.087908 
L 281.563399 130.167684 
L 283.335531 121.989832 
L 285.107662 100.330357 
L 288.651926 63.354054 
L 290.424058 47.848123 
L 292.19619 43.499058 
L 293.968321 42.555443 
L 295.740453 40.808771 
L 297.512585 38.093927 
L 299.284717 36.472862 
L 301.056849 36.878737 
L 302.82898 40.445708 
L 304.601112 45.015176 
L 306.373244 51.611145 
L 308.145376 54.286418 
L 309.917508 58.199374 
L 311.689639 58.428313 
L 315.233903 61.292139 
L 317.006035 60.859986 
L 318.778167 56.499475 
L 320.550298 55.662388 
L 322.32243 54.526994 
L 324.094562 52.802191 
L 325.866694 54.222467 
L 327.638826 61.212177 
L 329.410957 65.095643 
L 331.183089 68.118668 
L 332.955221 73.2371 
L 334.727353 86.821093 
L 336.499485 96.330262 
L 338.271616 108.931579 
L 341.81588 138.590709 
L 343.588012 154.594388 
L 345.360144 169.143782 
L 347.132275 187.365765 
L 348.904407 194.814436 
L 350.676539 191.358019 
L 352.448671 200.50232 
L 354.220803 223.05843 
L 355.992934 229.601265 
L 357.765066 223.843072 
L 359.537198 217.140182 
L 361.30933 200.191632 
L 363.081462 190.683871 
L 364.853593 191.859434 
L 366.625725 195.245925 
L 368.397857 194.76587 
L 370.169989 195.012214 
L 371.942121 198.527152 
L 373.714252 211.501507 
L 375.486384 212.492912 
L 377.258516 209.038664 
L 379.030648 199.70192 
L 380.80278 191.238501 
L 382.574911 188.645968 
L 384.347043 197.599014 
L 386.119175 212.087932 
L 387.891307 215.298705 
L 389.663438 200.463439 
L 391.43557 200.643184 
L 393.207702 208.045392 
L 394.979834 216.309175 
L 396.751966 223.799021 
L 398.524097 226.533656 
L 400.296229 220.231749 
L 402.068361 205.121209 
L 403.840493 193.033366 
L 405.612625 191.630097 
L 409.156888 197.335623 
L 410.92902 196.562331 
L 412.701152 196.727298 
L 414.473284 198.177688 
L 416.245415 197.771149 
L 418.017547 193.726374 
L 419.789679 192.24343 
L 421.561811 191.219944 
L 423.333943 182.503337 
L 425.106074 171.335468 
L 430.42247 96.206109 
L 432.194602 80.93995 
L 433.966733 75.601343 
L 435.738865 81.253175 
L 437.510997 79.171267 
L 439.283129 66.341253 
L 441.055261 57.523369 
L 442.827392 46.333399 
L 444.599524 43.257027 
L 446.371656 53.929234 
L 448.143788 56.562213 
L 449.91592 56.651225 
L 451.688051 53.588926 
L 453.460183 47.250786 
L 455.232315 42.410981 
L 457.004447 39.384624 
L 458.776579 40.864327 
L 460.54871 48.369741 
L 462.320842 60.541678 
L 464.092974 68.586225 
L 465.865106 68.757182 
L 467.637238 62.746339 
L 469.409369 92.939043 
L 471.181501 93.611532 
L 472.953633 105.099716 
L 474.725765 100.154689 
L 476.497897 104.434312 
L 478.270028 114.148887 
L 478.270028 114.148887 
" clip-path="url(#pdffae2fb93)" style="fill: none; stroke: #1f77b4; stroke-width: 1.5; stroke-linecap: square"/>
   </g>
   <g id="line2d_14">
    <path d="M 72.451847 92.341502 
L 75.99611 92.749541 
L 79.540374 93.265097 
L 83.084637 94.387575 
L 84.856769 95.034894 
L 93.717428 99.960265 
L 95.48956 100.488535 
L 97.261692 100.899355 
L 99.033824 101.075274 
L 100.805955 100.943003 
L 102.578087 100.65663 
L 107.894483 99.411322 
L 111.438746 99.006745 
L 114.98301 99.154816 
L 116.755142 99.458964 
L 118.527273 100.00955 
L 120.299405 100.683364 
L 123.843669 102.742554 
L 125.615801 103.99753 
L 129.160064 106.069522 
L 130.932196 106.950947 
L 132.704328 107.643773 
L 134.47646 107.959388 
L 136.248591 107.477585 
L 138.020723 106.597067 
L 139.792855 104.481744 
L 141.564987 101.703701 
L 143.337119 97.600205 
L 148.653514 83.586051 
L 150.425646 79.424723 
L 152.197778 75.900323 
L 153.969909 73.266373 
L 155.742041 71.077651 
L 157.514173 69.982896 
L 159.286305 69.238897 
L 161.058437 69.196427 
L 162.830568 69.754435 
L 164.6027 70.612697 
L 166.374832 72.679686 
L 168.146964 74.949058 
L 169.919095 77.623234 
L 173.463359 82.269825 
L 175.235491 83.331463 
L 177.007623 83.935985 
L 180.551886 83.371922 
L 182.324018 83.145175 
L 184.09615 83.761276 
L 185.868282 84.919475 
L 187.640413 87.16188 
L 189.412545 90.701978 
L 191.184677 94.890958 
L 192.956809 100.622482 
L 194.728941 107.068271 
L 196.501072 114.942588 
L 200.045336 133.316778 
L 203.5896 157.691607 
L 207.133863 180.501432 
L 208.905995 191.564973 
L 210.678127 200.303842 
L 212.450259 207.934552 
L 214.22239 213.348944 
L 215.994522 217.649922 
L 217.766654 221.394171 
L 219.538786 222.986295 
L 221.310918 224.14779 
L 223.083049 224.448039 
L 224.855181 224.083446 
L 226.627313 223.386412 
L 228.399445 222.453845 
L 230.171577 221.291081 
L 231.943708 219.667943 
L 235.487972 216.923816 
L 237.260104 214.866436 
L 239.032236 213.084672 
L 240.804367 211.854182 
L 242.576499 210.30939 
L 244.348631 208.607422 
L 247.892895 207.07941 
L 249.665026 206.487404 
L 251.437158 206.504189 
L 253.20929 206.825396 
L 254.981422 207.493611 
L 256.753554 208.384654 
L 262.069949 212.502555 
L 263.842081 213.482413 
L 265.614213 214.329165 
L 267.386344 214.909701 
L 269.158476 215.081302 
L 270.930608 215.048435 
L 272.70274 213.826421 
L 274.474872 211.698636 
L 276.247003 207.759241 
L 278.019135 200.076614 
L 279.791267 190.522296 
L 281.563399 176.63235 
L 283.335531 161.815644 
L 285.107662 145.146043 
L 288.651926 115.789977 
L 290.424058 105.681622 
L 292.19619 96.637625 
L 293.968321 89.722759 
L 295.740453 84.93849 
L 297.512585 81.219593 
L 299.284717 79.510131 
L 301.056849 78.106162 
L 302.82898 77.313171 
L 304.601112 77.001793 
L 309.917508 76.790672 
L 315.233903 76.085927 
L 317.006035 76.20788 
L 318.778167 76.473682 
L 320.550298 77.027211 
L 322.32243 78.251822 
L 324.094562 79.811991 
L 325.866694 82.205733 
L 327.638826 84.911801 
L 329.410957 88.242567 
L 331.183089 92.278403 
L 332.955221 96.666921 
L 334.727353 103.70649 
L 336.499485 111.7359 
L 338.271616 121.744888 
L 340.043748 133.34881 
L 347.132275 182.654493 
L 348.904407 192.653518 
L 350.676539 201.900284 
L 352.448671 208.133277 
L 354.220803 213.435887 
L 355.992934 216.877702 
L 357.765066 219.065734 
L 359.537198 220.626843 
L 361.30933 220.765074 
L 363.081462 221.091204 
L 364.853593 221.793171 
L 366.625725 222.002037 
L 368.397857 221.964339 
L 370.169989 222.244264 
L 371.942121 222.193811 
L 373.714252 221.482543 
L 377.258516 220.58239 
L 379.030648 219.517965 
L 380.80278 218.851663 
L 384.347043 219.026525 
L 386.119175 219.02881 
L 389.663438 219.978772 
L 391.43557 220.722947 
L 393.207702 220.414021 
L 394.979834 219.578534 
L 396.751966 219.415882 
L 398.524097 218.965 
L 400.296229 217.937608 
L 402.068361 217.689966 
L 403.840493 217.832244 
L 407.384756 218.875077 
L 409.156888 219.26698 
L 410.92902 219.285885 
L 412.701152 219.11829 
L 414.473284 218.253762 
L 416.245415 216.746034 
L 418.017547 213.951807 
L 419.789679 209.859766 
L 421.561811 205.118788 
L 423.333943 197.316059 
L 425.106074 188.612312 
L 426.878206 178.105822 
L 428.650338 165.623414 
L 430.42247 152.152624 
L 432.194602 137.322657 
L 433.966733 123.933735 
L 435.738865 113.427998 
L 437.510997 105.588265 
L 439.283129 99.081705 
L 441.055261 95.141524 
L 442.827392 91.929619 
L 444.599524 90.1743 
L 446.371656 89.019745 
L 448.143788 88.165603 
L 457.004447 85.235802 
L 462.320842 82.637665 
L 465.865106 80.690647 
L 467.637238 80.690647 
L 469.409369 92.572788 
L 471.181501 92.331838 
L 472.953633 92.341502 
L 476.497897 92.749541 
L 478.270028 92.955234 
L 478.270028 92.955234 
" clip-path="url(#pdffae2fb93)" style="fill: none; stroke: #ff7f0e; stroke-width: 1.5; stroke-linecap: square"/>
   </g>
   <g id="patch_3">
    <path d="M 52.160938 244.078125 
L 52.160938 22.318125 
" style="fill: none; stroke: #000000; stroke-width: 0.8; stroke-linejoin: miter; stroke-linecap: square"/>
   </g>
   <g id="patch_4">
    <path d="M 498.560937 244.078125 
L 498.560937 22.318125 
" style="fill: none; stroke: #000000; stroke-width: 0.8; stroke-linejoin: miter; stroke-linecap: square"/>
   </g>
   <g id="patch_5">
    <path d="M 52.160938 244.078125 
L 498.560937 244.078125 
" style="fill: none; stroke: #000000; stroke-width: 0.8; stroke-linejoin: miter; stroke-linecap: square"/>
   </g>
   <g id="patch_6">
    <path d="M 52.160938 22.318125 
L 498.560937 22.318125 
" style="fill: none; stroke: #000000; stroke-width: 0.8; stroke-linejoin: miter; stroke-linecap: square"/>
   </g>
   <g id="text_15">
    <!-- dof command -->
    <g transform="translate(233.914062 16.318125) scale(0.12 -0.12)">
     <defs>
      <path id="DejaVuSans-64" d="M 2906 2969 
L 2906 4863 
L 3481 4863 
L 3481 0 
L 2906 0 
L 2906 525 
Q 2725 213 2448 61 
Q 2172 -91 1784 -91 
Q 1150 -91 751 415 
Q 353 922 353 1747 
Q 353 2572 751 3078 
Q 1150 3584 1784 3584 
Q 2172 3584 2448 3432 
Q 2725 3281 2906 2969 
z
M 947 1747 
Q 947 1113 1208 752 
Q 1469 391 1925 391 
Q 2381 391 2643 752 
Q 2906 1113 2906 1747 
Q 2906 2381 2643 2742 
Q 2381 3103 1925 3103 
Q 1469 3103 1208 2742 
Q 947 2381 947 1747 
z
" transform="scale(0.015625)"/>
      <path id="DejaVuSans-66" d="M 2375 4863 
L 2375 4384 
L 1825 4384 
Q 1516 4384 1395 4259 
Q 1275 4134 1275 3809 
L 1275 3500 
L 2222 3500 
L 2222 3053 
L 1275 3053 
L 1275 0 
L 697 0 
L 697 3053 
L 147 3053 
L 147 3500 
L 697 3500 
L 697 3744 
Q 697 4328 969 4595 
Q 1241 4863 1831 4863 
L 2375 4863 
z
" transform="scale(0.015625)"/>
      <path id="DejaVuSans-20" transform="scale(0.015625)"/>
      <path id="DejaVuSans-63" d="M 3122 3366 
L 3122 2828 
Q 2878 2963 2633 3030 
Q 2388 3097 2138 3097 
Q 1578 3097 1268 2742 
Q 959 2388 959 1747 
Q 959 1106 1268 751 
Q 1578 397 2138 397 
Q 2388 397 2633 464 
Q 2878 531 3122 666 
L 3122 134 
Q 2881 22 2623 -34 
Q 2366 -91 2075 -91 
Q 1284 -91 818 406 
Q 353 903 353 1747 
Q 353 2603 823 3093 
Q 1294 3584 2113 3584 
Q 2378 3584 2631 3529 
Q 2884 3475 3122 3366 
z
" transform="scale(0.015625)"/>
      <path id="DejaVuSans-61" d="M 2194 1759 
Q 1497 1759 1228 1600 
Q 959 1441 959 1056 
Q 959 750 1161 570 
Q 1363 391 1709 391 
Q 2188 391 2477 730 
Q 2766 1069 2766 1631 
L 2766 1759 
L 2194 1759 
z
M 3341 1997 
L 3341 0 
L 2766 0 
L 2766 531 
Q 2569 213 2275 61 
Q 1981 -91 1556 -91 
Q 1019 -91 701 211 
Q 384 513 384 1019 
Q 384 1609 779 1909 
Q 1175 2209 1959 2209 
L 2766 2209 
L 2766 2266 
Q 2766 2663 2505 2880 
Q 2244 3097 1772 3097 
Q 1472 3097 1187 3025 
Q 903 2953 641 2809 
L 641 3341 
Q 956 3463 1253 3523 
Q 1550 3584 1831 3584 
Q 2591 3584 2966 3190 
Q 3341 2797 3341 1997 
z
" transform="scale(0.015625)"/>
     </defs>
     <use xlink:href="#DejaVuSans-64"/>
     <use xlink:href="#DejaVuSans-6f" x="63.476562"/>
     <use xlink:href="#DejaVuSans-66" x="124.658203"/>
     <use xlink:href="#DejaVuSans-20" x="159.863281"/>
     <use xlink:href="#DejaVuSans-63" x="191.650391"/>
     <use xlink:href="#DejaVuSans-6f" x="246.630859"/>
     <use xlink:href="#DejaVuSans-6d" x="307.8125"/>
     <use xlink:href="#DejaVuSans-6d" x="405.224609"/>
     <use xlink:href="#DejaVuSans-61" x="502.636719"/>
     <use xlink:href="#DejaVuSans-6e" x="563.916016"/>
     <use xlink:href="#DejaVuSans-64" x="627.294922"/>
    </g>
   </g>
   <g id="legend_1">
    <g id="patch_7">
     <path d="M 59.160938 239.078125 
L 141.117188 239.078125 
Q 143.117188 239.078125 143.117188 237.078125 
L 143.117188 208.721875 
Q 143.117188 206.721875 141.117188 206.721875 
L 59.160938 206.721875 
Q 57.160938 206.721875 57.160938 208.721875 
L 57.160938 237.078125 
Q 57.160938 239.078125 59.160938 239.078125 
z
" style="fill: #ffffff; opacity: 0.8; stroke: #cccccc; stroke-linejoin: miter"/>
    </g>
    <g id="line2d_15">
     <path d="M 61.160938 214.820312 
L 71.160938 214.820312 
L 81.160938 214.820312 
" style="fill: none; stroke: #1f77b4; stroke-width: 1.5; stroke-linecap: square"/>
    </g>
    <g id="text_16">
     <!-- measured -->
     <g transform="translate(89.160938 218.320312) scale(0.1 -0.1)">
      <defs>
       <path id="DejaVuSans-75" d="M 544 1381 
L 544 3500 
L 1119 3500 
L 1119 1403 
Q 1119 906 1312 657 
Q 1506 409 1894 409 
Q 2359 409 2629 706 
Q 2900 1003 2900 1516 
L 2900 3500 
L 3475 3500 
L 3475 0 
L 2900 0 
L 2900 538 
Q 2691 219 2414 64 
Q 2138 -91 1772 -91 
Q 1169 -91 856 284 
Q 544 659 544 1381 
z
M 1991 3584 
L 1991 3584 
z
" transform="scale(0.015625)"/>
       <path id="DejaVuSans-72" d="M 2631 2963 
Q 2534 3019 2420 3045 
Q 2306 3072 2169 3072 
Q 1681 3072 1420 2755 
Q 1159 2438 1159 1844 
L 1159 0 
L 581 0 
L 581 3500 
L 1159 3500 
L 1159 2956 
Q 1341 3275 1631 3429 
Q 1922 3584 2338 3584 
Q 2397 3584 2469 3576 
Q 2541 3569 2628 3553 
L 2631 2963 
z
" transform="scale(0.015625)"/>
      </defs>
      <use xlink:href="#DejaVuSans-6d"/>
      <use xlink:href="#DejaVuSans-65" x="97.412109"/>
      <use xlink:href="#DejaVuSans-61" x="158.935547"/>
      <use xlink:href="#DejaVuSans-73" x="220.214844"/>
      <use xlink:href="#DejaVuSans-75" x="272.314453"/>
      <use xlink:href="#DejaVuSans-72" x="335.693359"/>
      <use xlink:href="#DejaVuSans-65" x="374.556641"/>
      <use xlink:href="#DejaVuSans-64" x="436.080078"/>
     </g>
    </g>
    <g id="line2d_16">
     <path d="M 61.160938 229.498437 
L 71.160938 229.498437 
L 81.160938 229.498437 
" style="fill: none; stroke: #ff7f0e; stroke-width: 1.5; stroke-linecap: square"/>
    </g>
    <g id="text_17">
     <!-- target -->
     <g transform="translate(89.160938 232.998437) scale(0.1 -0.1)">
      <defs>
       <path id="DejaVuSans-67" d="M 2906 1791 
Q 2906 2416 2648 2759 
Q 2391 3103 1925 3103 
Q 1463 3103 1205 2759 
Q 947 2416 947 1791 
Q 947 1169 1205 825 
Q 1463 481 1925 481 
Q 2391 481 2648 825 
Q 2906 1169 2906 1791 
z
M 3481 434 
Q 3481 -459 3084 -895 
Q 2688 -1331 1869 -1331 
Q 1566 -1331 1297 -1286 
Q 1028 -1241 775 -1147 
L 775 -588 
Q 1028 -725 1275 -790 
Q 1522 -856 1778 -856 
Q 2344 -856 2625 -561 
Q 2906 -266 2906 331 
L 2906 616 
Q 2728 306 2450 153 
Q 2172 0 1784 0 
Q 1141 0 747 490 
Q 353 981 353 1791 
Q 353 2603 747 3093 
Q 1141 3584 1784 3584 
Q 2172 3584 2450 3431 
Q 2728 3278 2906 2969 
L 2906 3500 
L 3481 3500 
L 3481 434 
z
" transform="scale(0.015625)"/>
      </defs>
      <use xlink:href="#DejaVuSans-74"/>
      <use xlink:href="#DejaVuSans-61" x="39.208984"/>
      <use xlink:href="#DejaVuSans-72" x="100.488281"/>
      <use xlink:href="#DejaVuSans-67" x="139.851562"/>
      <use xlink:href="#DejaVuSans-65" x="203.328125"/>
      <use xlink:href="#DejaVuSans-74" x="264.851562"/>
     </g>
    </g>
   </g>
  </g>
 </g>
 <defs>
  <clipPath id="pdffae2fb93">
   <rect x="52.160938" y="22.318125" width="446.4" height="221.76"/>
  </clipPath>
 </defs>
</svg>
