<?xml version="1.0" encoding="utf-8" standalone="no"?>
<!DOCTYPE svg PUBLIC "-//W3C//DTD SVG 1.1//EN"
  "http://www.w3.org/Graphics/SVG/1.1/DTD/svg11.dtd">
<svg xmlns:xlink="http://www.w3.org/1999/xlink" width="505.760937pt" height="281.634375pt" viewBox="0 0 505.760937 281.634375" xmlns="http://www.w3.org/2000/svg" version="1.1">
 <metadata>
  <rdf:RDF xmlns:dc="http://purl.org/dc/elements/1.1/" xmlns:cc="http://creativecommons.org/ns#" xmlns:rdf="http://www.w3.org/1999/02/22-rdf-syntax-ns#">
   <cc:Work>
    <dc:type rdf:resource="http://purl.org/dc/dcmitype/StillImage"/>
    <dc:date>2025-04-21T13:32:49.738414</dc:date>
    <dc:format>image/svg+xml</dc:format>
    <dc:creator>
     <cc:Agent>
      <dc:title>Matplotlib v3.6.3, https://matplotlib.org/</dc:title>
     </cc:Agent>
    </dc:creator>
   </cc:Work>
  </rdf:RDF>
 </metadata>
 <defs>
  <style type="text/css">*{stroke-linejoin: round; stroke-linecap: butt}</style>
 </defs>
 <g id="figure_1">
  <g id="patch_1">
   <path d="M 0 281.634375 
L 505.760937 281.634375 
L 505.760937 0 
L 0 0 
z
" style="fill: #ffffff"/>
  </g>
  <g id="axes_1">
   <g id="patch_2">
    <path d="M 52.160938 244.078125 
L 498.560937 244.078125 
L 498.560937 22.318125 
L 52.160938 22.318125 
z
" style="fill: #ffffff"/>
   </g>
   <g id="matplotlib.axis_1">
    <g id="xtick_1">
     <g id="line2d_1">
      <defs>
       <path id="m69a7ef5223" d="M 0 0 
L 0 3.5 
" style="stroke: #000000; stroke-width: 0.8"/>
      </defs>
      <g>
       <use xlink:href="#m69a7ef5223" x="72.451847" y="244.078125" style="stroke: #000000; stroke-width: 0.8"/>
      </g>
     </g>
     <g id="text_1">
      <!-- 0 -->
      <g transform="translate(69.270597 258.676562) scale(0.1 -0.1)">
       <defs>
        <path id="DejaVuSans-30" d="M 2034 4250 
Q 1547 4250 1301 3770 
Q 1056 3291 1056 2328 
Q 1056 1369 1301 889 
Q 1547 409 2034 409 
Q 2525 409 2770 889 
Q 3016 1369 3016 2328 
Q 3016 3291 2770 3770 
Q 2525 4250 2034 4250 
z
M 2034 4750 
Q 2819 4750 3233 4129 
Q 3647 3509 3647 2328 
Q 3647 1150 3233 529 
Q 2819 -91 2034 -91 
Q 1250 -91 836 529 
Q 422 1150 422 2328 
Q 422 3509 836 4129 
Q 1250 4750 2034 4750 
z
" transform="scale(0.015625)"/>
       </defs>
       <use xlink:href="#DejaVuSans-30"/>
      </g>
     </g>
    </g>
    <g id="xtick_2">
     <g id="line2d_2">
      <g>
       <use xlink:href="#m69a7ef5223" x="160.673192" y="244.078125" style="stroke: #000000; stroke-width: 0.8"/>
      </g>
     </g>
     <g id="text_2">
      <!-- 1 -->
      <g transform="translate(157.491942 258.676562) scale(0.1 -0.1)">
       <defs>
        <path id="DejaVuSans-31" d="M 794 531 
L 1825 531 
L 1825 4091 
L 703 3866 
L 703 4441 
L 1819 4666 
L 2450 4666 
L 2450 531 
L 3481 531 
L 3481 0 
L 794 0 
L 794 531 
z
" transform="scale(0.015625)"/>
       </defs>
       <use xlink:href="#DejaVuSans-31"/>
      </g>
     </g>
    </g>
    <g id="xtick_3">
     <g id="line2d_3">
      <g>
       <use xlink:href="#m69a7ef5223" x="248.894538" y="244.078125" style="stroke: #000000; stroke-width: 0.8"/>
      </g>
     </g>
     <g id="text_3">
      <!-- 2 -->
      <g transform="translate(245.713288 258.676562) scale(0.1 -0.1)">
       <defs>
        <path id="DejaVuSans-32" d="M 1228 531 
L 3431 531 
L 3431 0 
L 469 0 
L 469 531 
Q 828 903 1448 1529 
Q 2069 2156 2228 2338 
Q 2531 2678 2651 2914 
Q 2772 3150 2772 3378 
Q 2772 3750 2511 3984 
Q 2250 4219 1831 4219 
Q 1534 4219 1204 4116 
Q 875 4013 500 3803 
L 500 4441 
Q 881 4594 1212 4672 
Q 1544 4750 1819 4750 
Q 2544 4750 2975 4387 
Q 3406 4025 3406 3419 
Q 3406 3131 3298 2873 
Q 3191 2616 2906 2266 
Q 2828 2175 2409 1742 
Q 1991 1309 1228 531 
z
" transform="scale(0.015625)"/>
       </defs>
       <use xlink:href="#DejaVuSans-32"/>
      </g>
     </g>
    </g>
    <g id="xtick_4">
     <g id="line2d_4">
      <g>
       <use xlink:href="#m69a7ef5223" x="337.115884" y="244.078125" style="stroke: #000000; stroke-width: 0.8"/>
      </g>
     </g>
     <g id="text_4">
      <!-- 3 -->
      <g transform="translate(333.934634 258.676562) scale(0.1 -0.1)">
       <defs>
        <path id="DejaVuSans-33" d="M 2597 2516 
Q 3050 2419 3304 2112 
Q 3559 1806 3559 1356 
Q 3559 666 3084 287 
Q 2609 -91 1734 -91 
Q 1441 -91 1130 -33 
Q 819 25 488 141 
L 488 750 
Q 750 597 1062 519 
Q 1375 441 1716 441 
Q 2309 441 2620 675 
Q 2931 909 2931 1356 
Q 2931 1769 2642 2001 
Q 2353 2234 1838 2234 
L 1294 2234 
L 1294 2753 
L 1863 2753 
Q 2328 2753 2575 2939 
Q 2822 3125 2822 3475 
Q 2822 3834 2567 4026 
Q 2313 4219 1838 4219 
Q 1578 4219 1281 4162 
Q 984 4106 628 3988 
L 628 4550 
Q 988 4650 1302 4700 
Q 1616 4750 1894 4750 
Q 2613 4750 3031 4423 
Q 3450 4097 3450 3541 
Q 3450 3153 3228 2886 
Q 3006 2619 2597 2516 
z
" transform="scale(0.015625)"/>
       </defs>
       <use xlink:href="#DejaVuSans-33"/>
      </g>
     </g>
    </g>
    <g id="xtick_5">
     <g id="line2d_5">
      <g>
       <use xlink:href="#m69a7ef5223" x="425.33723" y="244.078125" style="stroke: #000000; stroke-width: 0.8"/>
      </g>
     </g>
     <g id="text_5">
      <!-- 4 -->
      <g transform="translate(422.15598 258.676562) scale(0.1 -0.1)">
       <defs>
        <path id="DejaVuSans-34" d="M 2419 4116 
L 825 1625 
L 2419 1625 
L 2419 4116 
z
M 2253 4666 
L 3047 4666 
L 3047 1625 
L 3713 1625 
L 3713 1100 
L 3047 1100 
L 3047 0 
L 2419 0 
L 2419 1100 
L 313 1100 
L 313 1709 
L 2253 4666 
z
" transform="scale(0.015625)"/>
       </defs>
       <use xlink:href="#DejaVuSans-34"/>
      </g>
     </g>
    </g>
    <g id="text_6">
     <!-- time(s) -->
     <g transform="translate(257.558594 272.354687) scale(0.1 -0.1)">
      <defs>
       <path id="DejaVuSans-74" d="M 1172 4494 
L 1172 3500 
L 2356 3500 
L 2356 3053 
L 1172 3053 
L 1172 1153 
Q 1172 725 1289 603 
Q 1406 481 1766 481 
L 2356 481 
L 2356 0 
L 1766 0 
Q 1100 0 847 248 
Q 594 497 594 1153 
L 594 3053 
L 172 3053 
L 172 3500 
L 594 3500 
L 594 4494 
L 1172 4494 
z
" transform="scale(0.015625)"/>
       <path id="DejaVuSans-69" d="M 603 3500 
L 1178 3500 
L 1178 0 
L 603 0 
L 603 3500 
z
M 603 4863 
L 1178 4863 
L 1178 4134 
L 603 4134 
L 603 4863 
z
" transform="scale(0.015625)"/>
       <path id="DejaVuSans-6d" d="M 3328 2828 
Q 3544 3216 3844 3400 
Q 4144 3584 4550 3584 
Q 5097 3584 5394 3201 
Q 5691 2819 5691 2113 
L 5691 0 
L 5113 0 
L 5113 2094 
Q 5113 2597 4934 2840 
Q 4756 3084 4391 3084 
Q 3944 3084 3684 2787 
Q 3425 2491 3425 1978 
L 3425 0 
L 2847 0 
L 2847 2094 
Q 2847 2600 2669 2842 
Q 2491 3084 2119 3084 
Q 1678 3084 1418 2786 
Q 1159 2488 1159 1978 
L 1159 0 
L 581 0 
L 581 3500 
L 1159 3500 
L 1159 2956 
Q 1356 3278 1631 3431 
Q 1906 3584 2284 3584 
Q 2666 3584 2933 3390 
Q 3200 3197 3328 2828 
z
" transform="scale(0.015625)"/>
       <path id="DejaVuSans-65" d="M 3597 1894 
L 3597 1613 
L 953 1613 
Q 991 1019 1311 708 
Q 1631 397 2203 397 
Q 2534 397 2845 478 
Q 3156 559 3463 722 
L 3463 178 
Q 3153 47 2828 -22 
Q 2503 -91 2169 -91 
Q 1331 -91 842 396 
Q 353 884 353 1716 
Q 353 2575 817 3079 
Q 1281 3584 2069 3584 
Q 2775 3584 3186 3129 
Q 3597 2675 3597 1894 
z
M 3022 2063 
Q 3016 2534 2758 2815 
Q 2500 3097 2075 3097 
Q 1594 3097 1305 2825 
Q 1016 2553 972 2059 
L 3022 2063 
z
" transform="scale(0.015625)"/>
       <path id="DejaVuSans-28" d="M 1984 4856 
Q 1566 4138 1362 3434 
Q 1159 2731 1159 2009 
Q 1159 1288 1364 580 
Q 1569 -128 1984 -844 
L 1484 -844 
Q 1016 -109 783 600 
Q 550 1309 550 2009 
Q 550 2706 781 3412 
Q 1013 4119 1484 4856 
L 1984 4856 
z
" transform="scale(0.015625)"/>
       <path id="DejaVuSans-73" d="M 2834 3397 
L 2834 2853 
Q 2591 2978 2328 3040 
Q 2066 3103 1784 3103 
Q 1356 3103 1142 2972 
Q 928 2841 928 2578 
Q 928 2378 1081 2264 
Q 1234 2150 1697 2047 
L 1894 2003 
Q 2506 1872 2764 1633 
Q 3022 1394 3022 966 
Q 3022 478 2636 193 
Q 2250 -91 1575 -91 
Q 1294 -91 989 -36 
Q 684 19 347 128 
L 347 722 
Q 666 556 975 473 
Q 1284 391 1588 391 
Q 1994 391 2212 530 
Q 2431 669 2431 922 
Q 2431 1156 2273 1281 
Q 2116 1406 1581 1522 
L 1381 1569 
Q 847 1681 609 1914 
Q 372 2147 372 2553 
Q 372 3047 722 3315 
Q 1072 3584 1716 3584 
Q 2034 3584 2315 3537 
Q 2597 3491 2834 3397 
z
" transform="scale(0.015625)"/>
       <path id="DejaVuSans-29" d="M 513 4856 
L 1013 4856 
Q 1481 4119 1714 3412 
Q 1947 2706 1947 2009 
Q 1947 1309 1714 600 
Q 1481 -109 1013 -844 
L 513 -844 
Q 928 -128 1133 580 
Q 1338 1288 1338 2009 
Q 1338 2731 1133 3434 
Q 928 4138 513 4856 
z
" transform="scale(0.015625)"/>
      </defs>
      <use xlink:href="#DejaVuSans-74"/>
      <use xlink:href="#DejaVuSans-69" x="39.208984"/>
      <use xlink:href="#DejaVuSans-6d" x="66.992188"/>
      <use xlink:href="#DejaVuSans-65" x="164.404297"/>
      <use xlink:href="#DejaVuSans-28" x="225.927734"/>
      <use xlink:href="#DejaVuSans-73" x="264.941406"/>
      <use xlink:href="#DejaVuSans-29" x="317.041016"/>
     </g>
    </g>
   </g>
   <g id="matplotlib.axis_2">
    <g id="ytick_1">
     <g id="line2d_6">
      <defs>
       <path id="mafaa24cf29" d="M 0 0 
L -3.5 0 
" style="stroke: #000000; stroke-width: 0.8"/>
      </defs>
      <g>
       <use xlink:href="#mafaa24cf29" x="52.160938" y="225.71668" style="stroke: #000000; stroke-width: 0.8"/>
      </g>
     </g>
     <g id="text_7">
      <!-- −1.2 -->
      <g transform="translate(20.878125 229.515899) scale(0.1 -0.1)">
       <defs>
        <path id="DejaVuSans-2212" d="M 678 2272 
L 4684 2272 
L 4684 1741 
L 678 1741 
L 678 2272 
z
" transform="scale(0.015625)"/>
        <path id="DejaVuSans-2e" d="M 684 794 
L 1344 794 
L 1344 0 
L 684 0 
L 684 794 
z
" transform="scale(0.015625)"/>
       </defs>
       <use xlink:href="#DejaVuSans-2212"/>
       <use xlink:href="#DejaVuSans-31" x="83.789062"/>
       <use xlink:href="#DejaVuSans-2e" x="147.412109"/>
       <use xlink:href="#DejaVuSans-32" x="179.199219"/>
      </g>
     </g>
    </g>
    <g id="ytick_2">
     <g id="line2d_7">
      <g>
       <use xlink:href="#mafaa24cf29" x="52.160938" y="180.724369" style="stroke: #000000; stroke-width: 0.8"/>
      </g>
     </g>
     <g id="text_8">
      <!-- −1.0 -->
      <g transform="translate(20.878125 184.523588) scale(0.1 -0.1)">
       <use xlink:href="#DejaVuSans-2212"/>
       <use xlink:href="#DejaVuSans-31" x="83.789062"/>
       <use xlink:href="#DejaVuSans-2e" x="147.412109"/>
       <use xlink:href="#DejaVuSans-30" x="179.199219"/>
      </g>
     </g>
    </g>
    <g id="ytick_3">
     <g id="line2d_8">
      <g>
       <use xlink:href="#mafaa24cf29" x="52.160938" y="135.732058" style="stroke: #000000; stroke-width: 0.8"/>
      </g>
     </g>
     <g id="text_9">
      <!-- −0.8 -->
      <g transform="translate(20.878125 139.531277) scale(0.1 -0.1)">
       <defs>
        <path id="DejaVuSans-38" d="M 2034 2216 
Q 1584 2216 1326 1975 
Q 1069 1734 1069 1313 
Q 1069 891 1326 650 
Q 1584 409 2034 409 
Q 2484 409 2743 651 
Q 3003 894 3003 1313 
Q 3003 1734 2745 1975 
Q 2488 2216 2034 2216 
z
M 1403 2484 
Q 997 2584 770 2862 
Q 544 3141 544 3541 
Q 544 4100 942 4425 
Q 1341 4750 2034 4750 
Q 2731 4750 3128 4425 
Q 3525 4100 3525 3541 
Q 3525 3141 3298 2862 
Q 3072 2584 2669 2484 
Q 3125 2378 3379 2068 
Q 3634 1759 3634 1313 
Q 3634 634 3220 271 
Q 2806 -91 2034 -91 
Q 1263 -91 848 271 
Q 434 634 434 1313 
Q 434 1759 690 2068 
Q 947 2378 1403 2484 
z
M 1172 3481 
Q 1172 3119 1398 2916 
Q 1625 2713 2034 2713 
Q 2441 2713 2670 2916 
Q 2900 3119 2900 3481 
Q 2900 3844 2670 4047 
Q 2441 4250 2034 4250 
Q 1625 4250 1398 4047 
Q 1172 3844 1172 3481 
z
" transform="scale(0.015625)"/>
       </defs>
       <use xlink:href="#DejaVuSans-2212"/>
       <use xlink:href="#DejaVuSans-30" x="83.789062"/>
       <use xlink:href="#DejaVuSans-2e" x="147.412109"/>
       <use xlink:href="#DejaVuSans-38" x="179.199219"/>
      </g>
     </g>
    </g>
    <g id="ytick_4">
     <g id="line2d_9">
      <g>
       <use xlink:href="#mafaa24cf29" x="52.160938" y="90.739747" style="stroke: #000000; stroke-width: 0.8"/>
      </g>
     </g>
     <g id="text_10">
      <!-- −0.6 -->
      <g transform="translate(20.878125 94.538966) scale(0.1 -0.1)">
       <defs>
        <path id="DejaVuSans-36" d="M 2113 2584 
Q 1688 2584 1439 2293 
Q 1191 2003 1191 1497 
Q 1191 994 1439 701 
Q 1688 409 2113 409 
Q 2538 409 2786 701 
Q 3034 994 3034 1497 
Q 3034 2003 2786 2293 
Q 2538 2584 2113 2584 
z
M 3366 4563 
L 3366 3988 
Q 3128 4100 2886 4159 
Q 2644 4219 2406 4219 
Q 1781 4219 1451 3797 
Q 1122 3375 1075 2522 
Q 1259 2794 1537 2939 
Q 1816 3084 2150 3084 
Q 2853 3084 3261 2657 
Q 3669 2231 3669 1497 
Q 3669 778 3244 343 
Q 2819 -91 2113 -91 
Q 1303 -91 875 529 
Q 447 1150 447 2328 
Q 447 3434 972 4092 
Q 1497 4750 2381 4750 
Q 2619 4750 2861 4703 
Q 3103 4656 3366 4563 
z
" transform="scale(0.015625)"/>
       </defs>
       <use xlink:href="#DejaVuSans-2212"/>
       <use xlink:href="#DejaVuSans-30" x="83.789062"/>
       <use xlink:href="#DejaVuSans-2e" x="147.412109"/>
       <use xlink:href="#DejaVuSans-36" x="179.199219"/>
      </g>
     </g>
    </g>
    <g id="ytick_5">
     <g id="line2d_10">
      <g>
       <use xlink:href="#mafaa24cf29" x="52.160938" y="45.747436" style="stroke: #000000; stroke-width: 0.8"/>
      </g>
     </g>
     <g id="text_11">
      <!-- −0.4 -->
      <g transform="translate(20.878125 49.546655) scale(0.1 -0.1)">
       <use xlink:href="#DejaVuSans-2212"/>
       <use xlink:href="#DejaVuSans-30" x="83.789062"/>
       <use xlink:href="#DejaVuSans-2e" x="147.412109"/>
       <use xlink:href="#DejaVuSans-34" x="179.199219"/>
      </g>
     </g>
    </g>
    <g id="text_12">
     <!-- position -->
     <g transform="translate(14.798437 153.002812) rotate(-90) scale(0.1 -0.1)">
      <defs>
       <path id="DejaVuSans-70" d="M 1159 525 
L 1159 -1331 
L 581 -1331 
L 581 3500 
L 1159 3500 
L 1159 2969 
Q 1341 3281 1617 3432 
Q 1894 3584 2278 3584 
Q 2916 3584 3314 3078 
Q 3713 2572 3713 1747 
Q 3713 922 3314 415 
Q 2916 -91 2278 -91 
Q 1894 -91 1617 61 
Q 1341 213 1159 525 
z
M 3116 1747 
Q 3116 2381 2855 2742 
Q 2594 3103 2138 3103 
Q 1681 3103 1420 2742 
Q 1159 2381 1159 1747 
Q 1159 1113 1420 752 
Q 1681 391 2138 391 
Q 2594 391 2855 752 
Q 3116 1113 3116 1747 
z
" transform="scale(0.015625)"/>
       <path id="DejaVuSans-6f" d="M 1959 3097 
Q 1497 3097 1228 2736 
Q 959 2375 959 1747 
Q 959 1119 1226 758 
Q 1494 397 1959 397 
Q 2419 397 2687 759 
Q 2956 1122 2956 1747 
Q 2956 2369 2687 2733 
Q 2419 3097 1959 3097 
z
M 1959 3584 
Q 2709 3584 3137 3096 
Q 3566 2609 3566 1747 
Q 3566 888 3137 398 
Q 2709 -91 1959 -91 
Q 1206 -91 779 398 
Q 353 888 353 1747 
Q 353 2609 779 3096 
Q 1206 3584 1959 3584 
z
" transform="scale(0.015625)"/>
       <path id="DejaVuSans-6e" d="M 3513 2113 
L 3513 0 
L 2938 0 
L 2938 2094 
Q 2938 2591 2744 2837 
Q 2550 3084 2163 3084 
Q 1697 3084 1428 2787 
Q 1159 2491 1159 1978 
L 1159 0 
L 581 0 
L 581 3500 
L 1159 3500 
L 1159 2956 
Q 1366 3272 1645 3428 
Q 1925 3584 2291 3584 
Q 2894 3584 3203 3211 
Q 3513 2838 3513 2113 
z
" transform="scale(0.015625)"/>
      </defs>
      <use xlink:href="#DejaVuSans-70"/>
      <use xlink:href="#DejaVuSans-6f" x="63.476562"/>
      <use xlink:href="#DejaVuSans-73" x="124.658203"/>
      <use xlink:href="#DejaVuSans-69" x="176.757812"/>
      <use xlink:href="#DejaVuSans-74" x="204.541016"/>
      <use xlink:href="#DejaVuSans-69" x="243.75"/>
      <use xlink:href="#DejaVuSans-6f" x="271.533203"/>
      <use xlink:href="#DejaVuSans-6e" x="332.714844"/>
     </g>
    </g>
   </g>
   <g id="line2d_11">
    <path d="M 72.451847 130.511081 
L 74.223978 137.590192 
L 75.99611 151.764546 
L 77.768242 151.31609 
L 79.540374 157.301395 
L 81.312506 173.524177 
L 83.084637 184.462247 
L 84.856769 185.979313 
L 86.628901 192.692406 
L 88.401033 203.912046 
L 90.173165 214.157434 
L 91.945296 220.609994 
L 93.717428 223.076078 
L 95.48956 222.325537 
L 99.033824 216.618155 
L 100.805955 214.905454 
L 102.578087 212.07189 
L 104.350219 208.29282 
L 106.122351 203.349925 
L 107.894483 200.806338 
L 109.666614 199.247946 
L 111.438746 196.122446 
L 113.210878 189.618047 
L 114.98301 177.090905 
L 116.755142 168.068236 
L 118.527273 167.558743 
L 120.299405 171.969164 
L 122.071537 174.555766 
L 123.843669 175.126201 
L 125.615801 178.166261 
L 127.387932 188.358724 
L 129.160064 195.254926 
L 130.932196 197.426554 
L 132.704328 203.399323 
L 134.47646 215.32657 
L 136.248591 223.56523 
L 138.020723 226.701403 
L 139.792855 226.456506 
L 141.564987 218.956802 
L 143.337119 209.458148 
L 145.10925 206.757706 
L 146.881382 206.635311 
L 148.653514 200.993765 
L 150.425646 192.339836 
L 152.197778 187.099856 
L 153.969909 182.907422 
L 155.742041 184.105521 
L 157.514173 183.120084 
L 159.286305 176.066316 
L 161.058437 170.828119 
L 164.6027 182.554396 
L 166.374832 185.712318 
L 168.146964 185.920637 
L 169.919095 186.008035 
L 171.691227 186.447038 
L 173.463359 191.490258 
L 175.235491 195.549624 
L 177.007623 199.206083 
L 178.779754 197.540394 
L 180.551886 189.175424 
L 182.324018 184.874969 
L 185.868282 195.249187 
L 187.640413 197.813477 
L 189.412545 198.523176 
L 191.184677 196.650455 
L 192.956809 195.81804 
L 194.728941 195.985596 
L 196.501072 194.102283 
L 198.273204 192.92848 
L 200.045336 189.26309 
L 201.817468 182.697575 
L 203.5896 174.963888 
L 205.361731 168.558259 
L 207.133863 166.311997 
L 208.905995 163.796891 
L 210.678127 157.053414 
L 215.994522 130.024035 
L 217.766654 118.430478 
L 219.538786 111.504227 
L 221.310918 106.26493 
L 223.083049 104.575414 
L 224.855181 102.030473 
L 226.627313 96.310325 
L 228.399445 89.074841 
L 230.171577 77.610786 
L 231.943708 63.7458 
L 233.71584 54.758019 
L 235.487972 52.736817 
L 237.260104 58.388909 
L 239.032236 69.140356 
L 242.576499 96.685663 
L 244.348631 108.135867 
L 246.120763 111.039251 
L 247.892895 101.133749 
L 249.665026 72.708532 
L 251.437158 54.392557 
L 253.20929 57.344669 
L 254.981422 75.793069 
L 256.753554 90.467609 
L 258.525685 102.509353 
L 260.297817 109.099058 
L 262.069949 111.428186 
L 265.614213 114.306576 
L 267.386344 112.684492 
L 269.158476 114.385634 
L 270.930608 120.986937 
L 272.70274 131.109795 
L 274.474872 140.23763 
L 278.019135 138.001707 
L 279.791267 142.216936 
L 281.563399 149.85121 
L 283.335531 149.338232 
L 285.107662 144.105492 
L 286.879794 142.186901 
L 288.651926 143.850941 
L 290.424058 159.265738 
L 292.19619 168.500708 
L 293.968321 171.158122 
L 295.740453 174.493871 
L 299.284717 183.766762 
L 301.056849 188.199562 
L 302.82898 192.315084 
L 304.601112 190.791554 
L 306.373244 186.792581 
L 308.145376 183.887897 
L 309.917508 182.490222 
L 311.689639 185.784618 
L 313.461771 189.586858 
L 315.233903 190.745696 
L 317.006035 192.686211 
L 318.778167 194.793129 
L 322.32243 198.021956 
L 324.094562 198.86231 
L 325.866694 198.618029 
L 329.410957 193.585885 
L 331.183089 189.231446 
L 332.955221 182.105337 
L 334.727353 171.884903 
L 338.271616 156.76357 
L 340.043748 149.755847 
L 341.81588 143.326256 
L 345.360144 124.197677 
L 347.132275 113.30336 
L 348.904407 107.757258 
L 350.676539 108.035127 
L 352.448671 101.352835 
L 354.220803 90.22495 
L 355.992934 80.476612 
L 357.765066 68.070646 
L 359.537198 58.508046 
L 361.30933 62.457936 
L 363.081462 66.694975 
L 364.853593 67.014767 
L 366.625725 63.157363 
L 368.397857 55.389947 
L 370.169989 46.158208 
L 371.942121 39.400907 
L 373.714252 36.827512 
L 375.486384 39.940133 
L 377.258516 50.035235 
L 379.030648 62.32478 
L 380.80278 70.724265 
L 382.574911 70.06745 
L 384.347043 60.045574 
L 386.119175 53.410916 
L 387.891307 56.548732 
L 389.663438 60.239283 
L 391.43557 58.337647 
L 393.207702 51.908331 
L 394.979834 46.473227 
L 396.751966 37.981677 
L 398.524097 32.398125 
L 400.296229 40.079511 
L 402.068361 56.077461 
L 403.840493 73.479603 
L 405.612625 86.141355 
L 407.384756 96.692207 
L 410.92902 116.040381 
L 412.701152 120.917359 
L 414.473284 117.340695 
L 416.245415 112.296738 
L 418.017547 111.790946 
L 419.789679 114.427335 
L 421.561811 121.038709 
L 425.106074 144.383992 
L 426.878206 160.266406 
L 430.42247 201.253278 
L 432.194602 209.354472 
L 433.966733 208.823592 
L 437.510997 180.072395 
L 439.283129 177.757119 
L 441.055261 178.13294 
L 442.827392 182.447394 
L 444.599524 189.808478 
L 446.371656 195.768133 
L 448.143788 209.226955 
L 449.91592 217.800967 
L 451.688051 220.526028 
L 453.460183 218.018431 
L 455.232315 212.443178 
L 457.004447 201.860802 
L 458.776579 196.2494 
L 460.54871 199.530817 
L 462.320842 208.145297 
L 464.092974 215.253626 
L 465.865106 218.869806 
L 467.637238 220.420394 
L 469.409369 162.915882 
L 471.181501 165.974942 
L 472.953633 175.788084 
L 476.497897 216.029001 
L 478.270028 233.998125 
L 478.270028 233.998125 
" clip-path="url(#pa7805eae7b)" style="fill: none; stroke: #1f77b4; stroke-width: 1.5; stroke-linecap: square"/>
   </g>
   <g id="line2d_12">
    <path d="M 72.451847 161.363537 
L 74.223978 162.335269 
L 75.99611 162.98955 
L 77.768242 162.623169 
L 79.540374 162.754145 
L 81.312506 163.879877 
L 83.084637 164.264937 
L 84.856769 164.279686 
L 86.628901 164.670954 
L 88.401033 164.579157 
L 90.173165 163.521233 
L 91.945296 163.273547 
L 93.717428 163.430993 
L 95.48956 162.723949 
L 97.261692 162.375187 
L 99.033824 162.742976 
L 102.578087 163.128129 
L 104.350219 163.856519 
L 106.122351 164.283347 
L 107.894483 164.107062 
L 111.438746 164.305002 
L 113.210878 163.287398 
L 114.98301 162.497153 
L 116.755142 162.161626 
L 118.527273 161.475272 
L 120.299405 160.613505 
L 123.843669 160.457521 
L 125.615801 160.643836 
L 127.387932 161.385299 
L 130.932196 163.483917 
L 134.47646 165.829054 
L 136.248591 166.556278 
L 138.020723 167.037599 
L 139.792855 166.952466 
L 141.564987 166.646009 
L 145.10925 165.253537 
L 146.881382 164.663002 
L 150.425646 162.630182 
L 153.969909 160.932298 
L 155.742041 159.987866 
L 157.514173 159.453246 
L 159.286305 158.739028 
L 161.058437 157.665631 
L 166.374832 155.110673 
L 168.146964 154.520608 
L 169.919095 154.757876 
L 171.691227 154.350973 
L 173.463359 153.621966 
L 175.235491 154.142293 
L 177.007623 154.407585 
L 178.779754 154.162835 
L 180.551886 154.674245 
L 182.324018 155.563742 
L 185.868282 158.221491 
L 189.412545 161.37476 
L 191.184677 162.887147 
L 192.956809 163.48566 
L 194.728941 163.760553 
L 196.501072 163.388165 
L 198.273204 161.622809 
L 200.045336 159.160975 
L 201.817468 154.710797 
L 203.5896 149.76644 
L 207.133863 137.548317 
L 212.450259 118.278812 
L 215.994522 106.382244 
L 217.766654 100.704723 
L 221.310918 90.741094 
L 224.855181 82.48102 
L 230.171577 70.529382 
L 235.487972 57.262533 
L 239.032236 49.792832 
L 240.804367 46.367251 
L 242.576499 43.992145 
L 244.348631 42.142273 
L 246.120763 42.082926 
L 247.892895 42.44228 
L 249.665026 43.639045 
L 251.437158 45.438386 
L 253.20929 47.539021 
L 256.753554 54.262003 
L 258.525685 57.792575 
L 262.069949 66.005651 
L 265.614213 76.612531 
L 276.247003 111.339674 
L 279.791267 123.989157 
L 283.335531 136.923925 
L 285.107662 142.767084 
L 286.879794 147.766578 
L 288.651926 152.34426 
L 290.424058 155.153112 
L 292.19619 157.347629 
L 295.740453 159.389085 
L 297.512585 160.519872 
L 299.284717 160.754793 
L 301.056849 161.288153 
L 302.82898 162.418444 
L 304.601112 163.20779 
L 306.373244 163.826658 
L 308.145376 165.220538 
L 309.917508 166.237954 
L 315.233903 167.114619 
L 318.778167 166.086636 
L 324.094562 165.055047 
L 325.866694 164.671463 
L 327.638826 163.835106 
L 329.410957 162.093174 
L 332.955221 157.894411 
L 334.727353 154.099251 
L 336.499485 149.618394 
L 338.271616 143.76613 
L 341.81588 130.392052 
L 345.360144 115.599434 
L 350.676539 91.523897 
L 354.220803 78.950642 
L 355.992934 73.532111 
L 357.765066 69.083771 
L 359.537198 65.120519 
L 363.081462 58.71619 
L 364.853593 55.732608 
L 366.625725 53.537944 
L 368.397857 51.737805 
L 370.169989 50.104967 
L 371.942121 48.796682 
L 373.714252 48.137521 
L 377.258516 47.268299 
L 380.80278 48.368815 
L 382.574911 48.658062 
L 386.119175 49.661439 
L 389.663438 50.622109 
L 391.43557 50.819372 
L 393.207702 51.841173 
L 394.979834 53.275286 
L 396.751966 54.913145 
L 398.524097 56.928749 
L 402.068361 62.627329 
L 403.840493 65.632981 
L 405.612625 68.884597 
L 407.384756 72.375151 
L 409.156888 76.343511 
L 412.701152 85.064726 
L 414.473284 90.441689 
L 416.245415 96.366361 
L 418.017547 103.386728 
L 425.106074 133.222438 
L 426.878206 139.602592 
L 430.42247 151.218514 
L 432.194602 156.143657 
L 433.966733 160.676995 
L 435.738865 164.426351 
L 437.510997 167.028373 
L 441.055261 171.097421 
L 442.827392 172.746148 
L 444.599524 173.610757 
L 446.371656 175.200177 
L 448.143788 177.152036 
L 449.91592 177.784017 
L 451.688051 178.651416 
L 453.460183 179.989771 
L 455.232315 180.607472 
L 457.004447 180.864893 
L 458.776579 181.904018 
L 460.54871 182.638013 
L 462.320842 182.761856 
L 467.637238 182.58765 
L 469.409369 160.69912 
L 471.181501 159.756847 
L 472.953633 161.363537 
L 474.725765 162.335269 
L 476.497897 162.98955 
L 478.270028 162.623169 
L 478.270028 162.623169 
" clip-path="url(#pa7805eae7b)" style="fill: none; stroke: #ff7f0e; stroke-width: 1.5; stroke-linecap: square"/>
   </g>
   <g id="patch_3">
    <path d="M 52.160938 244.078125 
L 52.160938 22.318125 
" style="fill: none; stroke: #000000; stroke-width: 0.8; stroke-linejoin: miter; stroke-linecap: square"/>
   </g>
   <g id="patch_4">
    <path d="M 498.560937 244.078125 
L 498.560937 22.318125 
" style="fill: none; stroke: #000000; stroke-width: 0.8; stroke-linejoin: miter; stroke-linecap: square"/>
   </g>
   <g id="patch_5">
    <path d="M 52.160938 244.078125 
L 498.560937 244.078125 
" style="fill: none; stroke: #000000; stroke-width: 0.8; stroke-linejoin: miter; stroke-linecap: square"/>
   </g>
   <g id="patch_6">
    <path d="M 52.160938 22.318125 
L 498.560937 22.318125 
" style="fill: none; stroke: #000000; stroke-width: 0.8; stroke-linejoin: miter; stroke-linecap: square"/>
   </g>
   <g id="text_13">
    <!-- dof command -->
    <g transform="translate(233.914062 16.318125) scale(0.12 -0.12)">
     <defs>
      <path id="DejaVuSans-64" d="M 2906 2969 
L 2906 4863 
L 3481 4863 
L 3481 0 
L 2906 0 
L 2906 525 
Q 2725 213 2448 61 
Q 2172 -91 1784 -91 
Q 1150 -91 751 415 
Q 353 922 353 1747 
Q 353 2572 751 3078 
Q 1150 3584 1784 3584 
Q 2172 3584 2448 3432 
Q 2725 3281 2906 2969 
z
M 947 1747 
Q 947 1113 1208 752 
Q 1469 391 1925 391 
Q 2381 391 2643 752 
Q 2906 1113 2906 1747 
Q 2906 2381 2643 2742 
Q 2381 3103 1925 3103 
Q 1469 3103 1208 2742 
Q 947 2381 947 1747 
z
" transform="scale(0.015625)"/>
      <path id="DejaVuSans-66" d="M 2375 4863 
L 2375 4384 
L 1825 4384 
Q 1516 4384 1395 4259 
Q 1275 4134 1275 3809 
L 1275 3500 
L 2222 3500 
L 2222 3053 
L 1275 3053 
L 1275 0 
L 697 0 
L 697 3053 
L 147 3053 
L 147 3500 
L 697 3500 
L 697 3744 
Q 697 4328 969 4595 
Q 1241 4863 1831 4863 
L 2375 4863 
z
" transform="scale(0.015625)"/>
      <path id="DejaVuSans-20" transform="scale(0.015625)"/>
      <path id="DejaVuSans-63" d="M 3122 3366 
L 3122 2828 
Q 2878 2963 2633 3030 
Q 2388 3097 2138 3097 
Q 1578 3097 1268 2742 
Q 959 2388 959 1747 
Q 959 1106 1268 751 
Q 1578 397 2138 397 
Q 2388 397 2633 464 
Q 2878 531 3122 666 
L 3122 134 
Q 2881 22 2623 -34 
Q 2366 -91 2075 -91 
Q 1284 -91 818 406 
Q 353 903 353 1747 
Q 353 2603 823 3093 
Q 1294 3584 2113 3584 
Q 2378 3584 2631 3529 
Q 2884 3475 3122 3366 
z
" transform="scale(0.015625)"/>
      <path id="DejaVuSans-61" d="M 2194 1759 
Q 1497 1759 1228 1600 
Q 959 1441 959 1056 
Q 959 750 1161 570 
Q 1363 391 1709 391 
Q 2188 391 2477 730 
Q 2766 1069 2766 1631 
L 2766 1759 
L 2194 1759 
z
M 3341 1997 
L 3341 0 
L 2766 0 
L 2766 531 
Q 2569 213 2275 61 
Q 1981 -91 1556 -91 
Q 1019 -91 701 211 
Q 384 513 384 1019 
Q 384 1609 779 1909 
Q 1175 2209 1959 2209 
L 2766 2209 
L 2766 2266 
Q 2766 2663 2505 2880 
Q 2244 3097 1772 3097 
Q 1472 3097 1187 3025 
Q 903 2953 641 2809 
L 641 3341 
Q 956 3463 1253 3523 
Q 1550 3584 1831 3584 
Q 2591 3584 2966 3190 
Q 3341 2797 3341 1997 
z
" transform="scale(0.015625)"/>
     </defs>
     <use xlink:href="#DejaVuSans-64"/>
     <use xlink:href="#DejaVuSans-6f" x="63.476562"/>
     <use xlink:href="#DejaVuSans-66" x="124.658203"/>
     <use xlink:href="#DejaVuSans-20" x="159.863281"/>
     <use xlink:href="#DejaVuSans-63" x="191.650391"/>
     <use xlink:href="#DejaVuSans-6f" x="246.630859"/>
     <use xlink:href="#DejaVuSans-6d" x="307.8125"/>
     <use xlink:href="#DejaVuSans-6d" x="405.224609"/>
     <use xlink:href="#DejaVuSans-61" x="502.636719"/>
     <use xlink:href="#DejaVuSans-6e" x="563.916016"/>
     <use xlink:href="#DejaVuSans-64" x="627.294922"/>
    </g>
   </g>
   <g id="legend_1">
    <g id="patch_7">
     <path d="M 409.604687 59.674375 
L 491.560937 59.674375 
Q 493.560937 59.674375 493.560937 57.674375 
L 493.560937 29.318125 
Q 493.560937 27.318125 491.560937 27.318125 
L 409.604687 27.318125 
Q 407.604687 27.318125 407.604687 29.318125 
L 407.604687 57.674375 
Q 407.604687 59.674375 409.604687 59.674375 
z
" style="fill: #ffffff; opacity: 0.8; stroke: #cccccc; stroke-linejoin: miter"/>
    </g>
    <g id="line2d_13">
     <path d="M 411.604687 35.416562 
L 421.604687 35.416562 
L 431.604687 35.416562 
" style="fill: none; stroke: #1f77b4; stroke-width: 1.5; stroke-linecap: square"/>
    </g>
    <g id="text_14">
     <!-- measured -->
     <g transform="translate(439.604687 38.916562) scale(0.1 -0.1)">
      <defs>
       <path id="DejaVuSans-75" d="M 544 1381 
L 544 3500 
L 1119 3500 
L 1119 1403 
Q 1119 906 1312 657 
Q 1506 409 1894 409 
Q 2359 409 2629 706 
Q 2900 1003 2900 1516 
L 2900 3500 
L 3475 3500 
L 3475 0 
L 2900 0 
L 2900 538 
Q 2691 219 2414 64 
Q 2138 -91 1772 -91 
Q 1169 -91 856 284 
Q 544 659 544 1381 
z
M 1991 3584 
L 1991 3584 
z
" transform="scale(0.015625)"/>
       <path id="DejaVuSans-72" d="M 2631 2963 
Q 2534 3019 2420 3045 
Q 2306 3072 2169 3072 
Q 1681 3072 1420 2755 
Q 1159 2438 1159 1844 
L 1159 0 
L 581 0 
L 581 3500 
L 1159 3500 
L 1159 2956 
Q 1341 3275 1631 3429 
Q 1922 3584 2338 3584 
Q 2397 3584 2469 3576 
Q 2541 3569 2628 3553 
L 2631 2963 
z
" transform="scale(0.015625)"/>
      </defs>
      <use xlink:href="#DejaVuSans-6d"/>
      <use xlink:href="#DejaVuSans-65" x="97.412109"/>
      <use xlink:href="#DejaVuSans-61" x="158.935547"/>
      <use xlink:href="#DejaVuSans-73" x="220.214844"/>
      <use xlink:href="#DejaVuSans-75" x="272.314453"/>
      <use xlink:href="#DejaVuSans-72" x="335.693359"/>
      <use xlink:href="#DejaVuSans-65" x="374.556641"/>
      <use xlink:href="#DejaVuSans-64" x="436.080078"/>
     </g>
    </g>
    <g id="line2d_14">
     <path d="M 411.604687 50.094687 
L 421.604687 50.094687 
L 431.604687 50.094687 
" style="fill: none; stroke: #ff7f0e; stroke-width: 1.5; stroke-linecap: square"/>
    </g>
    <g id="text_15">
     <!-- target -->
     <g transform="translate(439.604687 53.594687) scale(0.1 -0.1)">
      <defs>
       <path id="DejaVuSans-67" d="M 2906 1791 
Q 2906 2416 2648 2759 
Q 2391 3103 1925 3103 
Q 1463 3103 1205 2759 
Q 947 2416 947 1791 
Q 947 1169 1205 825 
Q 1463 481 1925 481 
Q 2391 481 2648 825 
Q 2906 1169 2906 1791 
z
M 3481 434 
Q 3481 -459 3084 -895 
Q 2688 -1331 1869 -1331 
Q 1566 -1331 1297 -1286 
Q 1028 -1241 775 -1147 
L 775 -588 
Q 1028 -725 1275 -790 
Q 1522 -856 1778 -856 
Q 2344 -856 2625 -561 
Q 2906 -266 2906 331 
L 2906 616 
Q 2728 306 2450 153 
Q 2172 0 1784 0 
Q 1141 0 747 490 
Q 353 981 353 1791 
Q 353 2603 747 3093 
Q 1141 3584 1784 3584 
Q 2172 3584 2450 3431 
Q 2728 3278 2906 2969 
L 2906 3500 
L 3481 3500 
L 3481 434 
z
" transform="scale(0.015625)"/>
      </defs>
      <use xlink:href="#DejaVuSans-74"/>
      <use xlink:href="#DejaVuSans-61" x="39.208984"/>
      <use xlink:href="#DejaVuSans-72" x="100.488281"/>
      <use xlink:href="#DejaVuSans-67" x="139.851562"/>
      <use xlink:href="#DejaVuSans-65" x="203.328125"/>
      <use xlink:href="#DejaVuSans-74" x="264.851562"/>
     </g>
    </g>
   </g>
  </g>
 </g>
 <defs>
  <clipPath id="pa7805eae7b">
   <rect x="52.160938" y="22.318125" width="446.4" height="221.76"/>
  </clipPath>
 </defs>
</svg>
