<?xml version="1.0" encoding="utf-8" standalone="no"?>
<!DOCTYPE svg PUBLIC "-//W3C//DTD SVG 1.1//EN"
  "http://www.w3.org/Graphics/SVG/1.1/DTD/svg11.dtd">
<svg xmlns:xlink="http://www.w3.org/1999/xlink" width="510.384375pt" height="281.634375pt" viewBox="0 0 510.384375 281.634375" xmlns="http://www.w3.org/2000/svg" version="1.1">
 <metadata>
  <rdf:RDF xmlns:dc="http://purl.org/dc/elements/1.1/" xmlns:cc="http://creativecommons.org/ns#" xmlns:rdf="http://www.w3.org/1999/02/22-rdf-syntax-ns#">
   <cc:Work>
    <dc:type rdf:resource="http://purl.org/dc/dcmitype/StillImage"/>
    <dc:date>2025-04-21T15:43:15.914007</dc:date>
    <dc:format>image/svg+xml</dc:format>
    <dc:creator>
     <cc:Agent>
      <dc:title>Matplotlib v3.6.3, https://matplotlib.org/</dc:title>
     </cc:Agent>
    </dc:creator>
   </cc:Work>
  </rdf:RDF>
 </metadata>
 <defs>
  <style type="text/css">*{stroke-linejoin: round; stroke-linecap: butt}</style>
 </defs>
 <g id="figure_1">
  <g id="patch_1">
   <path d="M 0 281.634375 
L 510.384375 281.634375 
L 510.384375 0 
L 0 0 
z
" style="fill: #ffffff"/>
  </g>
  <g id="axes_1">
   <g id="patch_2">
    <path d="M 56.784375 244.078125 
L 503.184375 244.078125 
L 503.184375 22.318125 
L 56.784375 22.318125 
z
" style="fill: #ffffff"/>
   </g>
   <g id="matplotlib.axis_1">
    <g id="xtick_1">
     <g id="line2d_1">
      <defs>
       <path id="mfedd98ff98" d="M 0 0 
L 0 3.5 
" style="stroke: #000000; stroke-width: 0.8"/>
      </defs>
      <g>
       <use xlink:href="#mfedd98ff98" x="77.075284" y="244.078125" style="stroke: #000000; stroke-width: 0.8"/>
      </g>
     </g>
     <g id="text_1">
      <!-- 0.0 -->
      <g transform="translate(69.123722 258.676562) scale(0.1 -0.1)">
       <defs>
        <path id="DejaVuSans-30" d="M 2034 4250 
Q 1547 4250 1301 3770 
Q 1056 3291 1056 2328 
Q 1056 1369 1301 889 
Q 1547 409 2034 409 
Q 2525 409 2770 889 
Q 3016 1369 3016 2328 
Q 3016 3291 2770 3770 
Q 2525 4250 2034 4250 
z
M 2034 4750 
Q 2819 4750 3233 4129 
Q 3647 3509 3647 2328 
Q 3647 1150 3233 529 
Q 2819 -91 2034 -91 
Q 1250 -91 836 529 
Q 422 1150 422 2328 
Q 422 3509 836 4129 
Q 1250 4750 2034 4750 
z
" transform="scale(0.015625)"/>
        <path id="DejaVuSans-2e" d="M 684 794 
L 1344 794 
L 1344 0 
L 684 0 
L 684 794 
z
" transform="scale(0.015625)"/>
       </defs>
       <use xlink:href="#DejaVuSans-30"/>
       <use xlink:href="#DejaVuSans-2e" x="63.623047"/>
       <use xlink:href="#DejaVuSans-30" x="95.410156"/>
      </g>
     </g>
    </g>
    <g id="xtick_2">
     <g id="line2d_2">
      <g>
       <use xlink:href="#mfedd98ff98" x="128.314955" y="244.078125" style="stroke: #000000; stroke-width: 0.8"/>
      </g>
     </g>
     <g id="text_2">
      <!-- 0.5 -->
      <g transform="translate(120.363392 258.676562) scale(0.1 -0.1)">
       <defs>
        <path id="DejaVuSans-35" d="M 691 4666 
L 3169 4666 
L 3169 4134 
L 1269 4134 
L 1269 2991 
Q 1406 3038 1543 3061 
Q 1681 3084 1819 3084 
Q 2600 3084 3056 2656 
Q 3513 2228 3513 1497 
Q 3513 744 3044 326 
Q 2575 -91 1722 -91 
Q 1428 -91 1123 -41 
Q 819 9 494 109 
L 494 744 
Q 775 591 1075 516 
Q 1375 441 1709 441 
Q 2250 441 2565 725 
Q 2881 1009 2881 1497 
Q 2881 1984 2565 2268 
Q 2250 2553 1709 2553 
Q 1456 2553 1204 2497 
Q 953 2441 691 2322 
L 691 4666 
z
" transform="scale(0.015625)"/>
       </defs>
       <use xlink:href="#DejaVuSans-30"/>
       <use xlink:href="#DejaVuSans-2e" x="63.623047"/>
       <use xlink:href="#DejaVuSans-35" x="95.410156"/>
      </g>
     </g>
    </g>
    <g id="xtick_3">
     <g id="line2d_3">
      <g>
       <use xlink:href="#mfedd98ff98" x="179.554625" y="244.078125" style="stroke: #000000; stroke-width: 0.8"/>
      </g>
     </g>
     <g id="text_3">
      <!-- 1.0 -->
      <g transform="translate(171.603063 258.676562) scale(0.1 -0.1)">
       <defs>
        <path id="DejaVuSans-31" d="M 794 531 
L 1825 531 
L 1825 4091 
L 703 3866 
L 703 4441 
L 1819 4666 
L 2450 4666 
L 2450 531 
L 3481 531 
L 3481 0 
L 794 0 
L 794 531 
z
" transform="scale(0.015625)"/>
       </defs>
       <use xlink:href="#DejaVuSans-31"/>
       <use xlink:href="#DejaVuSans-2e" x="63.623047"/>
       <use xlink:href="#DejaVuSans-30" x="95.410156"/>
      </g>
     </g>
    </g>
    <g id="xtick_4">
     <g id="line2d_4">
      <g>
       <use xlink:href="#mfedd98ff98" x="230.794296" y="244.078125" style="stroke: #000000; stroke-width: 0.8"/>
      </g>
     </g>
     <g id="text_4">
      <!-- 1.5 -->
      <g transform="translate(222.842733 258.676562) scale(0.1 -0.1)">
       <use xlink:href="#DejaVuSans-31"/>
       <use xlink:href="#DejaVuSans-2e" x="63.623047"/>
       <use xlink:href="#DejaVuSans-35" x="95.410156"/>
      </g>
     </g>
    </g>
    <g id="xtick_5">
     <g id="line2d_5">
      <g>
       <use xlink:href="#mfedd98ff98" x="282.033966" y="244.078125" style="stroke: #000000; stroke-width: 0.8"/>
      </g>
     </g>
     <g id="text_5">
      <!-- 2.0 -->
      <g transform="translate(274.082404 258.676562) scale(0.1 -0.1)">
       <defs>
        <path id="DejaVuSans-32" d="M 1228 531 
L 3431 531 
L 3431 0 
L 469 0 
L 469 531 
Q 828 903 1448 1529 
Q 2069 2156 2228 2338 
Q 2531 2678 2651 2914 
Q 2772 3150 2772 3378 
Q 2772 3750 2511 3984 
Q 2250 4219 1831 4219 
Q 1534 4219 1204 4116 
Q 875 4013 500 3803 
L 500 4441 
Q 881 4594 1212 4672 
Q 1544 4750 1819 4750 
Q 2544 4750 2975 4387 
Q 3406 4025 3406 3419 
Q 3406 3131 3298 2873 
Q 3191 2616 2906 2266 
Q 2828 2175 2409 1742 
Q 1991 1309 1228 531 
z
" transform="scale(0.015625)"/>
       </defs>
       <use xlink:href="#DejaVuSans-32"/>
       <use xlink:href="#DejaVuSans-2e" x="63.623047"/>
       <use xlink:href="#DejaVuSans-30" x="95.410156"/>
      </g>
     </g>
    </g>
    <g id="xtick_6">
     <g id="line2d_6">
      <g>
       <use xlink:href="#mfedd98ff98" x="333.273637" y="244.078125" style="stroke: #000000; stroke-width: 0.8"/>
      </g>
     </g>
     <g id="text_6">
      <!-- 2.5 -->
      <g transform="translate(325.322074 258.676562) scale(0.1 -0.1)">
       <use xlink:href="#DejaVuSans-32"/>
       <use xlink:href="#DejaVuSans-2e" x="63.623047"/>
       <use xlink:href="#DejaVuSans-35" x="95.410156"/>
      </g>
     </g>
    </g>
    <g id="xtick_7">
     <g id="line2d_7">
      <g>
       <use xlink:href="#mfedd98ff98" x="384.513307" y="244.078125" style="stroke: #000000; stroke-width: 0.8"/>
      </g>
     </g>
     <g id="text_7">
      <!-- 3.0 -->
      <g transform="translate(376.561745 258.676562) scale(0.1 -0.1)">
       <defs>
        <path id="DejaVuSans-33" d="M 2597 2516 
Q 3050 2419 3304 2112 
Q 3559 1806 3559 1356 
Q 3559 666 3084 287 
Q 2609 -91 1734 -91 
Q 1441 -91 1130 -33 
Q 819 25 488 141 
L 488 750 
Q 750 597 1062 519 
Q 1375 441 1716 441 
Q 2309 441 2620 675 
Q 2931 909 2931 1356 
Q 2931 1769 2642 2001 
Q 2353 2234 1838 2234 
L 1294 2234 
L 1294 2753 
L 1863 2753 
Q 2328 2753 2575 2939 
Q 2822 3125 2822 3475 
Q 2822 3834 2567 4026 
Q 2313 4219 1838 4219 
Q 1578 4219 1281 4162 
Q 984 4106 628 3988 
L 628 4550 
Q 988 4650 1302 4700 
Q 1616 4750 1894 4750 
Q 2613 4750 3031 4423 
Q 3450 4097 3450 3541 
Q 3450 3153 3228 2886 
Q 3006 2619 2597 2516 
z
" transform="scale(0.015625)"/>
       </defs>
       <use xlink:href="#DejaVuSans-33"/>
       <use xlink:href="#DejaVuSans-2e" x="63.623047"/>
       <use xlink:href="#DejaVuSans-30" x="95.410156"/>
      </g>
     </g>
    </g>
    <g id="xtick_8">
     <g id="line2d_8">
      <g>
       <use xlink:href="#mfedd98ff98" x="435.752978" y="244.078125" style="stroke: #000000; stroke-width: 0.8"/>
      </g>
     </g>
     <g id="text_8">
      <!-- 3.5 -->
      <g transform="translate(427.801416 258.676562) scale(0.1 -0.1)">
       <use xlink:href="#DejaVuSans-33"/>
       <use xlink:href="#DejaVuSans-2e" x="63.623047"/>
       <use xlink:href="#DejaVuSans-35" x="95.410156"/>
      </g>
     </g>
    </g>
    <g id="xtick_9">
     <g id="line2d_9">
      <g>
       <use xlink:href="#mfedd98ff98" x="486.992649" y="244.078125" style="stroke: #000000; stroke-width: 0.8"/>
      </g>
     </g>
     <g id="text_9">
      <!-- 4.0 -->
      <g transform="translate(479.041086 258.676562) scale(0.1 -0.1)">
       <defs>
        <path id="DejaVuSans-34" d="M 2419 4116 
L 825 1625 
L 2419 1625 
L 2419 4116 
z
M 2253 4666 
L 3047 4666 
L 3047 1625 
L 3713 1625 
L 3713 1100 
L 3047 1100 
L 3047 0 
L 2419 0 
L 2419 1100 
L 313 1100 
L 313 1709 
L 2253 4666 
z
" transform="scale(0.015625)"/>
       </defs>
       <use xlink:href="#DejaVuSans-34"/>
       <use xlink:href="#DejaVuSans-2e" x="63.623047"/>
       <use xlink:href="#DejaVuSans-30" x="95.410156"/>
      </g>
     </g>
    </g>
    <g id="text_10">
     <!-- time(s) -->
     <g transform="translate(262.182031 272.354687) scale(0.1 -0.1)">
      <defs>
       <path id="DejaVuSans-74" d="M 1172 4494 
L 1172 3500 
L 2356 3500 
L 2356 3053 
L 1172 3053 
L 1172 1153 
Q 1172 725 1289 603 
Q 1406 481 1766 481 
L 2356 481 
L 2356 0 
L 1766 0 
Q 1100 0 847 248 
Q 594 497 594 1153 
L 594 3053 
L 172 3053 
L 172 3500 
L 594 3500 
L 594 4494 
L 1172 4494 
z
" transform="scale(0.015625)"/>
       <path id="DejaVuSans-69" d="M 603 3500 
L 1178 3500 
L 1178 0 
L 603 0 
L 603 3500 
z
M 603 4863 
L 1178 4863 
L 1178 4134 
L 603 4134 
L 603 4863 
z
" transform="scale(0.015625)"/>
       <path id="DejaVuSans-6d" d="M 3328 2828 
Q 3544 3216 3844 3400 
Q 4144 3584 4550 3584 
Q 5097 3584 5394 3201 
Q 5691 2819 5691 2113 
L 5691 0 
L 5113 0 
L 5113 2094 
Q 5113 2597 4934 2840 
Q 4756 3084 4391 3084 
Q 3944 3084 3684 2787 
Q 3425 2491 3425 1978 
L 3425 0 
L 2847 0 
L 2847 2094 
Q 2847 2600 2669 2842 
Q 2491 3084 2119 3084 
Q 1678 3084 1418 2786 
Q 1159 2488 1159 1978 
L 1159 0 
L 581 0 
L 581 3500 
L 1159 3500 
L 1159 2956 
Q 1356 3278 1631 3431 
Q 1906 3584 2284 3584 
Q 2666 3584 2933 3390 
Q 3200 3197 3328 2828 
z
" transform="scale(0.015625)"/>
       <path id="DejaVuSans-65" d="M 3597 1894 
L 3597 1613 
L 953 1613 
Q 991 1019 1311 708 
Q 1631 397 2203 397 
Q 2534 397 2845 478 
Q 3156 559 3463 722 
L 3463 178 
Q 3153 47 2828 -22 
Q 2503 -91 2169 -91 
Q 1331 -91 842 396 
Q 353 884 353 1716 
Q 353 2575 817 3079 
Q 1281 3584 2069 3584 
Q 2775 3584 3186 3129 
Q 3597 2675 3597 1894 
z
M 3022 2063 
Q 3016 2534 2758 2815 
Q 2500 3097 2075 3097 
Q 1594 3097 1305 2825 
Q 1016 2553 972 2059 
L 3022 2063 
z
" transform="scale(0.015625)"/>
       <path id="DejaVuSans-28" d="M 1984 4856 
Q 1566 4138 1362 3434 
Q 1159 2731 1159 2009 
Q 1159 1288 1364 580 
Q 1569 -128 1984 -844 
L 1484 -844 
Q 1016 -109 783 600 
Q 550 1309 550 2009 
Q 550 2706 781 3412 
Q 1013 4119 1484 4856 
L 1984 4856 
z
" transform="scale(0.015625)"/>
       <path id="DejaVuSans-73" d="M 2834 3397 
L 2834 2853 
Q 2591 2978 2328 3040 
Q 2066 3103 1784 3103 
Q 1356 3103 1142 2972 
Q 928 2841 928 2578 
Q 928 2378 1081 2264 
Q 1234 2150 1697 2047 
L 1894 2003 
Q 2506 1872 2764 1633 
Q 3022 1394 3022 966 
Q 3022 478 2636 193 
Q 2250 -91 1575 -91 
Q 1294 -91 989 -36 
Q 684 19 347 128 
L 347 722 
Q 666 556 975 473 
Q 1284 391 1588 391 
Q 1994 391 2212 530 
Q 2431 669 2431 922 
Q 2431 1156 2273 1281 
Q 2116 1406 1581 1522 
L 1381 1569 
Q 847 1681 609 1914 
Q 372 2147 372 2553 
Q 372 3047 722 3315 
Q 1072 3584 1716 3584 
Q 2034 3584 2315 3537 
Q 2597 3491 2834 3397 
z
" transform="scale(0.015625)"/>
       <path id="DejaVuSans-29" d="M 513 4856 
L 1013 4856 
Q 1481 4119 1714 3412 
Q 1947 2706 1947 2009 
Q 1947 1309 1714 600 
Q 1481 -109 1013 -844 
L 513 -844 
Q 928 -128 1133 580 
Q 1338 1288 1338 2009 
Q 1338 2731 1133 3434 
Q 928 4138 513 4856 
z
" transform="scale(0.015625)"/>
      </defs>
      <use xlink:href="#DejaVuSans-74"/>
      <use xlink:href="#DejaVuSans-69" x="39.208984"/>
      <use xlink:href="#DejaVuSans-6d" x="66.992188"/>
      <use xlink:href="#DejaVuSans-65" x="164.404297"/>
      <use xlink:href="#DejaVuSans-28" x="225.927734"/>
      <use xlink:href="#DejaVuSans-73" x="264.941406"/>
      <use xlink:href="#DejaVuSans-29" x="317.041016"/>
     </g>
    </g>
   </g>
   <g id="matplotlib.axis_2">
    <g id="ytick_1">
     <g id="line2d_10">
      <defs>
       <path id="m6b981c4619" d="M 0 0 
L -3.5 0 
" style="stroke: #000000; stroke-width: 0.8"/>
      </defs>
      <g>
       <use xlink:href="#m6b981c4619" x="56.784375" y="218.814467" style="stroke: #000000; stroke-width: 0.8"/>
      </g>
     </g>
     <g id="text_11">
      <!-- 1.175 -->
      <g transform="translate(21.15625 222.613685) scale(0.1 -0.1)">
       <defs>
        <path id="DejaVuSans-37" d="M 525 4666 
L 3525 4666 
L 3525 4397 
L 1831 0 
L 1172 0 
L 2766 4134 
L 525 4134 
L 525 4666 
z
" transform="scale(0.015625)"/>
       </defs>
       <use xlink:href="#DejaVuSans-31"/>
       <use xlink:href="#DejaVuSans-2e" x="63.623047"/>
       <use xlink:href="#DejaVuSans-31" x="95.410156"/>
       <use xlink:href="#DejaVuSans-37" x="159.033203"/>
       <use xlink:href="#DejaVuSans-35" x="222.65625"/>
      </g>
     </g>
    </g>
    <g id="ytick_2">
     <g id="line2d_11">
      <g>
       <use xlink:href="#m6b981c4619" x="56.784375" y="188.018296" style="stroke: #000000; stroke-width: 0.8"/>
      </g>
     </g>
     <g id="text_12">
      <!-- 1.200 -->
      <g transform="translate(21.15625 191.817515) scale(0.1 -0.1)">
       <use xlink:href="#DejaVuSans-31"/>
       <use xlink:href="#DejaVuSans-2e" x="63.623047"/>
       <use xlink:href="#DejaVuSans-32" x="95.410156"/>
       <use xlink:href="#DejaVuSans-30" x="159.033203"/>
       <use xlink:href="#DejaVuSans-30" x="222.65625"/>
      </g>
     </g>
    </g>
    <g id="ytick_3">
     <g id="line2d_12">
      <g>
       <use xlink:href="#m6b981c4619" x="56.784375" y="157.222125" style="stroke: #000000; stroke-width: 0.8"/>
      </g>
     </g>
     <g id="text_13">
      <!-- 1.225 -->
      <g transform="translate(21.15625 161.021344) scale(0.1 -0.1)">
       <use xlink:href="#DejaVuSans-31"/>
       <use xlink:href="#DejaVuSans-2e" x="63.623047"/>
       <use xlink:href="#DejaVuSans-32" x="95.410156"/>
       <use xlink:href="#DejaVuSans-32" x="159.033203"/>
       <use xlink:href="#DejaVuSans-35" x="222.65625"/>
      </g>
     </g>
    </g>
    <g id="ytick_4">
     <g id="line2d_13">
      <g>
       <use xlink:href="#m6b981c4619" x="56.784375" y="126.425955" style="stroke: #000000; stroke-width: 0.8"/>
      </g>
     </g>
     <g id="text_14">
      <!-- 1.250 -->
      <g transform="translate(21.15625 130.225174) scale(0.1 -0.1)">
       <use xlink:href="#DejaVuSans-31"/>
       <use xlink:href="#DejaVuSans-2e" x="63.623047"/>
       <use xlink:href="#DejaVuSans-32" x="95.410156"/>
       <use xlink:href="#DejaVuSans-35" x="159.033203"/>
       <use xlink:href="#DejaVuSans-30" x="222.65625"/>
      </g>
     </g>
    </g>
    <g id="ytick_5">
     <g id="line2d_14">
      <g>
       <use xlink:href="#m6b981c4619" x="56.784375" y="95.629784" style="stroke: #000000; stroke-width: 0.8"/>
      </g>
     </g>
     <g id="text_15">
      <!-- 1.275 -->
      <g transform="translate(21.15625 99.429003) scale(0.1 -0.1)">
       <use xlink:href="#DejaVuSans-31"/>
       <use xlink:href="#DejaVuSans-2e" x="63.623047"/>
       <use xlink:href="#DejaVuSans-32" x="95.410156"/>
       <use xlink:href="#DejaVuSans-37" x="159.033203"/>
       <use xlink:href="#DejaVuSans-35" x="222.65625"/>
      </g>
     </g>
    </g>
    <g id="ytick_6">
     <g id="line2d_15">
      <g>
       <use xlink:href="#m6b981c4619" x="56.784375" y="64.833614" style="stroke: #000000; stroke-width: 0.8"/>
      </g>
     </g>
     <g id="text_16">
      <!-- 1.300 -->
      <g transform="translate(21.15625 68.632833) scale(0.1 -0.1)">
       <use xlink:href="#DejaVuSans-31"/>
       <use xlink:href="#DejaVuSans-2e" x="63.623047"/>
       <use xlink:href="#DejaVuSans-33" x="95.410156"/>
       <use xlink:href="#DejaVuSans-30" x="159.033203"/>
       <use xlink:href="#DejaVuSans-30" x="222.65625"/>
      </g>
     </g>
    </g>
    <g id="ytick_7">
     <g id="line2d_16">
      <g>
       <use xlink:href="#m6b981c4619" x="56.784375" y="34.037443" style="stroke: #000000; stroke-width: 0.8"/>
      </g>
     </g>
     <g id="text_17">
      <!-- 1.325 -->
      <g transform="translate(21.15625 37.836662) scale(0.1 -0.1)">
       <use xlink:href="#DejaVuSans-31"/>
       <use xlink:href="#DejaVuSans-2e" x="63.623047"/>
       <use xlink:href="#DejaVuSans-33" x="95.410156"/>
       <use xlink:href="#DejaVuSans-32" x="159.033203"/>
       <use xlink:href="#DejaVuSans-35" x="222.65625"/>
      </g>
     </g>
    </g>
    <g id="text_18">
     <!-- x_position[m] -->
     <g transform="translate(14.798438 167.234062) rotate(-90) scale(0.1 -0.1)">
      <defs>
       <path id="DejaVuSans-78" d="M 3513 3500 
L 2247 1797 
L 3578 0 
L 2900 0 
L 1881 1375 
L 863 0 
L 184 0 
L 1544 1831 
L 300 3500 
L 978 3500 
L 1906 2253 
L 2834 3500 
L 3513 3500 
z
" transform="scale(0.015625)"/>
       <path id="DejaVuSans-5f" d="M 3263 -1063 
L 3263 -1509 
L -63 -1509 
L -63 -1063 
L 3263 -1063 
z
" transform="scale(0.015625)"/>
       <path id="DejaVuSans-70" d="M 1159 525 
L 1159 -1331 
L 581 -1331 
L 581 3500 
L 1159 3500 
L 1159 2969 
Q 1341 3281 1617 3432 
Q 1894 3584 2278 3584 
Q 2916 3584 3314 3078 
Q 3713 2572 3713 1747 
Q 3713 922 3314 415 
Q 2916 -91 2278 -91 
Q 1894 -91 1617 61 
Q 1341 213 1159 525 
z
M 3116 1747 
Q 3116 2381 2855 2742 
Q 2594 3103 2138 3103 
Q 1681 3103 1420 2742 
Q 1159 2381 1159 1747 
Q 1159 1113 1420 752 
Q 1681 391 2138 391 
Q 2594 391 2855 752 
Q 3116 1113 3116 1747 
z
" transform="scale(0.015625)"/>
       <path id="DejaVuSans-6f" d="M 1959 3097 
Q 1497 3097 1228 2736 
Q 959 2375 959 1747 
Q 959 1119 1226 758 
Q 1494 397 1959 397 
Q 2419 397 2687 759 
Q 2956 1122 2956 1747 
Q 2956 2369 2687 2733 
Q 2419 3097 1959 3097 
z
M 1959 3584 
Q 2709 3584 3137 3096 
Q 3566 2609 3566 1747 
Q 3566 888 3137 398 
Q 2709 -91 1959 -91 
Q 1206 -91 779 398 
Q 353 888 353 1747 
Q 353 2609 779 3096 
Q 1206 3584 1959 3584 
z
" transform="scale(0.015625)"/>
       <path id="DejaVuSans-6e" d="M 3513 2113 
L 3513 0 
L 2938 0 
L 2938 2094 
Q 2938 2591 2744 2837 
Q 2550 3084 2163 3084 
Q 1697 3084 1428 2787 
Q 1159 2491 1159 1978 
L 1159 0 
L 581 0 
L 581 3500 
L 1159 3500 
L 1159 2956 
Q 1366 3272 1645 3428 
Q 1925 3584 2291 3584 
Q 2894 3584 3203 3211 
Q 3513 2838 3513 2113 
z
" transform="scale(0.015625)"/>
       <path id="DejaVuSans-5b" d="M 550 4863 
L 1875 4863 
L 1875 4416 
L 1125 4416 
L 1125 -397 
L 1875 -397 
L 1875 -844 
L 550 -844 
L 550 4863 
z
" transform="scale(0.015625)"/>
       <path id="DejaVuSans-5d" d="M 1947 4863 
L 1947 -844 
L 622 -844 
L 622 -397 
L 1369 -397 
L 1369 4416 
L 622 4416 
L 622 4863 
L 1947 4863 
z
" transform="scale(0.015625)"/>
      </defs>
      <use xlink:href="#DejaVuSans-78"/>
      <use xlink:href="#DejaVuSans-5f" x="59.179688"/>
      <use xlink:href="#DejaVuSans-70" x="109.179688"/>
      <use xlink:href="#DejaVuSans-6f" x="172.65625"/>
      <use xlink:href="#DejaVuSans-73" x="233.837891"/>
      <use xlink:href="#DejaVuSans-69" x="285.9375"/>
      <use xlink:href="#DejaVuSans-74" x="313.720703"/>
      <use xlink:href="#DejaVuSans-69" x="352.929688"/>
      <use xlink:href="#DejaVuSans-6f" x="380.712891"/>
      <use xlink:href="#DejaVuSans-6e" x="441.894531"/>
      <use xlink:href="#DejaVuSans-5b" x="505.273438"/>
      <use xlink:href="#DejaVuSans-6d" x="544.287109"/>
      <use xlink:href="#DejaVuSans-5d" x="641.699219"/>
     </g>
    </g>
   </g>
   <g id="line2d_17">
    <path d="M 77.075284 177.078092 
L 81.195266 174.458331 
L 83.255256 172.546669 
L 85.315247 171.317115 
L 93.55521 167.390263 
L 95.615201 167.012718 
L 97.675192 166.836501 
L 99.735183 165.828833 
L 101.795173 163.786477 
L 103.855164 161.412686 
L 105.915155 159.88738 
L 107.975146 159.797656 
L 110.035136 161.021631 
L 112.095127 163.157529 
L 114.155118 165.635141 
L 116.215109 168.41526 
L 120.33509 175.672761 
L 124.455072 183.450396 
L 126.515063 187.063728 
L 128.575053 190.304214 
L 130.635044 192.461992 
L 132.695035 194.340907 
L 134.755026 195.902484 
L 136.815016 197.112802 
L 138.875007 197.580365 
L 140.934998 196.990184 
L 142.994989 195.795432 
L 145.05498 194.181577 
L 149.174961 191.467247 
L 151.234952 190.499227 
L 153.294943 190.099361 
L 155.354933 191.14007 
L 157.414924 193.817102 
L 159.474915 196.27019 
L 161.534906 196.563445 
L 163.594896 195.050768 
L 165.654887 192.966707 
L 167.714878 190.040622 
L 169.774869 186.668121 
L 173.89485 178.966699 
L 175.954841 175.899494 
L 178.014832 173.292215 
L 180.074823 170.897277 
L 182.134813 168.933338 
L 184.194804 167.286736 
L 186.254795 166.452935 
L 188.314786 165.980967 
L 192.434767 165.942053 
L 194.494758 165.817526 
L 196.554749 165.550704 
L 198.61474 164.84936 
L 200.67473 163.950652 
L 202.734721 163.286461 
L 210.974684 161.57084 
L 217.154656 159.013783 
L 219.214647 158.278371 
L 221.274638 157.88247 
L 223.334629 158.158837 
L 225.39462 158.628455 
L 229.514601 159.094843 
L 231.574592 159.485898 
L 233.634583 160.708111 
L 237.754564 164.352721 
L 239.814555 165.921053 
L 243.934537 170.126181 
L 245.994527 172.590577 
L 248.054518 174.876553 
L 250.114509 176.447529 
L 252.1745 177.526565 
L 254.23449 177.978855 
L 256.294481 177.825546 
L 258.354472 176.992774 
L 260.414463 175.622245 
L 262.474453 173.355212 
L 264.534444 170.125447 
L 266.594435 165.634701 
L 268.654426 160.159488 
L 270.714417 153.865748 
L 272.774407 148.049409 
L 274.834398 142.815026 
L 276.894389 138.710636 
L 278.95438 136.740236 
L 281.01437 136.913369 
L 283.074361 138.178608 
L 285.134352 138.852491 
L 287.194343 138.012376 
L 289.254333 135.22095 
L 291.314324 131.293659 
L 293.374315 127.044036 
L 295.434306 122.266203 
L 297.494297 118.130094 
L 299.554287 114.829548 
L 301.614278 111.98746 
L 303.674269 108.487641 
L 305.73426 103.641524 
L 309.854241 90.862847 
L 311.914232 85.588816 
L 318.094204 72.161954 
L 320.154195 69.248645 
L 322.214186 68.043908 
L 324.274177 68.317632 
L 326.334167 68.260214 
L 328.394158 66.638576 
L 330.454149 64.029535 
L 332.51414 60.399169 
L 334.57413 55.488733 
L 336.634121 50.182249 
L 338.694112 46.43925 
L 340.754103 44.294982 
L 342.814094 43.488055 
L 344.874084 42.443234 
L 346.934075 40.758745 
L 351.054057 35.416577 
L 353.114047 33.331195 
L 355.174038 32.398125 
L 357.234029 32.565678 
L 359.29402 34.696437 
L 361.35401 38.556032 
L 363.414001 44.288961 
L 365.473992 51.664675 
L 367.533983 59.571536 
L 369.593974 66.986164 
L 371.653964 72.596623 
L 373.713955 75.955468 
L 375.773946 77.510437 
L 377.833937 76.970185 
L 379.893927 74.629728 
L 384.013909 69.131901 
L 386.0739 66.948865 
L 388.13389 65.001079 
L 392.253872 59.514853 
L 394.313863 57.856356 
L 396.373854 57.777059 
L 398.433844 60.06979 
L 400.493835 64.856728 
L 402.553826 70.456613 
L 408.733798 88.246464 
L 410.793789 93.332236 
L 412.85378 96.758191 
L 414.91377 98.259267 
L 416.973761 96.783008 
L 419.033752 93.997897 
L 421.093743 90.859323 
L 423.153734 87.345848 
L 425.213724 84.775428 
L 427.273715 82.949378 
L 429.333706 81.776213 
L 431.393697 81.046968 
L 433.453687 80.702463 
L 435.513678 80.950929 
L 437.573669 82.13129 
L 439.63366 83.720181 
L 441.69365 85.651961 
L 443.753641 88.566004 
L 447.873623 94.962538 
L 451.993604 101.068901 
L 456.113586 106.790818 
L 458.173577 110.329404 
L 460.233567 113.345947 
L 462.293558 115.061127 
L 466.41354 117.404227 
L 468.473531 118.863304 
L 470.533521 120.914471 
L 472.593512 123.750539 
L 474.653503 127.050351 
L 478.773484 132.745247 
L 482.893466 137.12248 
L 482.893466 137.12248 
" clip-path="url(#pcb0929d0e5)" style="fill: none; stroke: #1f77b4; stroke-width: 1.5; stroke-linecap: square"/>
   </g>
   <g id="line2d_18">
    <path d="M 77.075284 177.058121 
L 79.135275 176.309933 
L 81.195266 176.199503 
L 83.255256 175.724451 
L 85.315247 175.066721 
L 89.435229 175.230456 
L 95.615201 176.131513 
L 97.675192 175.977176 
L 99.735183 175.938408 
L 105.915155 176.520071 
L 112.095127 177.441834 
L 116.215109 177.688097 
L 120.33509 177.712914 
L 122.395081 177.564305 
L 126.515063 176.715085 
L 136.815016 176.10508 
L 140.934998 175.964988 
L 142.994989 175.648237 
L 145.05498 175.720339 
L 147.11497 175.986868 
L 153.294943 175.740458 
L 161.534906 174.835142 
L 165.654887 175.228547 
L 167.714878 175.510054 
L 171.83486 176.270284 
L 173.89485 176.384678 
L 175.954841 176.825661 
L 178.014832 177.429792 
L 182.134813 177.71732 
L 184.194804 177.769451 
L 186.254795 178.209259 
L 188.314786 178.84276 
L 190.374776 179.34865 
L 192.434767 179.607982 
L 194.494758 179.374201 
L 196.554749 178.702814 
L 198.61474 177.812624 
L 200.67473 178.711331 
L 202.734721 178.651564 
L 204.794712 176.674408 
L 206.854703 175.472167 
L 208.914693 174.657163 
L 210.974684 175.838111 
L 213.034675 177.213926 
L 215.094666 178.979622 
L 217.154656 181.724056 
L 219.214647 184.95764 
L 223.334629 193.451598 
L 225.39462 197.423385 
L 227.45461 200.876505 
L 229.514601 204.07 
L 231.574592 208.109483 
L 233.634583 211.833832 
L 235.694573 214.927763 
L 237.754564 215.126595 
L 239.814555 213.877803 
L 241.874546 209.808657 
L 243.934537 205.218201 
L 248.054518 194.16792 
L 250.114509 188.858059 
L 252.1745 183.890352 
L 254.23449 179.460547 
L 256.294481 176.106695 
L 258.354472 175.227813 
L 260.414463 175.586268 
L 264.534444 180.959421 
L 266.594435 183.511191 
L 268.654426 186.653436 
L 272.774407 193.629871 
L 274.834398 197.430433 
L 276.894389 201.754213 
L 281.01437 211.749835 
L 283.074361 212.049844 
L 285.134352 211.770834 
L 287.194343 210.334665 
L 289.254333 206.795785 
L 291.314324 202.205476 
L 293.374315 196.075764 
L 295.434306 190.331527 
L 297.494297 185.358387 
L 299.554287 181.164273 
L 301.614278 177.359599 
L 303.674269 178.730421 
L 305.73426 180.336346 
L 307.79425 182.412331 
L 309.854241 188.062585 
L 311.914232 195.499828 
L 316.034213 209.504535 
L 318.094204 217.274975 
L 320.154195 222.389089 
L 322.214186 226.17482 
L 324.274177 225.711516 
L 326.334167 222.658701 
L 328.394158 214.426426 
L 330.454149 204.39189 
L 332.51414 193.456003 
L 334.57413 185.266607 
L 336.634121 177.675468 
L 338.694112 171.280403 
L 340.754103 169.966998 
L 342.814094 171.19435 
L 344.874084 175.035149 
L 346.934075 179.999038 
L 348.994066 187.209254 
L 351.054057 198.321064 
L 353.114047 211.384038 
L 355.174038 221.57805 
L 357.234029 229.606354 
L 359.29402 233.302949 
L 361.35401 233.998125 
L 363.414001 233.192225 
L 365.473992 226.419762 
L 367.533983 220.256275 
L 369.593974 215.310595 
L 371.653964 209.220238 
L 373.713955 202.557029 
L 375.773946 196.771822 
L 377.833937 190.526247 
L 379.893927 183.359645 
L 381.953918 177.342858 
L 384.013909 171.900834 
L 386.0739 169.192964 
L 388.13389 166.94884 
L 390.193881 165.632351 
L 392.253872 166.177302 
L 394.313863 167.652827 
L 396.373854 168.512766 
L 398.433844 169.731601 
L 400.493835 171.668374 
L 402.553826 173.000575 
L 404.613817 174.030271 
L 406.673807 174.437185 
L 408.733798 174.997556 
L 412.85378 176.840787 
L 414.91377 177.87151 
L 419.033752 178.945553 
L 421.093743 179.681259 
L 425.213724 180.641055 
L 429.333706 181.073374 
L 431.393697 181.11831 
L 435.513678 181.765761 
L 439.63366 182.638623 
L 441.69365 183.352008 
L 445.813632 184.383466 
L 447.873623 184.791262 
L 449.933614 185.077027 
L 458.173577 185.159996 
L 460.233567 184.993911 
L 462.293558 184.654987 
L 466.41354 184.331922 
L 472.593512 183.842479 
L 474.653503 184.145573 
L 476.713494 184.687734 
L 478.773484 184.068331 
L 480.833475 184.210186 
L 482.893466 185.874997 
L 482.893466 185.874997 
" clip-path="url(#pcb0929d0e5)" style="fill: none; stroke: #ff7f0e; stroke-width: 1.5; stroke-linecap: square"/>
   </g>
   <g id="patch_3">
    <path d="M 56.784375 244.078125 
L 56.784375 22.318125 
" style="fill: none; stroke: #000000; stroke-width: 0.8; stroke-linejoin: miter; stroke-linecap: square"/>
   </g>
   <g id="patch_4">
    <path d="M 503.184375 244.078125 
L 503.184375 22.318125 
" style="fill: none; stroke: #000000; stroke-width: 0.8; stroke-linejoin: miter; stroke-linecap: square"/>
   </g>
   <g id="patch_5">
    <path d="M 56.784375 244.078125 
L 503.184375 244.078125 
" style="fill: none; stroke: #000000; stroke-width: 0.8; stroke-linejoin: miter; stroke-linecap: square"/>
   </g>
   <g id="patch_6">
    <path d="M 56.784375 22.318125 
L 503.184375 22.318125 
" style="fill: none; stroke: #000000; stroke-width: 0.8; stroke-linejoin: miter; stroke-linecap: square"/>
   </g>
   <g id="text_19">
    <!-- x_position -->
    <g transform="translate(249.6675 16.318125) scale(0.12 -0.12)">
     <use xlink:href="#DejaVuSans-78"/>
     <use xlink:href="#DejaVuSans-5f" x="59.179688"/>
     <use xlink:href="#DejaVuSans-70" x="109.179688"/>
     <use xlink:href="#DejaVuSans-6f" x="172.65625"/>
     <use xlink:href="#DejaVuSans-73" x="233.837891"/>
     <use xlink:href="#DejaVuSans-69" x="285.9375"/>
     <use xlink:href="#DejaVuSans-74" x="313.720703"/>
     <use xlink:href="#DejaVuSans-69" x="352.929688"/>
     <use xlink:href="#DejaVuSans-6f" x="380.712891"/>
     <use xlink:href="#DejaVuSans-6e" x="441.894531"/>
    </g>
   </g>
   <g id="legend_1">
    <g id="patch_7">
     <path d="M 63.784375 60.230625 
L 164.871875 60.230625 
Q 166.871875 60.230625 166.871875 58.230625 
L 166.871875 29.318125 
Q 166.871875 27.318125 164.871875 27.318125 
L 63.784375 27.318125 
Q 61.784375 27.318125 61.784375 29.318125 
L 61.784375 58.230625 
Q 61.784375 60.230625 63.784375 60.230625 
z
" style="fill: #ffffff; opacity: 0.8; stroke: #cccccc; stroke-linejoin: miter"/>
    </g>
    <g id="line2d_19">
     <path d="M 65.784375 35.416562 
L 75.784375 35.416562 
L 85.784375 35.416562 
" style="fill: none; stroke: #1f77b4; stroke-width: 1.5; stroke-linecap: square"/>
    </g>
    <g id="text_20">
     <!-- x_position -->
     <g transform="translate(93.784375 38.916562) scale(0.1 -0.1)">
      <use xlink:href="#DejaVuSans-78"/>
      <use xlink:href="#DejaVuSans-5f" x="59.179688"/>
      <use xlink:href="#DejaVuSans-70" x="109.179688"/>
      <use xlink:href="#DejaVuSans-6f" x="172.65625"/>
      <use xlink:href="#DejaVuSans-73" x="233.837891"/>
      <use xlink:href="#DejaVuSans-69" x="285.9375"/>
      <use xlink:href="#DejaVuSans-74" x="313.720703"/>
      <use xlink:href="#DejaVuSans-69" x="352.929688"/>
      <use xlink:href="#DejaVuSans-6f" x="380.712891"/>
      <use xlink:href="#DejaVuSans-6e" x="441.894531"/>
     </g>
    </g>
    <g id="line2d_20">
     <path d="M 65.784375 50.372812 
L 75.784375 50.372812 
L 85.784375 50.372812 
" style="fill: none; stroke: #ff7f0e; stroke-width: 1.5; stroke-linecap: square"/>
    </g>
    <g id="text_21">
     <!-- x_position_ref -->
     <g transform="translate(93.784375 53.872812) scale(0.1 -0.1)">
      <defs>
       <path id="DejaVuSans-72" d="M 2631 2963 
Q 2534 3019 2420 3045 
Q 2306 3072 2169 3072 
Q 1681 3072 1420 2755 
Q 1159 2438 1159 1844 
L 1159 0 
L 581 0 
L 581 3500 
L 1159 3500 
L 1159 2956 
Q 1341 3275 1631 3429 
Q 1922 3584 2338 3584 
Q 2397 3584 2469 3576 
Q 2541 3569 2628 3553 
L 2631 2963 
z
" transform="scale(0.015625)"/>
       <path id="DejaVuSans-66" d="M 2375 4863 
L 2375 4384 
L 1825 4384 
Q 1516 4384 1395 4259 
Q 1275 4134 1275 3809 
L 1275 3500 
L 2222 3500 
L 2222 3053 
L 1275 3053 
L 1275 0 
L 697 0 
L 697 3053 
L 147 3053 
L 147 3500 
L 697 3500 
L 697 3744 
Q 697 4328 969 4595 
Q 1241 4863 1831 4863 
L 2375 4863 
z
" transform="scale(0.015625)"/>
      </defs>
      <use xlink:href="#DejaVuSans-78"/>
      <use xlink:href="#DejaVuSans-5f" x="59.179688"/>
      <use xlink:href="#DejaVuSans-70" x="109.179688"/>
      <use xlink:href="#DejaVuSans-6f" x="172.65625"/>
      <use xlink:href="#DejaVuSans-73" x="233.837891"/>
      <use xlink:href="#DejaVuSans-69" x="285.9375"/>
      <use xlink:href="#DejaVuSans-74" x="313.720703"/>
      <use xlink:href="#DejaVuSans-69" x="352.929688"/>
      <use xlink:href="#DejaVuSans-6f" x="380.712891"/>
      <use xlink:href="#DejaVuSans-6e" x="441.894531"/>
      <use xlink:href="#DejaVuSans-5f" x="505.273438"/>
      <use xlink:href="#DejaVuSans-72" x="555.273438"/>
      <use xlink:href="#DejaVuSans-65" x="594.136719"/>
      <use xlink:href="#DejaVuSans-66" x="655.660156"/>
     </g>
    </g>
   </g>
  </g>
 </g>
 <defs>
  <clipPath id="pcb0929d0e5">
   <rect x="56.784375" y="22.318125" width="446.4" height="221.76"/>
  </clipPath>
 </defs>
</svg>
