<?xml version="1.0" encoding="utf-8" standalone="no"?>
<!DOCTYPE svg PUBLIC "-//W3C//DTD SVG 1.1//EN"
  "http://www.w3.org/Graphics/SVG/1.1/DTD/svg11.dtd">
<svg xmlns:xlink="http://www.w3.org/1999/xlink" width="518.764062pt" height="281.634375pt" viewBox="0 0 518.764062 281.634375" xmlns="http://www.w3.org/2000/svg" version="1.1">
 <metadata>
  <rdf:RDF xmlns:dc="http://purl.org/dc/elements/1.1/" xmlns:cc="http://creativecommons.org/ns#" xmlns:rdf="http://www.w3.org/1999/02/22-rdf-syntax-ns#">
   <cc:Work>
    <dc:type rdf:resource="http://purl.org/dc/dcmitype/StillImage"/>
    <dc:date>2025-05-13T20:43:52.295732</dc:date>
    <dc:format>image/svg+xml</dc:format>
    <dc:creator>
     <cc:Agent>
      <dc:title>Matplotlib v3.6.3, https://matplotlib.org/</dc:title>
     </cc:Agent>
    </dc:creator>
   </cc:Work>
  </rdf:RDF>
 </metadata>
 <defs>
  <style type="text/css">*{stroke-linejoin: round; stroke-linecap: butt}</style>
 </defs>
 <g id="figure_1">
  <g id="patch_1">
   <path d="M 0 281.634375 
L 518.764062 281.634375 
L 518.764062 0 
L 0 0 
z
" style="fill: #ffffff"/>
  </g>
  <g id="axes_1">
   <g id="patch_2">
    <path d="M 65.164062 244.078125 
L 511.564062 244.078125 
L 511.564062 22.318125 
L 65.164062 22.318125 
z
" style="fill: #ffffff"/>
   </g>
   <g id="matplotlib.axis_1">
    <g id="xtick_1">
     <g id="line2d_1">
      <defs>
       <path id="m53673ec932" d="M 0 0 
L 0 3.5 
" style="stroke: #000000; stroke-width: 0.8"/>
      </defs>
      <g>
       <use xlink:href="#m53673ec932" x="85.454972" y="244.078125" style="stroke: #000000; stroke-width: 0.8"/>
      </g>
     </g>
     <g id="text_1">
      <!-- 0.0 -->
      <g transform="translate(77.503409 258.676562) scale(0.1 -0.1)">
       <defs>
        <path id="DejaVuSans-30" d="M 2034 4250 
Q 1547 4250 1301 3770 
Q 1056 3291 1056 2328 
Q 1056 1369 1301 889 
Q 1547 409 2034 409 
Q 2525 409 2770 889 
Q 3016 1369 3016 2328 
Q 3016 3291 2770 3770 
Q 2525 4250 2034 4250 
z
M 2034 4750 
Q 2819 4750 3233 4129 
Q 3647 3509 3647 2328 
Q 3647 1150 3233 529 
Q 2819 -91 2034 -91 
Q 1250 -91 836 529 
Q 422 1150 422 2328 
Q 422 3509 836 4129 
Q 1250 4750 2034 4750 
z
" transform="scale(0.015625)"/>
        <path id="DejaVuSans-2e" d="M 684 794 
L 1344 794 
L 1344 0 
L 684 0 
L 684 794 
z
" transform="scale(0.015625)"/>
       </defs>
       <use xlink:href="#DejaVuSans-30"/>
       <use xlink:href="#DejaVuSans-2e" x="63.623047"/>
       <use xlink:href="#DejaVuSans-30" x="95.410156"/>
      </g>
     </g>
    </g>
    <g id="xtick_2">
     <g id="line2d_2">
      <g>
       <use xlink:href="#m53673ec932" x="136.694642" y="244.078125" style="stroke: #000000; stroke-width: 0.8"/>
      </g>
     </g>
     <g id="text_2">
      <!-- 0.5 -->
      <g transform="translate(128.74308 258.676562) scale(0.1 -0.1)">
       <defs>
        <path id="DejaVuSans-35" d="M 691 4666 
L 3169 4666 
L 3169 4134 
L 1269 4134 
L 1269 2991 
Q 1406 3038 1543 3061 
Q 1681 3084 1819 3084 
Q 2600 3084 3056 2656 
Q 3513 2228 3513 1497 
Q 3513 744 3044 326 
Q 2575 -91 1722 -91 
Q 1428 -91 1123 -41 
Q 819 9 494 109 
L 494 744 
Q 775 591 1075 516 
Q 1375 441 1709 441 
Q 2250 441 2565 725 
Q 2881 1009 2881 1497 
Q 2881 1984 2565 2268 
Q 2250 2553 1709 2553 
Q 1456 2553 1204 2497 
Q 953 2441 691 2322 
L 691 4666 
z
" transform="scale(0.015625)"/>
       </defs>
       <use xlink:href="#DejaVuSans-30"/>
       <use xlink:href="#DejaVuSans-2e" x="63.623047"/>
       <use xlink:href="#DejaVuSans-35" x="95.410156"/>
      </g>
     </g>
    </g>
    <g id="xtick_3">
     <g id="line2d_3">
      <g>
       <use xlink:href="#m53673ec932" x="187.934313" y="244.078125" style="stroke: #000000; stroke-width: 0.8"/>
      </g>
     </g>
     <g id="text_3">
      <!-- 1.0 -->
      <g transform="translate(179.98275 258.676562) scale(0.1 -0.1)">
       <defs>
        <path id="DejaVuSans-31" d="M 794 531 
L 1825 531 
L 1825 4091 
L 703 3866 
L 703 4441 
L 1819 4666 
L 2450 4666 
L 2450 531 
L 3481 531 
L 3481 0 
L 794 0 
L 794 531 
z
" transform="scale(0.015625)"/>
       </defs>
       <use xlink:href="#DejaVuSans-31"/>
       <use xlink:href="#DejaVuSans-2e" x="63.623047"/>
       <use xlink:href="#DejaVuSans-30" x="95.410156"/>
      </g>
     </g>
    </g>
    <g id="xtick_4">
     <g id="line2d_4">
      <g>
       <use xlink:href="#m53673ec932" x="239.173983" y="244.078125" style="stroke: #000000; stroke-width: 0.8"/>
      </g>
     </g>
     <g id="text_4">
      <!-- 1.5 -->
      <g transform="translate(231.222421 258.676562) scale(0.1 -0.1)">
       <use xlink:href="#DejaVuSans-31"/>
       <use xlink:href="#DejaVuSans-2e" x="63.623047"/>
       <use xlink:href="#DejaVuSans-35" x="95.410156"/>
      </g>
     </g>
    </g>
    <g id="xtick_5">
     <g id="line2d_5">
      <g>
       <use xlink:href="#m53673ec932" x="290.413654" y="244.078125" style="stroke: #000000; stroke-width: 0.8"/>
      </g>
     </g>
     <g id="text_5">
      <!-- 2.0 -->
      <g transform="translate(282.462091 258.676562) scale(0.1 -0.1)">
       <defs>
        <path id="DejaVuSans-32" d="M 1228 531 
L 3431 531 
L 3431 0 
L 469 0 
L 469 531 
Q 828 903 1448 1529 
Q 2069 2156 2228 2338 
Q 2531 2678 2651 2914 
Q 2772 3150 2772 3378 
Q 2772 3750 2511 3984 
Q 2250 4219 1831 4219 
Q 1534 4219 1204 4116 
Q 875 4013 500 3803 
L 500 4441 
Q 881 4594 1212 4672 
Q 1544 4750 1819 4750 
Q 2544 4750 2975 4387 
Q 3406 4025 3406 3419 
Q 3406 3131 3298 2873 
Q 3191 2616 2906 2266 
Q 2828 2175 2409 1742 
Q 1991 1309 1228 531 
z
" transform="scale(0.015625)"/>
       </defs>
       <use xlink:href="#DejaVuSans-32"/>
       <use xlink:href="#DejaVuSans-2e" x="63.623047"/>
       <use xlink:href="#DejaVuSans-30" x="95.410156"/>
      </g>
     </g>
    </g>
    <g id="xtick_6">
     <g id="line2d_6">
      <g>
       <use xlink:href="#m53673ec932" x="341.653324" y="244.078125" style="stroke: #000000; stroke-width: 0.8"/>
      </g>
     </g>
     <g id="text_6">
      <!-- 2.5 -->
      <g transform="translate(333.701762 258.676562) scale(0.1 -0.1)">
       <use xlink:href="#DejaVuSans-32"/>
       <use xlink:href="#DejaVuSans-2e" x="63.623047"/>
       <use xlink:href="#DejaVuSans-35" x="95.410156"/>
      </g>
     </g>
    </g>
    <g id="xtick_7">
     <g id="line2d_7">
      <g>
       <use xlink:href="#m53673ec932" x="392.892995" y="244.078125" style="stroke: #000000; stroke-width: 0.8"/>
      </g>
     </g>
     <g id="text_7">
      <!-- 3.0 -->
      <g transform="translate(384.941432 258.676562) scale(0.1 -0.1)">
       <defs>
        <path id="DejaVuSans-33" d="M 2597 2516 
Q 3050 2419 3304 2112 
Q 3559 1806 3559 1356 
Q 3559 666 3084 287 
Q 2609 -91 1734 -91 
Q 1441 -91 1130 -33 
Q 819 25 488 141 
L 488 750 
Q 750 597 1062 519 
Q 1375 441 1716 441 
Q 2309 441 2620 675 
Q 2931 909 2931 1356 
Q 2931 1769 2642 2001 
Q 2353 2234 1838 2234 
L 1294 2234 
L 1294 2753 
L 1863 2753 
Q 2328 2753 2575 2939 
Q 2822 3125 2822 3475 
Q 2822 3834 2567 4026 
Q 2313 4219 1838 4219 
Q 1578 4219 1281 4162 
Q 984 4106 628 3988 
L 628 4550 
Q 988 4650 1302 4700 
Q 1616 4750 1894 4750 
Q 2613 4750 3031 4423 
Q 3450 4097 3450 3541 
Q 3450 3153 3228 2886 
Q 3006 2619 2597 2516 
z
" transform="scale(0.015625)"/>
       </defs>
       <use xlink:href="#DejaVuSans-33"/>
       <use xlink:href="#DejaVuSans-2e" x="63.623047"/>
       <use xlink:href="#DejaVuSans-30" x="95.410156"/>
      </g>
     </g>
    </g>
    <g id="xtick_8">
     <g id="line2d_8">
      <g>
       <use xlink:href="#m53673ec932" x="444.132666" y="244.078125" style="stroke: #000000; stroke-width: 0.8"/>
      </g>
     </g>
     <g id="text_8">
      <!-- 3.5 -->
      <g transform="translate(436.181103 258.676562) scale(0.1 -0.1)">
       <use xlink:href="#DejaVuSans-33"/>
       <use xlink:href="#DejaVuSans-2e" x="63.623047"/>
       <use xlink:href="#DejaVuSans-35" x="95.410156"/>
      </g>
     </g>
    </g>
    <g id="xtick_9">
     <g id="line2d_9">
      <g>
       <use xlink:href="#m53673ec932" x="495.372336" y="244.078125" style="stroke: #000000; stroke-width: 0.8"/>
      </g>
     </g>
     <g id="text_9">
      <!-- 4.0 -->
      <g transform="translate(487.420774 258.676562) scale(0.1 -0.1)">
       <defs>
        <path id="DejaVuSans-34" d="M 2419 4116 
L 825 1625 
L 2419 1625 
L 2419 4116 
z
M 2253 4666 
L 3047 4666 
L 3047 1625 
L 3713 1625 
L 3713 1100 
L 3047 1100 
L 3047 0 
L 2419 0 
L 2419 1100 
L 313 1100 
L 313 1709 
L 2253 4666 
z
" transform="scale(0.015625)"/>
       </defs>
       <use xlink:href="#DejaVuSans-34"/>
       <use xlink:href="#DejaVuSans-2e" x="63.623047"/>
       <use xlink:href="#DejaVuSans-30" x="95.410156"/>
      </g>
     </g>
    </g>
    <g id="text_10">
     <!-- time(s) -->
     <g transform="translate(270.561719 272.354687) scale(0.1 -0.1)">
      <defs>
       <path id="DejaVuSans-74" d="M 1172 4494 
L 1172 3500 
L 2356 3500 
L 2356 3053 
L 1172 3053 
L 1172 1153 
Q 1172 725 1289 603 
Q 1406 481 1766 481 
L 2356 481 
L 2356 0 
L 1766 0 
Q 1100 0 847 248 
Q 594 497 594 1153 
L 594 3053 
L 172 3053 
L 172 3500 
L 594 3500 
L 594 4494 
L 1172 4494 
z
" transform="scale(0.015625)"/>
       <path id="DejaVuSans-69" d="M 603 3500 
L 1178 3500 
L 1178 0 
L 603 0 
L 603 3500 
z
M 603 4863 
L 1178 4863 
L 1178 4134 
L 603 4134 
L 603 4863 
z
" transform="scale(0.015625)"/>
       <path id="DejaVuSans-6d" d="M 3328 2828 
Q 3544 3216 3844 3400 
Q 4144 3584 4550 3584 
Q 5097 3584 5394 3201 
Q 5691 2819 5691 2113 
L 5691 0 
L 5113 0 
L 5113 2094 
Q 5113 2597 4934 2840 
Q 4756 3084 4391 3084 
Q 3944 3084 3684 2787 
Q 3425 2491 3425 1978 
L 3425 0 
L 2847 0 
L 2847 2094 
Q 2847 2600 2669 2842 
Q 2491 3084 2119 3084 
Q 1678 3084 1418 2786 
Q 1159 2488 1159 1978 
L 1159 0 
L 581 0 
L 581 3500 
L 1159 3500 
L 1159 2956 
Q 1356 3278 1631 3431 
Q 1906 3584 2284 3584 
Q 2666 3584 2933 3390 
Q 3200 3197 3328 2828 
z
" transform="scale(0.015625)"/>
       <path id="DejaVuSans-65" d="M 3597 1894 
L 3597 1613 
L 953 1613 
Q 991 1019 1311 708 
Q 1631 397 2203 397 
Q 2534 397 2845 478 
Q 3156 559 3463 722 
L 3463 178 
Q 3153 47 2828 -22 
Q 2503 -91 2169 -91 
Q 1331 -91 842 396 
Q 353 884 353 1716 
Q 353 2575 817 3079 
Q 1281 3584 2069 3584 
Q 2775 3584 3186 3129 
Q 3597 2675 3597 1894 
z
M 3022 2063 
Q 3016 2534 2758 2815 
Q 2500 3097 2075 3097 
Q 1594 3097 1305 2825 
Q 1016 2553 972 2059 
L 3022 2063 
z
" transform="scale(0.015625)"/>
       <path id="DejaVuSans-28" d="M 1984 4856 
Q 1566 4138 1362 3434 
Q 1159 2731 1159 2009 
Q 1159 1288 1364 580 
Q 1569 -128 1984 -844 
L 1484 -844 
Q 1016 -109 783 600 
Q 550 1309 550 2009 
Q 550 2706 781 3412 
Q 1013 4119 1484 4856 
L 1984 4856 
z
" transform="scale(0.015625)"/>
       <path id="DejaVuSans-73" d="M 2834 3397 
L 2834 2853 
Q 2591 2978 2328 3040 
Q 2066 3103 1784 3103 
Q 1356 3103 1142 2972 
Q 928 2841 928 2578 
Q 928 2378 1081 2264 
Q 1234 2150 1697 2047 
L 1894 2003 
Q 2506 1872 2764 1633 
Q 3022 1394 3022 966 
Q 3022 478 2636 193 
Q 2250 -91 1575 -91 
Q 1294 -91 989 -36 
Q 684 19 347 128 
L 347 722 
Q 666 556 975 473 
Q 1284 391 1588 391 
Q 1994 391 2212 530 
Q 2431 669 2431 922 
Q 2431 1156 2273 1281 
Q 2116 1406 1581 1522 
L 1381 1569 
Q 847 1681 609 1914 
Q 372 2147 372 2553 
Q 372 3047 722 3315 
Q 1072 3584 1716 3584 
Q 2034 3584 2315 3537 
Q 2597 3491 2834 3397 
z
" transform="scale(0.015625)"/>
       <path id="DejaVuSans-29" d="M 513 4856 
L 1013 4856 
Q 1481 4119 1714 3412 
Q 1947 2706 1947 2009 
Q 1947 1309 1714 600 
Q 1481 -109 1013 -844 
L 513 -844 
Q 928 -128 1133 580 
Q 1338 1288 1338 2009 
Q 1338 2731 1133 3434 
Q 928 4138 513 4856 
z
" transform="scale(0.015625)"/>
      </defs>
      <use xlink:href="#DejaVuSans-74"/>
      <use xlink:href="#DejaVuSans-69" x="39.208984"/>
      <use xlink:href="#DejaVuSans-6d" x="66.992188"/>
      <use xlink:href="#DejaVuSans-65" x="164.404297"/>
      <use xlink:href="#DejaVuSans-28" x="225.927734"/>
      <use xlink:href="#DejaVuSans-73" x="264.941406"/>
      <use xlink:href="#DejaVuSans-29" x="317.041016"/>
     </g>
    </g>
   </g>
   <g id="matplotlib.axis_2">
    <g id="ytick_1">
     <g id="line2d_10">
      <defs>
       <path id="m7c48570304" d="M 0 0 
L -3.5 0 
" style="stroke: #000000; stroke-width: 0.8"/>
      </defs>
      <g>
       <use xlink:href="#m7c48570304" x="65.164062" y="242.32242" style="stroke: #000000; stroke-width: 0.8"/>
      </g>
     </g>
     <g id="text_11">
      <!-- −0.125 -->
      <g transform="translate(21.15625 246.121639) scale(0.1 -0.1)">
       <defs>
        <path id="DejaVuSans-2212" d="M 678 2272 
L 4684 2272 
L 4684 1741 
L 678 1741 
L 678 2272 
z
" transform="scale(0.015625)"/>
       </defs>
       <use xlink:href="#DejaVuSans-2212"/>
       <use xlink:href="#DejaVuSans-30" x="83.789062"/>
       <use xlink:href="#DejaVuSans-2e" x="147.412109"/>
       <use xlink:href="#DejaVuSans-31" x="179.199219"/>
       <use xlink:href="#DejaVuSans-32" x="242.822266"/>
       <use xlink:href="#DejaVuSans-35" x="306.445312"/>
      </g>
     </g>
    </g>
    <g id="ytick_2">
     <g id="line2d_11">
      <g>
       <use xlink:href="#m7c48570304" x="65.164062" y="216.121428" style="stroke: #000000; stroke-width: 0.8"/>
      </g>
     </g>
     <g id="text_12">
      <!-- −0.100 -->
      <g transform="translate(21.15625 219.920646) scale(0.1 -0.1)">
       <use xlink:href="#DejaVuSans-2212"/>
       <use xlink:href="#DejaVuSans-30" x="83.789062"/>
       <use xlink:href="#DejaVuSans-2e" x="147.412109"/>
       <use xlink:href="#DejaVuSans-31" x="179.199219"/>
       <use xlink:href="#DejaVuSans-30" x="242.822266"/>
       <use xlink:href="#DejaVuSans-30" x="306.445312"/>
      </g>
     </g>
    </g>
    <g id="ytick_3">
     <g id="line2d_12">
      <g>
       <use xlink:href="#m7c48570304" x="65.164062" y="189.920435" style="stroke: #000000; stroke-width: 0.8"/>
      </g>
     </g>
     <g id="text_13">
      <!-- −0.075 -->
      <g transform="translate(21.15625 193.719654) scale(0.1 -0.1)">
       <defs>
        <path id="DejaVuSans-37" d="M 525 4666 
L 3525 4666 
L 3525 4397 
L 1831 0 
L 1172 0 
L 2766 4134 
L 525 4134 
L 525 4666 
z
" transform="scale(0.015625)"/>
       </defs>
       <use xlink:href="#DejaVuSans-2212"/>
       <use xlink:href="#DejaVuSans-30" x="83.789062"/>
       <use xlink:href="#DejaVuSans-2e" x="147.412109"/>
       <use xlink:href="#DejaVuSans-30" x="179.199219"/>
       <use xlink:href="#DejaVuSans-37" x="242.822266"/>
       <use xlink:href="#DejaVuSans-35" x="306.445312"/>
      </g>
     </g>
    </g>
    <g id="ytick_4">
     <g id="line2d_13">
      <g>
       <use xlink:href="#m7c48570304" x="65.164062" y="163.719443" style="stroke: #000000; stroke-width: 0.8"/>
      </g>
     </g>
     <g id="text_14">
      <!-- −0.050 -->
      <g transform="translate(21.15625 167.518662) scale(0.1 -0.1)">
       <use xlink:href="#DejaVuSans-2212"/>
       <use xlink:href="#DejaVuSans-30" x="83.789062"/>
       <use xlink:href="#DejaVuSans-2e" x="147.412109"/>
       <use xlink:href="#DejaVuSans-30" x="179.199219"/>
       <use xlink:href="#DejaVuSans-35" x="242.822266"/>
       <use xlink:href="#DejaVuSans-30" x="306.445312"/>
      </g>
     </g>
    </g>
    <g id="ytick_5">
     <g id="line2d_14">
      <g>
       <use xlink:href="#m7c48570304" x="65.164062" y="137.518451" style="stroke: #000000; stroke-width: 0.8"/>
      </g>
     </g>
     <g id="text_15">
      <!-- −0.025 -->
      <g transform="translate(21.15625 141.31767) scale(0.1 -0.1)">
       <use xlink:href="#DejaVuSans-2212"/>
       <use xlink:href="#DejaVuSans-30" x="83.789062"/>
       <use xlink:href="#DejaVuSans-2e" x="147.412109"/>
       <use xlink:href="#DejaVuSans-30" x="179.199219"/>
       <use xlink:href="#DejaVuSans-32" x="242.822266"/>
       <use xlink:href="#DejaVuSans-35" x="306.445312"/>
      </g>
     </g>
    </g>
    <g id="ytick_6">
     <g id="line2d_15">
      <g>
       <use xlink:href="#m7c48570304" x="65.164062" y="111.317459" style="stroke: #000000; stroke-width: 0.8"/>
      </g>
     </g>
     <g id="text_16">
      <!-- 0.000 -->
      <g transform="translate(29.535937 115.116677) scale(0.1 -0.1)">
       <use xlink:href="#DejaVuSans-30"/>
       <use xlink:href="#DejaVuSans-2e" x="63.623047"/>
       <use xlink:href="#DejaVuSans-30" x="95.410156"/>
       <use xlink:href="#DejaVuSans-30" x="159.033203"/>
       <use xlink:href="#DejaVuSans-30" x="222.65625"/>
      </g>
     </g>
    </g>
    <g id="ytick_7">
     <g id="line2d_16">
      <g>
       <use xlink:href="#m7c48570304" x="65.164062" y="85.116466" style="stroke: #000000; stroke-width: 0.8"/>
      </g>
     </g>
     <g id="text_17">
      <!-- 0.025 -->
      <g transform="translate(29.535937 88.915685) scale(0.1 -0.1)">
       <use xlink:href="#DejaVuSans-30"/>
       <use xlink:href="#DejaVuSans-2e" x="63.623047"/>
       <use xlink:href="#DejaVuSans-30" x="95.410156"/>
       <use xlink:href="#DejaVuSans-32" x="159.033203"/>
       <use xlink:href="#DejaVuSans-35" x="222.65625"/>
      </g>
     </g>
    </g>
    <g id="ytick_8">
     <g id="line2d_17">
      <g>
       <use xlink:href="#m7c48570304" x="65.164062" y="58.915474" style="stroke: #000000; stroke-width: 0.8"/>
      </g>
     </g>
     <g id="text_18">
      <!-- 0.050 -->
      <g transform="translate(29.535937 62.714693) scale(0.1 -0.1)">
       <use xlink:href="#DejaVuSans-30"/>
       <use xlink:href="#DejaVuSans-2e" x="63.623047"/>
       <use xlink:href="#DejaVuSans-30" x="95.410156"/>
       <use xlink:href="#DejaVuSans-35" x="159.033203"/>
       <use xlink:href="#DejaVuSans-30" x="222.65625"/>
      </g>
     </g>
    </g>
    <g id="ytick_9">
     <g id="line2d_18">
      <g>
       <use xlink:href="#m7c48570304" x="65.164062" y="32.714482" style="stroke: #000000; stroke-width: 0.8"/>
      </g>
     </g>
     <g id="text_19">
      <!-- 0.075 -->
      <g transform="translate(29.535937 36.513701) scale(0.1 -0.1)">
       <use xlink:href="#DejaVuSans-30"/>
       <use xlink:href="#DejaVuSans-2e" x="63.623047"/>
       <use xlink:href="#DejaVuSans-30" x="95.410156"/>
       <use xlink:href="#DejaVuSans-37" x="159.033203"/>
       <use xlink:href="#DejaVuSans-35" x="222.65625"/>
      </g>
     </g>
    </g>
    <g id="text_20">
     <!-- x_position[m] -->
     <g transform="translate(14.798437 167.234062) rotate(-90) scale(0.1 -0.1)">
      <defs>
       <path id="DejaVuSans-78" d="M 3513 3500 
L 2247 1797 
L 3578 0 
L 2900 0 
L 1881 1375 
L 863 0 
L 184 0 
L 1544 1831 
L 300 3500 
L 978 3500 
L 1906 2253 
L 2834 3500 
L 3513 3500 
z
" transform="scale(0.015625)"/>
       <path id="DejaVuSans-5f" d="M 3263 -1063 
L 3263 -1509 
L -63 -1509 
L -63 -1063 
L 3263 -1063 
z
" transform="scale(0.015625)"/>
       <path id="DejaVuSans-70" d="M 1159 525 
L 1159 -1331 
L 581 -1331 
L 581 3500 
L 1159 3500 
L 1159 2969 
Q 1341 3281 1617 3432 
Q 1894 3584 2278 3584 
Q 2916 3584 3314 3078 
Q 3713 2572 3713 1747 
Q 3713 922 3314 415 
Q 2916 -91 2278 -91 
Q 1894 -91 1617 61 
Q 1341 213 1159 525 
z
M 3116 1747 
Q 3116 2381 2855 2742 
Q 2594 3103 2138 3103 
Q 1681 3103 1420 2742 
Q 1159 2381 1159 1747 
Q 1159 1113 1420 752 
Q 1681 391 2138 391 
Q 2594 391 2855 752 
Q 3116 1113 3116 1747 
z
" transform="scale(0.015625)"/>
       <path id="DejaVuSans-6f" d="M 1959 3097 
Q 1497 3097 1228 2736 
Q 959 2375 959 1747 
Q 959 1119 1226 758 
Q 1494 397 1959 397 
Q 2419 397 2687 759 
Q 2956 1122 2956 1747 
Q 2956 2369 2687 2733 
Q 2419 3097 1959 3097 
z
M 1959 3584 
Q 2709 3584 3137 3096 
Q 3566 2609 3566 1747 
Q 3566 888 3137 398 
Q 2709 -91 1959 -91 
Q 1206 -91 779 398 
Q 353 888 353 1747 
Q 353 2609 779 3096 
Q 1206 3584 1959 3584 
z
" transform="scale(0.015625)"/>
       <path id="DejaVuSans-6e" d="M 3513 2113 
L 3513 0 
L 2938 0 
L 2938 2094 
Q 2938 2591 2744 2837 
Q 2550 3084 2163 3084 
Q 1697 3084 1428 2787 
Q 1159 2491 1159 1978 
L 1159 0 
L 581 0 
L 581 3500 
L 1159 3500 
L 1159 2956 
Q 1366 3272 1645 3428 
Q 1925 3584 2291 3584 
Q 2894 3584 3203 3211 
Q 3513 2838 3513 2113 
z
" transform="scale(0.015625)"/>
       <path id="DejaVuSans-5b" d="M 550 4863 
L 1875 4863 
L 1875 4416 
L 1125 4416 
L 1125 -397 
L 1875 -397 
L 1875 -844 
L 550 -844 
L 550 4863 
z
" transform="scale(0.015625)"/>
       <path id="DejaVuSans-5d" d="M 1947 4863 
L 1947 -844 
L 622 -844 
L 622 -397 
L 1369 -397 
L 1369 4416 
L 622 4416 
L 622 4863 
L 1947 4863 
z
" transform="scale(0.015625)"/>
      </defs>
      <use xlink:href="#DejaVuSans-78"/>
      <use xlink:href="#DejaVuSans-5f" x="59.179688"/>
      <use xlink:href="#DejaVuSans-70" x="109.179688"/>
      <use xlink:href="#DejaVuSans-6f" x="172.65625"/>
      <use xlink:href="#DejaVuSans-73" x="233.837891"/>
      <use xlink:href="#DejaVuSans-69" x="285.9375"/>
      <use xlink:href="#DejaVuSans-74" x="313.720703"/>
      <use xlink:href="#DejaVuSans-69" x="352.929688"/>
      <use xlink:href="#DejaVuSans-6f" x="380.712891"/>
      <use xlink:href="#DejaVuSans-6e" x="441.894531"/>
      <use xlink:href="#DejaVuSans-5b" x="505.273438"/>
      <use xlink:href="#DejaVuSans-6d" x="544.287109"/>
      <use xlink:href="#DejaVuSans-5d" x="641.699219"/>
     </g>
    </g>
   </g>
   <g id="line2d_19">
    <path d="M 85.454972 113.098335 
L 89.574953 115.645559 
L 91.634944 117.754373 
L 93.694935 120.304821 
L 95.754925 122.260497 
L 97.814916 123.110994 
L 99.874907 123.774532 
L 101.934898 124.988881 
L 103.994889 126.975123 
L 106.054879 129.686315 
L 108.11487 132.85091 
L 110.174861 136.294238 
L 114.294842 143.768778 
L 116.354833 147.218962 
L 118.414824 150.244968 
L 120.474815 152.933389 
L 126.654787 160.503336 
L 130.774769 165.758775 
L 132.834759 168.193619 
L 139.014732 174.590861 
L 141.074722 175.051215 
L 145.194704 172.979736 
L 147.254695 173.549144 
L 149.314685 176.216108 
L 151.374676 180.015726 
L 153.434667 184.259968 
L 155.494658 188.850463 
L 165.794612 213.401563 
L 167.854602 217.653231 
L 169.914593 220.903185 
L 171.974584 223.247907 
L 176.094565 226.923737 
L 178.154556 229.070654 
L 180.214547 231.632898 
L 182.274538 233.741662 
L 184.334529 233.998125 
L 186.394519 232.613544 
L 188.45451 231.551291 
L 192.574492 229.77684 
L 194.634482 228.974508 
L 196.694473 227.826244 
L 198.754464 226.094224 
L 200.814455 223.658213 
L 202.874446 220.392002 
L 204.934436 216.073922 
L 209.054418 204.554918 
L 211.114409 198.473835 
L 213.174399 191.930574 
L 215.23439 184.978022 
L 217.294381 177.570969 
L 219.354372 170.714856 
L 221.414362 165.494774 
L 223.474353 162.459171 
L 225.534344 160.375979 
L 227.594335 157.567861 
L 229.654326 152.842807 
L 231.714316 146.046394 
L 239.954279 113.958778 
L 244.074261 98.988402 
L 248.194242 85.673367 
L 250.254233 79.5535 
L 252.314224 73.84426 
L 254.374215 68.556915 
L 256.434206 63.744155 
L 258.494196 59.411099 
L 260.554187 55.564497 
L 262.614178 52.153153 
L 264.674169 49.119174 
L 266.734159 46.50322 
L 268.79415 44.31377 
L 270.854141 42.492217 
L 272.914132 40.973502 
L 274.974122 39.680297 
L 277.034113 38.635949 
L 279.094104 37.977145 
L 281.154095 37.846181 
L 283.214086 38.249014 
L 285.274076 38.214664 
L 287.334067 37.1491 
L 291.454049 34.087987 
L 293.514039 32.965335 
L 295.57403 32.398125 
L 297.634021 32.651105 
L 299.694012 32.512582 
L 301.754003 32.715127 
L 303.813993 33.733028 
L 305.873984 35.506363 
L 307.933975 37.80717 
L 309.993966 40.477405 
L 312.053956 43.496211 
L 314.113947 46.795683 
L 316.173938 49.575081 
L 318.233929 51.009984 
L 320.293919 51.627843 
L 322.35391 52.791373 
L 324.413901 55.159513 
L 326.473892 59.128189 
L 328.533883 64.106579 
L 332.653864 72.445936 
L 334.713855 77.387821 
L 338.833836 89.003549 
L 340.893827 95.048237 
L 342.953818 100.554082 
L 353.253772 126.167104 
L 355.313763 130.422702 
L 357.373753 133.455936 
L 359.433744 135.000367 
L 361.493735 135.296077 
L 363.553726 134.774871 
L 367.673707 133.119488 
L 369.733698 132.883923 
L 371.793689 133.284958 
L 375.91367 134.921339 
L 377.973661 135.006559 
L 380.033652 133.960596 
L 384.153633 130.233548 
L 386.213624 128.951909 
L 388.273615 128.219987 
L 390.333606 126.956827 
L 394.453587 123.351638 
L 396.513578 121.46791 
L 398.573569 119.256999 
L 400.63356 116.46435 
L 402.69355 112.861261 
L 404.753541 108.257647 
L 412.993504 87.127378 
L 415.053495 83.23381 
L 417.113486 80.536179 
L 419.173476 78.274715 
L 423.293458 74.319657 
L 425.353449 71.903042 
L 427.41344 69.26659 
L 431.533421 63.690678 
L 441.833375 51.540232 
L 443.893366 49.228177 
L 445.953356 47.256342 
L 448.013347 45.821881 
L 450.073338 45.223843 
L 452.133329 44.942768 
L 454.19332 44.367477 
L 456.25331 43.305465 
L 458.313301 41.985625 
L 460.373292 40.946235 
L 462.433283 40.844709 
L 466.553264 42.249389 
L 468.613255 42.399577 
L 470.673246 41.912951 
L 474.793227 40.394322 
L 476.853218 40.254245 
L 478.913209 40.898752 
L 480.9732 42.122867 
L 489.213163 48.16061 
L 491.273153 49.322648 
L 491.273153 49.322648 
" clip-path="url(#p41bf107324)" style="fill: none; stroke: #1f77b4; stroke-width: 1.5; stroke-linecap: square"/>
   </g>
   <g id="line2d_20">
    <path d="M 85.454972 113.092245 
L 89.574953 114.588617 
L 91.634944 114.338818 
L 93.694935 113.584407 
L 95.754925 113.674483 
L 97.814916 113.942754 
L 99.874907 114.567414 
L 103.994889 115.364778 
L 108.11487 115.602134 
L 116.354833 116.66656 
L 118.414824 117.271262 
L 120.474815 118.278872 
L 122.534805 119.04499 
L 124.594796 119.690361 
L 126.654787 119.721577 
L 128.714778 119.507181 
L 136.954741 116.633492 
L 139.014732 115.798077 
L 141.074722 114.802194 
L 145.194704 113.317129 
L 147.254695 112.799066 
L 149.314685 112.593612 
L 151.374676 113.013374 
L 155.494658 114.371473 
L 157.554649 114.02329 
L 159.614639 113.51374 
L 161.67463 112.681463 
L 163.734621 111.49423 
L 167.854602 108.805349 
L 169.914593 107.942794 
L 171.974584 108.003474 
L 174.034575 108.383872 
L 176.094565 108.924132 
L 178.154556 108.726341 
L 180.214547 108.386938 
L 184.334529 107.24517 
L 186.394519 106.777758 
L 188.45451 105.524007 
L 190.514501 104.675651 
L 192.574492 104.638091 
L 194.634482 104.85991 
L 196.694473 105.211424 
L 198.754464 105.447865 
L 200.814455 105.914635 
L 202.874446 106.842077 
L 204.934436 107.37643 
L 206.994427 107.714229 
L 209.054418 108.479475 
L 211.114409 108.956444 
L 213.174399 108.85686 
L 217.294381 109.206131 
L 221.414362 108.285237 
L 223.474353 107.667133 
L 227.594335 105.950017 
L 229.654326 104.36472 
L 231.714316 103.117241 
L 233.774307 102.54543 
L 237.894289 101.834243 
L 239.954279 102.307616 
L 242.01427 103.034077 
L 244.074261 104.266721 
L 248.194242 107.11717 
L 250.254233 107.766647 
L 252.314224 108.101547 
L 254.374215 107.807289 
L 256.434206 106.991876 
L 258.494196 105.91588 
L 260.554187 105.144018 
L 262.614178 103.965379 
L 264.674169 101.973162 
L 266.734159 101.105961 
L 270.854141 100.502801 
L 272.914132 99.930531 
L 274.974122 98.810675 
L 277.034113 98.235517 
L 279.094104 97.932702 
L 283.214086 96.016837 
L 287.334067 94.533692 
L 289.394058 93.726788 
L 293.514039 92.399477 
L 295.57403 91.598559 
L 299.694012 90.402343 
L 301.754003 89.396448 
L 303.813993 88.577012 
L 305.873984 88.130539 
L 307.933975 88.556692 
L 309.993966 89.419165 
L 312.053956 89.066782 
L 314.113947 89.306131 
L 316.173938 90.728947 
L 322.35391 95.825995 
L 324.413901 97.886708 
L 326.473892 100.848306 
L 328.533883 103.182224 
L 330.593873 105.202278 
L 332.653864 105.997804 
L 334.713855 106.518555 
L 336.773846 106.489759 
L 338.833836 105.871521 
L 340.893827 104.958561 
L 342.953818 103.308443 
L 345.013809 101.849245 
L 349.13379 99.58035 
L 357.373753 94.460803 
L 359.433744 93.531691 
L 361.493735 92.775756 
L 363.553726 92.596039 
L 365.613716 92.77378 
L 367.673707 93.666462 
L 369.733698 95.03179 
L 373.853679 98.303271 
L 377.973661 101.84941 
L 380.033652 103.268966 
L 382.093643 104.485937 
L 384.153633 105.914108 
L 386.213624 106.979301 
L 388.273615 107.318492 
L 390.333606 107.249711 
L 392.393596 106.976935 
L 394.453587 106.829037 
L 396.513578 106.397816 
L 398.573569 105.399923 
L 400.63356 105.273947 
L 402.69355 105.583956 
L 404.753541 104.737951 
L 406.813532 104.103349 
L 410.933513 103.754712 
L 412.993504 103.65524 
L 415.053495 102.671524 
L 417.113486 102.014921 
L 419.173476 102.01261 
L 421.233467 101.478998 
L 425.353449 99.761804 
L 431.533421 96.949628 
L 437.713393 93.780854 
L 439.773384 92.764373 
L 441.833375 92.0845 
L 443.893366 91.572906 
L 448.013347 92.064448 
L 450.073338 92.549137 
L 452.133329 93.317472 
L 454.19332 94.227636 
L 458.313301 96.386592 
L 460.373292 97.591963 
L 464.493273 99.435356 
L 466.553264 99.07504 
L 468.613255 98.50573 
L 470.673246 97.518442 
L 472.733236 96.847244 
L 476.853218 95.92728 
L 478.913209 95.752525 
L 480.9732 96.04193 
L 483.03319 97.034769 
L 485.093181 98.379342 
L 487.153172 98.918602 
L 489.213163 99.816387 
L 491.273153 101.431338 
L 491.273153 101.431338 
" clip-path="url(#p41bf107324)" style="fill: none; stroke: #ff7f0e; stroke-width: 1.5; stroke-linecap: square"/>
   </g>
   <g id="patch_3">
    <path d="M 65.164062 244.078125 
L 65.164062 22.318125 
" style="fill: none; stroke: #000000; stroke-width: 0.8; stroke-linejoin: miter; stroke-linecap: square"/>
   </g>
   <g id="patch_4">
    <path d="M 511.564062 244.078125 
L 511.564062 22.318125 
" style="fill: none; stroke: #000000; stroke-width: 0.8; stroke-linejoin: miter; stroke-linecap: square"/>
   </g>
   <g id="patch_5">
    <path d="M 65.164062 244.078125 
L 511.564063 244.078125 
" style="fill: none; stroke: #000000; stroke-width: 0.8; stroke-linejoin: miter; stroke-linecap: square"/>
   </g>
   <g id="patch_6">
    <path d="M 65.164062 22.318125 
L 511.564063 22.318125 
" style="fill: none; stroke: #000000; stroke-width: 0.8; stroke-linejoin: miter; stroke-linecap: square"/>
   </g>
   <g id="text_21">
    <!-- x_position -->
    <g transform="translate(258.047188 16.318125) scale(0.12 -0.12)">
     <use xlink:href="#DejaVuSans-78"/>
     <use xlink:href="#DejaVuSans-5f" x="59.179688"/>
     <use xlink:href="#DejaVuSans-70" x="109.179688"/>
     <use xlink:href="#DejaVuSans-6f" x="172.65625"/>
     <use xlink:href="#DejaVuSans-73" x="233.837891"/>
     <use xlink:href="#DejaVuSans-69" x="285.9375"/>
     <use xlink:href="#DejaVuSans-74" x="313.720703"/>
     <use xlink:href="#DejaVuSans-69" x="352.929688"/>
     <use xlink:href="#DejaVuSans-6f" x="380.712891"/>
     <use xlink:href="#DejaVuSans-6e" x="441.894531"/>
    </g>
   </g>
   <g id="legend_1">
    <g id="patch_7">
     <path d="M 72.164062 60.230625 
L 173.251563 60.230625 
Q 175.251563 60.230625 175.251563 58.230625 
L 175.251563 29.318125 
Q 175.251563 27.318125 173.251563 27.318125 
L 72.164062 27.318125 
Q 70.164062 27.318125 70.164062 29.318125 
L 70.164062 58.230625 
Q 70.164062 60.230625 72.164062 60.230625 
z
" style="fill: #ffffff; opacity: 0.8; stroke: #cccccc; stroke-linejoin: miter"/>
    </g>
    <g id="line2d_21">
     <path d="M 74.164062 35.416562 
L 84.164062 35.416562 
L 94.164062 35.416562 
" style="fill: none; stroke: #1f77b4; stroke-width: 1.5; stroke-linecap: square"/>
    </g>
    <g id="text_22">
     <!-- x_position -->
     <g transform="translate(102.164062 38.916562) scale(0.1 -0.1)">
      <use xlink:href="#DejaVuSans-78"/>
      <use xlink:href="#DejaVuSans-5f" x="59.179688"/>
      <use xlink:href="#DejaVuSans-70" x="109.179688"/>
      <use xlink:href="#DejaVuSans-6f" x="172.65625"/>
      <use xlink:href="#DejaVuSans-73" x="233.837891"/>
      <use xlink:href="#DejaVuSans-69" x="285.9375"/>
      <use xlink:href="#DejaVuSans-74" x="313.720703"/>
      <use xlink:href="#DejaVuSans-69" x="352.929688"/>
      <use xlink:href="#DejaVuSans-6f" x="380.712891"/>
      <use xlink:href="#DejaVuSans-6e" x="441.894531"/>
     </g>
    </g>
    <g id="line2d_22">
     <path d="M 74.164062 50.372812 
L 84.164062 50.372812 
L 94.164062 50.372812 
" style="fill: none; stroke: #ff7f0e; stroke-width: 1.5; stroke-linecap: square"/>
    </g>
    <g id="text_23">
     <!-- x_position_ref -->
     <g transform="translate(102.164062 53.872812) scale(0.1 -0.1)">
      <defs>
       <path id="DejaVuSans-72" d="M 2631 2963 
Q 2534 3019 2420 3045 
Q 2306 3072 2169 3072 
Q 1681 3072 1420 2755 
Q 1159 2438 1159 1844 
L 1159 0 
L 581 0 
L 581 3500 
L 1159 3500 
L 1159 2956 
Q 1341 3275 1631 3429 
Q 1922 3584 2338 3584 
Q 2397 3584 2469 3576 
Q 2541 3569 2628 3553 
L 2631 2963 
z
" transform="scale(0.015625)"/>
       <path id="DejaVuSans-66" d="M 2375 4863 
L 2375 4384 
L 1825 4384 
Q 1516 4384 1395 4259 
Q 1275 4134 1275 3809 
L 1275 3500 
L 2222 3500 
L 2222 3053 
L 1275 3053 
L 1275 0 
L 697 0 
L 697 3053 
L 147 3053 
L 147 3500 
L 697 3500 
L 697 3744 
Q 697 4328 969 4595 
Q 1241 4863 1831 4863 
L 2375 4863 
z
" transform="scale(0.015625)"/>
      </defs>
      <use xlink:href="#DejaVuSans-78"/>
      <use xlink:href="#DejaVuSans-5f" x="59.179688"/>
      <use xlink:href="#DejaVuSans-70" x="109.179688"/>
      <use xlink:href="#DejaVuSans-6f" x="172.65625"/>
      <use xlink:href="#DejaVuSans-73" x="233.837891"/>
      <use xlink:href="#DejaVuSans-69" x="285.9375"/>
      <use xlink:href="#DejaVuSans-74" x="313.720703"/>
      <use xlink:href="#DejaVuSans-69" x="352.929688"/>
      <use xlink:href="#DejaVuSans-6f" x="380.712891"/>
      <use xlink:href="#DejaVuSans-6e" x="441.894531"/>
      <use xlink:href="#DejaVuSans-5f" x="505.273438"/>
      <use xlink:href="#DejaVuSans-72" x="555.273438"/>
      <use xlink:href="#DejaVuSans-65" x="594.136719"/>
      <use xlink:href="#DejaVuSans-66" x="655.660156"/>
     </g>
    </g>
   </g>
  </g>
 </g>
 <defs>
  <clipPath id="p41bf107324">
   <rect x="65.164062" y="22.318125" width="446.4" height="221.76"/>
  </clipPath>
 </defs>
</svg>
