<?xml version="1.0" encoding="utf-8" standalone="no"?>
<!DOCTYPE svg PUBLIC "-//W3C//DTD SVG 1.1//EN"
  "http://www.w3.org/Graphics/SVG/1.1/DTD/svg11.dtd">
<svg xmlns:xlink="http://www.w3.org/1999/xlink" width="497.659375pt" height="281.634375pt" viewBox="0 0 497.659375 281.634375" xmlns="http://www.w3.org/2000/svg" version="1.1">
 <metadata>
  <rdf:RDF xmlns:dc="http://purl.org/dc/elements/1.1/" xmlns:cc="http://creativecommons.org/ns#" xmlns:rdf="http://www.w3.org/1999/02/22-rdf-syntax-ns#">
   <cc:Work>
    <dc:type rdf:resource="http://purl.org/dc/dcmitype/StillImage"/>
    <dc:date>2025-05-13T20:43:52.375735</dc:date>
    <dc:format>image/svg+xml</dc:format>
    <dc:creator>
     <cc:Agent>
      <dc:title>Matplotlib v3.6.3, https://matplotlib.org/</dc:title>
     </cc:Agent>
    </dc:creator>
   </cc:Work>
  </rdf:RDF>
 </metadata>
 <defs>
  <style type="text/css">*{stroke-linejoin: round; stroke-linecap: butt}</style>
 </defs>
 <g id="figure_1">
  <g id="patch_1">
   <path d="M 0 281.634375 
L 497.659375 281.634375 
L 497.659375 0 
L 0 0 
z
" style="fill: #ffffff"/>
  </g>
  <g id="axes_1">
   <g id="patch_2">
    <path d="M 44.059375 244.078125 
L 490.459375 244.078125 
L 490.459375 22.318125 
L 44.059375 22.318125 
z
" style="fill: #ffffff"/>
   </g>
   <g id="matplotlib.axis_1">
    <g id="xtick_1">
     <g id="line2d_1">
      <defs>
       <path id="m32def8742e" d="M 0 0 
L 0 3.5 
" style="stroke: #000000; stroke-width: 0.8"/>
      </defs>
      <g>
       <use xlink:href="#m32def8742e" x="64.350284" y="244.078125" style="stroke: #000000; stroke-width: 0.8"/>
      </g>
     </g>
     <g id="text_1">
      <!-- 0.0 -->
      <g transform="translate(56.398722 258.676562) scale(0.1 -0.1)">
       <defs>
        <path id="DejaVuSans-30" d="M 2034 4250 
Q 1547 4250 1301 3770 
Q 1056 3291 1056 2328 
Q 1056 1369 1301 889 
Q 1547 409 2034 409 
Q 2525 409 2770 889 
Q 3016 1369 3016 2328 
Q 3016 3291 2770 3770 
Q 2525 4250 2034 4250 
z
M 2034 4750 
Q 2819 4750 3233 4129 
Q 3647 3509 3647 2328 
Q 3647 1150 3233 529 
Q 2819 -91 2034 -91 
Q 1250 -91 836 529 
Q 422 1150 422 2328 
Q 422 3509 836 4129 
Q 1250 4750 2034 4750 
z
" transform="scale(0.015625)"/>
        <path id="DejaVuSans-2e" d="M 684 794 
L 1344 794 
L 1344 0 
L 684 0 
L 684 794 
z
" transform="scale(0.015625)"/>
       </defs>
       <use xlink:href="#DejaVuSans-30"/>
       <use xlink:href="#DejaVuSans-2e" x="63.623047"/>
       <use xlink:href="#DejaVuSans-30" x="95.410156"/>
      </g>
     </g>
    </g>
    <g id="xtick_2">
     <g id="line2d_2">
      <g>
       <use xlink:href="#m32def8742e" x="115.589955" y="244.078125" style="stroke: #000000; stroke-width: 0.8"/>
      </g>
     </g>
     <g id="text_2">
      <!-- 0.5 -->
      <g transform="translate(107.638392 258.676562) scale(0.1 -0.1)">
       <defs>
        <path id="DejaVuSans-35" d="M 691 4666 
L 3169 4666 
L 3169 4134 
L 1269 4134 
L 1269 2991 
Q 1406 3038 1543 3061 
Q 1681 3084 1819 3084 
Q 2600 3084 3056 2656 
Q 3513 2228 3513 1497 
Q 3513 744 3044 326 
Q 2575 -91 1722 -91 
Q 1428 -91 1123 -41 
Q 819 9 494 109 
L 494 744 
Q 775 591 1075 516 
Q 1375 441 1709 441 
Q 2250 441 2565 725 
Q 2881 1009 2881 1497 
Q 2881 1984 2565 2268 
Q 2250 2553 1709 2553 
Q 1456 2553 1204 2497 
Q 953 2441 691 2322 
L 691 4666 
z
" transform="scale(0.015625)"/>
       </defs>
       <use xlink:href="#DejaVuSans-30"/>
       <use xlink:href="#DejaVuSans-2e" x="63.623047"/>
       <use xlink:href="#DejaVuSans-35" x="95.410156"/>
      </g>
     </g>
    </g>
    <g id="xtick_3">
     <g id="line2d_3">
      <g>
       <use xlink:href="#m32def8742e" x="166.829625" y="244.078125" style="stroke: #000000; stroke-width: 0.8"/>
      </g>
     </g>
     <g id="text_3">
      <!-- 1.0 -->
      <g transform="translate(158.878063 258.676562) scale(0.1 -0.1)">
       <defs>
        <path id="DejaVuSans-31" d="M 794 531 
L 1825 531 
L 1825 4091 
L 703 3866 
L 703 4441 
L 1819 4666 
L 2450 4666 
L 2450 531 
L 3481 531 
L 3481 0 
L 794 0 
L 794 531 
z
" transform="scale(0.015625)"/>
       </defs>
       <use xlink:href="#DejaVuSans-31"/>
       <use xlink:href="#DejaVuSans-2e" x="63.623047"/>
       <use xlink:href="#DejaVuSans-30" x="95.410156"/>
      </g>
     </g>
    </g>
    <g id="xtick_4">
     <g id="line2d_4">
      <g>
       <use xlink:href="#m32def8742e" x="218.069296" y="244.078125" style="stroke: #000000; stroke-width: 0.8"/>
      </g>
     </g>
     <g id="text_4">
      <!-- 1.5 -->
      <g transform="translate(210.117733 258.676562) scale(0.1 -0.1)">
       <use xlink:href="#DejaVuSans-31"/>
       <use xlink:href="#DejaVuSans-2e" x="63.623047"/>
       <use xlink:href="#DejaVuSans-35" x="95.410156"/>
      </g>
     </g>
    </g>
    <g id="xtick_5">
     <g id="line2d_5">
      <g>
       <use xlink:href="#m32def8742e" x="269.308966" y="244.078125" style="stroke: #000000; stroke-width: 0.8"/>
      </g>
     </g>
     <g id="text_5">
      <!-- 2.0 -->
      <g transform="translate(261.357404 258.676562) scale(0.1 -0.1)">
       <defs>
        <path id="DejaVuSans-32" d="M 1228 531 
L 3431 531 
L 3431 0 
L 469 0 
L 469 531 
Q 828 903 1448 1529 
Q 2069 2156 2228 2338 
Q 2531 2678 2651 2914 
Q 2772 3150 2772 3378 
Q 2772 3750 2511 3984 
Q 2250 4219 1831 4219 
Q 1534 4219 1204 4116 
Q 875 4013 500 3803 
L 500 4441 
Q 881 4594 1212 4672 
Q 1544 4750 1819 4750 
Q 2544 4750 2975 4387 
Q 3406 4025 3406 3419 
Q 3406 3131 3298 2873 
Q 3191 2616 2906 2266 
Q 2828 2175 2409 1742 
Q 1991 1309 1228 531 
z
" transform="scale(0.015625)"/>
       </defs>
       <use xlink:href="#DejaVuSans-32"/>
       <use xlink:href="#DejaVuSans-2e" x="63.623047"/>
       <use xlink:href="#DejaVuSans-30" x="95.410156"/>
      </g>
     </g>
    </g>
    <g id="xtick_6">
     <g id="line2d_6">
      <g>
       <use xlink:href="#m32def8742e" x="320.548637" y="244.078125" style="stroke: #000000; stroke-width: 0.8"/>
      </g>
     </g>
     <g id="text_6">
      <!-- 2.5 -->
      <g transform="translate(312.597074 258.676562) scale(0.1 -0.1)">
       <use xlink:href="#DejaVuSans-32"/>
       <use xlink:href="#DejaVuSans-2e" x="63.623047"/>
       <use xlink:href="#DejaVuSans-35" x="95.410156"/>
      </g>
     </g>
    </g>
    <g id="xtick_7">
     <g id="line2d_7">
      <g>
       <use xlink:href="#m32def8742e" x="371.788307" y="244.078125" style="stroke: #000000; stroke-width: 0.8"/>
      </g>
     </g>
     <g id="text_7">
      <!-- 3.0 -->
      <g transform="translate(363.836745 258.676562) scale(0.1 -0.1)">
       <defs>
        <path id="DejaVuSans-33" d="M 2597 2516 
Q 3050 2419 3304 2112 
Q 3559 1806 3559 1356 
Q 3559 666 3084 287 
Q 2609 -91 1734 -91 
Q 1441 -91 1130 -33 
Q 819 25 488 141 
L 488 750 
Q 750 597 1062 519 
Q 1375 441 1716 441 
Q 2309 441 2620 675 
Q 2931 909 2931 1356 
Q 2931 1769 2642 2001 
Q 2353 2234 1838 2234 
L 1294 2234 
L 1294 2753 
L 1863 2753 
Q 2328 2753 2575 2939 
Q 2822 3125 2822 3475 
Q 2822 3834 2567 4026 
Q 2313 4219 1838 4219 
Q 1578 4219 1281 4162 
Q 984 4106 628 3988 
L 628 4550 
Q 988 4650 1302 4700 
Q 1616 4750 1894 4750 
Q 2613 4750 3031 4423 
Q 3450 4097 3450 3541 
Q 3450 3153 3228 2886 
Q 3006 2619 2597 2516 
z
" transform="scale(0.015625)"/>
       </defs>
       <use xlink:href="#DejaVuSans-33"/>
       <use xlink:href="#DejaVuSans-2e" x="63.623047"/>
       <use xlink:href="#DejaVuSans-30" x="95.410156"/>
      </g>
     </g>
    </g>
    <g id="xtick_8">
     <g id="line2d_8">
      <g>
       <use xlink:href="#m32def8742e" x="423.027978" y="244.078125" style="stroke: #000000; stroke-width: 0.8"/>
      </g>
     </g>
     <g id="text_8">
      <!-- 3.5 -->
      <g transform="translate(415.076416 258.676562) scale(0.1 -0.1)">
       <use xlink:href="#DejaVuSans-33"/>
       <use xlink:href="#DejaVuSans-2e" x="63.623047"/>
       <use xlink:href="#DejaVuSans-35" x="95.410156"/>
      </g>
     </g>
    </g>
    <g id="xtick_9">
     <g id="line2d_9">
      <g>
       <use xlink:href="#m32def8742e" x="474.267649" y="244.078125" style="stroke: #000000; stroke-width: 0.8"/>
      </g>
     </g>
     <g id="text_9">
      <!-- 4.0 -->
      <g transform="translate(466.316086 258.676562) scale(0.1 -0.1)">
       <defs>
        <path id="DejaVuSans-34" d="M 2419 4116 
L 825 1625 
L 2419 1625 
L 2419 4116 
z
M 2253 4666 
L 3047 4666 
L 3047 1625 
L 3713 1625 
L 3713 1100 
L 3047 1100 
L 3047 0 
L 2419 0 
L 2419 1100 
L 313 1100 
L 313 1709 
L 2253 4666 
z
" transform="scale(0.015625)"/>
       </defs>
       <use xlink:href="#DejaVuSans-34"/>
       <use xlink:href="#DejaVuSans-2e" x="63.623047"/>
       <use xlink:href="#DejaVuSans-30" x="95.410156"/>
      </g>
     </g>
    </g>
    <g id="text_10">
     <!-- time(s) -->
     <g transform="translate(249.457031 272.354687) scale(0.1 -0.1)">
      <defs>
       <path id="DejaVuSans-74" d="M 1172 4494 
L 1172 3500 
L 2356 3500 
L 2356 3053 
L 1172 3053 
L 1172 1153 
Q 1172 725 1289 603 
Q 1406 481 1766 481 
L 2356 481 
L 2356 0 
L 1766 0 
Q 1100 0 847 248 
Q 594 497 594 1153 
L 594 3053 
L 172 3053 
L 172 3500 
L 594 3500 
L 594 4494 
L 1172 4494 
z
" transform="scale(0.015625)"/>
       <path id="DejaVuSans-69" d="M 603 3500 
L 1178 3500 
L 1178 0 
L 603 0 
L 603 3500 
z
M 603 4863 
L 1178 4863 
L 1178 4134 
L 603 4134 
L 603 4863 
z
" transform="scale(0.015625)"/>
       <path id="DejaVuSans-6d" d="M 3328 2828 
Q 3544 3216 3844 3400 
Q 4144 3584 4550 3584 
Q 5097 3584 5394 3201 
Q 5691 2819 5691 2113 
L 5691 0 
L 5113 0 
L 5113 2094 
Q 5113 2597 4934 2840 
Q 4756 3084 4391 3084 
Q 3944 3084 3684 2787 
Q 3425 2491 3425 1978 
L 3425 0 
L 2847 0 
L 2847 2094 
Q 2847 2600 2669 2842 
Q 2491 3084 2119 3084 
Q 1678 3084 1418 2786 
Q 1159 2488 1159 1978 
L 1159 0 
L 581 0 
L 581 3500 
L 1159 3500 
L 1159 2956 
Q 1356 3278 1631 3431 
Q 1906 3584 2284 3584 
Q 2666 3584 2933 3390 
Q 3200 3197 3328 2828 
z
" transform="scale(0.015625)"/>
       <path id="DejaVuSans-65" d="M 3597 1894 
L 3597 1613 
L 953 1613 
Q 991 1019 1311 708 
Q 1631 397 2203 397 
Q 2534 397 2845 478 
Q 3156 559 3463 722 
L 3463 178 
Q 3153 47 2828 -22 
Q 2503 -91 2169 -91 
Q 1331 -91 842 396 
Q 353 884 353 1716 
Q 353 2575 817 3079 
Q 1281 3584 2069 3584 
Q 2775 3584 3186 3129 
Q 3597 2675 3597 1894 
z
M 3022 2063 
Q 3016 2534 2758 2815 
Q 2500 3097 2075 3097 
Q 1594 3097 1305 2825 
Q 1016 2553 972 2059 
L 3022 2063 
z
" transform="scale(0.015625)"/>
       <path id="DejaVuSans-28" d="M 1984 4856 
Q 1566 4138 1362 3434 
Q 1159 2731 1159 2009 
Q 1159 1288 1364 580 
Q 1569 -128 1984 -844 
L 1484 -844 
Q 1016 -109 783 600 
Q 550 1309 550 2009 
Q 550 2706 781 3412 
Q 1013 4119 1484 4856 
L 1984 4856 
z
" transform="scale(0.015625)"/>
       <path id="DejaVuSans-73" d="M 2834 3397 
L 2834 2853 
Q 2591 2978 2328 3040 
Q 2066 3103 1784 3103 
Q 1356 3103 1142 2972 
Q 928 2841 928 2578 
Q 928 2378 1081 2264 
Q 1234 2150 1697 2047 
L 1894 2003 
Q 2506 1872 2764 1633 
Q 3022 1394 3022 966 
Q 3022 478 2636 193 
Q 2250 -91 1575 -91 
Q 1294 -91 989 -36 
Q 684 19 347 128 
L 347 722 
Q 666 556 975 473 
Q 1284 391 1588 391 
Q 1994 391 2212 530 
Q 2431 669 2431 922 
Q 2431 1156 2273 1281 
Q 2116 1406 1581 1522 
L 1381 1569 
Q 847 1681 609 1914 
Q 372 2147 372 2553 
Q 372 3047 722 3315 
Q 1072 3584 1716 3584 
Q 2034 3584 2315 3537 
Q 2597 3491 2834 3397 
z
" transform="scale(0.015625)"/>
       <path id="DejaVuSans-29" d="M 513 4856 
L 1013 4856 
Q 1481 4119 1714 3412 
Q 1947 2706 1947 2009 
Q 1947 1309 1714 600 
Q 1481 -109 1013 -844 
L 513 -844 
Q 928 -128 1133 580 
Q 1338 1288 1338 2009 
Q 1338 2731 1133 3434 
Q 928 4138 513 4856 
z
" transform="scale(0.015625)"/>
      </defs>
      <use xlink:href="#DejaVuSans-74"/>
      <use xlink:href="#DejaVuSans-69" x="39.208984"/>
      <use xlink:href="#DejaVuSans-6d" x="66.992188"/>
      <use xlink:href="#DejaVuSans-65" x="164.404297"/>
      <use xlink:href="#DejaVuSans-28" x="225.927734"/>
      <use xlink:href="#DejaVuSans-73" x="264.941406"/>
      <use xlink:href="#DejaVuSans-29" x="317.041016"/>
     </g>
    </g>
   </g>
   <g id="matplotlib.axis_2">
    <g id="ytick_1">
     <g id="line2d_10">
      <defs>
       <path id="m1f8aee52ab" d="M 0 0 
L -3.5 0 
" style="stroke: #000000; stroke-width: 0.8"/>
      </defs>
      <g>
       <use xlink:href="#m1f8aee52ab" x="44.059375" y="206.768087" style="stroke: #000000; stroke-width: 0.8"/>
      </g>
     </g>
     <g id="text_11">
      <!-- 7.9 -->
      <g transform="translate(21.15625 210.567305) scale(0.1 -0.1)">
       <defs>
        <path id="DejaVuSans-37" d="M 525 4666 
L 3525 4666 
L 3525 4397 
L 1831 0 
L 1172 0 
L 2766 4134 
L 525 4134 
L 525 4666 
z
" transform="scale(0.015625)"/>
        <path id="DejaVuSans-39" d="M 703 97 
L 703 672 
Q 941 559 1184 500 
Q 1428 441 1663 441 
Q 2288 441 2617 861 
Q 2947 1281 2994 2138 
Q 2813 1869 2534 1725 
Q 2256 1581 1919 1581 
Q 1219 1581 811 2004 
Q 403 2428 403 3163 
Q 403 3881 828 4315 
Q 1253 4750 1959 4750 
Q 2769 4750 3195 4129 
Q 3622 3509 3622 2328 
Q 3622 1225 3098 567 
Q 2575 -91 1691 -91 
Q 1453 -91 1209 -44 
Q 966 3 703 97 
z
M 1959 2075 
Q 2384 2075 2632 2365 
Q 2881 2656 2881 3163 
Q 2881 3666 2632 3958 
Q 2384 4250 1959 4250 
Q 1534 4250 1286 3958 
Q 1038 3666 1038 3163 
Q 1038 2656 1286 2365 
Q 1534 2075 1959 2075 
z
" transform="scale(0.015625)"/>
       </defs>
       <use xlink:href="#DejaVuSans-37"/>
       <use xlink:href="#DejaVuSans-2e" x="63.623047"/>
       <use xlink:href="#DejaVuSans-39" x="95.410156"/>
      </g>
     </g>
    </g>
    <g id="ytick_2">
     <g id="line2d_11">
      <g>
       <use xlink:href="#m1f8aee52ab" x="44.059375" y="162.572797" style="stroke: #000000; stroke-width: 0.8"/>
      </g>
     </g>
     <g id="text_12">
      <!-- 8.0 -->
      <g transform="translate(21.15625 166.372015) scale(0.1 -0.1)">
       <defs>
        <path id="DejaVuSans-38" d="M 2034 2216 
Q 1584 2216 1326 1975 
Q 1069 1734 1069 1313 
Q 1069 891 1326 650 
Q 1584 409 2034 409 
Q 2484 409 2743 651 
Q 3003 894 3003 1313 
Q 3003 1734 2745 1975 
Q 2488 2216 2034 2216 
z
M 1403 2484 
Q 997 2584 770 2862 
Q 544 3141 544 3541 
Q 544 4100 942 4425 
Q 1341 4750 2034 4750 
Q 2731 4750 3128 4425 
Q 3525 4100 3525 3541 
Q 3525 3141 3298 2862 
Q 3072 2584 2669 2484 
Q 3125 2378 3379 2068 
Q 3634 1759 3634 1313 
Q 3634 634 3220 271 
Q 2806 -91 2034 -91 
Q 1263 -91 848 271 
Q 434 634 434 1313 
Q 434 1759 690 2068 
Q 947 2378 1403 2484 
z
M 1172 3481 
Q 1172 3119 1398 2916 
Q 1625 2713 2034 2713 
Q 2441 2713 2670 2916 
Q 2900 3119 2900 3481 
Q 2900 3844 2670 4047 
Q 2441 4250 2034 4250 
Q 1625 4250 1398 4047 
Q 1172 3844 1172 3481 
z
" transform="scale(0.015625)"/>
       </defs>
       <use xlink:href="#DejaVuSans-38"/>
       <use xlink:href="#DejaVuSans-2e" x="63.623047"/>
       <use xlink:href="#DejaVuSans-30" x="95.410156"/>
      </g>
     </g>
    </g>
    <g id="ytick_3">
     <g id="line2d_12">
      <g>
       <use xlink:href="#m1f8aee52ab" x="44.059375" y="118.377507" style="stroke: #000000; stroke-width: 0.8"/>
      </g>
     </g>
     <g id="text_13">
      <!-- 8.1 -->
      <g transform="translate(21.15625 122.176726) scale(0.1 -0.1)">
       <use xlink:href="#DejaVuSans-38"/>
       <use xlink:href="#DejaVuSans-2e" x="63.623047"/>
       <use xlink:href="#DejaVuSans-31" x="95.410156"/>
      </g>
     </g>
    </g>
    <g id="ytick_4">
     <g id="line2d_13">
      <g>
       <use xlink:href="#m1f8aee52ab" x="44.059375" y="74.182217" style="stroke: #000000; stroke-width: 0.8"/>
      </g>
     </g>
     <g id="text_14">
      <!-- 8.2 -->
      <g transform="translate(21.15625 77.981436) scale(0.1 -0.1)">
       <use xlink:href="#DejaVuSans-38"/>
       <use xlink:href="#DejaVuSans-2e" x="63.623047"/>
       <use xlink:href="#DejaVuSans-32" x="95.410156"/>
      </g>
     </g>
    </g>
    <g id="ytick_5">
     <g id="line2d_14">
      <g>
       <use xlink:href="#m1f8aee52ab" x="44.059375" y="29.986927" style="stroke: #000000; stroke-width: 0.8"/>
      </g>
     </g>
     <g id="text_15">
      <!-- 8.3 -->
      <g transform="translate(21.15625 33.786146) scale(0.1 -0.1)">
       <use xlink:href="#DejaVuSans-38"/>
       <use xlink:href="#DejaVuSans-2e" x="63.623047"/>
       <use xlink:href="#DejaVuSans-33" x="95.410156"/>
      </g>
     </g>
    </g>
    <g id="text_16">
     <!-- y_position[m] -->
     <g transform="translate(14.798438 167.234062) rotate(-90) scale(0.1 -0.1)">
      <defs>
       <path id="DejaVuSans-79" d="M 2059 -325 
Q 1816 -950 1584 -1140 
Q 1353 -1331 966 -1331 
L 506 -1331 
L 506 -850 
L 844 -850 
Q 1081 -850 1212 -737 
Q 1344 -625 1503 -206 
L 1606 56 
L 191 3500 
L 800 3500 
L 1894 763 
L 2988 3500 
L 3597 3500 
L 2059 -325 
z
" transform="scale(0.015625)"/>
       <path id="DejaVuSans-5f" d="M 3263 -1063 
L 3263 -1509 
L -63 -1509 
L -63 -1063 
L 3263 -1063 
z
" transform="scale(0.015625)"/>
       <path id="DejaVuSans-70" d="M 1159 525 
L 1159 -1331 
L 581 -1331 
L 581 3500 
L 1159 3500 
L 1159 2969 
Q 1341 3281 1617 3432 
Q 1894 3584 2278 3584 
Q 2916 3584 3314 3078 
Q 3713 2572 3713 1747 
Q 3713 922 3314 415 
Q 2916 -91 2278 -91 
Q 1894 -91 1617 61 
Q 1341 213 1159 525 
z
M 3116 1747 
Q 3116 2381 2855 2742 
Q 2594 3103 2138 3103 
Q 1681 3103 1420 2742 
Q 1159 2381 1159 1747 
Q 1159 1113 1420 752 
Q 1681 391 2138 391 
Q 2594 391 2855 752 
Q 3116 1113 3116 1747 
z
" transform="scale(0.015625)"/>
       <path id="DejaVuSans-6f" d="M 1959 3097 
Q 1497 3097 1228 2736 
Q 959 2375 959 1747 
Q 959 1119 1226 758 
Q 1494 397 1959 397 
Q 2419 397 2687 759 
Q 2956 1122 2956 1747 
Q 2956 2369 2687 2733 
Q 2419 3097 1959 3097 
z
M 1959 3584 
Q 2709 3584 3137 3096 
Q 3566 2609 3566 1747 
Q 3566 888 3137 398 
Q 2709 -91 1959 -91 
Q 1206 -91 779 398 
Q 353 888 353 1747 
Q 353 2609 779 3096 
Q 1206 3584 1959 3584 
z
" transform="scale(0.015625)"/>
       <path id="DejaVuSans-6e" d="M 3513 2113 
L 3513 0 
L 2938 0 
L 2938 2094 
Q 2938 2591 2744 2837 
Q 2550 3084 2163 3084 
Q 1697 3084 1428 2787 
Q 1159 2491 1159 1978 
L 1159 0 
L 581 0 
L 581 3500 
L 1159 3500 
L 1159 2956 
Q 1366 3272 1645 3428 
Q 1925 3584 2291 3584 
Q 2894 3584 3203 3211 
Q 3513 2838 3513 2113 
z
" transform="scale(0.015625)"/>
       <path id="DejaVuSans-5b" d="M 550 4863 
L 1875 4863 
L 1875 4416 
L 1125 4416 
L 1125 -397 
L 1875 -397 
L 1875 -844 
L 550 -844 
L 550 4863 
z
" transform="scale(0.015625)"/>
       <path id="DejaVuSans-5d" d="M 1947 4863 
L 1947 -844 
L 622 -844 
L 622 -397 
L 1369 -397 
L 1369 4416 
L 622 4416 
L 622 4863 
L 1947 4863 
z
" transform="scale(0.015625)"/>
      </defs>
      <use xlink:href="#DejaVuSans-79"/>
      <use xlink:href="#DejaVuSans-5f" x="59.179688"/>
      <use xlink:href="#DejaVuSans-70" x="109.179688"/>
      <use xlink:href="#DejaVuSans-6f" x="172.65625"/>
      <use xlink:href="#DejaVuSans-73" x="233.837891"/>
      <use xlink:href="#DejaVuSans-69" x="285.9375"/>
      <use xlink:href="#DejaVuSans-74" x="313.720703"/>
      <use xlink:href="#DejaVuSans-69" x="352.929688"/>
      <use xlink:href="#DejaVuSans-6f" x="380.712891"/>
      <use xlink:href="#DejaVuSans-6e" x="441.894531"/>
      <use xlink:href="#DejaVuSans-5b" x="505.273438"/>
      <use xlink:href="#DejaVuSans-6d" x="544.287109"/>
      <use xlink:href="#DejaVuSans-5d" x="641.699219"/>
     </g>
    </g>
   </g>
   <g id="line2d_15">
    <path d="M 64.350284 76.344068 
L 68.470266 73.826151 
L 70.530256 71.912636 
L 72.590247 70.209861 
L 74.650238 69.05838 
L 76.710229 68.440491 
L 80.83021 68.357038 
L 82.890201 68.532795 
L 87.010183 69.225707 
L 91.130164 70.213654 
L 93.190155 70.908673 
L 97.310136 72.685629 
L 101.430118 74.565004 
L 107.61009 77.280173 
L 109.670081 78.425332 
L 111.730072 79.798089 
L 113.790063 81.551021 
L 115.850053 84.022575 
L 117.910044 87.662047 
L 119.970035 90.590484 
L 122.030026 92.303375 
L 124.090016 93.69257 
L 126.150007 95.753603 
L 128.209998 98.977918 
L 130.269989 102.584937 
L 134.38997 109.289405 
L 136.449961 112.246924 
L 138.509952 114.495094 
L 140.569943 116.152771 
L 142.629933 117.515413 
L 146.749915 119.881176 
L 152.929887 123.259331 
L 154.989878 124.04539 
L 157.049869 124.620287 
L 159.10986 125.400445 
L 161.16985 126.696072 
L 163.229841 128.350799 
L 167.349823 132.136946 
L 169.409813 134.290704 
L 173.529795 139.39861 
L 177.649776 145.115553 
L 179.709767 148.368107 
L 181.769758 152.07333 
L 183.829749 156.48706 
L 185.88974 161.821721 
L 187.94973 166.012909 
L 192.069712 172.23647 
L 194.129703 176.219869 
L 196.189693 181.6285 
L 198.249684 187.836466 
L 200.309675 193.441928 
L 202.369666 198.106648 
L 206.489647 205.934359 
L 210.609629 213.86491 
L 212.66962 217.864747 
L 214.72961 221.516231 
L 216.789601 224.669106 
L 218.849592 227.313045 
L 220.909583 229.447204 
L 222.969573 231.150401 
L 225.029564 232.473635 
L 227.089555 233.408265 
L 229.149546 233.918465 
L 231.209537 233.998125 
L 233.269527 233.750295 
L 235.329518 233.27297 
L 239.4495 232.01064 
L 243.569481 230.44906 
L 245.629472 229.467435 
L 247.689463 228.316586 
L 249.749453 226.933924 
L 251.809444 225.192794 
L 253.869435 222.870865 
L 255.929426 219.645075 
L 257.989417 215.273915 
L 260.049407 209.855168 
L 264.169389 198.122243 
L 266.22938 192.68158 
L 268.28937 188.3218 
L 270.349361 185.320236 
L 274.469343 181.198802 
L 276.529333 177.960367 
L 278.589324 174.438699 
L 280.649315 171.564211 
L 282.709306 169.706542 
L 284.769297 168.895194 
L 286.829287 169.046716 
L 288.889278 169.999259 
L 290.949269 171.691708 
L 293.00926 174.732048 
L 295.06925 178.112732 
L 297.129241 180.696399 
L 301.249223 184.494769 
L 303.309213 187.032706 
L 305.369204 190.643307 
L 309.489186 199.609221 
L 311.549177 203.606951 
L 313.609167 207.012292 
L 315.669158 209.93841 
L 317.729149 212.560432 
L 319.78914 214.926616 
L 321.84913 217.043706 
L 323.909121 218.829302 
L 325.969112 220.311644 
L 328.029103 221.462071 
L 330.089094 222.243283 
L 332.149084 222.724401 
L 336.269066 223.213106 
L 342.449038 223.660928 
L 344.509029 223.606136 
L 346.56902 223.235023 
L 348.62901 222.321046 
L 350.689001 220.722375 
L 354.808983 216.572913 
L 356.868974 214.793639 
L 358.928964 213.508128 
L 365.108937 210.72763 
L 367.168927 209.233908 
L 369.228918 208.47925 
L 371.288909 208.246804 
L 375.40889 208.41666 
L 381.588863 208.885766 
L 383.648854 209.932931 
L 385.708844 212.027261 
L 387.768835 213.669133 
L 391.888817 215.6857 
L 393.948807 217.748419 
L 396.008798 219.998696 
L 398.068789 221.296641 
L 400.12878 222.038233 
L 402.18877 222.605755 
L 408.368743 224.953183 
L 410.428734 225.19743 
L 412.488724 224.970253 
L 414.548715 224.349625 
L 416.608706 223.483064 
L 420.728687 221.408965 
L 422.788678 220.102169 
L 424.848669 218.37853 
L 426.90866 215.945963 
L 431.028641 210.050102 
L 433.088632 207.910885 
L 435.148623 206.493872 
L 437.208614 205.367891 
L 439.268604 204.005249 
L 441.328595 202.11365 
L 445.448577 197.297408 
L 447.508567 195.64795 
L 449.568558 195.024371 
L 453.68854 195.169993 
L 455.748531 194.813843 
L 457.808521 193.950443 
L 461.928503 191.716393 
L 466.048484 189.996968 
L 470.168466 188.32475 
L 470.168466 188.32475 
" clip-path="url(#p944f300687)" style="fill: none; stroke: #1f77b4; stroke-width: 1.5; stroke-linecap: square"/>
   </g>
   <g id="line2d_16">
    <path d="M 64.350284 76.204137 
L 66.410275 73.217957 
L 68.470266 68.101622 
L 70.530256 67.749687 
L 72.590247 69.779952 
L 74.650238 66.002656 
L 76.710229 64.624841 
L 78.770219 68.047251 
L 80.83021 70.465277 
L 82.890201 72.380478 
L 89.070173 64.919033 
L 91.130164 63.170316 
L 93.190155 61.786179 
L 95.250146 62.363184 
L 97.310136 64.489546 
L 99.370127 69.714201 
L 101.430118 76.781563 
L 103.490109 84.769436 
L 105.5501 83.087312 
L 107.61009 79.93212 
L 111.730072 67.58826 
L 113.790063 61.274503 
L 119.970035 32.398125 
L 122.030026 36.601958 
L 124.090016 47.661992 
L 126.150007 63.880087 
L 128.209998 81.526575 
L 130.269989 102.028584 
L 132.32998 112.791475 
L 134.38997 118.685018 
L 136.449961 121.799749 
L 138.509952 121.67752 
L 140.569943 115.08095 
L 142.629933 110.667642 
L 144.689924 107.345544 
L 146.749915 123.306115 
L 148.809906 135.924357 
L 150.869896 141.856255 
L 152.929887 146.945194 
L 154.989878 151.611389 
L 157.049869 152.619567 
L 159.10986 151.640893 
L 161.16985 146.688091 
L 163.229841 137.817642 
L 165.289832 126.987314 
L 167.349823 134.227482 
L 169.409813 140.765467 
L 171.469804 145.899925 
L 173.529795 150.301853 
L 175.589786 154.337095 
L 177.649776 162.153846 
L 179.709767 167.123085 
L 181.769758 166.398563 
L 183.829749 162.698819 
L 185.88974 157.511675 
L 187.94973 159.211922 
L 190.009721 158.941333 
L 192.069712 154.729913 
L 194.129703 151.059673 
L 196.189693 147.659179 
L 198.249684 142.886771 
L 200.309675 140.969041 
L 202.369666 144.759403 
L 204.429656 146.906418 
L 206.489647 148.231548 
L 208.549638 148.539649 
L 210.609629 151.576828 
L 212.66962 160.072161 
L 214.72961 153.291826 
L 216.789601 138.873868 
L 218.849592 145.070454 
L 220.909583 147.422729 
L 222.969573 142.086382 
L 225.029564 137.932705 
L 227.089555 134.370364 
L 229.149546 134.039924 
L 231.209537 130.606555 
L 233.269527 120.967328 
L 235.329518 112.391913 
L 237.389509 104.347984 
L 239.4495 99.69359 
L 241.50949 98.216727 
L 243.569481 103.095348 
L 245.629472 101.746615 
L 247.689463 97.283151 
L 249.749453 100.025294 
L 251.809444 104.887056 
L 253.869435 113.986369 
L 255.929426 121.463408 
L 257.989417 128.128679 
L 262.109398 153.835956 
L 264.169389 167.900504 
L 266.22938 171.924154 
L 268.28937 170.926935 
L 270.349361 170.805759 
L 272.409352 171.437135 
L 274.469343 173.573613 
L 276.529333 173.572559 
L 278.589324 172.502845 
L 280.649315 166.842802 
L 282.709306 164.034276 
L 284.769297 166.928994 
L 286.829287 168.912897 
L 288.889278 170.440969 
L 290.949269 164.430677 
L 293.00926 161.213105 
L 295.06925 163.580764 
L 297.129241 158.80098 
L 299.189232 150.447685 
L 301.249223 139.973086 
L 303.309213 135.343138 
L 305.369204 142.403335 
L 307.429195 150.412702 
L 309.489186 158.896656 
L 311.549177 164.87323 
L 313.609167 173.867594 
L 315.669158 188.897119 
L 317.729149 197.871042 
L 319.78914 203.817058 
L 321.84913 204.829451 
L 323.909121 205.310991 
L 325.969112 204.730614 
L 328.029103 199.063617 
L 330.089094 190.85215 
L 332.149084 181.519759 
L 334.209075 173.393009 
L 336.269066 167.67712 
L 338.329057 168.667596 
L 340.389047 173.011149 
L 342.449038 175.464368 
L 344.509029 179.644809 
L 346.56902 187.279693 
L 348.62901 191.795209 
L 350.689001 194.750199 
L 352.748992 194.1576 
L 354.808983 194.202276 
L 356.868974 195.521085 
L 358.928964 195.694313 
L 360.988955 195.29475 
L 363.048946 192.893794 
L 365.108937 192.076125 
L 367.168927 194.424607 
L 369.228918 194.539881 
L 371.288909 193.538025 
L 375.40889 185.421391 
L 377.468881 181.149911 
L 379.528872 167.346469 
L 381.588863 148.77652 
L 383.648854 141.769851 
L 385.708844 135.82531 
L 387.768835 132.004601 
L 389.828826 132.44589 
L 391.888817 135.018177 
L 393.948807 149.013813 
L 396.008798 159.032794 
L 398.068789 161.095934 
L 400.12878 159.806208 
L 402.18877 156.839838 
L 404.248761 141.273349 
L 406.308752 129.148659 
L 408.368743 123.908409 
L 410.428734 116.758858 
L 412.488724 108.653815 
L 414.548715 111.156558 
L 416.608706 118.212118 
L 418.668697 134.372471 
L 420.728687 142.067416 
L 422.788678 145.529024 
L 424.848669 145.454 
L 426.90866 142.700477 
L 428.96865 134.589954 
L 431.028641 122.254525 
L 433.088632 107.806642 
L 435.148623 96.178876 
L 437.208614 88.645779 
L 439.268604 89.301179 
L 441.328595 90.851801 
L 443.388586 92.850455 
L 445.448577 103.921447 
L 447.508567 113.905445 
L 449.568558 121.713767 
L 451.628549 125.696745 
L 453.68854 127.76705 
L 455.748531 124.740409 
L 457.808521 121.371948 
L 459.868512 117.319426 
L 461.928503 111.191541 
L 463.988494 104.025553 
L 466.048484 112.335014 
L 468.108475 117.689484 
L 470.168466 117.13271 
L 470.168466 117.13271 
" clip-path="url(#p944f300687)" style="fill: none; stroke: #ff7f0e; stroke-width: 1.5; stroke-linecap: square"/>
   </g>
   <g id="patch_3">
    <path d="M 44.059375 244.078125 
L 44.059375 22.318125 
" style="fill: none; stroke: #000000; stroke-width: 0.8; stroke-linejoin: miter; stroke-linecap: square"/>
   </g>
   <g id="patch_4">
    <path d="M 490.459375 244.078125 
L 490.459375 22.318125 
" style="fill: none; stroke: #000000; stroke-width: 0.8; stroke-linejoin: miter; stroke-linecap: square"/>
   </g>
   <g id="patch_5">
    <path d="M 44.059375 244.078125 
L 490.459375 244.078125 
" style="fill: none; stroke: #000000; stroke-width: 0.8; stroke-linejoin: miter; stroke-linecap: square"/>
   </g>
   <g id="patch_6">
    <path d="M 44.059375 22.318125 
L 490.459375 22.318125 
" style="fill: none; stroke: #000000; stroke-width: 0.8; stroke-linejoin: miter; stroke-linecap: square"/>
   </g>
   <g id="text_17">
    <!-- y_position -->
    <g transform="translate(236.9425 16.318125) scale(0.12 -0.12)">
     <use xlink:href="#DejaVuSans-79"/>
     <use xlink:href="#DejaVuSans-5f" x="59.179688"/>
     <use xlink:href="#DejaVuSans-70" x="109.179688"/>
     <use xlink:href="#DejaVuSans-6f" x="172.65625"/>
     <use xlink:href="#DejaVuSans-73" x="233.837891"/>
     <use xlink:href="#DejaVuSans-69" x="285.9375"/>
     <use xlink:href="#DejaVuSans-74" x="313.720703"/>
     <use xlink:href="#DejaVuSans-69" x="352.929688"/>
     <use xlink:href="#DejaVuSans-6f" x="380.712891"/>
     <use xlink:href="#DejaVuSans-6e" x="441.894531"/>
    </g>
   </g>
   <g id="legend_1">
    <g id="patch_7">
     <path d="M 382.371875 60.230625 
L 483.459375 60.230625 
Q 485.459375 60.230625 485.459375 58.230625 
L 485.459375 29.318125 
Q 485.459375 27.318125 483.459375 27.318125 
L 382.371875 27.318125 
Q 380.371875 27.318125 380.371875 29.318125 
L 380.371875 58.230625 
Q 380.371875 60.230625 382.371875 60.230625 
z
" style="fill: #ffffff; opacity: 0.8; stroke: #cccccc; stroke-linejoin: miter"/>
    </g>
    <g id="line2d_17">
     <path d="M 384.371875 35.416562 
L 394.371875 35.416562 
L 404.371875 35.416562 
" style="fill: none; stroke: #1f77b4; stroke-width: 1.5; stroke-linecap: square"/>
    </g>
    <g id="text_18">
     <!-- y_position -->
     <g transform="translate(412.371875 38.916562) scale(0.1 -0.1)">
      <use xlink:href="#DejaVuSans-79"/>
      <use xlink:href="#DejaVuSans-5f" x="59.179688"/>
      <use xlink:href="#DejaVuSans-70" x="109.179688"/>
      <use xlink:href="#DejaVuSans-6f" x="172.65625"/>
      <use xlink:href="#DejaVuSans-73" x="233.837891"/>
      <use xlink:href="#DejaVuSans-69" x="285.9375"/>
      <use xlink:href="#DejaVuSans-74" x="313.720703"/>
      <use xlink:href="#DejaVuSans-69" x="352.929688"/>
      <use xlink:href="#DejaVuSans-6f" x="380.712891"/>
      <use xlink:href="#DejaVuSans-6e" x="441.894531"/>
     </g>
    </g>
    <g id="line2d_18">
     <path d="M 384.371875 50.372812 
L 394.371875 50.372812 
L 404.371875 50.372812 
" style="fill: none; stroke: #ff7f0e; stroke-width: 1.5; stroke-linecap: square"/>
    </g>
    <g id="text_19">
     <!-- y_position_ref -->
     <g transform="translate(412.371875 53.872812) scale(0.1 -0.1)">
      <defs>
       <path id="DejaVuSans-72" d="M 2631 2963 
Q 2534 3019 2420 3045 
Q 2306 3072 2169 3072 
Q 1681 3072 1420 2755 
Q 1159 2438 1159 1844 
L 1159 0 
L 581 0 
L 581 3500 
L 1159 3500 
L 1159 2956 
Q 1341 3275 1631 3429 
Q 1922 3584 2338 3584 
Q 2397 3584 2469 3576 
Q 2541 3569 2628 3553 
L 2631 2963 
z
" transform="scale(0.015625)"/>
       <path id="DejaVuSans-66" d="M 2375 4863 
L 2375 4384 
L 1825 4384 
Q 1516 4384 1395 4259 
Q 1275 4134 1275 3809 
L 1275 3500 
L 2222 3500 
L 2222 3053 
L 1275 3053 
L 1275 0 
L 697 0 
L 697 3053 
L 147 3053 
L 147 3500 
L 697 3500 
L 697 3744 
Q 697 4328 969 4595 
Q 1241 4863 1831 4863 
L 2375 4863 
z
" transform="scale(0.015625)"/>
      </defs>
      <use xlink:href="#DejaVuSans-79"/>
      <use xlink:href="#DejaVuSans-5f" x="59.179688"/>
      <use xlink:href="#DejaVuSans-70" x="109.179688"/>
      <use xlink:href="#DejaVuSans-6f" x="172.65625"/>
      <use xlink:href="#DejaVuSans-73" x="233.837891"/>
      <use xlink:href="#DejaVuSans-69" x="285.9375"/>
      <use xlink:href="#DejaVuSans-74" x="313.720703"/>
      <use xlink:href="#DejaVuSans-69" x="352.929688"/>
      <use xlink:href="#DejaVuSans-6f" x="380.712891"/>
      <use xlink:href="#DejaVuSans-6e" x="441.894531"/>
      <use xlink:href="#DejaVuSans-5f" x="505.273438"/>
      <use xlink:href="#DejaVuSans-72" x="555.273438"/>
      <use xlink:href="#DejaVuSans-65" x="594.136719"/>
      <use xlink:href="#DejaVuSans-66" x="655.660156"/>
     </g>
    </g>
   </g>
  </g>
 </g>
 <defs>
  <clipPath id="p944f300687">
   <rect x="44.059375" y="22.318125" width="446.4" height="221.76"/>
  </clipPath>
 </defs>
</svg>
