<?xml version="1.0" encoding="utf-8" standalone="no"?>
<!DOCTYPE svg PUBLIC "-//W3C//DTD SVG 1.1//EN"
  "http://www.w3.org/Graphics/SVG/1.1/DTD/svg11.dtd">
<svg xmlns:xlink="http://www.w3.org/1999/xlink" width="504.021875pt" height="281.634375pt" viewBox="0 0 504.021875 281.634375" xmlns="http://www.w3.org/2000/svg" version="1.1">
 <metadata>
  <rdf:RDF xmlns:dc="http://purl.org/dc/elements/1.1/" xmlns:cc="http://creativecommons.org/ns#" xmlns:rdf="http://www.w3.org/1999/02/22-rdf-syntax-ns#">
   <cc:Work>
    <dc:type rdf:resource="http://purl.org/dc/dcmitype/StillImage"/>
    <dc:date>2025-05-13T20:43:52.456270</dc:date>
    <dc:format>image/svg+xml</dc:format>
    <dc:creator>
     <cc:Agent>
      <dc:title>Matplotlib v3.6.3, https://matplotlib.org/</dc:title>
     </cc:Agent>
    </dc:creator>
   </cc:Work>
  </rdf:RDF>
 </metadata>
 <defs>
  <style type="text/css">*{stroke-linejoin: round; stroke-linecap: butt}</style>
 </defs>
 <g id="figure_1">
  <g id="patch_1">
   <path d="M 0 281.634375 
L 504.021875 281.634375 
L 504.021875 0 
L 0 0 
z
" style="fill: #ffffff"/>
  </g>
  <g id="axes_1">
   <g id="patch_2">
    <path d="M 50.421875 244.078125 
L 496.821875 244.078125 
L 496.821875 22.318125 
L 50.421875 22.318125 
z
" style="fill: #ffffff"/>
   </g>
   <g id="matplotlib.axis_1">
    <g id="xtick_1">
     <g id="line2d_1">
      <defs>
       <path id="m05fc3dfc1d" d="M 0 0 
L 0 3.5 
" style="stroke: #000000; stroke-width: 0.8"/>
      </defs>
      <g>
       <use xlink:href="#m05fc3dfc1d" x="70.712784" y="244.078125" style="stroke: #000000; stroke-width: 0.8"/>
      </g>
     </g>
     <g id="text_1">
      <!-- 0.0 -->
      <g transform="translate(62.761222 258.676562) scale(0.1 -0.1)">
       <defs>
        <path id="DejaVuSans-30" d="M 2034 4250 
Q 1547 4250 1301 3770 
Q 1056 3291 1056 2328 
Q 1056 1369 1301 889 
Q 1547 409 2034 409 
Q 2525 409 2770 889 
Q 3016 1369 3016 2328 
Q 3016 3291 2770 3770 
Q 2525 4250 2034 4250 
z
M 2034 4750 
Q 2819 4750 3233 4129 
Q 3647 3509 3647 2328 
Q 3647 1150 3233 529 
Q 2819 -91 2034 -91 
Q 1250 -91 836 529 
Q 422 1150 422 2328 
Q 422 3509 836 4129 
Q 1250 4750 2034 4750 
z
" transform="scale(0.015625)"/>
        <path id="DejaVuSans-2e" d="M 684 794 
L 1344 794 
L 1344 0 
L 684 0 
L 684 794 
z
" transform="scale(0.015625)"/>
       </defs>
       <use xlink:href="#DejaVuSans-30"/>
       <use xlink:href="#DejaVuSans-2e" x="63.623047"/>
       <use xlink:href="#DejaVuSans-30" x="95.410156"/>
      </g>
     </g>
    </g>
    <g id="xtick_2">
     <g id="line2d_2">
      <g>
       <use xlink:href="#m05fc3dfc1d" x="121.952455" y="244.078125" style="stroke: #000000; stroke-width: 0.8"/>
      </g>
     </g>
     <g id="text_2">
      <!-- 0.5 -->
      <g transform="translate(114.000892 258.676562) scale(0.1 -0.1)">
       <defs>
        <path id="DejaVuSans-35" d="M 691 4666 
L 3169 4666 
L 3169 4134 
L 1269 4134 
L 1269 2991 
Q 1406 3038 1543 3061 
Q 1681 3084 1819 3084 
Q 2600 3084 3056 2656 
Q 3513 2228 3513 1497 
Q 3513 744 3044 326 
Q 2575 -91 1722 -91 
Q 1428 -91 1123 -41 
Q 819 9 494 109 
L 494 744 
Q 775 591 1075 516 
Q 1375 441 1709 441 
Q 2250 441 2565 725 
Q 2881 1009 2881 1497 
Q 2881 1984 2565 2268 
Q 2250 2553 1709 2553 
Q 1456 2553 1204 2497 
Q 953 2441 691 2322 
L 691 4666 
z
" transform="scale(0.015625)"/>
       </defs>
       <use xlink:href="#DejaVuSans-30"/>
       <use xlink:href="#DejaVuSans-2e" x="63.623047"/>
       <use xlink:href="#DejaVuSans-35" x="95.410156"/>
      </g>
     </g>
    </g>
    <g id="xtick_3">
     <g id="line2d_3">
      <g>
       <use xlink:href="#m05fc3dfc1d" x="173.192125" y="244.078125" style="stroke: #000000; stroke-width: 0.8"/>
      </g>
     </g>
     <g id="text_3">
      <!-- 1.0 -->
      <g transform="translate(165.240563 258.676562) scale(0.1 -0.1)">
       <defs>
        <path id="DejaVuSans-31" d="M 794 531 
L 1825 531 
L 1825 4091 
L 703 3866 
L 703 4441 
L 1819 4666 
L 2450 4666 
L 2450 531 
L 3481 531 
L 3481 0 
L 794 0 
L 794 531 
z
" transform="scale(0.015625)"/>
       </defs>
       <use xlink:href="#DejaVuSans-31"/>
       <use xlink:href="#DejaVuSans-2e" x="63.623047"/>
       <use xlink:href="#DejaVuSans-30" x="95.410156"/>
      </g>
     </g>
    </g>
    <g id="xtick_4">
     <g id="line2d_4">
      <g>
       <use xlink:href="#m05fc3dfc1d" x="224.431796" y="244.078125" style="stroke: #000000; stroke-width: 0.8"/>
      </g>
     </g>
     <g id="text_4">
      <!-- 1.5 -->
      <g transform="translate(216.480233 258.676562) scale(0.1 -0.1)">
       <use xlink:href="#DejaVuSans-31"/>
       <use xlink:href="#DejaVuSans-2e" x="63.623047"/>
       <use xlink:href="#DejaVuSans-35" x="95.410156"/>
      </g>
     </g>
    </g>
    <g id="xtick_5">
     <g id="line2d_5">
      <g>
       <use xlink:href="#m05fc3dfc1d" x="275.671466" y="244.078125" style="stroke: #000000; stroke-width: 0.8"/>
      </g>
     </g>
     <g id="text_5">
      <!-- 2.0 -->
      <g transform="translate(267.719904 258.676562) scale(0.1 -0.1)">
       <defs>
        <path id="DejaVuSans-32" d="M 1228 531 
L 3431 531 
L 3431 0 
L 469 0 
L 469 531 
Q 828 903 1448 1529 
Q 2069 2156 2228 2338 
Q 2531 2678 2651 2914 
Q 2772 3150 2772 3378 
Q 2772 3750 2511 3984 
Q 2250 4219 1831 4219 
Q 1534 4219 1204 4116 
Q 875 4013 500 3803 
L 500 4441 
Q 881 4594 1212 4672 
Q 1544 4750 1819 4750 
Q 2544 4750 2975 4387 
Q 3406 4025 3406 3419 
Q 3406 3131 3298 2873 
Q 3191 2616 2906 2266 
Q 2828 2175 2409 1742 
Q 1991 1309 1228 531 
z
" transform="scale(0.015625)"/>
       </defs>
       <use xlink:href="#DejaVuSans-32"/>
       <use xlink:href="#DejaVuSans-2e" x="63.623047"/>
       <use xlink:href="#DejaVuSans-30" x="95.410156"/>
      </g>
     </g>
    </g>
    <g id="xtick_6">
     <g id="line2d_6">
      <g>
       <use xlink:href="#m05fc3dfc1d" x="326.911137" y="244.078125" style="stroke: #000000; stroke-width: 0.8"/>
      </g>
     </g>
     <g id="text_6">
      <!-- 2.5 -->
      <g transform="translate(318.959574 258.676562) scale(0.1 -0.1)">
       <use xlink:href="#DejaVuSans-32"/>
       <use xlink:href="#DejaVuSans-2e" x="63.623047"/>
       <use xlink:href="#DejaVuSans-35" x="95.410156"/>
      </g>
     </g>
    </g>
    <g id="xtick_7">
     <g id="line2d_7">
      <g>
       <use xlink:href="#m05fc3dfc1d" x="378.150807" y="244.078125" style="stroke: #000000; stroke-width: 0.8"/>
      </g>
     </g>
     <g id="text_7">
      <!-- 3.0 -->
      <g transform="translate(370.199245 258.676562) scale(0.1 -0.1)">
       <defs>
        <path id="DejaVuSans-33" d="M 2597 2516 
Q 3050 2419 3304 2112 
Q 3559 1806 3559 1356 
Q 3559 666 3084 287 
Q 2609 -91 1734 -91 
Q 1441 -91 1130 -33 
Q 819 25 488 141 
L 488 750 
Q 750 597 1062 519 
Q 1375 441 1716 441 
Q 2309 441 2620 675 
Q 2931 909 2931 1356 
Q 2931 1769 2642 2001 
Q 2353 2234 1838 2234 
L 1294 2234 
L 1294 2753 
L 1863 2753 
Q 2328 2753 2575 2939 
Q 2822 3125 2822 3475 
Q 2822 3834 2567 4026 
Q 2313 4219 1838 4219 
Q 1578 4219 1281 4162 
Q 984 4106 628 3988 
L 628 4550 
Q 988 4650 1302 4700 
Q 1616 4750 1894 4750 
Q 2613 4750 3031 4423 
Q 3450 4097 3450 3541 
Q 3450 3153 3228 2886 
Q 3006 2619 2597 2516 
z
" transform="scale(0.015625)"/>
       </defs>
       <use xlink:href="#DejaVuSans-33"/>
       <use xlink:href="#DejaVuSans-2e" x="63.623047"/>
       <use xlink:href="#DejaVuSans-30" x="95.410156"/>
      </g>
     </g>
    </g>
    <g id="xtick_8">
     <g id="line2d_8">
      <g>
       <use xlink:href="#m05fc3dfc1d" x="429.390478" y="244.078125" style="stroke: #000000; stroke-width: 0.8"/>
      </g>
     </g>
     <g id="text_8">
      <!-- 3.5 -->
      <g transform="translate(421.438916 258.676562) scale(0.1 -0.1)">
       <use xlink:href="#DejaVuSans-33"/>
       <use xlink:href="#DejaVuSans-2e" x="63.623047"/>
       <use xlink:href="#DejaVuSans-35" x="95.410156"/>
      </g>
     </g>
    </g>
    <g id="xtick_9">
     <g id="line2d_9">
      <g>
       <use xlink:href="#m05fc3dfc1d" x="480.630149" y="244.078125" style="stroke: #000000; stroke-width: 0.8"/>
      </g>
     </g>
     <g id="text_9">
      <!-- 4.0 -->
      <g transform="translate(472.678586 258.676562) scale(0.1 -0.1)">
       <defs>
        <path id="DejaVuSans-34" d="M 2419 4116 
L 825 1625 
L 2419 1625 
L 2419 4116 
z
M 2253 4666 
L 3047 4666 
L 3047 1625 
L 3713 1625 
L 3713 1100 
L 3047 1100 
L 3047 0 
L 2419 0 
L 2419 1100 
L 313 1100 
L 313 1709 
L 2253 4666 
z
" transform="scale(0.015625)"/>
       </defs>
       <use xlink:href="#DejaVuSans-34"/>
       <use xlink:href="#DejaVuSans-2e" x="63.623047"/>
       <use xlink:href="#DejaVuSans-30" x="95.410156"/>
      </g>
     </g>
    </g>
    <g id="text_10">
     <!-- time(s) -->
     <g transform="translate(255.819531 272.354687) scale(0.1 -0.1)">
      <defs>
       <path id="DejaVuSans-74" d="M 1172 4494 
L 1172 3500 
L 2356 3500 
L 2356 3053 
L 1172 3053 
L 1172 1153 
Q 1172 725 1289 603 
Q 1406 481 1766 481 
L 2356 481 
L 2356 0 
L 1766 0 
Q 1100 0 847 248 
Q 594 497 594 1153 
L 594 3053 
L 172 3053 
L 172 3500 
L 594 3500 
L 594 4494 
L 1172 4494 
z
" transform="scale(0.015625)"/>
       <path id="DejaVuSans-69" d="M 603 3500 
L 1178 3500 
L 1178 0 
L 603 0 
L 603 3500 
z
M 603 4863 
L 1178 4863 
L 1178 4134 
L 603 4134 
L 603 4863 
z
" transform="scale(0.015625)"/>
       <path id="DejaVuSans-6d" d="M 3328 2828 
Q 3544 3216 3844 3400 
Q 4144 3584 4550 3584 
Q 5097 3584 5394 3201 
Q 5691 2819 5691 2113 
L 5691 0 
L 5113 0 
L 5113 2094 
Q 5113 2597 4934 2840 
Q 4756 3084 4391 3084 
Q 3944 3084 3684 2787 
Q 3425 2491 3425 1978 
L 3425 0 
L 2847 0 
L 2847 2094 
Q 2847 2600 2669 2842 
Q 2491 3084 2119 3084 
Q 1678 3084 1418 2786 
Q 1159 2488 1159 1978 
L 1159 0 
L 581 0 
L 581 3500 
L 1159 3500 
L 1159 2956 
Q 1356 3278 1631 3431 
Q 1906 3584 2284 3584 
Q 2666 3584 2933 3390 
Q 3200 3197 3328 2828 
z
" transform="scale(0.015625)"/>
       <path id="DejaVuSans-65" d="M 3597 1894 
L 3597 1613 
L 953 1613 
Q 991 1019 1311 708 
Q 1631 397 2203 397 
Q 2534 397 2845 478 
Q 3156 559 3463 722 
L 3463 178 
Q 3153 47 2828 -22 
Q 2503 -91 2169 -91 
Q 1331 -91 842 396 
Q 353 884 353 1716 
Q 353 2575 817 3079 
Q 1281 3584 2069 3584 
Q 2775 3584 3186 3129 
Q 3597 2675 3597 1894 
z
M 3022 2063 
Q 3016 2534 2758 2815 
Q 2500 3097 2075 3097 
Q 1594 3097 1305 2825 
Q 1016 2553 972 2059 
L 3022 2063 
z
" transform="scale(0.015625)"/>
       <path id="DejaVuSans-28" d="M 1984 4856 
Q 1566 4138 1362 3434 
Q 1159 2731 1159 2009 
Q 1159 1288 1364 580 
Q 1569 -128 1984 -844 
L 1484 -844 
Q 1016 -109 783 600 
Q 550 1309 550 2009 
Q 550 2706 781 3412 
Q 1013 4119 1484 4856 
L 1984 4856 
z
" transform="scale(0.015625)"/>
       <path id="DejaVuSans-73" d="M 2834 3397 
L 2834 2853 
Q 2591 2978 2328 3040 
Q 2066 3103 1784 3103 
Q 1356 3103 1142 2972 
Q 928 2841 928 2578 
Q 928 2378 1081 2264 
Q 1234 2150 1697 2047 
L 1894 2003 
Q 2506 1872 2764 1633 
Q 3022 1394 3022 966 
Q 3022 478 2636 193 
Q 2250 -91 1575 -91 
Q 1294 -91 989 -36 
Q 684 19 347 128 
L 347 722 
Q 666 556 975 473 
Q 1284 391 1588 391 
Q 1994 391 2212 530 
Q 2431 669 2431 922 
Q 2431 1156 2273 1281 
Q 2116 1406 1581 1522 
L 1381 1569 
Q 847 1681 609 1914 
Q 372 2147 372 2553 
Q 372 3047 722 3315 
Q 1072 3584 1716 3584 
Q 2034 3584 2315 3537 
Q 2597 3491 2834 3397 
z
" transform="scale(0.015625)"/>
       <path id="DejaVuSans-29" d="M 513 4856 
L 1013 4856 
Q 1481 4119 1714 3412 
Q 1947 2706 1947 2009 
Q 1947 1309 1714 600 
Q 1481 -109 1013 -844 
L 513 -844 
Q 928 -128 1133 580 
Q 1338 1288 1338 2009 
Q 1338 2731 1133 3434 
Q 928 4138 513 4856 
z
" transform="scale(0.015625)"/>
      </defs>
      <use xlink:href="#DejaVuSans-74"/>
      <use xlink:href="#DejaVuSans-69" x="39.208984"/>
      <use xlink:href="#DejaVuSans-6d" x="66.992188"/>
      <use xlink:href="#DejaVuSans-65" x="164.404297"/>
      <use xlink:href="#DejaVuSans-28" x="225.927734"/>
      <use xlink:href="#DejaVuSans-73" x="264.941406"/>
      <use xlink:href="#DejaVuSans-29" x="317.041016"/>
     </g>
    </g>
   </g>
   <g id="matplotlib.axis_2">
    <g id="ytick_1">
     <g id="line2d_10">
      <defs>
       <path id="m6b9ea2f595" d="M 0 0 
L -3.5 0 
" style="stroke: #000000; stroke-width: 0.8"/>
      </defs>
      <g>
       <use xlink:href="#m6b9ea2f595" x="50.421875" y="220.340411" style="stroke: #000000; stroke-width: 0.8"/>
      </g>
     </g>
     <g id="text_11">
      <!-- 0.92 -->
      <g transform="translate(21.15625 224.13963) scale(0.1 -0.1)">
       <defs>
        <path id="DejaVuSans-39" d="M 703 97 
L 703 672 
Q 941 559 1184 500 
Q 1428 441 1663 441 
Q 2288 441 2617 861 
Q 2947 1281 2994 2138 
Q 2813 1869 2534 1725 
Q 2256 1581 1919 1581 
Q 1219 1581 811 2004 
Q 403 2428 403 3163 
Q 403 3881 828 4315 
Q 1253 4750 1959 4750 
Q 2769 4750 3195 4129 
Q 3622 3509 3622 2328 
Q 3622 1225 3098 567 
Q 2575 -91 1691 -91 
Q 1453 -91 1209 -44 
Q 966 3 703 97 
z
M 1959 2075 
Q 2384 2075 2632 2365 
Q 2881 2656 2881 3163 
Q 2881 3666 2632 3958 
Q 2384 4250 1959 4250 
Q 1534 4250 1286 3958 
Q 1038 3666 1038 3163 
Q 1038 2656 1286 2365 
Q 1534 2075 1959 2075 
z
" transform="scale(0.015625)"/>
       </defs>
       <use xlink:href="#DejaVuSans-30"/>
       <use xlink:href="#DejaVuSans-2e" x="63.623047"/>
       <use xlink:href="#DejaVuSans-39" x="95.410156"/>
       <use xlink:href="#DejaVuSans-32" x="159.033203"/>
      </g>
     </g>
    </g>
    <g id="ytick_2">
     <g id="line2d_11">
      <g>
       <use xlink:href="#m6b9ea2f595" x="50.421875" y="191.64641" style="stroke: #000000; stroke-width: 0.8"/>
      </g>
     </g>
     <g id="text_12">
      <!-- 0.94 -->
      <g transform="translate(21.15625 195.445629) scale(0.1 -0.1)">
       <use xlink:href="#DejaVuSans-30"/>
       <use xlink:href="#DejaVuSans-2e" x="63.623047"/>
       <use xlink:href="#DejaVuSans-39" x="95.410156"/>
       <use xlink:href="#DejaVuSans-34" x="159.033203"/>
      </g>
     </g>
    </g>
    <g id="ytick_3">
     <g id="line2d_12">
      <g>
       <use xlink:href="#m6b9ea2f595" x="50.421875" y="162.952409" style="stroke: #000000; stroke-width: 0.8"/>
      </g>
     </g>
     <g id="text_13">
      <!-- 0.96 -->
      <g transform="translate(21.15625 166.751627) scale(0.1 -0.1)">
       <defs>
        <path id="DejaVuSans-36" d="M 2113 2584 
Q 1688 2584 1439 2293 
Q 1191 2003 1191 1497 
Q 1191 994 1439 701 
Q 1688 409 2113 409 
Q 2538 409 2786 701 
Q 3034 994 3034 1497 
Q 3034 2003 2786 2293 
Q 2538 2584 2113 2584 
z
M 3366 4563 
L 3366 3988 
Q 3128 4100 2886 4159 
Q 2644 4219 2406 4219 
Q 1781 4219 1451 3797 
Q 1122 3375 1075 2522 
Q 1259 2794 1537 2939 
Q 1816 3084 2150 3084 
Q 2853 3084 3261 2657 
Q 3669 2231 3669 1497 
Q 3669 778 3244 343 
Q 2819 -91 2113 -91 
Q 1303 -91 875 529 
Q 447 1150 447 2328 
Q 447 3434 972 4092 
Q 1497 4750 2381 4750 
Q 2619 4750 2861 4703 
Q 3103 4656 3366 4563 
z
" transform="scale(0.015625)"/>
       </defs>
       <use xlink:href="#DejaVuSans-30"/>
       <use xlink:href="#DejaVuSans-2e" x="63.623047"/>
       <use xlink:href="#DejaVuSans-39" x="95.410156"/>
       <use xlink:href="#DejaVuSans-36" x="159.033203"/>
      </g>
     </g>
    </g>
    <g id="ytick_4">
     <g id="line2d_13">
      <g>
       <use xlink:href="#m6b9ea2f595" x="50.421875" y="134.258407" style="stroke: #000000; stroke-width: 0.8"/>
      </g>
     </g>
     <g id="text_14">
      <!-- 0.98 -->
      <g transform="translate(21.15625 138.057626) scale(0.1 -0.1)">
       <defs>
        <path id="DejaVuSans-38" d="M 2034 2216 
Q 1584 2216 1326 1975 
Q 1069 1734 1069 1313 
Q 1069 891 1326 650 
Q 1584 409 2034 409 
Q 2484 409 2743 651 
Q 3003 894 3003 1313 
Q 3003 1734 2745 1975 
Q 2488 2216 2034 2216 
z
M 1403 2484 
Q 997 2584 770 2862 
Q 544 3141 544 3541 
Q 544 4100 942 4425 
Q 1341 4750 2034 4750 
Q 2731 4750 3128 4425 
Q 3525 4100 3525 3541 
Q 3525 3141 3298 2862 
Q 3072 2584 2669 2484 
Q 3125 2378 3379 2068 
Q 3634 1759 3634 1313 
Q 3634 634 3220 271 
Q 2806 -91 2034 -91 
Q 1263 -91 848 271 
Q 434 634 434 1313 
Q 434 1759 690 2068 
Q 947 2378 1403 2484 
z
M 1172 3481 
Q 1172 3119 1398 2916 
Q 1625 2713 2034 2713 
Q 2441 2713 2670 2916 
Q 2900 3119 2900 3481 
Q 2900 3844 2670 4047 
Q 2441 4250 2034 4250 
Q 1625 4250 1398 4047 
Q 1172 3844 1172 3481 
z
" transform="scale(0.015625)"/>
       </defs>
       <use xlink:href="#DejaVuSans-30"/>
       <use xlink:href="#DejaVuSans-2e" x="63.623047"/>
       <use xlink:href="#DejaVuSans-39" x="95.410156"/>
       <use xlink:href="#DejaVuSans-38" x="159.033203"/>
      </g>
     </g>
    </g>
    <g id="ytick_5">
     <g id="line2d_14">
      <g>
       <use xlink:href="#m6b9ea2f595" x="50.421875" y="105.564406" style="stroke: #000000; stroke-width: 0.8"/>
      </g>
     </g>
     <g id="text_15">
      <!-- 1.00 -->
      <g transform="translate(21.15625 109.363625) scale(0.1 -0.1)">
       <use xlink:href="#DejaVuSans-31"/>
       <use xlink:href="#DejaVuSans-2e" x="63.623047"/>
       <use xlink:href="#DejaVuSans-30" x="95.410156"/>
       <use xlink:href="#DejaVuSans-30" x="159.033203"/>
      </g>
     </g>
    </g>
    <g id="ytick_6">
     <g id="line2d_15">
      <g>
       <use xlink:href="#m6b9ea2f595" x="50.421875" y="76.870405" style="stroke: #000000; stroke-width: 0.8"/>
      </g>
     </g>
     <g id="text_16">
      <!-- 1.02 -->
      <g transform="translate(21.15625 80.669624) scale(0.1 -0.1)">
       <use xlink:href="#DejaVuSans-31"/>
       <use xlink:href="#DejaVuSans-2e" x="63.623047"/>
       <use xlink:href="#DejaVuSans-30" x="95.410156"/>
       <use xlink:href="#DejaVuSans-32" x="159.033203"/>
      </g>
     </g>
    </g>
    <g id="ytick_7">
     <g id="line2d_16">
      <g>
       <use xlink:href="#m6b9ea2f595" x="50.421875" y="48.176404" style="stroke: #000000; stroke-width: 0.8"/>
      </g>
     </g>
     <g id="text_17">
      <!-- 1.04 -->
      <g transform="translate(21.15625 51.975622) scale(0.1 -0.1)">
       <use xlink:href="#DejaVuSans-31"/>
       <use xlink:href="#DejaVuSans-2e" x="63.623047"/>
       <use xlink:href="#DejaVuSans-30" x="95.410156"/>
       <use xlink:href="#DejaVuSans-34" x="159.033203"/>
      </g>
     </g>
    </g>
    <g id="text_18">
     <!-- z_position[m] -->
     <g transform="translate(14.798438 166.898906) rotate(-90) scale(0.1 -0.1)">
      <defs>
       <path id="DejaVuSans-7a" d="M 353 3500 
L 3084 3500 
L 3084 2975 
L 922 459 
L 3084 459 
L 3084 0 
L 275 0 
L 275 525 
L 2438 3041 
L 353 3041 
L 353 3500 
z
" transform="scale(0.015625)"/>
       <path id="DejaVuSans-5f" d="M 3263 -1063 
L 3263 -1509 
L -63 -1509 
L -63 -1063 
L 3263 -1063 
z
" transform="scale(0.015625)"/>
       <path id="DejaVuSans-70" d="M 1159 525 
L 1159 -1331 
L 581 -1331 
L 581 3500 
L 1159 3500 
L 1159 2969 
Q 1341 3281 1617 3432 
Q 1894 3584 2278 3584 
Q 2916 3584 3314 3078 
Q 3713 2572 3713 1747 
Q 3713 922 3314 415 
Q 2916 -91 2278 -91 
Q 1894 -91 1617 61 
Q 1341 213 1159 525 
z
M 3116 1747 
Q 3116 2381 2855 2742 
Q 2594 3103 2138 3103 
Q 1681 3103 1420 2742 
Q 1159 2381 1159 1747 
Q 1159 1113 1420 752 
Q 1681 391 2138 391 
Q 2594 391 2855 752 
Q 3116 1113 3116 1747 
z
" transform="scale(0.015625)"/>
       <path id="DejaVuSans-6f" d="M 1959 3097 
Q 1497 3097 1228 2736 
Q 959 2375 959 1747 
Q 959 1119 1226 758 
Q 1494 397 1959 397 
Q 2419 397 2687 759 
Q 2956 1122 2956 1747 
Q 2956 2369 2687 2733 
Q 2419 3097 1959 3097 
z
M 1959 3584 
Q 2709 3584 3137 3096 
Q 3566 2609 3566 1747 
Q 3566 888 3137 398 
Q 2709 -91 1959 -91 
Q 1206 -91 779 398 
Q 353 888 353 1747 
Q 353 2609 779 3096 
Q 1206 3584 1959 3584 
z
" transform="scale(0.015625)"/>
       <path id="DejaVuSans-6e" d="M 3513 2113 
L 3513 0 
L 2938 0 
L 2938 2094 
Q 2938 2591 2744 2837 
Q 2550 3084 2163 3084 
Q 1697 3084 1428 2787 
Q 1159 2491 1159 1978 
L 1159 0 
L 581 0 
L 581 3500 
L 1159 3500 
L 1159 2956 
Q 1366 3272 1645 3428 
Q 1925 3584 2291 3584 
Q 2894 3584 3203 3211 
Q 3513 2838 3513 2113 
z
" transform="scale(0.015625)"/>
       <path id="DejaVuSans-5b" d="M 550 4863 
L 1875 4863 
L 1875 4416 
L 1125 4416 
L 1125 -397 
L 1875 -397 
L 1875 -844 
L 550 -844 
L 550 4863 
z
" transform="scale(0.015625)"/>
       <path id="DejaVuSans-5d" d="M 1947 4863 
L 1947 -844 
L 622 -844 
L 622 -397 
L 1369 -397 
L 1369 4416 
L 622 4416 
L 622 4863 
L 1947 4863 
z
" transform="scale(0.015625)"/>
      </defs>
      <use xlink:href="#DejaVuSans-7a"/>
      <use xlink:href="#DejaVuSans-5f" x="52.490234"/>
      <use xlink:href="#DejaVuSans-70" x="102.490234"/>
      <use xlink:href="#DejaVuSans-6f" x="165.966797"/>
      <use xlink:href="#DejaVuSans-73" x="227.148438"/>
      <use xlink:href="#DejaVuSans-69" x="279.248047"/>
      <use xlink:href="#DejaVuSans-74" x="307.03125"/>
      <use xlink:href="#DejaVuSans-69" x="346.240234"/>
      <use xlink:href="#DejaVuSans-6f" x="374.023438"/>
      <use xlink:href="#DejaVuSans-6e" x="435.205078"/>
      <use xlink:href="#DejaVuSans-5b" x="498.583984"/>
      <use xlink:href="#DejaVuSans-6d" x="537.597656"/>
      <use xlink:href="#DejaVuSans-5d" x="635.009766"/>
     </g>
    </g>
   </g>
   <g id="line2d_17">
    <path d="M 70.712784 94.40199 
L 72.772775 79.999418 
L 74.832766 73.70382 
L 76.892756 74.560849 
L 78.952747 81.014308 
L 81.012738 92.354937 
L 83.072729 106.142572 
L 85.132719 118.085396 
L 87.19271 127.893942 
L 89.252701 134.577778 
L 91.312692 138.488113 
L 93.372683 140.390389 
L 95.432673 140.821212 
L 97.492664 139.906974 
L 99.552655 138.248671 
L 107.792618 130.679501 
L 113.97259 126.372035 
L 116.032581 124.707062 
L 118.092572 122.742702 
L 120.152563 120.096875 
L 122.212553 115.930081 
L 124.272544 109.333642 
L 126.332535 104.662225 
L 128.392526 103.298777 
L 130.452516 105.617425 
L 132.512507 110.307997 
L 134.572498 116.08931 
L 140.75247 142.625574 
L 142.812461 148.789822 
L 144.872452 152.913944 
L 146.932443 154.859748 
L 148.992433 155.134079 
L 153.112415 153.03127 
L 155.172406 151.803449 
L 157.232396 149.422461 
L 159.292387 145.018706 
L 161.352378 138.473832 
L 163.412369 129.749527 
L 165.47236 118.633973 
L 167.53235 109.266598 
L 169.592341 105.579371 
L 171.652332 107.187306 
L 177.832304 120.838887 
L 179.892295 124.786933 
L 181.952286 128.040429 
L 184.012276 130.29896 
L 186.072267 131.521308 
L 188.132258 131.298457 
L 190.192249 129.03736 
L 192.25224 124.879546 
L 194.31223 123.10195 
L 196.372221 123.875431 
L 198.432212 126.347322 
L 202.552193 133.909565 
L 204.612184 140.473509 
L 206.672175 148.682672 
L 208.732166 156.349757 
L 210.792156 164.950749 
L 212.852147 174.94204 
L 216.972129 196.952862 
L 221.09211 219.769319 
L 223.152101 227.493699 
L 225.212092 231.811854 
L 227.272083 233.776556 
L 229.332073 233.998125 
L 231.392064 232.390019 
L 233.452055 229.174749 
L 235.512046 225.044983 
L 245.812 202.678249 
L 247.87199 198.855139 
L 249.931981 195.715891 
L 251.991972 193.243402 
L 254.051963 191.129305 
L 256.111953 188.698719 
L 258.171944 184.915288 
L 260.231935 178.97868 
L 262.291926 170.332622 
L 264.351917 158.240831 
L 266.411907 144.134312 
L 268.471898 132.688414 
L 270.531889 126.505866 
L 272.59188 127.797567 
L 274.65187 134.93369 
L 276.711861 146.676667 
L 278.771852 161.729321 
L 280.831843 180.053174 
L 282.891833 197.091311 
L 284.951824 210.725789 
L 287.011815 221.007659 
L 289.071806 227.761959 
L 291.131797 230.826553 
L 293.191787 229.994836 
L 295.251778 225.320255 
L 297.311769 217.260145 
L 303.491741 182.960163 
L 305.551732 172.527017 
L 307.611723 163.569942 
L 309.671713 156.567563 
L 311.731704 150.930343 
L 313.791695 149.438538 
L 315.851686 152.643888 
L 317.911677 157.733985 
L 319.971667 164.489739 
L 322.031658 173.311957 
L 326.15164 193.365688 
L 328.21163 200.244412 
L 330.271621 203.281983 
L 332.331612 202.532104 
L 334.391603 198.791516 
L 336.451594 192.821729 
L 338.511584 185.114623 
L 342.631566 168.319005 
L 344.691557 161.234618 
L 346.751547 155.356075 
L 350.871529 145.364271 
L 352.93152 139.659067 
L 354.99151 132.606919 
L 357.051501 123.452475 
L 361.171483 97.840026 
L 363.231474 89.118373 
L 365.291464 85.768588 
L 367.351455 88.015917 
L 369.411446 95.158796 
L 371.471437 107.134287 
L 373.531427 117.898546 
L 375.591418 125.591371 
L 377.651409 130.671633 
L 379.7114 133.978148 
L 381.77139 136.337245 
L 383.831381 138.176668 
L 385.891372 139.022751 
L 387.951363 137.878563 
L 390.011354 134.204249 
L 392.071344 128.547018 
L 394.131335 125.06554 
L 396.191326 123.806079 
L 398.251317 123.883127 
L 400.311307 124.455136 
L 402.371298 129.084992 
L 404.431289 139.38636 
L 408.55127 162.727279 
L 410.611261 172.517782 
L 412.671252 179.088481 
L 414.731243 182.911163 
L 416.791234 184.735365 
L 418.851224 185.248282 
L 420.911215 185.308912 
L 422.971206 184.895791 
L 425.031197 183.790426 
L 427.091187 181.743801 
L 429.151178 177.962166 
L 431.211169 171.389756 
L 433.27116 161.286013 
L 439.451132 118.016984 
L 441.511123 105.914247 
L 443.571114 97.00677 
L 445.631104 92.476539 
L 447.691095 93.69427 
L 449.751086 101.267459 
L 451.811077 112.205399 
L 453.871067 125.58376 
L 455.931058 137.432347 
L 457.991049 146.061986 
L 460.05104 151.887852 
L 462.111031 155.240203 
L 464.171021 156.041305 
L 466.231012 153.9922 
L 468.291003 149.196616 
L 470.350994 142.820463 
L 472.410984 136.0624 
L 474.470975 129.835897 
L 476.530966 124.803694 
L 476.530966 124.803694 
" clip-path="url(#p1f15b5b144)" style="fill: none; stroke: #1f77b4; stroke-width: 1.5; stroke-linecap: square"/>
   </g>
   <g id="line2d_18">
    <path d="M 70.712784 109.353053 
L 72.772775 109.618662 
L 74.832766 109.555039 
L 76.892756 109.234701 
L 78.952747 108.785919 
L 81.012738 108.843471 
L 83.072729 108.547076 
L 87.19271 106.470606 
L 89.252701 105.364131 
L 93.372683 104.929715 
L 95.432673 104.471185 
L 97.492664 104.470159 
L 103.672636 105.166933 
L 109.852609 104.820941 
L 116.032581 105.030281 
L 128.392526 104.47358 
L 134.572498 104.366857 
L 136.632489 104.084145 
L 138.69248 104.392683 
L 140.75247 104.996759 
L 142.812461 105.419031 
L 144.872452 106.022594 
L 146.932443 106.988142 
L 151.052424 108.530145 
L 153.112415 108.903588 
L 155.172406 109.642008 
L 161.352378 114.080653 
L 163.412369 116.620955 
L 165.47236 119.378465 
L 167.53235 122.570647 
L 169.592341 125.195352 
L 171.652332 127.536319 
L 175.772313 131.347371 
L 177.832304 133.049372 
L 179.892295 134.238028 
L 181.952286 135.169968 
L 188.132258 136.738052 
L 190.192249 137.520769 
L 192.25224 138.432357 
L 196.372221 139.464691 
L 198.432212 140.241422 
L 200.492203 140.341389 
L 202.552193 140.102632 
L 204.612184 139.254496 
L 206.672175 137.899856 
L 208.732166 135.532037 
L 210.792156 132.599564 
L 216.972129 122.938275 
L 219.03212 118.99553 
L 225.212092 108.292499 
L 231.392064 97.323859 
L 233.452055 93.664339 
L 235.512046 90.388097 
L 237.572037 87.334022 
L 241.692018 82.016028 
L 243.752009 79.257834 
L 249.931981 68.701376 
L 258.171944 52.944079 
L 260.231935 49.335868 
L 264.351917 41.332881 
L 266.411907 38.549375 
L 268.471898 36.001205 
L 270.531889 33.923709 
L 272.59188 32.898729 
L 274.65187 32.399835 
L 276.711861 33.468599 
L 278.771852 34.69642 
L 280.831843 36.242528 
L 282.891833 38.4772 
L 284.951824 41.056326 
L 287.011815 44.828555 
L 289.071806 49.162444 
L 293.191787 60.344016 
L 295.251778 66.202976 
L 299.37176 79.384567 
L 301.43175 85.299625 
L 303.491741 90.598463 
L 307.611723 100.359976 
L 309.671713 104.536347 
L 313.791695 110.637143 
L 315.851686 113.813932 
L 319.971667 119.162455 
L 326.15164 128.648696 
L 330.271621 133.566309 
L 334.391603 137.664434 
L 336.451594 139.580735 
L 338.511584 140.92135 
L 340.571575 142.452236 
L 342.631566 144.363663 
L 346.751547 147.554305 
L 350.871529 148.730048 
L 352.93152 149.235354 
L 354.99151 149.21885 
L 357.051501 148.941184 
L 359.111492 148.503177 
L 361.171483 147.704298 
L 367.351455 143.181164 
L 371.471437 138.052329 
L 375.591418 131.943666 
L 377.651409 128.768245 
L 381.77139 121.323071 
L 390.011354 108.5186 
L 392.071344 105.028228 
L 394.131335 101.041358 
L 396.191326 96.235085 
L 398.251317 91.018854 
L 404.431289 73.147803 
L 406.49128 67.873422 
L 408.55127 62.926733 
L 412.671252 52.428938 
L 414.731243 47.628993 
L 416.791234 43.963316 
L 420.911215 37.641208 
L 422.971206 35.007694 
L 425.031197 33.553943 
L 427.091187 32.927633 
L 431.211169 32.398125 
L 433.27116 32.409242 
L 435.33115 33.075915 
L 437.391141 34.125866 
L 439.451132 35.367369 
L 443.571114 37.240143 
L 445.631104 38.034405 
L 447.691095 39.152767 
L 451.811077 41.589083 
L 453.871067 43.202576 
L 455.931058 45.730393 
L 457.991049 48.812346 
L 460.05104 52.171025 
L 464.171021 59.770724 
L 466.231012 63.755885 
L 470.350994 70.745521 
L 474.470975 77.608254 
L 476.530966 80.781366 
L 476.530966 80.781366 
" clip-path="url(#p1f15b5b144)" style="fill: none; stroke: #ff7f0e; stroke-width: 1.5; stroke-linecap: square"/>
   </g>
   <g id="patch_3">
    <path d="M 50.421875 244.078125 
L 50.421875 22.318125 
" style="fill: none; stroke: #000000; stroke-width: 0.8; stroke-linejoin: miter; stroke-linecap: square"/>
   </g>
   <g id="patch_4">
    <path d="M 496.821875 244.078125 
L 496.821875 22.318125 
" style="fill: none; stroke: #000000; stroke-width: 0.8; stroke-linejoin: miter; stroke-linecap: square"/>
   </g>
   <g id="patch_5">
    <path d="M 50.421875 244.078125 
L 496.821875 244.078125 
" style="fill: none; stroke: #000000; stroke-width: 0.8; stroke-linejoin: miter; stroke-linecap: square"/>
   </g>
   <g id="patch_6">
    <path d="M 50.421875 22.318125 
L 496.821875 22.318125 
" style="fill: none; stroke: #000000; stroke-width: 0.8; stroke-linejoin: miter; stroke-linecap: square"/>
   </g>
   <g id="text_19">
    <!-- z_position -->
    <g transform="translate(243.707187 16.318125) scale(0.12 -0.12)">
     <use xlink:href="#DejaVuSans-7a"/>
     <use xlink:href="#DejaVuSans-5f" x="52.490234"/>
     <use xlink:href="#DejaVuSans-70" x="102.490234"/>
     <use xlink:href="#DejaVuSans-6f" x="165.966797"/>
     <use xlink:href="#DejaVuSans-73" x="227.148438"/>
     <use xlink:href="#DejaVuSans-69" x="279.248047"/>
     <use xlink:href="#DejaVuSans-74" x="307.03125"/>
     <use xlink:href="#DejaVuSans-69" x="346.240234"/>
     <use xlink:href="#DejaVuSans-6f" x="374.023438"/>
     <use xlink:href="#DejaVuSans-6e" x="435.205078"/>
    </g>
   </g>
   <g id="legend_1">
    <g id="patch_7">
     <path d="M 57.421875 60.230625 
L 157.839063 60.230625 
Q 159.839063 60.230625 159.839063 58.230625 
L 159.839063 29.318125 
Q 159.839063 27.318125 157.839063 27.318125 
L 57.421875 27.318125 
Q 55.421875 27.318125 55.421875 29.318125 
L 55.421875 58.230625 
Q 55.421875 60.230625 57.421875 60.230625 
z
" style="fill: #ffffff; opacity: 0.8; stroke: #cccccc; stroke-linejoin: miter"/>
    </g>
    <g id="line2d_19">
     <path d="M 59.421875 35.416562 
L 69.421875 35.416562 
L 79.421875 35.416562 
" style="fill: none; stroke: #1f77b4; stroke-width: 1.5; stroke-linecap: square"/>
    </g>
    <g id="text_20">
     <!-- z_position -->
     <g transform="translate(87.421875 38.916562) scale(0.1 -0.1)">
      <use xlink:href="#DejaVuSans-7a"/>
      <use xlink:href="#DejaVuSans-5f" x="52.490234"/>
      <use xlink:href="#DejaVuSans-70" x="102.490234"/>
      <use xlink:href="#DejaVuSans-6f" x="165.966797"/>
      <use xlink:href="#DejaVuSans-73" x="227.148438"/>
      <use xlink:href="#DejaVuSans-69" x="279.248047"/>
      <use xlink:href="#DejaVuSans-74" x="307.03125"/>
      <use xlink:href="#DejaVuSans-69" x="346.240234"/>
      <use xlink:href="#DejaVuSans-6f" x="374.023438"/>
      <use xlink:href="#DejaVuSans-6e" x="435.205078"/>
     </g>
    </g>
    <g id="line2d_20">
     <path d="M 59.421875 50.372812 
L 69.421875 50.372812 
L 79.421875 50.372812 
" style="fill: none; stroke: #ff7f0e; stroke-width: 1.5; stroke-linecap: square"/>
    </g>
    <g id="text_21">
     <!-- z_position_ref -->
     <g transform="translate(87.421875 53.872812) scale(0.1 -0.1)">
      <defs>
       <path id="DejaVuSans-72" d="M 2631 2963 
Q 2534 3019 2420 3045 
Q 2306 3072 2169 3072 
Q 1681 3072 1420 2755 
Q 1159 2438 1159 1844 
L 1159 0 
L 581 0 
L 581 3500 
L 1159 3500 
L 1159 2956 
Q 1341 3275 1631 3429 
Q 1922 3584 2338 3584 
Q 2397 3584 2469 3576 
Q 2541 3569 2628 3553 
L 2631 2963 
z
" transform="scale(0.015625)"/>
       <path id="DejaVuSans-66" d="M 2375 4863 
L 2375 4384 
L 1825 4384 
Q 1516 4384 1395 4259 
Q 1275 4134 1275 3809 
L 1275 3500 
L 2222 3500 
L 2222 3053 
L 1275 3053 
L 1275 0 
L 697 0 
L 697 3053 
L 147 3053 
L 147 3500 
L 697 3500 
L 697 3744 
Q 697 4328 969 4595 
Q 1241 4863 1831 4863 
L 2375 4863 
z
" transform="scale(0.015625)"/>
      </defs>
      <use xlink:href="#DejaVuSans-7a"/>
      <use xlink:href="#DejaVuSans-5f" x="52.490234"/>
      <use xlink:href="#DejaVuSans-70" x="102.490234"/>
      <use xlink:href="#DejaVuSans-6f" x="165.966797"/>
      <use xlink:href="#DejaVuSans-73" x="227.148438"/>
      <use xlink:href="#DejaVuSans-69" x="279.248047"/>
      <use xlink:href="#DejaVuSans-74" x="307.03125"/>
      <use xlink:href="#DejaVuSans-69" x="346.240234"/>
      <use xlink:href="#DejaVuSans-6f" x="374.023438"/>
      <use xlink:href="#DejaVuSans-6e" x="435.205078"/>
      <use xlink:href="#DejaVuSans-5f" x="498.583984"/>
      <use xlink:href="#DejaVuSans-72" x="548.583984"/>
      <use xlink:href="#DejaVuSans-65" x="587.447266"/>
      <use xlink:href="#DejaVuSans-66" x="648.970703"/>
     </g>
    </g>
   </g>
  </g>
 </g>
 <defs>
  <clipPath id="p1f15b5b144">
   <rect x="50.421875" y="22.318125" width="446.4" height="221.76"/>
  </clipPath>
 </defs>
</svg>
