<?xml version="1.0" encoding="utf-8" standalone="no"?>
<!DOCTYPE svg PUBLIC "-//W3C//DTD SVG 1.1//EN"
  "http://www.w3.org/Graphics/SVG/1.1/DTD/svg11.dtd">
<svg xmlns:xlink="http://www.w3.org/1999/xlink" width="504.021875pt" height="281.634375pt" viewBox="0 0 504.021875 281.634375" xmlns="http://www.w3.org/2000/svg" version="1.1">
 <metadata>
  <rdf:RDF xmlns:dc="http://purl.org/dc/elements/1.1/" xmlns:cc="http://creativecommons.org/ns#" xmlns:rdf="http://www.w3.org/1999/02/22-rdf-syntax-ns#">
   <cc:Work>
    <dc:type rdf:resource="http://purl.org/dc/dcmitype/StillImage"/>
    <dc:date>2025-04-21T15:43:16.112537</dc:date>
    <dc:format>image/svg+xml</dc:format>
    <dc:creator>
     <cc:Agent>
      <dc:title>Matplotlib v3.6.3, https://matplotlib.org/</dc:title>
     </cc:Agent>
    </dc:creator>
   </cc:Work>
  </rdf:RDF>
 </metadata>
 <defs>
  <style type="text/css">*{stroke-linejoin: round; stroke-linecap: butt}</style>
 </defs>
 <g id="figure_1">
  <g id="patch_1">
   <path d="M 0 281.634375 
L 504.021875 281.634375 
L 504.021875 0 
L 0 0 
z
" style="fill: #ffffff"/>
  </g>
  <g id="axes_1">
   <g id="patch_2">
    <path d="M 50.421875 244.078125 
L 496.821875 244.078125 
L 496.821875 22.318125 
L 50.421875 22.318125 
z
" style="fill: #ffffff"/>
   </g>
   <g id="matplotlib.axis_1">
    <g id="xtick_1">
     <g id="line2d_1">
      <defs>
       <path id="mcc63ed7c8b" d="M 0 0 
L 0 3.5 
" style="stroke: #000000; stroke-width: 0.8"/>
      </defs>
      <g>
       <use xlink:href="#mcc63ed7c8b" x="70.712784" y="244.078125" style="stroke: #000000; stroke-width: 0.8"/>
      </g>
     </g>
     <g id="text_1">
      <!-- 0.0 -->
      <g transform="translate(62.761222 258.676562) scale(0.1 -0.1)">
       <defs>
        <path id="DejaVuSans-30" d="M 2034 4250 
Q 1547 4250 1301 3770 
Q 1056 3291 1056 2328 
Q 1056 1369 1301 889 
Q 1547 409 2034 409 
Q 2525 409 2770 889 
Q 3016 1369 3016 2328 
Q 3016 3291 2770 3770 
Q 2525 4250 2034 4250 
z
M 2034 4750 
Q 2819 4750 3233 4129 
Q 3647 3509 3647 2328 
Q 3647 1150 3233 529 
Q 2819 -91 2034 -91 
Q 1250 -91 836 529 
Q 422 1150 422 2328 
Q 422 3509 836 4129 
Q 1250 4750 2034 4750 
z
" transform="scale(0.015625)"/>
        <path id="DejaVuSans-2e" d="M 684 794 
L 1344 794 
L 1344 0 
L 684 0 
L 684 794 
z
" transform="scale(0.015625)"/>
       </defs>
       <use xlink:href="#DejaVuSans-30"/>
       <use xlink:href="#DejaVuSans-2e" x="63.623047"/>
       <use xlink:href="#DejaVuSans-30" x="95.410156"/>
      </g>
     </g>
    </g>
    <g id="xtick_2">
     <g id="line2d_2">
      <g>
       <use xlink:href="#mcc63ed7c8b" x="121.952455" y="244.078125" style="stroke: #000000; stroke-width: 0.8"/>
      </g>
     </g>
     <g id="text_2">
      <!-- 0.5 -->
      <g transform="translate(114.000892 258.676562) scale(0.1 -0.1)">
       <defs>
        <path id="DejaVuSans-35" d="M 691 4666 
L 3169 4666 
L 3169 4134 
L 1269 4134 
L 1269 2991 
Q 1406 3038 1543 3061 
Q 1681 3084 1819 3084 
Q 2600 3084 3056 2656 
Q 3513 2228 3513 1497 
Q 3513 744 3044 326 
Q 2575 -91 1722 -91 
Q 1428 -91 1123 -41 
Q 819 9 494 109 
L 494 744 
Q 775 591 1075 516 
Q 1375 441 1709 441 
Q 2250 441 2565 725 
Q 2881 1009 2881 1497 
Q 2881 1984 2565 2268 
Q 2250 2553 1709 2553 
Q 1456 2553 1204 2497 
Q 953 2441 691 2322 
L 691 4666 
z
" transform="scale(0.015625)"/>
       </defs>
       <use xlink:href="#DejaVuSans-30"/>
       <use xlink:href="#DejaVuSans-2e" x="63.623047"/>
       <use xlink:href="#DejaVuSans-35" x="95.410156"/>
      </g>
     </g>
    </g>
    <g id="xtick_3">
     <g id="line2d_3">
      <g>
       <use xlink:href="#mcc63ed7c8b" x="173.192125" y="244.078125" style="stroke: #000000; stroke-width: 0.8"/>
      </g>
     </g>
     <g id="text_3">
      <!-- 1.0 -->
      <g transform="translate(165.240563 258.676562) scale(0.1 -0.1)">
       <defs>
        <path id="DejaVuSans-31" d="M 794 531 
L 1825 531 
L 1825 4091 
L 703 3866 
L 703 4441 
L 1819 4666 
L 2450 4666 
L 2450 531 
L 3481 531 
L 3481 0 
L 794 0 
L 794 531 
z
" transform="scale(0.015625)"/>
       </defs>
       <use xlink:href="#DejaVuSans-31"/>
       <use xlink:href="#DejaVuSans-2e" x="63.623047"/>
       <use xlink:href="#DejaVuSans-30" x="95.410156"/>
      </g>
     </g>
    </g>
    <g id="xtick_4">
     <g id="line2d_4">
      <g>
       <use xlink:href="#mcc63ed7c8b" x="224.431796" y="244.078125" style="stroke: #000000; stroke-width: 0.8"/>
      </g>
     </g>
     <g id="text_4">
      <!-- 1.5 -->
      <g transform="translate(216.480233 258.676562) scale(0.1 -0.1)">
       <use xlink:href="#DejaVuSans-31"/>
       <use xlink:href="#DejaVuSans-2e" x="63.623047"/>
       <use xlink:href="#DejaVuSans-35" x="95.410156"/>
      </g>
     </g>
    </g>
    <g id="xtick_5">
     <g id="line2d_5">
      <g>
       <use xlink:href="#mcc63ed7c8b" x="275.671466" y="244.078125" style="stroke: #000000; stroke-width: 0.8"/>
      </g>
     </g>
     <g id="text_5">
      <!-- 2.0 -->
      <g transform="translate(267.719904 258.676562) scale(0.1 -0.1)">
       <defs>
        <path id="DejaVuSans-32" d="M 1228 531 
L 3431 531 
L 3431 0 
L 469 0 
L 469 531 
Q 828 903 1448 1529 
Q 2069 2156 2228 2338 
Q 2531 2678 2651 2914 
Q 2772 3150 2772 3378 
Q 2772 3750 2511 3984 
Q 2250 4219 1831 4219 
Q 1534 4219 1204 4116 
Q 875 4013 500 3803 
L 500 4441 
Q 881 4594 1212 4672 
Q 1544 4750 1819 4750 
Q 2544 4750 2975 4387 
Q 3406 4025 3406 3419 
Q 3406 3131 3298 2873 
Q 3191 2616 2906 2266 
Q 2828 2175 2409 1742 
Q 1991 1309 1228 531 
z
" transform="scale(0.015625)"/>
       </defs>
       <use xlink:href="#DejaVuSans-32"/>
       <use xlink:href="#DejaVuSans-2e" x="63.623047"/>
       <use xlink:href="#DejaVuSans-30" x="95.410156"/>
      </g>
     </g>
    </g>
    <g id="xtick_6">
     <g id="line2d_6">
      <g>
       <use xlink:href="#mcc63ed7c8b" x="326.911137" y="244.078125" style="stroke: #000000; stroke-width: 0.8"/>
      </g>
     </g>
     <g id="text_6">
      <!-- 2.5 -->
      <g transform="translate(318.959574 258.676562) scale(0.1 -0.1)">
       <use xlink:href="#DejaVuSans-32"/>
       <use xlink:href="#DejaVuSans-2e" x="63.623047"/>
       <use xlink:href="#DejaVuSans-35" x="95.410156"/>
      </g>
     </g>
    </g>
    <g id="xtick_7">
     <g id="line2d_7">
      <g>
       <use xlink:href="#mcc63ed7c8b" x="378.150807" y="244.078125" style="stroke: #000000; stroke-width: 0.8"/>
      </g>
     </g>
     <g id="text_7">
      <!-- 3.0 -->
      <g transform="translate(370.199245 258.676562) scale(0.1 -0.1)">
       <defs>
        <path id="DejaVuSans-33" d="M 2597 2516 
Q 3050 2419 3304 2112 
Q 3559 1806 3559 1356 
Q 3559 666 3084 287 
Q 2609 -91 1734 -91 
Q 1441 -91 1130 -33 
Q 819 25 488 141 
L 488 750 
Q 750 597 1062 519 
Q 1375 441 1716 441 
Q 2309 441 2620 675 
Q 2931 909 2931 1356 
Q 2931 1769 2642 2001 
Q 2353 2234 1838 2234 
L 1294 2234 
L 1294 2753 
L 1863 2753 
Q 2328 2753 2575 2939 
Q 2822 3125 2822 3475 
Q 2822 3834 2567 4026 
Q 2313 4219 1838 4219 
Q 1578 4219 1281 4162 
Q 984 4106 628 3988 
L 628 4550 
Q 988 4650 1302 4700 
Q 1616 4750 1894 4750 
Q 2613 4750 3031 4423 
Q 3450 4097 3450 3541 
Q 3450 3153 3228 2886 
Q 3006 2619 2597 2516 
z
" transform="scale(0.015625)"/>
       </defs>
       <use xlink:href="#DejaVuSans-33"/>
       <use xlink:href="#DejaVuSans-2e" x="63.623047"/>
       <use xlink:href="#DejaVuSans-30" x="95.410156"/>
      </g>
     </g>
    </g>
    <g id="xtick_8">
     <g id="line2d_8">
      <g>
       <use xlink:href="#mcc63ed7c8b" x="429.390478" y="244.078125" style="stroke: #000000; stroke-width: 0.8"/>
      </g>
     </g>
     <g id="text_8">
      <!-- 3.5 -->
      <g transform="translate(421.438916 258.676562) scale(0.1 -0.1)">
       <use xlink:href="#DejaVuSans-33"/>
       <use xlink:href="#DejaVuSans-2e" x="63.623047"/>
       <use xlink:href="#DejaVuSans-35" x="95.410156"/>
      </g>
     </g>
    </g>
    <g id="xtick_9">
     <g id="line2d_9">
      <g>
       <use xlink:href="#mcc63ed7c8b" x="480.630149" y="244.078125" style="stroke: #000000; stroke-width: 0.8"/>
      </g>
     </g>
     <g id="text_9">
      <!-- 4.0 -->
      <g transform="translate(472.678586 258.676562) scale(0.1 -0.1)">
       <defs>
        <path id="DejaVuSans-34" d="M 2419 4116 
L 825 1625 
L 2419 1625 
L 2419 4116 
z
M 2253 4666 
L 3047 4666 
L 3047 1625 
L 3713 1625 
L 3713 1100 
L 3047 1100 
L 3047 0 
L 2419 0 
L 2419 1100 
L 313 1100 
L 313 1709 
L 2253 4666 
z
" transform="scale(0.015625)"/>
       </defs>
       <use xlink:href="#DejaVuSans-34"/>
       <use xlink:href="#DejaVuSans-2e" x="63.623047"/>
       <use xlink:href="#DejaVuSans-30" x="95.410156"/>
      </g>
     </g>
    </g>
    <g id="text_10">
     <!-- time(s) -->
     <g transform="translate(255.819531 272.354687) scale(0.1 -0.1)">
      <defs>
       <path id="DejaVuSans-74" d="M 1172 4494 
L 1172 3500 
L 2356 3500 
L 2356 3053 
L 1172 3053 
L 1172 1153 
Q 1172 725 1289 603 
Q 1406 481 1766 481 
L 2356 481 
L 2356 0 
L 1766 0 
Q 1100 0 847 248 
Q 594 497 594 1153 
L 594 3053 
L 172 3053 
L 172 3500 
L 594 3500 
L 594 4494 
L 1172 4494 
z
" transform="scale(0.015625)"/>
       <path id="DejaVuSans-69" d="M 603 3500 
L 1178 3500 
L 1178 0 
L 603 0 
L 603 3500 
z
M 603 4863 
L 1178 4863 
L 1178 4134 
L 603 4134 
L 603 4863 
z
" transform="scale(0.015625)"/>
       <path id="DejaVuSans-6d" d="M 3328 2828 
Q 3544 3216 3844 3400 
Q 4144 3584 4550 3584 
Q 5097 3584 5394 3201 
Q 5691 2819 5691 2113 
L 5691 0 
L 5113 0 
L 5113 2094 
Q 5113 2597 4934 2840 
Q 4756 3084 4391 3084 
Q 3944 3084 3684 2787 
Q 3425 2491 3425 1978 
L 3425 0 
L 2847 0 
L 2847 2094 
Q 2847 2600 2669 2842 
Q 2491 3084 2119 3084 
Q 1678 3084 1418 2786 
Q 1159 2488 1159 1978 
L 1159 0 
L 581 0 
L 581 3500 
L 1159 3500 
L 1159 2956 
Q 1356 3278 1631 3431 
Q 1906 3584 2284 3584 
Q 2666 3584 2933 3390 
Q 3200 3197 3328 2828 
z
" transform="scale(0.015625)"/>
       <path id="DejaVuSans-65" d="M 3597 1894 
L 3597 1613 
L 953 1613 
Q 991 1019 1311 708 
Q 1631 397 2203 397 
Q 2534 397 2845 478 
Q 3156 559 3463 722 
L 3463 178 
Q 3153 47 2828 -22 
Q 2503 -91 2169 -91 
Q 1331 -91 842 396 
Q 353 884 353 1716 
Q 353 2575 817 3079 
Q 1281 3584 2069 3584 
Q 2775 3584 3186 3129 
Q 3597 2675 3597 1894 
z
M 3022 2063 
Q 3016 2534 2758 2815 
Q 2500 3097 2075 3097 
Q 1594 3097 1305 2825 
Q 1016 2553 972 2059 
L 3022 2063 
z
" transform="scale(0.015625)"/>
       <path id="DejaVuSans-28" d="M 1984 4856 
Q 1566 4138 1362 3434 
Q 1159 2731 1159 2009 
Q 1159 1288 1364 580 
Q 1569 -128 1984 -844 
L 1484 -844 
Q 1016 -109 783 600 
Q 550 1309 550 2009 
Q 550 2706 781 3412 
Q 1013 4119 1484 4856 
L 1984 4856 
z
" transform="scale(0.015625)"/>
       <path id="DejaVuSans-73" d="M 2834 3397 
L 2834 2853 
Q 2591 2978 2328 3040 
Q 2066 3103 1784 3103 
Q 1356 3103 1142 2972 
Q 928 2841 928 2578 
Q 928 2378 1081 2264 
Q 1234 2150 1697 2047 
L 1894 2003 
Q 2506 1872 2764 1633 
Q 3022 1394 3022 966 
Q 3022 478 2636 193 
Q 2250 -91 1575 -91 
Q 1294 -91 989 -36 
Q 684 19 347 128 
L 347 722 
Q 666 556 975 473 
Q 1284 391 1588 391 
Q 1994 391 2212 530 
Q 2431 669 2431 922 
Q 2431 1156 2273 1281 
Q 2116 1406 1581 1522 
L 1381 1569 
Q 847 1681 609 1914 
Q 372 2147 372 2553 
Q 372 3047 722 3315 
Q 1072 3584 1716 3584 
Q 2034 3584 2315 3537 
Q 2597 3491 2834 3397 
z
" transform="scale(0.015625)"/>
       <path id="DejaVuSans-29" d="M 513 4856 
L 1013 4856 
Q 1481 4119 1714 3412 
Q 1947 2706 1947 2009 
Q 1947 1309 1714 600 
Q 1481 -109 1013 -844 
L 513 -844 
Q 928 -128 1133 580 
Q 1338 1288 1338 2009 
Q 1338 2731 1133 3434 
Q 928 4138 513 4856 
z
" transform="scale(0.015625)"/>
      </defs>
      <use xlink:href="#DejaVuSans-74"/>
      <use xlink:href="#DejaVuSans-69" x="39.208984"/>
      <use xlink:href="#DejaVuSans-6d" x="66.992188"/>
      <use xlink:href="#DejaVuSans-65" x="164.404297"/>
      <use xlink:href="#DejaVuSans-28" x="225.927734"/>
      <use xlink:href="#DejaVuSans-73" x="264.941406"/>
      <use xlink:href="#DejaVuSans-29" x="317.041016"/>
     </g>
    </g>
   </g>
   <g id="matplotlib.axis_2">
    <g id="ytick_1">
     <g id="line2d_10">
      <defs>
       <path id="m68469c1133" d="M 0 0 
L -3.5 0 
" style="stroke: #000000; stroke-width: 0.8"/>
      </defs>
      <g>
       <use xlink:href="#m68469c1133" x="50.421875" y="233.626116" style="stroke: #000000; stroke-width: 0.8"/>
      </g>
     </g>
     <g id="text_11">
      <!-- 0.80 -->
      <g transform="translate(21.15625 237.425334) scale(0.1 -0.1)">
       <defs>
        <path id="DejaVuSans-38" d="M 2034 2216 
Q 1584 2216 1326 1975 
Q 1069 1734 1069 1313 
Q 1069 891 1326 650 
Q 1584 409 2034 409 
Q 2484 409 2743 651 
Q 3003 894 3003 1313 
Q 3003 1734 2745 1975 
Q 2488 2216 2034 2216 
z
M 1403 2484 
Q 997 2584 770 2862 
Q 544 3141 544 3541 
Q 544 4100 942 4425 
Q 1341 4750 2034 4750 
Q 2731 4750 3128 4425 
Q 3525 4100 3525 3541 
Q 3525 3141 3298 2862 
Q 3072 2584 2669 2484 
Q 3125 2378 3379 2068 
Q 3634 1759 3634 1313 
Q 3634 634 3220 271 
Q 2806 -91 2034 -91 
Q 1263 -91 848 271 
Q 434 634 434 1313 
Q 434 1759 690 2068 
Q 947 2378 1403 2484 
z
M 1172 3481 
Q 1172 3119 1398 2916 
Q 1625 2713 2034 2713 
Q 2441 2713 2670 2916 
Q 2900 3119 2900 3481 
Q 2900 3844 2670 4047 
Q 2441 4250 2034 4250 
Q 1625 4250 1398 4047 
Q 1172 3844 1172 3481 
z
" transform="scale(0.015625)"/>
       </defs>
       <use xlink:href="#DejaVuSans-30"/>
       <use xlink:href="#DejaVuSans-2e" x="63.623047"/>
       <use xlink:href="#DejaVuSans-38" x="95.410156"/>
       <use xlink:href="#DejaVuSans-30" x="159.033203"/>
      </g>
     </g>
    </g>
    <g id="ytick_2">
     <g id="line2d_11">
      <g>
       <use xlink:href="#m68469c1133" x="50.421875" y="208.073898" style="stroke: #000000; stroke-width: 0.8"/>
      </g>
     </g>
     <g id="text_12">
      <!-- 0.85 -->
      <g transform="translate(21.15625 211.873117) scale(0.1 -0.1)">
       <use xlink:href="#DejaVuSans-30"/>
       <use xlink:href="#DejaVuSans-2e" x="63.623047"/>
       <use xlink:href="#DejaVuSans-38" x="95.410156"/>
       <use xlink:href="#DejaVuSans-35" x="159.033203"/>
      </g>
     </g>
    </g>
    <g id="ytick_3">
     <g id="line2d_12">
      <g>
       <use xlink:href="#m68469c1133" x="50.421875" y="182.52168" style="stroke: #000000; stroke-width: 0.8"/>
      </g>
     </g>
     <g id="text_13">
      <!-- 0.90 -->
      <g transform="translate(21.15625 186.320899) scale(0.1 -0.1)">
       <defs>
        <path id="DejaVuSans-39" d="M 703 97 
L 703 672 
Q 941 559 1184 500 
Q 1428 441 1663 441 
Q 2288 441 2617 861 
Q 2947 1281 2994 2138 
Q 2813 1869 2534 1725 
Q 2256 1581 1919 1581 
Q 1219 1581 811 2004 
Q 403 2428 403 3163 
Q 403 3881 828 4315 
Q 1253 4750 1959 4750 
Q 2769 4750 3195 4129 
Q 3622 3509 3622 2328 
Q 3622 1225 3098 567 
Q 2575 -91 1691 -91 
Q 1453 -91 1209 -44 
Q 966 3 703 97 
z
M 1959 2075 
Q 2384 2075 2632 2365 
Q 2881 2656 2881 3163 
Q 2881 3666 2632 3958 
Q 2384 4250 1959 4250 
Q 1534 4250 1286 3958 
Q 1038 3666 1038 3163 
Q 1038 2656 1286 2365 
Q 1534 2075 1959 2075 
z
" transform="scale(0.015625)"/>
       </defs>
       <use xlink:href="#DejaVuSans-30"/>
       <use xlink:href="#DejaVuSans-2e" x="63.623047"/>
       <use xlink:href="#DejaVuSans-39" x="95.410156"/>
       <use xlink:href="#DejaVuSans-30" x="159.033203"/>
      </g>
     </g>
    </g>
    <g id="ytick_4">
     <g id="line2d_13">
      <g>
       <use xlink:href="#m68469c1133" x="50.421875" y="156.969463" style="stroke: #000000; stroke-width: 0.8"/>
      </g>
     </g>
     <g id="text_14">
      <!-- 0.95 -->
      <g transform="translate(21.15625 160.768681) scale(0.1 -0.1)">
       <use xlink:href="#DejaVuSans-30"/>
       <use xlink:href="#DejaVuSans-2e" x="63.623047"/>
       <use xlink:href="#DejaVuSans-39" x="95.410156"/>
       <use xlink:href="#DejaVuSans-35" x="159.033203"/>
      </g>
     </g>
    </g>
    <g id="ytick_5">
     <g id="line2d_14">
      <g>
       <use xlink:href="#m68469c1133" x="50.421875" y="131.417245" style="stroke: #000000; stroke-width: 0.8"/>
      </g>
     </g>
     <g id="text_15">
      <!-- 1.00 -->
      <g transform="translate(21.15625 135.216464) scale(0.1 -0.1)">
       <use xlink:href="#DejaVuSans-31"/>
       <use xlink:href="#DejaVuSans-2e" x="63.623047"/>
       <use xlink:href="#DejaVuSans-30" x="95.410156"/>
       <use xlink:href="#DejaVuSans-30" x="159.033203"/>
      </g>
     </g>
    </g>
    <g id="ytick_6">
     <g id="line2d_15">
      <g>
       <use xlink:href="#m68469c1133" x="50.421875" y="105.865027" style="stroke: #000000; stroke-width: 0.8"/>
      </g>
     </g>
     <g id="text_16">
      <!-- 1.05 -->
      <g transform="translate(21.15625 109.664246) scale(0.1 -0.1)">
       <use xlink:href="#DejaVuSans-31"/>
       <use xlink:href="#DejaVuSans-2e" x="63.623047"/>
       <use xlink:href="#DejaVuSans-30" x="95.410156"/>
       <use xlink:href="#DejaVuSans-35" x="159.033203"/>
      </g>
     </g>
    </g>
    <g id="ytick_7">
     <g id="line2d_16">
      <g>
       <use xlink:href="#m68469c1133" x="50.421875" y="80.31281" style="stroke: #000000; stroke-width: 0.8"/>
      </g>
     </g>
     <g id="text_17">
      <!-- 1.10 -->
      <g transform="translate(21.15625 84.112028) scale(0.1 -0.1)">
       <use xlink:href="#DejaVuSans-31"/>
       <use xlink:href="#DejaVuSans-2e" x="63.623047"/>
       <use xlink:href="#DejaVuSans-31" x="95.410156"/>
       <use xlink:href="#DejaVuSans-30" x="159.033203"/>
      </g>
     </g>
    </g>
    <g id="ytick_8">
     <g id="line2d_17">
      <g>
       <use xlink:href="#m68469c1133" x="50.421875" y="54.760592" style="stroke: #000000; stroke-width: 0.8"/>
      </g>
     </g>
     <g id="text_18">
      <!-- 1.15 -->
      <g transform="translate(21.15625 58.559811) scale(0.1 -0.1)">
       <use xlink:href="#DejaVuSans-31"/>
       <use xlink:href="#DejaVuSans-2e" x="63.623047"/>
       <use xlink:href="#DejaVuSans-31" x="95.410156"/>
       <use xlink:href="#DejaVuSans-35" x="159.033203"/>
      </g>
     </g>
    </g>
    <g id="ytick_9">
     <g id="line2d_18">
      <g>
       <use xlink:href="#m68469c1133" x="50.421875" y="29.208374" style="stroke: #000000; stroke-width: 0.8"/>
      </g>
     </g>
     <g id="text_19">
      <!-- 1.20 -->
      <g transform="translate(21.15625 33.007593) scale(0.1 -0.1)">
       <use xlink:href="#DejaVuSans-31"/>
       <use xlink:href="#DejaVuSans-2e" x="63.623047"/>
       <use xlink:href="#DejaVuSans-32" x="95.410156"/>
       <use xlink:href="#DejaVuSans-30" x="159.033203"/>
      </g>
     </g>
    </g>
    <g id="text_20">
     <!-- z_position[m] -->
     <g transform="translate(14.798438 166.898906) rotate(-90) scale(0.1 -0.1)">
      <defs>
       <path id="DejaVuSans-7a" d="M 353 3500 
L 3084 3500 
L 3084 2975 
L 922 459 
L 3084 459 
L 3084 0 
L 275 0 
L 275 525 
L 2438 3041 
L 353 3041 
L 353 3500 
z
" transform="scale(0.015625)"/>
       <path id="DejaVuSans-5f" d="M 3263 -1063 
L 3263 -1509 
L -63 -1509 
L -63 -1063 
L 3263 -1063 
z
" transform="scale(0.015625)"/>
       <path id="DejaVuSans-70" d="M 1159 525 
L 1159 -1331 
L 581 -1331 
L 581 3500 
L 1159 3500 
L 1159 2969 
Q 1341 3281 1617 3432 
Q 1894 3584 2278 3584 
Q 2916 3584 3314 3078 
Q 3713 2572 3713 1747 
Q 3713 922 3314 415 
Q 2916 -91 2278 -91 
Q 1894 -91 1617 61 
Q 1341 213 1159 525 
z
M 3116 1747 
Q 3116 2381 2855 2742 
Q 2594 3103 2138 3103 
Q 1681 3103 1420 2742 
Q 1159 2381 1159 1747 
Q 1159 1113 1420 752 
Q 1681 391 2138 391 
Q 2594 391 2855 752 
Q 3116 1113 3116 1747 
z
" transform="scale(0.015625)"/>
       <path id="DejaVuSans-6f" d="M 1959 3097 
Q 1497 3097 1228 2736 
Q 959 2375 959 1747 
Q 959 1119 1226 758 
Q 1494 397 1959 397 
Q 2419 397 2687 759 
Q 2956 1122 2956 1747 
Q 2956 2369 2687 2733 
Q 2419 3097 1959 3097 
z
M 1959 3584 
Q 2709 3584 3137 3096 
Q 3566 2609 3566 1747 
Q 3566 888 3137 398 
Q 2709 -91 1959 -91 
Q 1206 -91 779 398 
Q 353 888 353 1747 
Q 353 2609 779 3096 
Q 1206 3584 1959 3584 
z
" transform="scale(0.015625)"/>
       <path id="DejaVuSans-6e" d="M 3513 2113 
L 3513 0 
L 2938 0 
L 2938 2094 
Q 2938 2591 2744 2837 
Q 2550 3084 2163 3084 
Q 1697 3084 1428 2787 
Q 1159 2491 1159 1978 
L 1159 0 
L 581 0 
L 581 3500 
L 1159 3500 
L 1159 2956 
Q 1366 3272 1645 3428 
Q 1925 3584 2291 3584 
Q 2894 3584 3203 3211 
Q 3513 2838 3513 2113 
z
" transform="scale(0.015625)"/>
       <path id="DejaVuSans-5b" d="M 550 4863 
L 1875 4863 
L 1875 4416 
L 1125 4416 
L 1125 -397 
L 1875 -397 
L 1875 -844 
L 550 -844 
L 550 4863 
z
" transform="scale(0.015625)"/>
       <path id="DejaVuSans-5d" d="M 1947 4863 
L 1947 -844 
L 622 -844 
L 622 -397 
L 1369 -397 
L 1369 4416 
L 622 4416 
L 622 4863 
L 1947 4863 
z
" transform="scale(0.015625)"/>
      </defs>
      <use xlink:href="#DejaVuSans-7a"/>
      <use xlink:href="#DejaVuSans-5f" x="52.490234"/>
      <use xlink:href="#DejaVuSans-70" x="102.490234"/>
      <use xlink:href="#DejaVuSans-6f" x="165.966797"/>
      <use xlink:href="#DejaVuSans-73" x="227.148438"/>
      <use xlink:href="#DejaVuSans-69" x="279.248047"/>
      <use xlink:href="#DejaVuSans-74" x="307.03125"/>
      <use xlink:href="#DejaVuSans-69" x="346.240234"/>
      <use xlink:href="#DejaVuSans-6f" x="374.023438"/>
      <use xlink:href="#DejaVuSans-6e" x="435.205078"/>
      <use xlink:href="#DejaVuSans-5b" x="498.583984"/>
      <use xlink:href="#DejaVuSans-6d" x="537.597656"/>
      <use xlink:href="#DejaVuSans-5d" x="635.009766"/>
     </g>
    </g>
   </g>
   <g id="line2d_19">
    <path d="M 70.712784 115.999482 
L 72.772775 118.61416 
L 74.832766 122.582265 
L 76.892756 128.357963 
L 78.952747 135.811372 
L 85.132719 159.822349 
L 87.19271 166.627556 
L 89.252701 171.66431 
L 91.312692 174.57403 
L 93.372683 176.830827 
L 95.432673 179.369171 
L 97.492664 181.331261 
L 99.552655 182.593244 
L 101.612646 183.4123 
L 103.672636 184.094435 
L 105.732627 184.269797 
L 107.792618 183.544286 
L 109.852609 182.215746 
L 113.97259 178.978331 
L 116.032581 177.611502 
L 118.092572 175.989017 
L 120.152563 174.549022 
L 122.212553 172.893457 
L 126.332535 168.682764 
L 130.452516 165.312358 
L 132.512507 163.226932 
L 136.632489 158.671029 
L 138.69248 156.835929 
L 140.75247 155.912973 
L 142.812461 155.451555 
L 144.872452 155.218501 
L 146.932443 155.247165 
L 148.992433 156.371527 
L 151.052424 159.248715 
L 153.112415 162.829421 
L 157.232396 170.431782 
L 159.292387 173.655825 
L 161.352378 176.100473 
L 163.412369 177.644278 
L 167.53235 179.975185 
L 169.592341 180.815136 
L 171.652332 181.455967 
L 173.712323 181.560995 
L 175.772313 181.394101 
L 177.832304 180.672459 
L 181.952286 178.854904 
L 186.072267 176.533562 
L 188.132258 174.938187 
L 190.192249 173.122612 
L 200.492203 162.75397 
L 206.672175 157.935893 
L 208.732166 156.752376 
L 210.792156 155.974564 
L 212.852147 155.076585 
L 214.912138 153.898521 
L 216.972129 153.091528 
L 219.03212 154.249549 
L 221.09211 157.583768 
L 223.152101 162.669229 
L 225.212092 168.613283 
L 227.272083 175.025 
L 229.332073 180.724333 
L 231.392064 185.11054 
L 233.452055 188.654176 
L 235.512046 191.432337 
L 237.572037 193.410267 
L 239.632027 194.969393 
L 241.692018 195.718694 
L 243.752009 195.827073 
L 245.812 195.149233 
L 247.87199 193.714903 
L 249.931981 191.297153 
L 254.051963 184.09608 
L 256.111953 181.557614 
L 258.171944 179.668903 
L 264.351917 174.456208 
L 266.411907 172.141476 
L 268.471898 169.472181 
L 270.531889 167.962584 
L 272.59188 168.541396 
L 274.65187 169.858148 
L 280.831843 174.910498 
L 282.891833 177.446619 
L 284.951824 180.682937 
L 289.071806 187.985596 
L 291.131797 190.232219 
L 293.191787 189.994809 
L 295.251778 189.105603 
L 299.37176 188.030708 
L 301.43175 187.943621 
L 303.491741 187.448636 
L 305.551732 186.412366 
L 307.611723 184.415795 
L 309.671713 181.93097 
L 311.731704 179.826202 
L 313.791695 179.530094 
L 317.911677 179.86443 
L 319.971667 179.920325 
L 322.031658 180.31013 
L 326.15164 181.637512 
L 328.21163 182.881463 
L 330.271621 184.669044 
L 332.331612 186.692208 
L 334.391603 188.476256 
L 338.511584 191.502488 
L 342.631566 194.434535 
L 344.691557 195.510861 
L 346.751547 196.019218 
L 348.811538 195.401355 
L 350.871529 193.81987 
L 352.93152 191.379061 
L 354.99151 188.382011 
L 357.051501 186.865498 
L 363.231474 187.352259 
L 365.291464 187.361854 
L 369.411446 186.71679 
L 371.471437 186.628301 
L 373.531427 186.995565 
L 375.591418 187.561158 
L 377.651409 187.727381 
L 379.7114 187.34571 
L 381.77139 187.586105 
L 383.831381 188.856435 
L 385.891372 190.510812 
L 387.951363 192.451427 
L 390.011354 193.81122 
L 392.071344 194.592717 
L 394.131335 194.892297 
L 396.191326 195.856924 
L 398.251317 198.630028 
L 400.311307 203.189313 
L 402.371298 208.321652 
L 406.49128 219.109371 
L 410.611261 228.573363 
L 412.671252 232.11575 
L 414.731243 233.728122 
L 416.791234 233.998125 
L 418.851224 232.974466 
L 420.911215 230.925867 
L 425.031197 225.30564 
L 429.151178 219.425796 
L 431.211169 216.370139 
L 435.33115 209.361669 
L 439.451132 202.04707 
L 441.511123 198.162001 
L 443.571114 193.769245 
L 445.631104 188.534862 
L 447.691095 182.533785 
L 449.751086 175.541337 
L 451.811077 167.609576 
L 453.871067 161.536612 
L 455.931058 158.082926 
L 457.991049 156.829472 
L 460.05104 156.849363 
L 462.111031 158.119083 
L 464.171021 160.938579 
L 466.231012 165.797291 
L 468.291003 171.943695 
L 472.410984 182.687429 
L 474.470975 186.859711 
L 476.530966 189.986402 
L 476.530966 189.986402 
" clip-path="url(#p4985b5452b)" style="fill: none; stroke: #1f77b4; stroke-width: 1.5; stroke-linecap: square"/>
   </g>
   <g id="line2d_20">
    <path d="M 70.712784 115.40154 
L 81.012738 115.691647 
L 87.19271 115.671482 
L 99.552655 115.534226 
L 107.792618 115.429198 
L 122.212553 115.523687 
L 128.392526 115.443393 
L 142.812461 115.061173 
L 159.292387 115.022732 
L 161.352378 115.109484 
L 165.47236 115.764813 
L 167.53235 116.316089 
L 171.652332 117.929527 
L 175.772313 120.062014 
L 177.832304 121.328689 
L 181.952286 124.485993 
L 190.192249 131.118061 
L 192.25224 132.655164 
L 194.31223 133.693384 
L 196.372221 134.606868 
L 198.432212 135.270818 
L 202.552193 136.104098 
L 204.612184 136.245222 
L 206.672175 136.237364 
L 210.792156 135.537165 
L 212.852147 135.098685 
L 219.03212 132.860774 
L 221.09211 131.716764 
L 225.212092 128.926237 
L 227.272083 127.1449 
L 229.332073 124.697328 
L 231.392064 121.803813 
L 233.452055 118.687205 
L 237.572037 110.628422 
L 239.632027 106.26305 
L 241.692018 102.793647 
L 243.752009 99.772136 
L 247.87199 95.118302 
L 249.931981 92.626076 
L 251.991972 90.656553 
L 254.051963 88.948261 
L 260.231935 85.874602 
L 262.291926 85.267887 
L 264.351917 84.850516 
L 266.411907 84.597693 
L 268.471898 84.10618 
L 270.531889 83.137289 
L 272.59188 82.647848 
L 274.65187 82.39807 
L 276.711861 81.2586 
L 278.771852 80.634157 
L 280.831843 81.039892 
L 282.891833 80.784206 
L 284.951824 80.197778 
L 287.011815 79.31241 
L 289.071806 78.281135 
L 293.191787 75.51921 
L 297.311769 72.61077 
L 299.37176 70.824193 
L 301.43175 68.287616 
L 309.671713 56.801648 
L 311.731704 54.241007 
L 313.791695 51.059396 
L 315.851686 47.567147 
L 317.911677 44.938091 
L 319.971667 42.100441 
L 322.031658 38.845724 
L 324.091649 36.624292 
L 326.15164 34.919472 
L 328.21163 33.803334 
L 330.271621 32.893902 
L 332.331612 32.398125 
L 334.391603 32.887383 
L 336.451594 33.869251 
L 340.571575 38.837195 
L 342.631566 41.594124 
L 344.691557 45.103066 
L 346.751547 48.988013 
L 350.871529 57.493592 
L 352.93152 61.205096 
L 357.051501 67.998118 
L 363.231474 75.583056 
L 367.351455 80.02196 
L 371.471437 82.880201 
L 373.531427 84.034659 
L 375.591418 84.743721 
L 377.651409 85.230116 
L 381.77139 84.772293 
L 383.831381 84.438749 
L 385.891372 83.766057 
L 390.011354 82.012439 
L 392.071344 81.020276 
L 394.131335 79.866184 
L 396.191326 78.346077 
L 400.311307 75.007228 
L 402.371298 73.535006 
L 406.49128 71.362006 
L 408.55127 70.393054 
L 412.671252 68.829145 
L 420.911215 66.477403 
L 425.031197 65.606473 
L 435.33115 64.141134 
L 445.631104 62.980646 
L 449.751086 62.538296 
L 457.991049 61.989823 
L 468.291003 61.399374 
L 474.470975 61.523836 
L 476.530966 61.607237 
L 476.530966 61.607237 
" clip-path="url(#p4985b5452b)" style="fill: none; stroke: #ff7f0e; stroke-width: 1.5; stroke-linecap: square"/>
   </g>
   <g id="patch_3">
    <path d="M 50.421875 244.078125 
L 50.421875 22.318125 
" style="fill: none; stroke: #000000; stroke-width: 0.8; stroke-linejoin: miter; stroke-linecap: square"/>
   </g>
   <g id="patch_4">
    <path d="M 496.821875 244.078125 
L 496.821875 22.318125 
" style="fill: none; stroke: #000000; stroke-width: 0.8; stroke-linejoin: miter; stroke-linecap: square"/>
   </g>
   <g id="patch_5">
    <path d="M 50.421875 244.078125 
L 496.821875 244.078125 
" style="fill: none; stroke: #000000; stroke-width: 0.8; stroke-linejoin: miter; stroke-linecap: square"/>
   </g>
   <g id="patch_6">
    <path d="M 50.421875 22.318125 
L 496.821875 22.318125 
" style="fill: none; stroke: #000000; stroke-width: 0.8; stroke-linejoin: miter; stroke-linecap: square"/>
   </g>
   <g id="text_21">
    <!-- z_position -->
    <g transform="translate(243.707187 16.318125) scale(0.12 -0.12)">
     <use xlink:href="#DejaVuSans-7a"/>
     <use xlink:href="#DejaVuSans-5f" x="52.490234"/>
     <use xlink:href="#DejaVuSans-70" x="102.490234"/>
     <use xlink:href="#DejaVuSans-6f" x="165.966797"/>
     <use xlink:href="#DejaVuSans-73" x="227.148438"/>
     <use xlink:href="#DejaVuSans-69" x="279.248047"/>
     <use xlink:href="#DejaVuSans-74" x="307.03125"/>
     <use xlink:href="#DejaVuSans-69" x="346.240234"/>
     <use xlink:href="#DejaVuSans-6f" x="374.023438"/>
     <use xlink:href="#DejaVuSans-6e" x="435.205078"/>
    </g>
   </g>
   <g id="legend_1">
    <g id="patch_7">
     <path d="M 389.404687 60.230625 
L 489.821875 60.230625 
Q 491.821875 60.230625 491.821875 58.230625 
L 491.821875 29.318125 
Q 491.821875 27.318125 489.821875 27.318125 
L 389.404687 27.318125 
Q 387.404687 27.318125 387.404687 29.318125 
L 387.404687 58.230625 
Q 387.404687 60.230625 389.404687 60.230625 
z
" style="fill: #ffffff; opacity: 0.8; stroke: #cccccc; stroke-linejoin: miter"/>
    </g>
    <g id="line2d_21">
     <path d="M 391.404687 35.416562 
L 401.404687 35.416562 
L 411.404687 35.416562 
" style="fill: none; stroke: #1f77b4; stroke-width: 1.5; stroke-linecap: square"/>
    </g>
    <g id="text_22">
     <!-- z_position -->
     <g transform="translate(419.404687 38.916562) scale(0.1 -0.1)">
      <use xlink:href="#DejaVuSans-7a"/>
      <use xlink:href="#DejaVuSans-5f" x="52.490234"/>
      <use xlink:href="#DejaVuSans-70" x="102.490234"/>
      <use xlink:href="#DejaVuSans-6f" x="165.966797"/>
      <use xlink:href="#DejaVuSans-73" x="227.148438"/>
      <use xlink:href="#DejaVuSans-69" x="279.248047"/>
      <use xlink:href="#DejaVuSans-74" x="307.03125"/>
      <use xlink:href="#DejaVuSans-69" x="346.240234"/>
      <use xlink:href="#DejaVuSans-6f" x="374.023438"/>
      <use xlink:href="#DejaVuSans-6e" x="435.205078"/>
     </g>
    </g>
    <g id="line2d_22">
     <path d="M 391.404687 50.372812 
L 401.404687 50.372812 
L 411.404687 50.372812 
" style="fill: none; stroke: #ff7f0e; stroke-width: 1.5; stroke-linecap: square"/>
    </g>
    <g id="text_23">
     <!-- z_position_ref -->
     <g transform="translate(419.404687 53.872812) scale(0.1 -0.1)">
      <defs>
       <path id="DejaVuSans-72" d="M 2631 2963 
Q 2534 3019 2420 3045 
Q 2306 3072 2169 3072 
Q 1681 3072 1420 2755 
Q 1159 2438 1159 1844 
L 1159 0 
L 581 0 
L 581 3500 
L 1159 3500 
L 1159 2956 
Q 1341 3275 1631 3429 
Q 1922 3584 2338 3584 
Q 2397 3584 2469 3576 
Q 2541 3569 2628 3553 
L 2631 2963 
z
" transform="scale(0.015625)"/>
       <path id="DejaVuSans-66" d="M 2375 4863 
L 2375 4384 
L 1825 4384 
Q 1516 4384 1395 4259 
Q 1275 4134 1275 3809 
L 1275 3500 
L 2222 3500 
L 2222 3053 
L 1275 3053 
L 1275 0 
L 697 0 
L 697 3053 
L 147 3053 
L 147 3500 
L 697 3500 
L 697 3744 
Q 697 4328 969 4595 
Q 1241 4863 1831 4863 
L 2375 4863 
z
" transform="scale(0.015625)"/>
      </defs>
      <use xlink:href="#DejaVuSans-7a"/>
      <use xlink:href="#DejaVuSans-5f" x="52.490234"/>
      <use xlink:href="#DejaVuSans-70" x="102.490234"/>
      <use xlink:href="#DejaVuSans-6f" x="165.966797"/>
      <use xlink:href="#DejaVuSans-73" x="227.148438"/>
      <use xlink:href="#DejaVuSans-69" x="279.248047"/>
      <use xlink:href="#DejaVuSans-74" x="307.03125"/>
      <use xlink:href="#DejaVuSans-69" x="346.240234"/>
      <use xlink:href="#DejaVuSans-6f" x="374.023438"/>
      <use xlink:href="#DejaVuSans-6e" x="435.205078"/>
      <use xlink:href="#DejaVuSans-5f" x="498.583984"/>
      <use xlink:href="#DejaVuSans-72" x="548.583984"/>
      <use xlink:href="#DejaVuSans-65" x="587.447266"/>
      <use xlink:href="#DejaVuSans-66" x="648.970703"/>
     </g>
    </g>
   </g>
  </g>
 </g>
 <defs>
  <clipPath id="p4985b5452b">
   <rect x="50.421875" y="22.318125" width="446.4" height="221.76"/>
  </clipPath>
 </defs>
</svg>
